%TF.GenerationSoftware,KiCad,Pcbnew,10.0.1*%
%TF.CreationDate,2026-04-26T00:56:36+02:00*%
%TF.ProjectId,rakija,72616b69-6a61-42e6-9b69-6361645f7063,rev?*%
%TF.SameCoordinates,Original*%
%TF.FileFunction,Copper,L1,Top*%
%TF.FilePolarity,Positive*%
%FSLAX46Y46*%
G04 Gerber Fmt 4.6, Leading zero omitted, Abs format (unit mm)*
G04 Created by KiCad (PCBNEW 10.0.1) date 2026-04-26 00:56:36*
%MOMM*%
%LPD*%
G01*
G04 APERTURE LIST*
%TA.AperFunction,NonConductor*%
%ADD10C,0.000000*%
%TD*%
%TA.AperFunction,Conductor*%
%ADD11C,0.000000*%
%TD*%
%TA.AperFunction,ViaPad*%
%ADD12C,0.600000*%
%TD*%
G04 APERTURE END LIST*
D10*
%TA.AperFunction,NonConductor*%
G36*
X133350330Y-99809367D02*
G01*
X133350312Y-99809297D01*
X133350320Y-99809282D01*
X133350330Y-99809367D01*
G37*
%TD.AperFunction*%
D11*
%TA.AperFunction,Conductor*%
%TO.N,GND*%
G36*
X133738539Y-82332945D02*
G01*
X133737520Y-82332650D01*
X133737300Y-82332582D01*
X133738539Y-82332945D01*
G37*
%TD.AperFunction*%
D10*
%TA.AperFunction,NonConductor*%
G36*
X135183137Y-78855586D02*
G01*
X135182908Y-78855638D01*
X135182908Y-78855578D01*
X135183137Y-78855586D01*
G37*
%TD.AperFunction*%
%TA.AperFunction,NonConductor*%
G36*
X144621239Y-68375093D02*
G01*
X144621041Y-68375099D01*
X144621315Y-68375087D01*
X144621239Y-68375093D01*
G37*
%TD.AperFunction*%
%TA.AperFunction,NonConductor*%
G36*
X148179046Y-103916999D02*
G01*
X148178887Y-103917094D01*
X148179046Y-103916984D01*
X148179046Y-103916999D01*
G37*
%TD.AperFunction*%
%TA.AperFunction,NonConductor*%
G36*
X148989935Y-74161300D02*
G01*
X148989929Y-74161296D01*
X148990051Y-74161296D01*
X148989935Y-74161300D01*
G37*
%TD.AperFunction*%
D11*
%TA.AperFunction,Conductor*%
G36*
X133737300Y-82332582D02*
G01*
X133717334Y-82326744D01*
X133535165Y-82270884D01*
X133535211Y-82270861D01*
X133737300Y-82332582D01*
G37*
%TD.AperFunction*%
D10*
%TA.AperFunction,NonConductor*%
G36*
X131527536Y-84013452D02*
G01*
X131527536Y-84014413D01*
X131527500Y-84014416D01*
X131527017Y-84013933D01*
X131527536Y-84013414D01*
X131527536Y-84013452D01*
G37*
%TD.AperFunction*%
%TA.AperFunction,NonConductor*%
G36*
X131527618Y-84015274D02*
G01*
X131527108Y-84014444D01*
X131527500Y-84014416D01*
X131527536Y-84014452D01*
X131527536Y-84014413D01*
X131527618Y-84015274D01*
G37*
%TD.AperFunction*%
%TA.AperFunction,NonConductor*%
G36*
X148143951Y-103945472D02*
G01*
X148143751Y-103945654D01*
X148143531Y-103945842D01*
X148143041Y-103946232D01*
X148142505Y-103946634D01*
X148142450Y-103946674D01*
X148142972Y-103946164D01*
X148143752Y-103945442D01*
X148143951Y-103945472D01*
G37*
%TD.AperFunction*%
%TA.AperFunction,NonConductor*%
G36*
X148144766Y-103944988D02*
G01*
X148144624Y-103945087D01*
X148144472Y-103945184D01*
X148144310Y-103945281D01*
X148144136Y-103945377D01*
X148143951Y-103945472D01*
X148144040Y-103945393D01*
X148144132Y-103945319D01*
X148144226Y-103945252D01*
X148144323Y-103945188D01*
X148144424Y-103945129D01*
X148144530Y-103945072D01*
X148144640Y-103945018D01*
X148144756Y-103944964D01*
X148144860Y-103944918D01*
X148144766Y-103944988D01*
G37*
%TD.AperFunction*%
%TA.AperFunction,NonConductor*%
G36*
X148145950Y-103944473D02*
G01*
X148145598Y-103944618D01*
X148145285Y-103944744D01*
X148145006Y-103944857D01*
X148144878Y-103944911D01*
X148144860Y-103944918D01*
X148144900Y-103944889D01*
X148145026Y-103944789D01*
X148145145Y-103944688D01*
X148145258Y-103944587D01*
X148145365Y-103944486D01*
X148145469Y-103944384D01*
X148145569Y-103944281D01*
X148145761Y-103944076D01*
X148145950Y-103943870D01*
X148145950Y-103944473D01*
G37*
%TD.AperFunction*%
%TA.AperFunction,NonConductor*%
G36*
X148126060Y-103965109D02*
G01*
X148125769Y-103965625D01*
X148125445Y-103966145D01*
X148125091Y-103966666D01*
X148124712Y-103967189D01*
X148124314Y-103967713D01*
X148123899Y-103968238D01*
X148123039Y-103969288D01*
X148122167Y-103970332D01*
X148121319Y-103971367D01*
X148120914Y-103971880D01*
X148120529Y-103972389D01*
X148121104Y-103971495D01*
X148121700Y-103970611D01*
X148122317Y-103969738D01*
X148122952Y-103968874D01*
X148124271Y-103967171D01*
X148125644Y-103965496D01*
X148126178Y-103964871D01*
X148126060Y-103965109D01*
G37*
%TD.AperFunction*%
%TA.AperFunction,NonConductor*%
G36*
X148121006Y-103972599D02*
G01*
X148120940Y-103972732D01*
X148120879Y-103972866D01*
X148120764Y-103973135D01*
X148120656Y-103973404D01*
X148120548Y-103973671D01*
X148120491Y-103973803D01*
X148120431Y-103973933D01*
X148120368Y-103974061D01*
X148120300Y-103974188D01*
X148120227Y-103974312D01*
X148120147Y-103974433D01*
X148120239Y-103974171D01*
X148120343Y-103973907D01*
X148120458Y-103973642D01*
X148120582Y-103973376D01*
X148120715Y-103973111D01*
X148120855Y-103972849D01*
X148121002Y-103972590D01*
X148121006Y-103972599D01*
G37*
%TD.AperFunction*%
%TA.AperFunction,NonConductor*%
G36*
X148131423Y-103958946D02*
G01*
X148128502Y-103962203D01*
X148127059Y-103963842D01*
X148126178Y-103964871D01*
X148126314Y-103964597D01*
X148126525Y-103964088D01*
X148126773Y-103963591D01*
X148126845Y-103963451D01*
X148126916Y-103963317D01*
X148126983Y-103963194D01*
X148127044Y-103963089D01*
X148127244Y-103962806D01*
X148127466Y-103962521D01*
X148127709Y-103962234D01*
X148127970Y-103961945D01*
X148128248Y-103961655D01*
X148128543Y-103961363D01*
X148129175Y-103960776D01*
X148129852Y-103960184D01*
X148130565Y-103959588D01*
X148132049Y-103958389D01*
X148131423Y-103958946D01*
G37*
%TD.AperFunction*%
%TA.AperFunction,NonConductor*%
G36*
X148174498Y-103920142D02*
G01*
X148170132Y-103923331D01*
X148165924Y-103926554D01*
X148161851Y-103929817D01*
X148157891Y-103933122D01*
X148154020Y-103936474D01*
X148150215Y-103939877D01*
X148146453Y-103943336D01*
X148151590Y-103938342D01*
X148154201Y-103935866D01*
X148156856Y-103933405D01*
X148159567Y-103930958D01*
X148162345Y-103928525D01*
X148165202Y-103926105D01*
X148168151Y-103923698D01*
X148168541Y-103923304D01*
X148168999Y-103922910D01*
X148169517Y-103922515D01*
X148170090Y-103922118D01*
X148170711Y-103921719D01*
X148171376Y-103921316D01*
X148172809Y-103920500D01*
X148175923Y-103918807D01*
X148177508Y-103917920D01*
X148178887Y-103917094D01*
X148174498Y-103920142D01*
G37*
%TD.AperFunction*%
%TA.AperFunction,NonConductor*%
G36*
X148142238Y-103946881D02*
G01*
X148141547Y-103947593D01*
X148140890Y-103948302D01*
X148140262Y-103949007D01*
X148139657Y-103949710D01*
X148138488Y-103951114D01*
X148137334Y-103952519D01*
X148136144Y-103953933D01*
X148135519Y-103954644D01*
X148134867Y-103955360D01*
X148134180Y-103956082D01*
X148133453Y-103956810D01*
X148133828Y-103956275D01*
X148134202Y-103955758D01*
X148134577Y-103955257D01*
X148134952Y-103954770D01*
X148135701Y-103953836D01*
X148136451Y-103952945D01*
X148137201Y-103952087D01*
X148137950Y-103951252D01*
X148139449Y-103949607D01*
X148139953Y-103949089D01*
X148139953Y-103948570D01*
X148140150Y-103948397D01*
X148140368Y-103948217D01*
X148140854Y-103947840D01*
X148141388Y-103947446D01*
X148141946Y-103947041D01*
X148142450Y-103946674D01*
X148142238Y-103946881D01*
G37*
%TD.AperFunction*%
%TA.AperFunction,NonConductor*%
G36*
X131324194Y-81110233D02*
G01*
X131374316Y-81167191D01*
X131429301Y-81223723D01*
X131489099Y-81279821D01*
X131553659Y-81335476D01*
X131622930Y-81390678D01*
X131696862Y-81445420D01*
X131775404Y-81499691D01*
X131858506Y-81553482D01*
X131946118Y-81606786D01*
X132038188Y-81659593D01*
X132134667Y-81711894D01*
X132235503Y-81763679D01*
X132340647Y-81814941D01*
X132450047Y-81865671D01*
X132563653Y-81915858D01*
X132537466Y-81917824D01*
X132511886Y-81920176D01*
X132486913Y-81922901D01*
X132462548Y-81925986D01*
X132438793Y-81929420D01*
X132415648Y-81933190D01*
X132393114Y-81937283D01*
X132371191Y-81941688D01*
X132349882Y-81946392D01*
X132329186Y-81951383D01*
X132309104Y-81956648D01*
X132289638Y-81962175D01*
X132270787Y-81967952D01*
X132252554Y-81973967D01*
X132234939Y-81980206D01*
X132217942Y-81986659D01*
X132188080Y-81999152D01*
X132160101Y-82012438D01*
X132133778Y-82026622D01*
X132108880Y-82041805D01*
X132085178Y-82058092D01*
X132062441Y-82075585D01*
X132040439Y-82094389D01*
X132018943Y-82114605D01*
X131997723Y-82136339D01*
X131976549Y-82159692D01*
X131955191Y-82184768D01*
X131933420Y-82211670D01*
X131887717Y-82271367D01*
X131837602Y-82339610D01*
X131787975Y-82408422D01*
X131735008Y-82483959D01*
X131680363Y-82565384D01*
X131625705Y-82651861D01*
X131572697Y-82742553D01*
X131547331Y-82789218D01*
X131523002Y-82836624D01*
X131499918Y-82884665D01*
X131478285Y-82933238D01*
X131458313Y-82982237D01*
X131440210Y-83031558D01*
X131357013Y-82042398D01*
X131278978Y-81052866D01*
X131278985Y-81052859D01*
X131324194Y-81110233D01*
G37*
%TD.AperFunction*%
%TA.AperFunction,NonConductor*%
G36*
X156108733Y-113120140D02*
G01*
X156097650Y-113335140D01*
X156087539Y-113553710D01*
X156054885Y-114337706D01*
X156027038Y-115123642D01*
X156004015Y-115175446D01*
X155980819Y-115226006D01*
X155957496Y-115275214D01*
X155934087Y-115322965D01*
X155910638Y-115369152D01*
X155887192Y-115413668D01*
X155863793Y-115456406D01*
X155840484Y-115497261D01*
X155813519Y-115542204D01*
X155786707Y-115584573D01*
X155760070Y-115624489D01*
X155733631Y-115662072D01*
X155707411Y-115697447D01*
X155681434Y-115730733D01*
X155655720Y-115762054D01*
X155630294Y-115791531D01*
X155605176Y-115819285D01*
X155580390Y-115845440D01*
X155531900Y-115893434D01*
X155485004Y-115936490D01*
X155439878Y-115975582D01*
X155355654Y-116045771D01*
X155316912Y-116078819D01*
X155280655Y-116111802D01*
X155247062Y-116145695D01*
X155231320Y-116163287D01*
X155216311Y-116181472D01*
X155202056Y-116200372D01*
X155188579Y-116220109D01*
X155175902Y-116240805D01*
X155164047Y-116262580D01*
X155159021Y-116272710D01*
X155154206Y-116283071D01*
X155149576Y-116293658D01*
X155145107Y-116304470D01*
X155140773Y-116315501D01*
X155136551Y-116326750D01*
X155132415Y-116338212D01*
X155128341Y-116349884D01*
X155134338Y-115738540D01*
X155143450Y-115185249D01*
X155159751Y-114608315D01*
X155184922Y-114016299D01*
X155220641Y-113417762D01*
X155231536Y-113265831D01*
X155588973Y-113194562D01*
X155679779Y-113177656D01*
X155770047Y-113161860D01*
X155859217Y-113147548D01*
X155946731Y-113135093D01*
X155967611Y-113132235D01*
X155988390Y-113129658D01*
X156009032Y-113127361D01*
X156029504Y-113125345D01*
X156049771Y-113123610D01*
X156069797Y-113122156D01*
X156089549Y-113120984D01*
X156108993Y-113120094D01*
X156108733Y-113120140D01*
G37*
%TD.AperFunction*%
%TA.AperFunction,NonConductor*%
G36*
X154293777Y-117715111D02*
G01*
X154296447Y-117715164D01*
X154304827Y-117715768D01*
X154313226Y-117716963D01*
X154321626Y-117718779D01*
X154330013Y-117721248D01*
X154338368Y-117724399D01*
X154346676Y-117728263D01*
X154354921Y-117732872D01*
X154363086Y-117738254D01*
X154371155Y-117744442D01*
X154379111Y-117751465D01*
X154386938Y-117759354D01*
X154394620Y-117768141D01*
X154402141Y-117777854D01*
X154409483Y-117788526D01*
X154416631Y-117800186D01*
X154423568Y-117812866D01*
X154429003Y-117823850D01*
X154434281Y-117835488D01*
X154439400Y-117847748D01*
X154444356Y-117860599D01*
X154453771Y-117887939D01*
X154462507Y-117917250D01*
X154470544Y-117948273D01*
X154477862Y-117980749D01*
X154484443Y-118014420D01*
X154490264Y-118049026D01*
X154446516Y-118004260D01*
X154401589Y-117959400D01*
X154356510Y-117916071D01*
X154334233Y-117895488D01*
X154312303Y-117875898D01*
X154290847Y-117857503D01*
X154269994Y-117840506D01*
X154249871Y-117825112D01*
X154230607Y-117811522D01*
X154212330Y-117799940D01*
X154195168Y-117790569D01*
X154187046Y-117786776D01*
X154179250Y-117783613D01*
X154171797Y-117781103D01*
X154164703Y-117779273D01*
X154172784Y-117771830D01*
X154180632Y-117764905D01*
X154188265Y-117758485D01*
X154195706Y-117752560D01*
X154202973Y-117747116D01*
X154210088Y-117742143D01*
X154217071Y-117737629D01*
X154223943Y-117733561D01*
X154230724Y-117729928D01*
X154237434Y-117726718D01*
X154244094Y-117723919D01*
X154250724Y-117721519D01*
X154257346Y-117719507D01*
X154263978Y-117717870D01*
X154270642Y-117716596D01*
X154277358Y-117715675D01*
X154280029Y-117715471D01*
X154282232Y-117715322D01*
X154283246Y-117715266D01*
X154284248Y-117715222D01*
X154285275Y-117715188D01*
X154286361Y-117715164D01*
X154287444Y-117715164D01*
X154289557Y-117715126D01*
X154291574Y-117715104D01*
X154293777Y-117715111D01*
G37*
%TD.AperFunction*%
D11*
%TA.AperFunction,Conductor*%
G36*
X133946768Y-82393246D02*
G01*
X134162816Y-82452622D01*
X134385528Y-82510751D01*
X134614766Y-82567607D01*
X134850394Y-82623163D01*
X135092275Y-82677391D01*
X135340272Y-82730265D01*
X135504601Y-86078897D01*
X135653678Y-88899108D01*
X135849801Y-92289888D01*
X136091407Y-96055166D01*
X136324189Y-99282228D01*
X136373314Y-99881705D01*
X136418006Y-100390843D01*
X136458641Y-100821189D01*
X136495593Y-101184292D01*
X136559953Y-101754959D01*
X136614091Y-102195228D01*
X136697300Y-102881550D01*
X136736710Y-103187114D01*
X136778420Y-103473190D01*
X136733422Y-103485588D01*
X136699610Y-103260793D01*
X136679874Y-103140706D01*
X136653541Y-102993338D01*
X136619565Y-102817827D01*
X136576905Y-102613311D01*
X136494799Y-102249136D01*
X136395041Y-101827931D01*
X136157296Y-100836677D01*
X135891525Y-99696017D01*
X135619866Y-98511240D01*
X135489420Y-97934841D01*
X135428452Y-97650151D01*
X135371853Y-97365990D01*
X135320772Y-97081003D01*
X135276360Y-96793831D01*
X135239765Y-96503117D01*
X135212136Y-96207506D01*
X135133538Y-93558572D01*
X135104362Y-93181114D01*
X135066544Y-92790610D01*
X134972216Y-91966045D01*
X134865014Y-91076040D01*
X134759400Y-90111757D01*
X134667514Y-89073554D01*
X134591965Y-87998417D01*
X134532957Y-86932469D01*
X134490693Y-85921831D01*
X134463912Y-85007767D01*
X134445740Y-84212066D01*
X134427943Y-83551652D01*
X134416614Y-83277468D01*
X134402291Y-83043452D01*
X134394121Y-82946469D01*
X134384875Y-82858558D01*
X134379795Y-82817818D01*
X134374383Y-82779125D01*
X134368619Y-82742404D01*
X134362480Y-82707580D01*
X134355947Y-82674581D01*
X134348997Y-82643331D01*
X134341611Y-82613758D01*
X134333767Y-82585786D01*
X134325445Y-82559343D01*
X134316622Y-82534355D01*
X134307279Y-82510746D01*
X134297395Y-82488444D01*
X134098566Y-82435592D01*
X133905173Y-82381670D01*
X133738539Y-82332945D01*
X133946768Y-82393246D01*
G37*
%TD.AperFunction*%
D10*
%TA.AperFunction,NonConductor*%
G36*
X149011201Y-74174138D02*
G01*
X149031066Y-74188104D01*
X149049576Y-74203211D01*
X149066780Y-74219474D01*
X149082730Y-74236909D01*
X149097476Y-74255532D01*
X149111070Y-74275359D01*
X149123561Y-74296407D01*
X149135002Y-74318690D01*
X149145442Y-74342226D01*
X149154933Y-74367030D01*
X149163525Y-74393118D01*
X149171270Y-74420506D01*
X149178218Y-74449210D01*
X149184419Y-74479246D01*
X149189925Y-74510631D01*
X149202174Y-74607387D01*
X149210010Y-74715622D01*
X149214165Y-74835799D01*
X149215375Y-74968379D01*
X149211892Y-75272605D01*
X149205428Y-75632007D01*
X149192697Y-76473385D01*
X149186544Y-76683301D01*
X149177913Y-76883096D01*
X149166158Y-77067795D01*
X149150634Y-77232424D01*
X149145026Y-77277974D01*
X149139007Y-77321240D01*
X149132580Y-77362282D01*
X149125747Y-77401163D01*
X149118513Y-77437946D01*
X149110878Y-77472692D01*
X149102846Y-77505463D01*
X149094421Y-77536322D01*
X149085604Y-77565331D01*
X149076399Y-77592551D01*
X149066808Y-77618045D01*
X149056834Y-77641875D01*
X149046480Y-77664103D01*
X149035750Y-77684792D01*
X149024644Y-77704002D01*
X149013168Y-77721797D01*
X148426809Y-77686501D01*
X147830825Y-77656687D01*
X147827296Y-77589411D01*
X147824350Y-77506529D01*
X147817428Y-77287203D01*
X147754424Y-75051684D01*
X147749644Y-74843517D01*
X147748489Y-74754427D01*
X147748527Y-74674505D01*
X147750034Y-74603130D01*
X147751424Y-74570455D01*
X147753285Y-74539684D01*
X147755651Y-74510739D01*
X147758557Y-74483543D01*
X147762037Y-74458020D01*
X147766126Y-74434090D01*
X147770858Y-74411676D01*
X147776269Y-74390702D01*
X147782391Y-74371088D01*
X147789260Y-74352759D01*
X147796911Y-74335636D01*
X147805378Y-74319641D01*
X147814696Y-74304698D01*
X147824898Y-74290728D01*
X147836020Y-74277654D01*
X147848096Y-74265398D01*
X147861160Y-74253883D01*
X147875248Y-74243032D01*
X147890393Y-74232766D01*
X147906630Y-74223008D01*
X147923994Y-74213681D01*
X147942519Y-74204707D01*
X147946734Y-74202770D01*
X147951040Y-74200851D01*
X147959886Y-74197065D01*
X147968975Y-74193353D01*
X147978225Y-74189715D01*
X148484189Y-74177317D01*
X148989935Y-74161300D01*
X149011201Y-74174138D01*
G37*
%TD.AperFunction*%
%TA.AperFunction,NonConductor*%
G36*
X147966243Y-118390535D02*
G01*
X148004482Y-118429690D01*
X148043422Y-118468196D01*
X148083050Y-118506009D01*
X148123352Y-118543083D01*
X148164317Y-118579374D01*
X148205930Y-118614837D01*
X148248179Y-118649428D01*
X148291051Y-118683103D01*
X148334532Y-118715815D01*
X148378609Y-118747522D01*
X148423270Y-118778178D01*
X148468501Y-118807738D01*
X148514290Y-118836159D01*
X148560623Y-118863395D01*
X148671165Y-118922463D01*
X148783921Y-118975028D01*
X148898128Y-119021343D01*
X149013024Y-119061659D01*
X149127848Y-119096225D01*
X149241838Y-119125294D01*
X149354233Y-119149116D01*
X149464269Y-119167942D01*
X149571186Y-119182022D01*
X149674222Y-119191609D01*
X149772615Y-119196953D01*
X149865603Y-119198304D01*
X149952425Y-119195915D01*
X150032318Y-119190035D01*
X150104522Y-119180915D01*
X150168273Y-119168808D01*
X150184423Y-119164915D01*
X150199890Y-119160812D01*
X150214675Y-119156504D01*
X150228776Y-119151998D01*
X150242195Y-119147299D01*
X150254930Y-119142415D01*
X150266982Y-119137349D01*
X150278350Y-119132110D01*
X150257578Y-119144748D01*
X150236466Y-119157133D01*
X150215005Y-119169229D01*
X150193185Y-119181001D01*
X150170997Y-119192412D01*
X150148430Y-119203425D01*
X150125477Y-119214004D01*
X150102126Y-119224113D01*
X150056704Y-119241908D01*
X150009892Y-119257829D01*
X149961725Y-119271820D01*
X149912240Y-119283823D01*
X149861473Y-119293780D01*
X149809461Y-119301636D01*
X149756240Y-119307333D01*
X149701845Y-119310813D01*
X149646312Y-119312020D01*
X149589680Y-119310897D01*
X149531982Y-119307385D01*
X149473256Y-119301429D01*
X149413537Y-119292971D01*
X149352863Y-119281954D01*
X149291268Y-119268320D01*
X149228790Y-119252014D01*
X149165498Y-119232999D01*
X149101595Y-119211437D01*
X149037317Y-119187520D01*
X148972900Y-119161441D01*
X148908579Y-119133390D01*
X148844591Y-119103561D01*
X148781171Y-119072145D01*
X148718555Y-119039335D01*
X148656978Y-119005323D01*
X148596677Y-118970300D01*
X148537887Y-118934460D01*
X148480844Y-118897994D01*
X148425783Y-118861095D01*
X148372941Y-118823954D01*
X148322554Y-118786764D01*
X148274856Y-118749717D01*
X148237309Y-118719082D01*
X148201747Y-118688705D01*
X148168135Y-118658622D01*
X148136436Y-118628870D01*
X148106612Y-118599482D01*
X148078629Y-118570496D01*
X148052448Y-118541945D01*
X148028034Y-118513866D01*
X148005349Y-118486294D01*
X147984358Y-118459265D01*
X147965023Y-118432814D01*
X147947309Y-118406976D01*
X147931178Y-118381787D01*
X147916594Y-118357283D01*
X147903521Y-118333499D01*
X147891921Y-118310470D01*
X147891921Y-118310455D01*
X147966243Y-118390535D01*
G37*
%TD.AperFunction*%
%TA.AperFunction,NonConductor*%
G36*
X146554458Y-110822100D02*
G01*
X146557073Y-110822501D01*
X146559727Y-110823151D01*
X146565166Y-110825192D01*
X146570803Y-110828206D01*
X146576667Y-110832175D01*
X146582784Y-110837081D01*
X146589183Y-110842905D01*
X146595892Y-110849630D01*
X146602938Y-110857237D01*
X146610350Y-110865709D01*
X146626380Y-110885173D01*
X146644205Y-110907877D01*
X146664048Y-110933677D01*
X146717280Y-111004610D01*
X146779021Y-111095617D01*
X146812007Y-111150051D01*
X146845828Y-111211186D01*
X146880055Y-111279583D01*
X146914257Y-111355803D01*
X146948004Y-111440406D01*
X146980865Y-111533953D01*
X147012410Y-111637005D01*
X147042208Y-111750123D01*
X147069830Y-111873868D01*
X147094844Y-112008800D01*
X147116821Y-112155479D01*
X147135330Y-112314468D01*
X147161189Y-112668781D01*
X147173848Y-113062136D01*
X147175715Y-113482125D01*
X147169196Y-113916342D01*
X147140638Y-114777831D01*
X147107436Y-115547348D01*
X147097787Y-115790536D01*
X147091033Y-116010408D01*
X147088075Y-116209893D01*
X147089815Y-116391923D01*
X147092727Y-116477309D01*
X147097150Y-116559429D01*
X147103199Y-116638651D01*
X147110983Y-116715340D01*
X147120618Y-116789864D01*
X147132214Y-116862588D01*
X147145885Y-116933880D01*
X147161743Y-117004104D01*
X147062717Y-116979357D01*
X146962554Y-116955726D01*
X146861435Y-116933346D01*
X146759540Y-116912352D01*
X146657052Y-116892880D01*
X146554152Y-116875065D01*
X146451021Y-116859043D01*
X146347840Y-116844947D01*
X146241763Y-116832513D01*
X146135952Y-116822153D01*
X146030514Y-116813785D01*
X145925560Y-116807326D01*
X145821198Y-116802695D01*
X145717538Y-116799810D01*
X145614687Y-116798589D01*
X145512757Y-116798950D01*
X145528391Y-116601207D01*
X145541308Y-116398846D01*
X145551825Y-116193059D01*
X145560257Y-115985038D01*
X145576174Y-115431297D01*
X145582933Y-115273544D01*
X145592227Y-115103242D01*
X145604766Y-114917980D01*
X145621262Y-114715347D01*
X145642340Y-114493931D01*
X145668228Y-114256220D01*
X145699055Y-114005653D01*
X145734951Y-113745668D01*
X145776048Y-113479704D01*
X145822475Y-113211200D01*
X145874362Y-112943595D01*
X145931839Y-112680328D01*
X145994668Y-112424684D01*
X146061200Y-112179410D01*
X146129423Y-111947115D01*
X146197319Y-111730407D01*
X146262876Y-111531897D01*
X146324077Y-111354194D01*
X146425354Y-111071647D01*
X146447183Y-111011846D01*
X146466189Y-110960857D01*
X146474792Y-110938566D01*
X146482879Y-110918359D01*
X146490515Y-110900194D01*
X146497763Y-110884032D01*
X146504686Y-110869833D01*
X146508045Y-110863457D01*
X146511347Y-110857557D01*
X146514599Y-110852127D01*
X146517810Y-110847164D01*
X146520988Y-110842661D01*
X146524139Y-110838614D01*
X146527273Y-110835017D01*
X146530397Y-110831867D01*
X146533519Y-110829157D01*
X146536647Y-110826883D01*
X146539789Y-110825039D01*
X146542953Y-110823622D01*
X146546146Y-110822625D01*
X146549378Y-110822044D01*
X146549332Y-110822059D01*
X146551879Y-110821953D01*
X146554458Y-110822100D01*
G37*
%TD.AperFunction*%
%TA.AperFunction,NonConductor*%
G36*
X136939652Y-68028343D02*
G01*
X136940716Y-68037303D01*
X136941202Y-68046427D01*
X136941115Y-68055708D01*
X136940464Y-68065142D01*
X136939253Y-68074723D01*
X136937491Y-68084447D01*
X136932336Y-68104299D01*
X136925053Y-68124656D01*
X136915693Y-68145477D01*
X136904309Y-68166719D01*
X136890955Y-68188341D01*
X136875683Y-68210299D01*
X136858546Y-68232553D01*
X136839596Y-68255060D01*
X136818887Y-68277778D01*
X136796472Y-68300666D01*
X136772403Y-68323680D01*
X136746732Y-68346780D01*
X136719514Y-68369922D01*
X136675167Y-68405227D01*
X136627567Y-68440612D01*
X136523520Y-68511948D01*
X136409201Y-68584573D01*
X136286436Y-68659129D01*
X136022883Y-68816606D01*
X135885750Y-68900812D01*
X135747483Y-68989520D01*
X135678488Y-69035731D01*
X135609856Y-69083138D01*
X135541772Y-69131663D01*
X135474419Y-69181227D01*
X135407983Y-69231751D01*
X135342648Y-69283155D01*
X135278599Y-69335361D01*
X135216019Y-69388289D01*
X135155094Y-69441861D01*
X135096008Y-69495997D01*
X135038945Y-69550618D01*
X134984090Y-69605645D01*
X134931627Y-69660999D01*
X134881741Y-69716600D01*
X134834616Y-69772371D01*
X134790437Y-69828231D01*
X134749314Y-69884105D01*
X134711076Y-69939929D01*
X134675481Y-69995645D01*
X134642288Y-70051195D01*
X134611255Y-70106520D01*
X134582140Y-70161561D01*
X134528703Y-70270557D01*
X134480045Y-70377716D01*
X134434235Y-70482567D01*
X134389343Y-70584643D01*
X134343438Y-70683475D01*
X134310408Y-70749267D01*
X134276041Y-70813101D01*
X134240400Y-70874734D01*
X134222122Y-70904649D01*
X134203548Y-70933921D01*
X134184686Y-70962521D01*
X134165545Y-70990418D01*
X134146133Y-71017582D01*
X134126456Y-71043981D01*
X134106523Y-71069585D01*
X134086342Y-71094365D01*
X134065921Y-71118289D01*
X134045266Y-71141326D01*
X133699323Y-71069836D01*
X133354186Y-70993983D01*
X133009902Y-70913630D01*
X132666513Y-70828639D01*
X132324063Y-70738873D01*
X131982598Y-70644196D01*
X131642161Y-70544471D01*
X131302797Y-70439559D01*
X131244924Y-70427357D01*
X131190562Y-70410553D01*
X131139723Y-70389442D01*
X131092416Y-70364317D01*
X131048651Y-70335471D01*
X131008438Y-70303199D01*
X130971787Y-70267792D01*
X130938708Y-70229545D01*
X130909211Y-70188751D01*
X130883305Y-70145704D01*
X130861002Y-70100698D01*
X130842310Y-70054024D01*
X130827240Y-70005978D01*
X130815801Y-69956853D01*
X130808004Y-69906942D01*
X130803859Y-69856538D01*
X130803376Y-69805935D01*
X130806564Y-69755427D01*
X130813433Y-69705307D01*
X130823994Y-69655868D01*
X130838257Y-69607404D01*
X130856231Y-69560209D01*
X130877927Y-69514575D01*
X130903354Y-69470797D01*
X130932522Y-69429167D01*
X130965441Y-69389980D01*
X131002122Y-69353529D01*
X131042575Y-69320107D01*
X131086808Y-69290007D01*
X131134833Y-69263524D01*
X131186659Y-69240950D01*
X131242296Y-69222579D01*
X131939696Y-68998878D01*
X132642233Y-68799749D01*
X133349447Y-68623538D01*
X134060880Y-68468591D01*
X134776072Y-68333252D01*
X135494564Y-68215867D01*
X136215898Y-68114780D01*
X136939614Y-68028339D01*
X136939652Y-68028343D01*
G37*
%TD.AperFunction*%
%TA.AperFunction,NonConductor*%
G36*
X145500779Y-74200007D02*
G01*
X145503279Y-74202179D01*
X145505834Y-74204640D01*
X145508451Y-74207388D01*
X145511136Y-74210420D01*
X145516732Y-74217319D01*
X145522673Y-74225313D01*
X145529008Y-74234375D01*
X145535787Y-74244480D01*
X145550873Y-74267711D01*
X145616056Y-74371501D01*
X145656730Y-74440441D01*
X145701813Y-74521604D01*
X145750573Y-74615633D01*
X145802276Y-74723173D01*
X145856188Y-74844869D01*
X145911576Y-74981364D01*
X145967673Y-75132706D01*
X146023725Y-75296616D01*
X146079010Y-75470255D01*
X146132811Y-75650779D01*
X146184408Y-75835346D01*
X146233082Y-76021117D01*
X146278115Y-76205248D01*
X146318787Y-76384898D01*
X146354074Y-76557491D01*
X146369044Y-76640642D01*
X146381834Y-76721481D01*
X146392143Y-76799843D01*
X146399673Y-76875568D01*
X146404125Y-76948492D01*
X146405199Y-77018454D01*
X146402596Y-77085291D01*
X146396017Y-77148840D01*
X146391143Y-77179332D01*
X146385163Y-77208940D01*
X146378039Y-77237646D01*
X146369734Y-77265428D01*
X146360210Y-77292267D01*
X146349431Y-77318142D01*
X146337358Y-77343033D01*
X146323955Y-77366919D01*
X146309184Y-77389780D01*
X146293007Y-77411597D01*
X146275387Y-77432348D01*
X146256287Y-77452014D01*
X146242247Y-77464926D01*
X146227514Y-77477321D01*
X146212116Y-77489206D01*
X146196079Y-77500590D01*
X146179431Y-77511479D01*
X146162200Y-77521882D01*
X146144412Y-77531806D01*
X146126095Y-77541258D01*
X146107276Y-77550248D01*
X146087983Y-77558781D01*
X146068243Y-77566866D01*
X146048083Y-77574511D01*
X146027531Y-77581723D01*
X146006613Y-77588510D01*
X145985357Y-77594880D01*
X145963791Y-77600840D01*
X145568977Y-77595994D01*
X145171593Y-77593638D01*
X145140387Y-77582304D01*
X145111713Y-77569889D01*
X145085434Y-77556375D01*
X145061415Y-77541741D01*
X145050209Y-77533998D01*
X145039518Y-77525968D01*
X145029323Y-77517648D01*
X145019607Y-77509036D01*
X145001547Y-77490926D01*
X144985200Y-77471618D01*
X144970431Y-77451093D01*
X144957104Y-77429331D01*
X144945081Y-77406313D01*
X144934227Y-77382019D01*
X144924406Y-77356430D01*
X144915480Y-77329525D01*
X144907315Y-77301286D01*
X144899773Y-77271693D01*
X144883594Y-77194139D01*
X144870180Y-77108720D01*
X144859345Y-77015728D01*
X144850899Y-76915456D01*
X144844657Y-76808200D01*
X144840430Y-76694251D01*
X144838031Y-76573903D01*
X144837273Y-76447451D01*
X144838143Y-76315276D01*
X144841373Y-76178167D01*
X144847891Y-76037033D01*
X144858628Y-75892783D01*
X144874511Y-75746327D01*
X144896470Y-75598575D01*
X144910019Y-75524497D01*
X144925435Y-75450437D01*
X144942835Y-75376507D01*
X144962334Y-75302821D01*
X144983973Y-75229525D01*
X145007526Y-75156855D01*
X145032707Y-75085063D01*
X145059229Y-75014401D01*
X145086806Y-74945120D01*
X145115151Y-74877474D01*
X145172999Y-74748091D01*
X145230481Y-74628266D01*
X145285306Y-74520014D01*
X145377816Y-74346293D01*
X145408376Y-74290158D01*
X145421252Y-74267141D01*
X145427169Y-74256862D01*
X145432767Y-74247391D01*
X145438070Y-74238717D01*
X145443101Y-74230831D01*
X145447881Y-74223724D01*
X145452434Y-74217385D01*
X145456781Y-74211807D01*
X145460946Y-74206979D01*
X145464951Y-74202891D01*
X145468819Y-74199534D01*
X145469277Y-74199489D01*
X145500779Y-74200007D01*
G37*
%TD.AperFunction*%
%TA.AperFunction,NonConductor*%
G36*
X152983925Y-104173964D02*
G01*
X152999899Y-104174736D01*
X153016303Y-104175997D01*
X153033112Y-104177740D01*
X153050295Y-104179957D01*
X153067826Y-104182643D01*
X153085677Y-104185791D01*
X153122307Y-104193223D01*
X153160167Y-104202104D01*
X153239715Y-104223045D01*
X153324596Y-104246276D01*
X153415084Y-104269459D01*
X153462517Y-104280303D01*
X153511455Y-104290259D01*
X153561932Y-104299034D01*
X153613983Y-104306337D01*
X153667641Y-104311875D01*
X153722942Y-104315356D01*
X153779919Y-104316488D01*
X153838607Y-104314979D01*
X153842386Y-104314918D01*
X153846150Y-104314752D01*
X153849903Y-104314504D01*
X153853647Y-104314199D01*
X153861123Y-104313511D01*
X153868606Y-104312881D01*
X153893363Y-104333295D01*
X153916876Y-104353977D01*
X153939208Y-104374970D01*
X153960423Y-104396315D01*
X153980582Y-104418056D01*
X153999750Y-104440233D01*
X154017990Y-104462889D01*
X154035364Y-104486066D01*
X154051935Y-104509807D01*
X154067768Y-104534152D01*
X154082924Y-104559145D01*
X154097467Y-104584827D01*
X154111460Y-104611240D01*
X154124967Y-104638427D01*
X154138049Y-104666429D01*
X154150771Y-104695289D01*
X154168772Y-104738901D01*
X154186235Y-104784098D01*
X154219982Y-104877913D01*
X154285800Y-105069931D01*
X154319604Y-105162814D01*
X154337109Y-105207311D01*
X154355160Y-105250069D01*
X154373866Y-105290754D01*
X154393335Y-105329036D01*
X154413676Y-105364580D01*
X154434997Y-105397056D01*
X154374446Y-105430447D01*
X154344068Y-105446929D01*
X154313552Y-105463203D01*
X154236494Y-105494523D01*
X154158654Y-105524441D01*
X154080127Y-105553078D01*
X154001008Y-105580555D01*
X153921392Y-105606993D01*
X153841374Y-105632512D01*
X153680511Y-105681274D01*
X153686231Y-105663643D01*
X153690514Y-105645871D01*
X153693403Y-105627958D01*
X153694938Y-105609906D01*
X153695163Y-105591716D01*
X153694119Y-105573388D01*
X153691850Y-105554925D01*
X153688397Y-105536326D01*
X153683801Y-105517594D01*
X153678107Y-105498729D01*
X153671355Y-105479733D01*
X153663589Y-105460606D01*
X153645179Y-105421965D01*
X153623216Y-105382815D01*
X153598037Y-105343166D01*
X153569981Y-105303025D01*
X153539385Y-105262403D01*
X153506586Y-105221308D01*
X153435732Y-105137735D01*
X153360122Y-105052375D01*
X153185031Y-104856147D01*
X153100304Y-104758988D01*
X153021005Y-104664728D01*
X152984222Y-104619215D01*
X152949795Y-104575063D01*
X152918054Y-104532484D01*
X152889334Y-104491691D01*
X152863967Y-104452894D01*
X152842285Y-104416307D01*
X152824622Y-104382141D01*
X152811309Y-104350608D01*
X152807502Y-104339500D01*
X152804341Y-104328788D01*
X152801814Y-104318467D01*
X152799912Y-104308535D01*
X152798621Y-104298988D01*
X152797930Y-104289822D01*
X152797829Y-104281033D01*
X152798305Y-104272619D01*
X152799348Y-104264576D01*
X152800946Y-104256901D01*
X152803087Y-104249589D01*
X152805761Y-104242637D01*
X152808955Y-104236043D01*
X152812658Y-104229801D01*
X152816860Y-104223910D01*
X152821548Y-104218364D01*
X152826711Y-104213162D01*
X152832338Y-104208298D01*
X152838417Y-104203771D01*
X152844937Y-104199576D01*
X152851886Y-104195709D01*
X152859254Y-104192168D01*
X152867028Y-104188949D01*
X152875197Y-104186047D01*
X152883751Y-104183461D01*
X152892676Y-104181186D01*
X152911600Y-104177555D01*
X152931876Y-104175127D01*
X152953414Y-104173873D01*
X152953384Y-104173912D01*
X152968411Y-104173687D01*
X152983925Y-104173964D01*
G37*
%TD.AperFunction*%
%TA.AperFunction,NonConductor*%
G36*
X134638993Y-73371169D02*
G01*
X134649003Y-73383333D01*
X134658845Y-73396073D01*
X134668502Y-73409376D01*
X134677957Y-73423227D01*
X134687191Y-73437612D01*
X134696187Y-73452516D01*
X134704927Y-73467925D01*
X134713395Y-73483825D01*
X134729515Y-73517049D01*
X134744678Y-73552335D01*
X134758975Y-73589806D01*
X134772496Y-73629585D01*
X134797574Y-73716560D01*
X134820634Y-73814248D01*
X134842401Y-73923633D01*
X134863599Y-74045702D01*
X134907182Y-74331836D01*
X134955331Y-74675823D01*
X135005126Y-75062013D01*
X135051811Y-75470041D01*
X135072501Y-75675880D01*
X135090630Y-75879542D01*
X135105605Y-76078613D01*
X135116803Y-76271123D01*
X135123576Y-76455188D01*
X135125277Y-76628921D01*
X135124024Y-76711324D01*
X135121260Y-76790436D01*
X135116905Y-76866023D01*
X135110878Y-76937848D01*
X135103097Y-77005676D01*
X135093483Y-77069271D01*
X135081954Y-77128397D01*
X135068429Y-77182818D01*
X135060894Y-77208199D01*
X135052858Y-77232366D01*
X135044340Y-77255342D01*
X135035361Y-77277150D01*
X135025938Y-77297811D01*
X135016092Y-77317348D01*
X135005842Y-77335783D01*
X134995207Y-77353139D01*
X134984206Y-77369439D01*
X134972859Y-77384704D01*
X134961185Y-77398958D01*
X134949203Y-77412222D01*
X134936933Y-77424519D01*
X134924393Y-77435871D01*
X134911604Y-77446302D01*
X134898584Y-77455832D01*
X134885353Y-77464485D01*
X134871930Y-77472283D01*
X134858334Y-77479249D01*
X134844585Y-77485404D01*
X134830702Y-77490772D01*
X134816704Y-77495375D01*
X134802611Y-77499235D01*
X134788442Y-77502374D01*
X134774215Y-77504816D01*
X134759952Y-77506581D01*
X134731388Y-77508176D01*
X134702907Y-77507337D01*
X134674661Y-77504244D01*
X134660673Y-77501911D01*
X134646791Y-77499087D01*
X134633026Y-77495798D01*
X134619385Y-77492071D01*
X134605878Y-77487930D01*
X134592515Y-77483404D01*
X134566255Y-77473298D01*
X134540677Y-77461961D01*
X134515856Y-77449605D01*
X134491863Y-77436439D01*
X134468773Y-77422673D01*
X134446658Y-77408517D01*
X134425592Y-77394180D01*
X134405648Y-77379874D01*
X134386899Y-77365808D01*
X134353280Y-77339235D01*
X134325318Y-77316142D01*
X134303289Y-77297497D01*
X134294287Y-77289301D01*
X134286455Y-77281424D01*
X134279662Y-77273542D01*
X134273778Y-77265333D01*
X134268675Y-77256470D01*
X134264221Y-77246632D01*
X134260288Y-77235494D01*
X134256745Y-77222732D01*
X134253463Y-77208024D01*
X134250312Y-77191043D01*
X134243883Y-77148974D01*
X134236421Y-77093935D01*
X134216145Y-76939237D01*
X134190696Y-76729921D01*
X134163184Y-76473814D01*
X134136720Y-76178744D01*
X134114028Y-75853742D01*
X134096022Y-75512652D01*
X134083115Y-75170521D01*
X134075723Y-74842395D01*
X134074495Y-74687967D01*
X134075104Y-74540747D01*
X134077805Y-74400669D01*
X134082850Y-74267673D01*
X134090491Y-74141696D01*
X134100982Y-74022674D01*
X134114575Y-73910546D01*
X134131524Y-73805247D01*
X134139319Y-73764908D01*
X134147675Y-73725716D01*
X134156582Y-73687726D01*
X134166028Y-73650991D01*
X134176004Y-73615567D01*
X134186498Y-73581505D01*
X134197499Y-73548862D01*
X134208997Y-73517689D01*
X134220980Y-73488042D01*
X134233438Y-73459975D01*
X134246361Y-73433541D01*
X134259736Y-73408794D01*
X134273554Y-73385788D01*
X134287803Y-73364578D01*
X134302472Y-73345216D01*
X134317552Y-73327758D01*
X134317567Y-73327758D01*
X134638993Y-73371169D01*
G37*
%TD.AperFunction*%
%TA.AperFunction,NonConductor*%
G36*
X133362327Y-99855792D02*
G01*
X133376090Y-99903308D01*
X133407546Y-100005753D01*
X133424577Y-100062859D01*
X133442037Y-100125338D01*
X133459596Y-100194278D01*
X133476922Y-100270767D01*
X133501414Y-100397188D01*
X133525798Y-100539602D01*
X133579656Y-100862969D01*
X133611837Y-101039205D01*
X133649324Y-101221997D01*
X133693470Y-101408987D01*
X133718464Y-101503319D01*
X133745629Y-101597816D01*
X133775054Y-101692213D01*
X133806501Y-101786391D01*
X133874175Y-101973798D01*
X133946075Y-102159445D01*
X134019630Y-102342743D01*
X134092267Y-102523101D01*
X134161411Y-102699926D01*
X134224491Y-102872629D01*
X134252952Y-102957250D01*
X134278932Y-103040618D01*
X134302229Y-103122625D01*
X134323140Y-103203021D01*
X134359482Y-103357841D01*
X134391314Y-103502797D01*
X134421995Y-103635606D01*
X134437953Y-103696743D01*
X134454882Y-103753987D01*
X134473203Y-103807053D01*
X134493334Y-103855656D01*
X134504209Y-103878195D01*
X134515695Y-103899511D01*
X134527843Y-103919568D01*
X134540706Y-103938332D01*
X134554337Y-103955766D01*
X134568787Y-103971834D01*
X134584110Y-103986502D01*
X134600358Y-103999733D01*
X134617566Y-104011504D01*
X134635702Y-104021849D01*
X134654720Y-104030811D01*
X134674573Y-104038434D01*
X134695213Y-104044762D01*
X134716594Y-104049839D01*
X134738669Y-104053708D01*
X134761390Y-104056413D01*
X134808586Y-104058508D01*
X134857805Y-104056473D01*
X134908672Y-104050658D01*
X134960811Y-104041415D01*
X135013845Y-104029092D01*
X135067400Y-104014041D01*
X135121099Y-103996611D01*
X135174567Y-103977154D01*
X135227428Y-103956018D01*
X135279306Y-103933555D01*
X135329825Y-103910114D01*
X135378610Y-103886047D01*
X135425381Y-103861667D01*
X135470249Y-103837164D01*
X135555083Y-103788409D01*
X135710832Y-103696257D01*
X135748055Y-103675243D01*
X135784999Y-103655350D01*
X135821865Y-103636733D01*
X135858859Y-103619548D01*
X135896182Y-103603950D01*
X135934038Y-103590095D01*
X135972631Y-103578139D01*
X136012162Y-103568237D01*
X136039812Y-103562603D01*
X136067918Y-103557962D01*
X136096397Y-103554259D01*
X136125162Y-103551437D01*
X136154129Y-103549438D01*
X136183213Y-103548206D01*
X136212328Y-103547686D01*
X136241390Y-103547819D01*
X136299013Y-103549821D01*
X136355402Y-103553759D01*
X136409876Y-103559182D01*
X136461755Y-103565635D01*
X136528092Y-103545324D01*
X136595391Y-103525236D01*
X136663697Y-103505322D01*
X136733056Y-103485534D01*
X136733056Y-103486053D01*
X136504337Y-103553121D01*
X136287073Y-103622038D01*
X136081569Y-103692743D01*
X135888128Y-103765174D01*
X135707054Y-103839269D01*
X135538652Y-103914966D01*
X135383225Y-103992203D01*
X135310472Y-104031380D01*
X135241077Y-104070919D01*
X135175079Y-104110811D01*
X135112514Y-104151051D01*
X135053421Y-104191629D01*
X134997838Y-104232538D01*
X134945803Y-104273770D01*
X134897354Y-104315317D01*
X134852529Y-104357173D01*
X134811366Y-104399328D01*
X134773903Y-104441776D01*
X134740178Y-104484508D01*
X134710229Y-104527517D01*
X134684094Y-104570795D01*
X134661811Y-104614335D01*
X134643418Y-104658128D01*
X134628954Y-104702167D01*
X134618455Y-104746444D01*
X134557561Y-104687825D01*
X134497962Y-104627822D01*
X134439691Y-104566419D01*
X134382785Y-104503596D01*
X134327277Y-104439335D01*
X134273203Y-104373618D01*
X134220599Y-104306426D01*
X134169498Y-104237741D01*
X134119935Y-104167544D01*
X134071946Y-104095818D01*
X134025566Y-104022543D01*
X133980830Y-103947702D01*
X133937771Y-103871275D01*
X133896426Y-103793245D01*
X133856830Y-103713593D01*
X133819017Y-103632301D01*
X133350330Y-99809367D01*
X133362327Y-99855792D01*
G37*
%TD.AperFunction*%
%TA.AperFunction,NonConductor*%
G36*
X144644522Y-68374901D02*
G01*
X144656311Y-68375557D01*
X144668120Y-68376707D01*
X144679940Y-68378349D01*
X144691763Y-68380476D01*
X144703578Y-68383083D01*
X144715378Y-68386166D01*
X144727153Y-68389719D01*
X144738894Y-68393737D01*
X144762238Y-68403149D01*
X144785338Y-68414361D01*
X144808123Y-68427332D01*
X144830520Y-68442022D01*
X144852457Y-68458389D01*
X144873862Y-68476394D01*
X144894662Y-68495996D01*
X144914787Y-68517154D01*
X144934163Y-68539827D01*
X144952719Y-68563975D01*
X144970383Y-68589557D01*
X144994385Y-68629236D01*
X145016420Y-68671718D01*
X145036546Y-68716863D01*
X145054822Y-68764535D01*
X145071304Y-68814595D01*
X145086050Y-68866907D01*
X145099119Y-68921332D01*
X145110566Y-68977734D01*
X145120452Y-69035973D01*
X145128832Y-69095913D01*
X145135764Y-69157416D01*
X145141307Y-69220345D01*
X145148454Y-69349927D01*
X145150734Y-69483558D01*
X145148408Y-69619919D01*
X145145382Y-69688457D01*
X145141007Y-69756835D01*
X145135203Y-69824754D01*
X145127892Y-69891916D01*
X145118994Y-69958021D01*
X145108429Y-70022770D01*
X145096118Y-70085865D01*
X145081981Y-70147007D01*
X145065939Y-70205897D01*
X145047911Y-70262236D01*
X145027819Y-70315726D01*
X145005583Y-70366067D01*
X144981124Y-70412960D01*
X144954361Y-70456107D01*
X144940100Y-70476195D01*
X144925283Y-70495300D01*
X144909951Y-70513449D01*
X144894146Y-70530671D01*
X144877910Y-70546992D01*
X144861284Y-70562439D01*
X144844310Y-70577040D01*
X144827031Y-70590822D01*
X144791719Y-70616036D01*
X144755682Y-70638301D01*
X144719254Y-70657832D01*
X144682768Y-70674847D01*
X144646558Y-70689565D01*
X144610957Y-70702203D01*
X144576298Y-70712978D01*
X144542915Y-70722108D01*
X144481310Y-70736303D01*
X144428810Y-70746528D01*
X144387368Y-70754101D01*
X144370514Y-70756797D01*
X144355946Y-70758627D01*
X144349452Y-70759186D01*
X144343447Y-70759490D01*
X144337904Y-70759527D01*
X144332797Y-70759283D01*
X144328098Y-70758746D01*
X144323779Y-70757902D01*
X144319814Y-70756740D01*
X144316174Y-70755246D01*
X144312833Y-70753407D01*
X144309763Y-70751211D01*
X144306937Y-70748644D01*
X144304328Y-70745694D01*
X144301909Y-70742348D01*
X144299651Y-70738593D01*
X144297528Y-70734417D01*
X144295513Y-70729805D01*
X144293578Y-70724747D01*
X144291696Y-70719228D01*
X144287981Y-70706757D01*
X144284150Y-70692291D01*
X144279984Y-70675727D01*
X144258580Y-70587987D01*
X144232048Y-70467897D01*
X144217999Y-70396639D01*
X144204034Y-70318396D01*
X144190611Y-70233536D01*
X144178185Y-70142425D01*
X144167303Y-70045445D01*
X144158299Y-69943103D01*
X144151647Y-69835959D01*
X144147819Y-69724576D01*
X144147286Y-69609517D01*
X144150521Y-69491344D01*
X144157995Y-69370620D01*
X144170182Y-69247905D01*
X144178181Y-69186023D01*
X144187484Y-69124119D01*
X144198100Y-69062524D01*
X144210042Y-69001571D01*
X144223319Y-68941589D01*
X144237943Y-68882911D01*
X144253923Y-68825868D01*
X144271272Y-68770791D01*
X144289999Y-68718012D01*
X144310116Y-68667861D01*
X144331634Y-68620671D01*
X144354562Y-68576772D01*
X144378912Y-68536496D01*
X144404695Y-68500174D01*
X144418127Y-68483600D01*
X144431921Y-68468138D01*
X144446079Y-68453831D01*
X144460602Y-68440719D01*
X144469866Y-68433147D01*
X144479264Y-68426054D01*
X144488791Y-68419436D01*
X144498440Y-68413292D01*
X144508204Y-68407615D01*
X144518077Y-68402404D01*
X144528051Y-68397655D01*
X144538121Y-68393363D01*
X144548279Y-68389526D01*
X144558519Y-68386140D01*
X144568835Y-68383201D01*
X144579220Y-68380705D01*
X144589667Y-68378650D01*
X144600170Y-68377031D01*
X144610721Y-68375844D01*
X144621239Y-68375093D01*
X144632762Y-68374747D01*
X144644522Y-68374901D01*
G37*
%TD.AperFunction*%
%TA.AperFunction,NonConductor*%
G36*
X145410214Y-117606259D02*
G01*
X145477900Y-117612797D01*
X145544132Y-117620505D01*
X145608772Y-117629391D01*
X145671683Y-117639464D01*
X145732730Y-117650730D01*
X145791774Y-117663199D01*
X145848679Y-117676879D01*
X145890668Y-117688151D01*
X145931393Y-117700111D01*
X145970893Y-117712735D01*
X146009206Y-117725998D01*
X146046370Y-117739876D01*
X146082424Y-117754342D01*
X146151351Y-117784945D01*
X146216293Y-117817608D01*
X146277556Y-117852133D01*
X146335446Y-117888322D01*
X146390269Y-117925976D01*
X146442329Y-117964898D01*
X146491932Y-118004888D01*
X146539385Y-118045749D01*
X146584992Y-118087282D01*
X146629060Y-118129289D01*
X146671894Y-118171572D01*
X146755081Y-118256172D01*
X146915773Y-118421842D01*
X146992247Y-118502339D01*
X147065090Y-118581054D01*
X147133513Y-118657820D01*
X147196731Y-118732468D01*
X147226141Y-118768945D01*
X147253955Y-118804830D01*
X147280073Y-118840102D01*
X147304397Y-118874740D01*
X147326834Y-118908736D01*
X147347289Y-118942133D01*
X147365678Y-118974979D01*
X147381919Y-119007323D01*
X147395927Y-119039213D01*
X147407619Y-119070697D01*
X147416911Y-119101825D01*
X147423721Y-119132644D01*
X147426168Y-119147954D01*
X147427964Y-119163204D01*
X147429097Y-119178402D01*
X147429557Y-119193553D01*
X147429334Y-119208663D01*
X147428418Y-119223739D01*
X147426797Y-119238786D01*
X147424461Y-119253811D01*
X147421401Y-119268820D01*
X147417605Y-119283818D01*
X147413063Y-119298812D01*
X147407764Y-119313808D01*
X147401699Y-119328812D01*
X147394857Y-119343830D01*
X147387227Y-119358867D01*
X147378799Y-119373931D01*
X147369332Y-119389383D01*
X147359066Y-119404858D01*
X147348052Y-119420346D01*
X147336336Y-119435835D01*
X147323967Y-119451314D01*
X147310994Y-119466773D01*
X147297465Y-119482201D01*
X147283428Y-119497587D01*
X147254023Y-119528188D01*
X147223166Y-119558489D01*
X147191245Y-119588403D01*
X147158645Y-119617843D01*
X147113433Y-119606334D01*
X147067613Y-119595078D01*
X147021189Y-119584104D01*
X146974166Y-119573440D01*
X146762685Y-119530102D01*
X146541524Y-119490847D01*
X146312958Y-119454575D01*
X146079260Y-119420185D01*
X145605560Y-119352641D01*
X145370105Y-119317284D01*
X145138611Y-119279403D01*
X144913562Y-119238091D01*
X144804493Y-119216095D01*
X144698322Y-119193216D01*
X144595498Y-119169462D01*
X144496467Y-119144839D01*
X144401676Y-119119357D01*
X144311572Y-119093022D01*
X144226603Y-119065842D01*
X144147214Y-119037824D01*
X144073853Y-119008977D01*
X144006967Y-118979308D01*
X143947003Y-118948824D01*
X143894407Y-118917533D01*
X143849628Y-118885443D01*
X143830308Y-118869101D01*
X143813111Y-118852561D01*
X143798077Y-118835830D01*
X143785177Y-118818918D01*
X143774365Y-118801840D01*
X143765595Y-118784610D01*
X143758822Y-118767242D01*
X143753999Y-118749751D01*
X143751081Y-118732150D01*
X143750021Y-118714454D01*
X143750774Y-118696677D01*
X143753294Y-118678834D01*
X143757536Y-118660937D01*
X143763453Y-118643003D01*
X143770999Y-118625044D01*
X143780128Y-118607074D01*
X143790796Y-118589109D01*
X143802955Y-118571163D01*
X143816560Y-118553248D01*
X143831565Y-118535381D01*
X143865593Y-118499842D01*
X143904670Y-118464660D01*
X143948430Y-118429948D01*
X143996507Y-118395820D01*
X144048533Y-118362389D01*
X144104141Y-118329769D01*
X144162964Y-118298072D01*
X144224618Y-118267368D01*
X144288647Y-118237518D01*
X144421958Y-118179631D01*
X144696439Y-118065878D01*
X144830099Y-118007020D01*
X144894391Y-117976441D01*
X144956365Y-117944846D01*
X145015551Y-117912048D01*
X145071481Y-117877859D01*
X145123684Y-117842094D01*
X145171692Y-117804565D01*
X145185078Y-117793040D01*
X145198056Y-117781344D01*
X145210634Y-117769480D01*
X145222821Y-117757449D01*
X145234623Y-117745254D01*
X145246047Y-117732897D01*
X145257102Y-117720381D01*
X145267794Y-117707708D01*
X145278131Y-117694880D01*
X145288121Y-117681900D01*
X145297771Y-117668770D01*
X145307088Y-117655492D01*
X145316080Y-117642069D01*
X145324754Y-117628503D01*
X145333118Y-117614797D01*
X145341179Y-117600952D01*
X145341210Y-117600883D01*
X145410214Y-117606259D01*
G37*
%TD.AperFunction*%
%TA.AperFunction,NonConductor*%
G36*
X157282387Y-83763610D02*
G01*
X157302087Y-83764191D01*
X157321693Y-83765233D01*
X157341188Y-83766736D01*
X157360554Y-83768705D01*
X157379771Y-83771141D01*
X157398822Y-83774045D01*
X157417688Y-83777422D01*
X157436351Y-83781272D01*
X157454792Y-83785599D01*
X157472993Y-83790404D01*
X157490935Y-83795690D01*
X157508601Y-83801459D01*
X157525972Y-83807713D01*
X157543029Y-83814456D01*
X157559782Y-83821678D01*
X157576222Y-83829357D01*
X157592356Y-83837462D01*
X157608191Y-83845967D01*
X157638994Y-83864062D01*
X157668688Y-83883417D01*
X157697327Y-83903808D01*
X157724970Y-83925011D01*
X157751673Y-83946800D01*
X157777492Y-83968951D01*
X157826705Y-84013442D01*
X157873061Y-84056689D01*
X157917013Y-84096895D01*
X157938230Y-84115297D01*
X157959014Y-84132265D01*
X157978314Y-84146768D01*
X157997320Y-84159629D01*
X158016067Y-84170725D01*
X158025354Y-84175575D01*
X158034588Y-84179938D01*
X158043774Y-84183800D01*
X158052917Y-84187146D01*
X158062019Y-84189961D01*
X158071087Y-84192230D01*
X158080123Y-84193937D01*
X158089133Y-84195068D01*
X158098119Y-84195607D01*
X158107087Y-84195540D01*
X158116041Y-84194851D01*
X158124985Y-84193526D01*
X158133923Y-84191549D01*
X158142860Y-84188906D01*
X158151799Y-84185581D01*
X158160745Y-84181558D01*
X158169702Y-84176825D01*
X158178674Y-84171364D01*
X158187666Y-84165161D01*
X158196682Y-84158201D01*
X158205725Y-84150469D01*
X158214801Y-84141950D01*
X158223913Y-84132629D01*
X158233066Y-84122491D01*
X158242263Y-84111520D01*
X158251510Y-84099702D01*
X157855579Y-88094572D01*
X157373920Y-92538292D01*
X156869584Y-96631216D01*
X156628617Y-98296238D01*
X156405624Y-99573694D01*
X156388782Y-99540635D01*
X156371466Y-99509913D01*
X156353740Y-99481049D01*
X156335669Y-99453564D01*
X156261249Y-99347831D01*
X156242435Y-99320055D01*
X156223668Y-99290784D01*
X156205014Y-99259538D01*
X156186537Y-99225839D01*
X156168302Y-99189208D01*
X156150376Y-99149166D01*
X156132822Y-99105234D01*
X156115707Y-99056932D01*
X156081601Y-98939807D01*
X156050162Y-98797900D01*
X156021848Y-98627769D01*
X155997114Y-98425971D01*
X155976415Y-98189064D01*
X155960209Y-97913606D01*
X155948952Y-97596156D01*
X155943099Y-97233270D01*
X155948125Y-96374760D01*
X155972465Y-95396887D01*
X156011579Y-94375637D01*
X156060928Y-93386995D01*
X156116563Y-92486361D01*
X156176866Y-91646679D01*
X156307418Y-89959299D01*
X156374693Y-89033994D01*
X156436212Y-88086219D01*
X156484493Y-87175945D01*
X156501331Y-86753610D01*
X156512054Y-86363138D01*
X156516520Y-86010363D01*
X156515970Y-85694458D01*
X156508407Y-85163313D01*
X156505689Y-84943100D01*
X156506543Y-84749809D01*
X156508981Y-84662484D01*
X156513117Y-84580956D01*
X156519219Y-84504916D01*
X156527557Y-84434053D01*
X156532645Y-84400469D01*
X156538339Y-84368081D01*
X156544627Y-84336863D01*
X156551498Y-84306791D01*
X156558938Y-84277840D01*
X156566937Y-84249986D01*
X156575481Y-84223205D01*
X156584559Y-84197471D01*
X156594159Y-84172761D01*
X156604268Y-84149050D01*
X156614875Y-84126313D01*
X156625967Y-84104525D01*
X156637533Y-84083663D01*
X156649560Y-84063702D01*
X156662036Y-84044617D01*
X156674949Y-84026384D01*
X156688287Y-84008978D01*
X156702039Y-83992375D01*
X156716191Y-83976549D01*
X156730732Y-83961478D01*
X156745649Y-83947135D01*
X156760932Y-83933497D01*
X156776566Y-83920540D01*
X156792542Y-83908237D01*
X156825466Y-83885502D01*
X156859606Y-83865094D01*
X156894867Y-83846818D01*
X156931152Y-83830477D01*
X156949645Y-83822972D01*
X156968348Y-83815907D01*
X156987245Y-83809284D01*
X157006318Y-83803103D01*
X157025551Y-83797365D01*
X157044926Y-83792072D01*
X157064426Y-83787224D01*
X157084035Y-83782823D01*
X157103735Y-83778870D01*
X157123510Y-83775365D01*
X157143342Y-83772310D01*
X157163214Y-83769706D01*
X157183110Y-83767554D01*
X157203012Y-83765855D01*
X157222903Y-83764609D01*
X157242767Y-83763819D01*
X157242782Y-83763819D01*
X157262613Y-83763487D01*
X157282387Y-83763610D01*
G37*
%TD.AperFunction*%
%TA.AperFunction,NonConductor*%
G36*
X131542604Y-84039668D02*
G01*
X131558500Y-84063535D01*
X131574770Y-84086092D01*
X131591384Y-84107391D01*
X131608314Y-84127479D01*
X131625530Y-84146407D01*
X131643005Y-84164222D01*
X131660711Y-84180975D01*
X131678617Y-84196715D01*
X131696696Y-84211490D01*
X131714920Y-84225351D01*
X131733259Y-84238345D01*
X131751685Y-84250523D01*
X131770169Y-84261933D01*
X131788683Y-84272625D01*
X131807199Y-84282648D01*
X131829601Y-84293955D01*
X131851943Y-84304377D01*
X131874204Y-84313941D01*
X131896362Y-84322676D01*
X131918397Y-84330609D01*
X131940289Y-84337770D01*
X131962015Y-84344185D01*
X131983556Y-84349884D01*
X132004891Y-84354896D01*
X132025998Y-84359247D01*
X132046857Y-84362966D01*
X132067448Y-84366083D01*
X132087749Y-84368624D01*
X132107740Y-84370618D01*
X132127399Y-84372093D01*
X132146707Y-84373079D01*
X132165641Y-84373582D01*
X132184240Y-84373621D01*
X132202537Y-84373194D01*
X132220567Y-84372298D01*
X132238366Y-84370930D01*
X132255969Y-84369088D01*
X132273409Y-84366769D01*
X132290723Y-84363970D01*
X132307945Y-84360689D01*
X132325110Y-84356923D01*
X132342253Y-84352669D01*
X132359408Y-84347925D01*
X132376611Y-84342688D01*
X132393897Y-84336955D01*
X132411301Y-84330724D01*
X132428857Y-84323991D01*
X132441853Y-84318740D01*
X132454924Y-84313244D01*
X132481356Y-84301726D01*
X132508282Y-84289843D01*
X132535829Y-84278001D01*
X132536020Y-84277669D01*
X132536219Y-84277348D01*
X132536422Y-84277036D01*
X132536630Y-84276733D01*
X132537050Y-84276146D01*
X132537465Y-84275577D01*
X132537864Y-84275018D01*
X132538052Y-84274739D01*
X132538232Y-84274459D01*
X132538401Y-84274176D01*
X132538557Y-84273890D01*
X132538700Y-84273599D01*
X132538827Y-84273302D01*
X132534338Y-84294449D01*
X132530463Y-84316903D01*
X132524544Y-84365850D01*
X132521053Y-84420377D01*
X132519969Y-84480717D01*
X132521275Y-84547105D01*
X132524953Y-84619775D01*
X132530982Y-84698962D01*
X132539346Y-84784898D01*
X132554655Y-84916170D01*
X132573531Y-85058019D01*
X132618579Y-85361549D01*
X132714006Y-85964670D01*
X132752375Y-86221375D01*
X132784219Y-86441875D01*
X132812739Y-86631124D01*
X132826752Y-86715577D01*
X132841134Y-86794076D01*
X132856146Y-86867116D01*
X132871553Y-86934643D01*
X132886978Y-86996472D01*
X132902045Y-87052419D01*
X132916378Y-87102300D01*
X132929600Y-87145929D01*
X132951203Y-87213693D01*
X132959064Y-87237611D01*
X132962529Y-87247239D01*
X132965882Y-87255427D01*
X132967561Y-87259008D01*
X132969268Y-87262262D01*
X132971020Y-87265198D01*
X132972835Y-87267828D01*
X132974733Y-87270162D01*
X132976732Y-87272212D01*
X132978849Y-87273987D01*
X132981104Y-87275499D01*
X132983515Y-87276758D01*
X132986100Y-87277775D01*
X132988878Y-87278561D01*
X132991866Y-87279126D01*
X132995085Y-87279481D01*
X132998551Y-87279637D01*
X133002284Y-87279605D01*
X133006301Y-87279394D01*
X133015264Y-87278484D01*
X133025588Y-87276990D01*
X133050904Y-87272600D01*
X133071443Y-87268842D01*
X133094609Y-87264218D01*
X133119855Y-87258423D01*
X133146633Y-87251154D01*
X133160426Y-87246873D01*
X133174397Y-87242110D01*
X133188477Y-87236827D01*
X133202598Y-87230986D01*
X133216692Y-87224549D01*
X133230691Y-87217479D01*
X133244525Y-87209738D01*
X133258126Y-87201288D01*
X133316026Y-87704103D01*
X133411188Y-88630591D01*
X133547532Y-90068819D01*
X133728608Y-92062827D01*
X133813526Y-93093467D01*
X133878785Y-94021547D01*
X133900583Y-94420435D01*
X133914495Y-94774180D01*
X133920576Y-95086739D01*
X133918879Y-95362069D01*
X133915130Y-95487010D01*
X133909457Y-95604128D01*
X133901866Y-95713917D01*
X133892365Y-95816873D01*
X133880959Y-95913489D01*
X133867655Y-96004261D01*
X133852460Y-96089684D01*
X133835382Y-96170251D01*
X133816475Y-96246466D01*
X133795962Y-96318850D01*
X133774111Y-96387937D01*
X133751192Y-96454263D01*
X133703221Y-96580763D01*
X133654203Y-96702622D01*
X133606290Y-96824113D01*
X133583421Y-96886056D01*
X133561634Y-96949509D01*
X133541200Y-97015007D01*
X133522387Y-97083082D01*
X133505464Y-97154270D01*
X133490701Y-97229105D01*
X133478269Y-97307954D01*
X133468044Y-97390520D01*
X133453283Y-97564912D01*
X133444553Y-97748507D01*
X133439988Y-97937530D01*
X133435900Y-98316766D01*
X133432647Y-98499430D01*
X133426103Y-98672426D01*
X133326905Y-99618623D01*
X132648744Y-94288062D01*
X132324055Y-91621084D01*
X132020524Y-88951578D01*
X131764720Y-86484606D01*
X131527618Y-84015274D01*
X131542604Y-84039668D01*
G37*
%TD.AperFunction*%
%TA.AperFunction,NonConductor*%
G36*
X152110183Y-84321382D02*
G01*
X152118631Y-84321435D01*
X152127108Y-84321722D01*
X152135611Y-84322241D01*
X152144139Y-84322990D01*
X152152693Y-84323967D01*
X152161271Y-84325171D01*
X152169872Y-84326600D01*
X152178495Y-84328252D01*
X152187139Y-84330126D01*
X152195804Y-84332219D01*
X152204488Y-84334530D01*
X152213191Y-84337057D01*
X152221911Y-84339798D01*
X152230648Y-84342752D01*
X152239401Y-84345917D01*
X152248168Y-84349290D01*
X152283628Y-84364973D01*
X152319358Y-84384135D01*
X152355269Y-84406859D01*
X152391268Y-84433223D01*
X152427264Y-84463310D01*
X152463167Y-84497199D01*
X152498885Y-84534972D01*
X152534326Y-84576707D01*
X152569400Y-84622487D01*
X152604015Y-84672391D01*
X152638080Y-84726501D01*
X152671505Y-84784896D01*
X152704196Y-84847657D01*
X152736065Y-84914866D01*
X152767018Y-84986601D01*
X152796966Y-85062944D01*
X152853433Y-85231763D01*
X152904782Y-85431918D01*
X152950331Y-85676003D01*
X152989398Y-85976610D01*
X153021303Y-86346330D01*
X153045364Y-86797756D01*
X153060900Y-87343480D01*
X153067230Y-87996095D01*
X153052274Y-89622742D01*
X153009076Y-91530284D01*
X152883254Y-95399774D01*
X152820521Y-97005105D01*
X152757802Y-98328401D01*
X152724609Y-98893152D01*
X152689211Y-99398033D01*
X152650872Y-99846590D01*
X152608856Y-100242370D01*
X152586233Y-100421566D01*
X152562441Y-100588864D01*
X152537416Y-100744683D01*
X152511096Y-100889442D01*
X152483418Y-101023562D01*
X152454319Y-101147462D01*
X152423738Y-101261561D01*
X152391610Y-101366280D01*
X152357875Y-101462038D01*
X152322468Y-101549254D01*
X152285327Y-101628349D01*
X152246390Y-101699742D01*
X152205594Y-101763852D01*
X152184480Y-101793308D01*
X152162877Y-101821100D01*
X152140778Y-101847282D01*
X152118175Y-101871905D01*
X152095060Y-101895023D01*
X152071426Y-101916687D01*
X152047274Y-101936952D01*
X152022642Y-101955864D01*
X151997577Y-101973465D01*
X151972127Y-101989801D01*
X151946342Y-102004918D01*
X151920268Y-102018860D01*
X151893954Y-102031673D01*
X151867448Y-102043401D01*
X151814052Y-102063784D01*
X151760467Y-102080370D01*
X151707076Y-102093518D01*
X151654266Y-102103591D01*
X151602420Y-102110947D01*
X151551924Y-102115948D01*
X151503163Y-102118954D01*
X151456522Y-102120325D01*
X151371140Y-102119607D01*
X151298858Y-102116676D01*
X151241814Y-102113905D01*
X151218576Y-102112428D01*
X151198438Y-102110688D01*
X151189433Y-102109674D01*
X151181084Y-102108538D01*
X151173352Y-102107261D01*
X151166197Y-102105826D01*
X151159580Y-102104213D01*
X151153461Y-102102403D01*
X151147800Y-102100378D01*
X151142558Y-102098119D01*
X151137696Y-102095608D01*
X151133174Y-102092825D01*
X151128951Y-102089751D01*
X151124989Y-102086369D01*
X151121249Y-102082659D01*
X151117690Y-102078603D01*
X151114272Y-102074182D01*
X151110957Y-102069377D01*
X151107705Y-102064169D01*
X151104476Y-102058540D01*
X151097930Y-102045943D01*
X151091001Y-102031436D01*
X151083373Y-102014869D01*
X151044084Y-101927032D01*
X151020547Y-101870666D01*
X150995580Y-101806438D01*
X150970058Y-101734674D01*
X150944853Y-101655700D01*
X150920841Y-101569844D01*
X150909555Y-101524437D01*
X150898895Y-101477432D01*
X150879763Y-101378199D01*
X150863285Y-101269558D01*
X150849187Y-101148335D01*
X150837198Y-101011354D01*
X150827046Y-100855441D01*
X150818461Y-100677421D01*
X150804900Y-100242363D01*
X150795380Y-99682665D01*
X150792095Y-98982193D01*
X150798313Y-98126583D01*
X150817306Y-97101472D01*
X150851337Y-95902961D01*
X150898551Y-94568535D01*
X151020904Y-91682680D01*
X151090792Y-90229820D01*
X151165410Y-88850804D01*
X151245164Y-87612223D01*
X151287094Y-87066405D01*
X151330459Y-86580667D01*
X151352707Y-86362620D01*
X151375332Y-86160890D01*
X151398340Y-85974707D01*
X151421735Y-85803304D01*
X151445522Y-85645912D01*
X151469708Y-85501763D01*
X151494296Y-85370087D01*
X151519292Y-85250118D01*
X151544702Y-85141085D01*
X151570530Y-85042222D01*
X151596781Y-84952758D01*
X151623461Y-84871926D01*
X151650575Y-84798957D01*
X151678129Y-84733084D01*
X151706126Y-84673536D01*
X151734573Y-84619546D01*
X151756183Y-84582330D01*
X151778052Y-84547763D01*
X151800176Y-84515807D01*
X151822553Y-84486426D01*
X151845180Y-84459583D01*
X151868053Y-84435242D01*
X151891171Y-84413367D01*
X151914529Y-84393919D01*
X151938126Y-84376864D01*
X151950013Y-84369222D01*
X151961959Y-84362164D01*
X151973962Y-84355686D01*
X151986024Y-84349783D01*
X151998143Y-84344450D01*
X152010319Y-84339684D01*
X152022552Y-84335478D01*
X152034841Y-84331830D01*
X152047186Y-84328733D01*
X152059587Y-84326185D01*
X152072043Y-84324179D01*
X152084555Y-84322712D01*
X152097120Y-84321778D01*
X152109741Y-84321374D01*
X152110183Y-84321382D01*
G37*
%TD.AperFunction*%
%TA.AperFunction,NonConductor*%
G36*
X135183121Y-78921631D02*
G01*
X135185283Y-79005497D01*
X135193810Y-79235919D01*
X135303368Y-81937563D01*
X135309122Y-82041062D01*
X135311528Y-82093117D01*
X135313371Y-82145304D01*
X134936013Y-82061479D01*
X134559396Y-81972112D01*
X134183431Y-81876971D01*
X133808030Y-81775820D01*
X133656202Y-81720351D01*
X133499648Y-81666512D01*
X133177504Y-81559456D01*
X132851885Y-81446118D01*
X132690987Y-81384426D01*
X132533077Y-81317963D01*
X132379442Y-81245663D01*
X132231366Y-81166458D01*
X132090137Y-81079281D01*
X132022491Y-81032370D01*
X131957039Y-80983067D01*
X131893941Y-80931237D01*
X131833358Y-80876747D01*
X131775451Y-80819465D01*
X131720381Y-80759256D01*
X131668308Y-80695987D01*
X131619392Y-80629526D01*
X131573796Y-80559738D01*
X131531678Y-80486491D01*
X131547782Y-80456821D01*
X133326391Y-80456821D01*
X133326395Y-80465437D01*
X133326768Y-80474176D01*
X133328551Y-80492032D01*
X133331598Y-80510420D01*
X133335771Y-80529368D01*
X133340952Y-80548900D01*
X133347193Y-80569033D01*
X133354575Y-80589785D01*
X133363178Y-80611171D01*
X133373084Y-80633207D01*
X133384372Y-80655910D01*
X133397124Y-80679295D01*
X133411420Y-80703379D01*
X133427341Y-80728178D01*
X133444966Y-80753708D01*
X133464378Y-80779985D01*
X133485657Y-80807026D01*
X133508883Y-80834846D01*
X133534136Y-80863461D01*
X133561499Y-80892889D01*
X133591050Y-80923144D01*
X133656737Y-80985915D01*
X133730279Y-81050471D01*
X133769610Y-81082920D01*
X133810443Y-81115219D01*
X133852624Y-81147168D01*
X133895998Y-81178569D01*
X133940412Y-81209223D01*
X133985712Y-81238930D01*
X134031744Y-81267492D01*
X134078353Y-81294710D01*
X134125386Y-81320385D01*
X134172689Y-81344319D01*
X134220107Y-81366311D01*
X134267488Y-81386164D01*
X134314680Y-81403715D01*
X134361549Y-81418938D01*
X134407965Y-81431839D01*
X134453798Y-81442427D01*
X134498917Y-81450710D01*
X134543193Y-81456694D01*
X134586494Y-81460389D01*
X134628691Y-81461801D01*
X134669653Y-81460939D01*
X134709250Y-81457809D01*
X134747351Y-81452421D01*
X134783827Y-81444781D01*
X134818546Y-81434898D01*
X134851380Y-81422779D01*
X134882197Y-81408431D01*
X134910867Y-81391863D01*
X134937309Y-81373092D01*
X134961576Y-81352195D01*
X134983772Y-81329265D01*
X135003996Y-81304390D01*
X135022351Y-81277661D01*
X135038939Y-81249167D01*
X135053860Y-81218999D01*
X135067218Y-81187247D01*
X135079113Y-81154000D01*
X135089647Y-81119348D01*
X135098922Y-81083382D01*
X135107039Y-81046191D01*
X135114101Y-81007865D01*
X135120208Y-80968495D01*
X135125463Y-80928170D01*
X135129968Y-80886981D01*
X135137071Y-80802505D01*
X135141793Y-80716483D01*
X135144454Y-80630470D01*
X135145370Y-80546022D01*
X135144862Y-80464693D01*
X135143247Y-80388039D01*
X135137971Y-80254977D01*
X135136374Y-80227016D01*
X135134739Y-80201295D01*
X135133076Y-80177705D01*
X135131395Y-80156142D01*
X135128013Y-80118670D01*
X135124668Y-80088027D01*
X135121436Y-80063363D01*
X135118392Y-80043829D01*
X135115611Y-80028574D01*
X135113168Y-80016749D01*
X135107171Y-79988848D01*
X135107240Y-79988833D01*
X134886856Y-80009891D01*
X134666440Y-80032719D01*
X134446024Y-80059184D01*
X134335826Y-80074363D01*
X134225640Y-80091151D01*
X134115689Y-80109722D01*
X134007364Y-80129966D01*
X133902290Y-80151716D01*
X133802092Y-80174804D01*
X133708392Y-80199063D01*
X133622816Y-80224325D01*
X133583582Y-80237279D01*
X133546987Y-80250421D01*
X133513236Y-80263731D01*
X133482530Y-80277186D01*
X133468421Y-80283963D01*
X133455103Y-80290775D01*
X133442556Y-80297625D01*
X133430765Y-80304518D01*
X133419710Y-80311457D01*
X133409374Y-80318445D01*
X133399741Y-80325486D01*
X133390792Y-80332584D01*
X133382511Y-80339742D01*
X133374878Y-80346964D01*
X133367878Y-80354254D01*
X133361491Y-80361615D01*
X133355702Y-80369051D01*
X133350492Y-80376566D01*
X133345843Y-80384162D01*
X133341739Y-80391844D01*
X133338161Y-80399616D01*
X133335093Y-80407480D01*
X133332516Y-80415441D01*
X133330413Y-80423502D01*
X133328766Y-80431667D01*
X133327559Y-80439940D01*
X133326773Y-80448323D01*
X133326391Y-80456821D01*
X131547782Y-80456821D01*
X131568054Y-80419471D01*
X131607631Y-80355500D01*
X131650260Y-80294461D01*
X131695797Y-80236237D01*
X131744093Y-80180711D01*
X131795001Y-80127765D01*
X131904067Y-80029146D01*
X132021817Y-79939444D01*
X132147075Y-79857721D01*
X132278666Y-79783039D01*
X132415411Y-79714462D01*
X132556135Y-79651052D01*
X132699662Y-79591871D01*
X132990415Y-79482451D01*
X133278259Y-79378702D01*
X133553781Y-79273127D01*
X133959644Y-79157862D01*
X134366519Y-79050000D01*
X134774364Y-78949316D01*
X135182908Y-78855638D01*
X135183121Y-78921631D01*
G37*
%TD.AperFunction*%
%TA.AperFunction,NonConductor*%
G36*
X141035996Y-108177780D02*
G01*
X141394544Y-108182701D01*
X141760084Y-108195311D01*
X142124669Y-108215433D01*
X142304121Y-108228255D01*
X142480355Y-108242889D01*
X142080376Y-108246490D01*
X141777074Y-108249237D01*
X141654354Y-108250498D01*
X141549124Y-108251782D01*
X141502645Y-108252456D01*
X141460034Y-108253164D01*
X141421120Y-108253915D01*
X141385735Y-108254718D01*
X141353711Y-108255584D01*
X141324879Y-108256520D01*
X141299070Y-108257536D01*
X141276116Y-108258642D01*
X141255848Y-108259846D01*
X141238097Y-108261159D01*
X141222696Y-108262589D01*
X141215824Y-108263351D01*
X141209475Y-108264146D01*
X141203629Y-108264975D01*
X141198265Y-108265839D01*
X141193362Y-108266740D01*
X141188899Y-108267678D01*
X141184854Y-108268654D01*
X141181207Y-108269670D01*
X141177936Y-108270728D01*
X141175021Y-108271827D01*
X141172440Y-108272970D01*
X141170172Y-108274157D01*
X141168196Y-108275390D01*
X141166492Y-108276670D01*
X141165037Y-108277997D01*
X141163811Y-108279374D01*
X141162794Y-108280801D01*
X141161963Y-108282279D01*
X141161297Y-108283810D01*
X141160776Y-108285395D01*
X141160379Y-108287034D01*
X141160084Y-108288730D01*
X141159718Y-108292294D01*
X141159508Y-108296096D01*
X141158447Y-108313550D01*
X141157939Y-108334248D01*
X141158162Y-108345598D01*
X141158846Y-108357498D01*
X141160100Y-108369864D01*
X141162031Y-108382609D01*
X141164748Y-108395646D01*
X141168358Y-108408888D01*
X141172968Y-108422249D01*
X141178687Y-108435643D01*
X141185622Y-108448983D01*
X141189580Y-108455606D01*
X141193882Y-108462183D01*
X141198542Y-108468703D01*
X141203574Y-108475156D01*
X141208991Y-108481530D01*
X141214806Y-108487815D01*
X141227631Y-108500103D01*
X141242407Y-108512038D01*
X141259444Y-108523665D01*
X141279054Y-108535030D01*
X141301547Y-108546179D01*
X141327235Y-108557158D01*
X141356428Y-108568012D01*
X141389437Y-108578787D01*
X141426574Y-108589530D01*
X141468148Y-108600285D01*
X141565856Y-108622017D01*
X141685047Y-108644349D01*
X141828209Y-108667648D01*
X142187935Y-108717479D01*
X142622462Y-108768694D01*
X143100662Y-108817316D01*
X143591408Y-108859367D01*
X143916663Y-108882055D01*
X144241500Y-108898675D01*
X144406315Y-108904260D01*
X144574089Y-108907786D01*
X144745844Y-108909074D01*
X144922600Y-108907943D01*
X144922755Y-108914659D01*
X144922442Y-108921377D01*
X144921663Y-108928101D01*
X144920418Y-108934830D01*
X144916536Y-108948311D01*
X144910804Y-108961830D01*
X144903232Y-108975397D01*
X144893827Y-108989022D01*
X144882599Y-109002716D01*
X144869556Y-109016488D01*
X144854706Y-109030347D01*
X144838059Y-109044305D01*
X144819622Y-109058371D01*
X144799404Y-109072555D01*
X144777414Y-109086866D01*
X144753661Y-109101316D01*
X144728152Y-109115913D01*
X144700898Y-109130668D01*
X144572194Y-109191978D01*
X144414797Y-109253988D01*
X144228654Y-109314731D01*
X144013709Y-109372242D01*
X143769910Y-109424556D01*
X143637172Y-109448149D01*
X143497200Y-109469705D01*
X143349988Y-109488978D01*
X143195528Y-109505724D01*
X143033814Y-109519695D01*
X142864838Y-109530647D01*
X142506727Y-109542980D01*
X142129455Y-109543071D01*
X141742962Y-109531708D01*
X141357186Y-109509679D01*
X140982067Y-109477772D01*
X140627545Y-109436774D01*
X140303560Y-109387473D01*
X140156124Y-109359955D01*
X140020050Y-109330657D01*
X139956623Y-109315372D01*
X139896269Y-109299680D01*
X139838913Y-109283600D01*
X139784478Y-109267148D01*
X139732890Y-109250343D01*
X139684070Y-109233200D01*
X139637945Y-109215739D01*
X139594437Y-109197975D01*
X139553470Y-109179926D01*
X139514970Y-109161610D01*
X139478859Y-109143044D01*
X139445061Y-109124245D01*
X139413501Y-109105230D01*
X139384103Y-109086018D01*
X139356791Y-109066624D01*
X139331488Y-109047067D01*
X139308119Y-109027364D01*
X139286607Y-109007532D01*
X139266877Y-108987588D01*
X139248853Y-108967550D01*
X139232459Y-108947435D01*
X139217618Y-108927260D01*
X139204254Y-108907043D01*
X139192293Y-108886801D01*
X139181657Y-108866552D01*
X139172271Y-108846312D01*
X139164058Y-108826098D01*
X139156943Y-108805930D01*
X139150850Y-108785822D01*
X139145702Y-108765794D01*
X139137940Y-108726043D01*
X139133240Y-108686812D01*
X139132030Y-108648218D01*
X139134936Y-108610375D01*
X139142582Y-108573395D01*
X139155592Y-108537392D01*
X139164304Y-108519793D01*
X139174592Y-108502480D01*
X139186533Y-108485468D01*
X139200205Y-108468771D01*
X139215687Y-108452403D01*
X139233057Y-108436378D01*
X139252393Y-108420711D01*
X139273773Y-108405415D01*
X139297275Y-108390505D01*
X139322976Y-108375995D01*
X139381293Y-108348232D01*
X139449346Y-108322238D01*
X139527762Y-108298126D01*
X139617165Y-108276011D01*
X139718179Y-108256004D01*
X139831429Y-108238220D01*
X139951365Y-108223407D01*
X140082066Y-108210767D01*
X140222527Y-108200250D01*
X140371742Y-108191806D01*
X140528703Y-108185385D01*
X140692406Y-108180936D01*
X140861844Y-108178410D01*
X141036011Y-108177757D01*
X141035996Y-108177780D01*
G37*
%TD.AperFunction*%
%TA.AperFunction,NonConductor*%
G36*
X151477343Y-67957029D02*
G01*
X152322048Y-68049004D01*
X153165293Y-68155692D01*
X154006881Y-68277900D01*
X154639447Y-68398467D01*
X155339388Y-68540960D01*
X156071828Y-68700834D01*
X156801893Y-68873545D01*
X157494706Y-69054546D01*
X158115392Y-69239294D01*
X158387790Y-69331653D01*
X158629077Y-69423245D01*
X158834895Y-69513500D01*
X159000884Y-69601852D01*
X159007337Y-69610606D01*
X159013647Y-69619335D01*
X159019812Y-69628045D01*
X159025831Y-69636746D01*
X159031699Y-69645445D01*
X159037416Y-69654150D01*
X159042979Y-69662869D01*
X159048385Y-69671611D01*
X159058343Y-69688533D01*
X159067708Y-69705434D01*
X159076481Y-69722314D01*
X159084667Y-69739172D01*
X159092269Y-69756010D01*
X159099290Y-69772826D01*
X159105733Y-69789621D01*
X159111602Y-69806395D01*
X159116901Y-69823147D01*
X159121632Y-69839878D01*
X159125799Y-69856588D01*
X159129405Y-69873276D01*
X159132454Y-69889942D01*
X159134949Y-69906587D01*
X159136893Y-69923210D01*
X159138290Y-69939811D01*
X159028610Y-70042639D01*
X158893309Y-70139730D01*
X158735015Y-70231321D01*
X158556358Y-70317644D01*
X158359965Y-70398935D01*
X158148465Y-70475428D01*
X157924486Y-70547358D01*
X157690658Y-70614960D01*
X157203966Y-70738118D01*
X156709419Y-70846779D01*
X155780868Y-71028117D01*
X155100304Y-71159138D01*
X154417983Y-71277995D01*
X153734072Y-71385214D01*
X153048736Y-71481319D01*
X152987788Y-71471996D01*
X152928868Y-71461679D01*
X152871951Y-71450344D01*
X152817012Y-71437972D01*
X152764027Y-71424540D01*
X152712970Y-71410027D01*
X152663818Y-71394411D01*
X152616544Y-71377672D01*
X152571125Y-71359787D01*
X152527536Y-71340735D01*
X152485752Y-71320495D01*
X152445747Y-71299045D01*
X152407499Y-71276364D01*
X152370981Y-71252429D01*
X152336169Y-71227221D01*
X152303039Y-71200717D01*
X152271505Y-71172855D01*
X152241560Y-71143713D01*
X152186184Y-71081789D01*
X152136392Y-71015346D01*
X152091668Y-70944786D01*
X152051495Y-70870508D01*
X152015354Y-70792914D01*
X151982729Y-70712404D01*
X151953103Y-70629380D01*
X151925959Y-70544242D01*
X151900778Y-70457391D01*
X151854241Y-70280154D01*
X151809353Y-70100874D01*
X151761978Y-69922759D01*
X151736136Y-69835117D01*
X151708571Y-69748799D01*
X151679212Y-69664022D01*
X151647993Y-69581006D01*
X151614843Y-69499967D01*
X151579693Y-69421124D01*
X151542476Y-69344694D01*
X151503122Y-69270896D01*
X151461562Y-69199947D01*
X151417727Y-69132064D01*
X151371550Y-69067467D01*
X151322960Y-69006373D01*
X151271889Y-68948999D01*
X151218269Y-68895563D01*
X151162030Y-68846284D01*
X151132907Y-68823272D01*
X151103103Y-68801380D01*
X151041492Y-68761060D01*
X150977452Y-68725521D01*
X150911305Y-68694960D01*
X150843372Y-68669574D01*
X150773972Y-68649559D01*
X150703426Y-68635112D01*
X150632055Y-68626430D01*
X150560180Y-68623709D01*
X150524153Y-68624645D01*
X150488121Y-68627145D01*
X150452123Y-68631234D01*
X150416199Y-68636936D01*
X150380389Y-68644276D01*
X150344734Y-68653279D01*
X150309273Y-68663968D01*
X150274047Y-68676369D01*
X150239096Y-68690506D01*
X150204459Y-68706403D01*
X150170177Y-68724086D01*
X150136290Y-68743579D01*
X150102838Y-68764906D01*
X150069861Y-68788093D01*
X150037399Y-68813163D01*
X150005493Y-68840141D01*
X149943453Y-68899749D01*
X149883813Y-68966292D01*
X149826582Y-69038989D01*
X149771774Y-69117060D01*
X149719400Y-69199723D01*
X149669472Y-69286199D01*
X149622001Y-69375706D01*
X149577001Y-69467464D01*
X149534482Y-69560693D01*
X149494457Y-69654612D01*
X149421936Y-69841396D01*
X149359533Y-70021572D01*
X149307342Y-70188895D01*
X149285048Y-70265944D01*
X149265048Y-70338381D01*
X149230778Y-70470062D01*
X149177081Y-70685125D01*
X149165068Y-70729760D01*
X149153041Y-70771062D01*
X149140714Y-70809192D01*
X149127797Y-70844308D01*
X149114002Y-70876571D01*
X149099041Y-70906141D01*
X149082626Y-70933177D01*
X149073783Y-70945795D01*
X149064468Y-70957839D01*
X149054661Y-70969330D01*
X149044381Y-70980284D01*
X149033661Y-70990716D01*
X149022533Y-71000639D01*
X149011032Y-71010069D01*
X148999189Y-71019020D01*
X148974612Y-71035540D01*
X148949069Y-71050315D01*
X148922823Y-71063460D01*
X148896139Y-71075088D01*
X148869283Y-71085315D01*
X148842519Y-71094255D01*
X148816112Y-71102023D01*
X148790326Y-71108734D01*
X148765427Y-71114502D01*
X148719348Y-71123668D01*
X148679992Y-71130439D01*
X148648359Y-71135317D01*
X148634465Y-71136689D01*
X148621120Y-71137075D01*
X148607772Y-71136266D01*
X148593871Y-71134057D01*
X148578866Y-71130240D01*
X148562206Y-71124608D01*
X148543340Y-71116953D01*
X148521718Y-71107070D01*
X148496789Y-71094750D01*
X148468003Y-71079788D01*
X148396655Y-71041104D01*
X148303268Y-70989364D01*
X148045347Y-70843684D01*
X147889340Y-70751323D01*
X147722036Y-70647292D01*
X147548482Y-70532600D01*
X147460939Y-70471571D01*
X147373728Y-70408255D01*
X147287479Y-70342777D01*
X147202823Y-70275264D01*
X147120392Y-70205841D01*
X147040817Y-70134635D01*
X146964660Y-70061814D01*
X146892192Y-69987708D01*
X146823609Y-69912683D01*
X146759105Y-69837108D01*
X146698876Y-69761349D01*
X146643116Y-69685774D01*
X146592020Y-69610752D01*
X146545782Y-69536648D01*
X146504599Y-69463831D01*
X146468664Y-69392668D01*
X146438173Y-69323527D01*
X146413320Y-69256775D01*
X146394301Y-69192780D01*
X146381310Y-69131908D01*
X146377136Y-69102759D01*
X146374542Y-69074528D01*
X146373552Y-69047262D01*
X146374192Y-69021007D01*
X146380451Y-68971576D01*
X146393414Y-68925946D01*
X146402438Y-68904428D01*
X146413174Y-68883705D01*
X146439822Y-68844441D01*
X146473453Y-68807743D01*
X146514159Y-68773199D01*
X146562032Y-68740397D01*
X146617165Y-68708927D01*
X146679651Y-68678375D01*
X146749582Y-68648331D01*
X146827052Y-68618382D01*
X146912152Y-68588118D01*
X147105617Y-68524995D01*
X147330718Y-68455669D01*
X147881609Y-68294516D01*
X148212732Y-68209017D01*
X148584764Y-68125263D01*
X149000544Y-68047024D01*
X149462914Y-67978070D01*
X149974714Y-67922170D01*
X150250039Y-67900294D01*
X150538787Y-67883094D01*
X150631286Y-67878994D01*
X150631378Y-67878959D01*
X151477343Y-67957029D01*
G37*
%TD.AperFunction*%
%TA.AperFunction,NonConductor*%
G36*
X131404971Y-72999062D02*
G01*
X131824723Y-73030095D01*
X132243887Y-73067459D01*
X132662515Y-73110713D01*
X132708605Y-73138212D01*
X132752172Y-73167786D01*
X132793297Y-73199655D01*
X132832062Y-73234037D01*
X132868549Y-73271152D01*
X132902842Y-73311220D01*
X132935021Y-73354460D01*
X132965169Y-73401092D01*
X132993369Y-73451333D01*
X133019702Y-73505405D01*
X133044250Y-73563526D01*
X133067097Y-73625916D01*
X133088324Y-73692794D01*
X133108012Y-73764379D01*
X133126246Y-73840891D01*
X133143106Y-73922549D01*
X133182853Y-74170681D01*
X133215445Y-74451806D01*
X133243267Y-74759215D01*
X133268702Y-75086200D01*
X133321948Y-75772063D01*
X133354528Y-76117525D01*
X133394258Y-76455729D01*
X133441835Y-76781135D01*
X133490987Y-77092917D01*
X133533715Y-77391451D01*
X133550169Y-77535867D01*
X133562017Y-77677110D01*
X133568258Y-77815229D01*
X133567892Y-77950269D01*
X133559920Y-78082278D01*
X133543341Y-78211302D01*
X133517156Y-78337389D01*
X133500148Y-78399345D01*
X133480363Y-78460584D01*
X133457677Y-78521112D01*
X133431964Y-78580935D01*
X133403099Y-78640059D01*
X133370957Y-78698489D01*
X133358195Y-78719959D01*
X133344972Y-78741344D01*
X133317185Y-78783848D01*
X133287679Y-78825978D01*
X133256535Y-78867712D01*
X133223835Y-78909029D01*
X133189663Y-78949906D01*
X133154099Y-78990321D01*
X133117227Y-79030253D01*
X132936527Y-79096186D01*
X132763450Y-79163222D01*
X132598130Y-79231335D01*
X132440701Y-79300500D01*
X132291298Y-79370693D01*
X132150055Y-79441886D01*
X132017108Y-79514056D01*
X131892590Y-79587176D01*
X131776636Y-79661221D01*
X131669380Y-79736166D01*
X131570958Y-79811986D01*
X131481503Y-79888654D01*
X131401150Y-79966146D01*
X131364429Y-80005193D01*
X131330034Y-80044437D01*
X131297982Y-80083873D01*
X131268290Y-80123500D01*
X131240973Y-80163313D01*
X131216050Y-80203310D01*
X131127696Y-78881624D01*
X131051210Y-77559542D01*
X131055627Y-77554017D01*
X131057858Y-77551347D01*
X131060104Y-77548738D01*
X131062365Y-77546192D01*
X131064643Y-77543708D01*
X131066938Y-77541286D01*
X131069249Y-77538927D01*
X131071579Y-77536630D01*
X131073926Y-77534397D01*
X131076291Y-77532227D01*
X131078676Y-77530121D01*
X131081079Y-77528078D01*
X131083503Y-77526099D01*
X131085946Y-77524184D01*
X131088411Y-77522334D01*
X131099600Y-77514854D01*
X131111106Y-77508539D01*
X131122925Y-77503315D01*
X131135052Y-77499107D01*
X131147484Y-77495840D01*
X131160215Y-77493440D01*
X131186560Y-77490941D01*
X131214053Y-77491014D01*
X131242660Y-77493062D01*
X131303078Y-77500693D01*
X131367540Y-77509059D01*
X131401201Y-77512026D01*
X131435771Y-77513386D01*
X131471214Y-77512542D01*
X131507497Y-77508897D01*
X131525943Y-77505837D01*
X131544585Y-77501854D01*
X131563421Y-77496872D01*
X131582444Y-77490817D01*
X131621000Y-77475294D01*
X131660009Y-77455215D01*
X131699184Y-77430614D01*
X131738236Y-77401525D01*
X131776877Y-77367981D01*
X131814820Y-77330016D01*
X131851777Y-77287664D01*
X131887459Y-77240959D01*
X131921579Y-77189934D01*
X131953849Y-77134622D01*
X131983981Y-77075059D01*
X132011687Y-77011277D01*
X132036679Y-76943311D01*
X132058669Y-76871193D01*
X132077370Y-76794958D01*
X132092492Y-76714640D01*
X132100228Y-76660657D01*
X132106405Y-76605127D01*
X132111078Y-76548192D01*
X132114299Y-76489996D01*
X132116596Y-76370389D01*
X132113718Y-76247449D01*
X132106087Y-76122318D01*
X132094124Y-75996136D01*
X132078252Y-75870045D01*
X132058892Y-75745189D01*
X132061598Y-75750266D01*
X132064594Y-75755265D01*
X132068077Y-75760489D01*
X132072244Y-75766236D01*
X132077292Y-75772808D01*
X132083419Y-75780506D01*
X132099694Y-75800479D01*
X132115407Y-75819357D01*
X132124439Y-75829631D01*
X132134183Y-75840057D01*
X132144583Y-75850332D01*
X132155586Y-75860153D01*
X132167136Y-75869215D01*
X132173100Y-75873368D01*
X132179180Y-75877217D01*
X132185370Y-75880725D01*
X132191664Y-75883854D01*
X132198053Y-75886566D01*
X132204531Y-75888824D01*
X132211092Y-75890588D01*
X132217729Y-75891822D01*
X132224435Y-75892487D01*
X132231203Y-75892545D01*
X132238026Y-75891959D01*
X132244898Y-75890691D01*
X132251812Y-75888702D01*
X132258760Y-75885955D01*
X132265737Y-75882412D01*
X132272735Y-75878034D01*
X132279747Y-75872785D01*
X132286767Y-75866626D01*
X132300775Y-75851511D01*
X132314661Y-75832847D01*
X132328300Y-75810872D01*
X132341565Y-75785828D01*
X132354331Y-75757955D01*
X132366472Y-75727492D01*
X132377862Y-75694681D01*
X132388375Y-75659761D01*
X132397884Y-75622973D01*
X132406264Y-75584557D01*
X132413388Y-75544753D01*
X132419132Y-75503801D01*
X132423368Y-75461942D01*
X132425972Y-75419416D01*
X132426816Y-75376463D01*
X132425775Y-75333323D01*
X132422711Y-75290229D01*
X132417786Y-75247359D01*
X132411158Y-75204876D01*
X132402983Y-75162939D01*
X132393417Y-75121709D01*
X132382619Y-75081347D01*
X132370743Y-75042013D01*
X132357948Y-75003867D01*
X132344391Y-74967070D01*
X132330227Y-74931783D01*
X132315613Y-74898166D01*
X132300708Y-74866379D01*
X132285666Y-74836583D01*
X132270646Y-74808938D01*
X132255804Y-74783605D01*
X132241296Y-74760745D01*
X132234621Y-74750922D01*
X132228060Y-74741678D01*
X132221610Y-74733022D01*
X132215271Y-74724959D01*
X132209040Y-74717496D01*
X132202915Y-74710642D01*
X132196896Y-74704401D01*
X132190981Y-74698782D01*
X132185168Y-74693791D01*
X132179455Y-74689435D01*
X132176636Y-74687498D01*
X132173841Y-74685722D01*
X132171070Y-74684108D01*
X132168324Y-74682657D01*
X132165601Y-74681371D01*
X132162902Y-74680249D01*
X132160227Y-74679293D01*
X132157575Y-74678503D01*
X132154946Y-74677881D01*
X132152340Y-74677427D01*
X132149756Y-74677142D01*
X132147195Y-74677028D01*
X132146196Y-74677028D01*
X132145677Y-74677028D01*
X132145166Y-74677028D01*
X132144647Y-74677028D01*
X132144464Y-74677048D01*
X132144289Y-74677074D01*
X132144122Y-74677104D01*
X132143963Y-74677139D01*
X132143813Y-74677176D01*
X132143670Y-74677216D01*
X132143535Y-74677257D01*
X132143407Y-74677299D01*
X132142971Y-74677453D01*
X132142880Y-74677484D01*
X132142796Y-74677510D01*
X132142719Y-74677532D01*
X132142648Y-74677547D01*
X132137343Y-74678625D01*
X132132153Y-74680505D01*
X132127076Y-74683193D01*
X132122109Y-74686694D01*
X132117250Y-74691015D01*
X132112497Y-74696161D01*
X132107846Y-74702139D01*
X132103296Y-74708954D01*
X132098845Y-74716612D01*
X132094490Y-74725120D01*
X132090229Y-74734484D01*
X132086059Y-74744708D01*
X132081978Y-74755800D01*
X132077983Y-74767764D01*
X132074073Y-74780608D01*
X132070245Y-74794337D01*
X132062868Y-74824408D01*
X132055860Y-74857671D01*
X132043026Y-74932184D01*
X132031886Y-75014691D01*
X132022584Y-75102006D01*
X132015265Y-75190944D01*
X132010073Y-75278319D01*
X132007152Y-75360947D01*
X132006646Y-75435641D01*
X132006717Y-75459289D01*
X132006872Y-75470628D01*
X132007165Y-75481631D01*
X131992131Y-75418584D01*
X131976589Y-75357269D01*
X131960560Y-75297804D01*
X131944062Y-75240306D01*
X131920155Y-75163061D01*
X131895438Y-75089993D01*
X131869845Y-75020871D01*
X131843307Y-74955468D01*
X131815755Y-74893554D01*
X131787121Y-74834900D01*
X131757338Y-74779278D01*
X131726336Y-74726458D01*
X131694047Y-74676211D01*
X131660403Y-74628309D01*
X131625337Y-74582522D01*
X131588778Y-74538622D01*
X131550660Y-74496379D01*
X131510913Y-74455565D01*
X131469471Y-74415951D01*
X131426263Y-74377307D01*
X131365489Y-74326532D01*
X131302168Y-74276560D01*
X131171020Y-74177053D01*
X131104757Y-74126529D01*
X131039079Y-74074835D01*
X130974768Y-74021477D01*
X130943369Y-73994019D01*
X130912607Y-73965960D01*
X130900705Y-73386149D01*
X130983903Y-72974807D01*
X130984575Y-72974803D01*
X131404971Y-72999062D01*
G37*
%TD.AperFunction*%
%TA.AperFunction,NonConductor*%
G36*
X145636934Y-77986025D02*
G01*
X146829717Y-78010275D01*
X148022018Y-78057711D01*
X150022546Y-78200292D01*
X151027645Y-78292422D01*
X152032424Y-78406681D01*
X153034225Y-78549245D01*
X154030389Y-78726292D01*
X154525527Y-78829678D01*
X155018259Y-78944000D01*
X155508254Y-79070031D01*
X155995178Y-79208544D01*
X156064456Y-79229722D01*
X156133527Y-79251673D01*
X156271221Y-79297240D01*
X156546050Y-79390444D01*
X156660132Y-79427673D01*
X156774381Y-79464266D01*
X156888410Y-79501672D01*
X156945220Y-79521132D01*
X157001830Y-79541338D01*
X157002349Y-79541338D01*
X157013729Y-79548083D01*
X157025253Y-79554811D01*
X157036948Y-79561520D01*
X157048843Y-79568209D01*
X157136674Y-79614382D01*
X157230827Y-79660163D01*
X157431136Y-79753099D01*
X157533813Y-79801529D01*
X157635852Y-79852115D01*
X157735513Y-79905494D01*
X157831058Y-79962305D01*
X157876743Y-79992195D01*
X157920745Y-80023182D01*
X157962849Y-80055346D01*
X158002837Y-80088765D01*
X158040490Y-80123519D01*
X158075591Y-80159689D01*
X158107924Y-80197353D01*
X158137270Y-80236591D01*
X158163413Y-80277483D01*
X158186134Y-80320109D01*
X158205216Y-80364548D01*
X158220442Y-80410879D01*
X158231594Y-80459183D01*
X158238455Y-80509539D01*
X158240807Y-80562026D01*
X158238433Y-80616724D01*
X158092355Y-80765148D01*
X157937096Y-80900315D01*
X157773499Y-81023251D01*
X157602410Y-81134983D01*
X157424671Y-81236540D01*
X157241129Y-81328948D01*
X157052626Y-81413234D01*
X156860008Y-81490426D01*
X156664117Y-81561550D01*
X156465800Y-81627634D01*
X156065260Y-81748790D01*
X155272201Y-81975817D01*
X154546018Y-82134649D01*
X153818715Y-82277204D01*
X152360764Y-82516444D01*
X150898378Y-82699457D01*
X149431587Y-82832164D01*
X147960421Y-82920486D01*
X146484911Y-82970343D01*
X145005088Y-82987655D01*
X143520981Y-82978343D01*
X142821377Y-82954765D01*
X142122204Y-82926433D01*
X141423627Y-82892146D01*
X140725808Y-82850703D01*
X140666395Y-82081421D01*
X140636638Y-81722149D01*
X140605683Y-81384511D01*
X140572658Y-81072049D01*
X140536690Y-80788305D01*
X140496908Y-80536821D01*
X140475314Y-80424283D01*
X140452439Y-80321139D01*
X140440304Y-80272486D01*
X140427824Y-80226305D01*
X140415010Y-80182532D01*
X140401875Y-80141103D01*
X140388430Y-80101954D01*
X140374689Y-80065021D01*
X140360663Y-80030240D01*
X140346365Y-79997546D01*
X140331806Y-79966877D01*
X140317000Y-79938166D01*
X140301957Y-79911351D01*
X140286691Y-79886368D01*
X140271214Y-79863151D01*
X140255537Y-79841638D01*
X140239674Y-79821764D01*
X140223636Y-79803465D01*
X140207435Y-79786677D01*
X140191085Y-79771336D01*
X140174596Y-79757378D01*
X140157981Y-79744739D01*
X140141253Y-79733354D01*
X140124423Y-79723160D01*
X140107505Y-79714092D01*
X140090509Y-79706087D01*
X140073448Y-79699080D01*
X140056336Y-79693007D01*
X140039182Y-79687805D01*
X140022001Y-79683408D01*
X139987603Y-79676778D01*
X139953240Y-79672602D01*
X139919007Y-79670456D01*
X139884973Y-79670234D01*
X139851193Y-79671901D01*
X139817722Y-79675425D01*
X139784615Y-79680772D01*
X139751928Y-79687908D01*
X139719715Y-79696801D01*
X139688032Y-79707417D01*
X139656933Y-79719723D01*
X139626474Y-79733684D01*
X139596711Y-79749269D01*
X139567698Y-79766443D01*
X139539490Y-79785173D01*
X139512143Y-79805426D01*
X139485712Y-79827169D01*
X139460251Y-79850367D01*
X139435813Y-79874994D01*
X139412416Y-79901043D01*
X139390069Y-79928517D01*
X139368782Y-79957417D01*
X139348562Y-79987742D01*
X139329421Y-80019494D01*
X139311366Y-80052674D01*
X139294406Y-80087283D01*
X139278552Y-80123321D01*
X139263812Y-80160791D01*
X139250195Y-80199692D01*
X139237710Y-80240026D01*
X139226368Y-80281793D01*
X139216175Y-80324995D01*
X139207143Y-80369632D01*
X139199280Y-80415705D01*
X139186880Y-80512546D01*
X139178460Y-80617512D01*
X139173210Y-80733010D01*
X139170321Y-80861441D01*
X139166184Y-81552584D01*
X139160187Y-82094096D01*
X139158313Y-82400654D01*
X139160187Y-82725123D01*
X138834590Y-82692386D01*
X138509247Y-82657094D01*
X138184199Y-82619126D01*
X137859490Y-82578364D01*
X137845615Y-81945869D01*
X137829491Y-81365519D01*
X137814986Y-80967179D01*
X137798006Y-80586133D01*
X137778640Y-80225745D01*
X137756977Y-79889380D01*
X137733106Y-79580404D01*
X137713424Y-79369697D01*
X142596876Y-79369697D01*
X142597451Y-79378776D01*
X142598624Y-79387763D01*
X142600356Y-79396641D01*
X142602608Y-79405394D01*
X142605342Y-79414004D01*
X142608520Y-79422455D01*
X142612103Y-79430731D01*
X142620330Y-79446688D01*
X142629715Y-79461741D01*
X142634759Y-79468891D01*
X142640001Y-79475786D01*
X142645425Y-79482432D01*
X142651017Y-79488833D01*
X142662646Y-79500924D01*
X142674769Y-79512098D01*
X142687268Y-79522395D01*
X142700025Y-79531857D01*
X142712922Y-79540524D01*
X142725839Y-79548435D01*
X142738659Y-79555631D01*
X142751264Y-79562153D01*
X142763535Y-79568041D01*
X142775354Y-79573335D01*
X142797162Y-79582303D01*
X142815743Y-79589381D01*
X142830782Y-79594931D01*
X142844612Y-79599428D01*
X142860191Y-79603353D01*
X142880479Y-79607188D01*
X142908437Y-79611413D01*
X142947024Y-79616510D01*
X143067925Y-79631243D01*
X143508792Y-79681610D01*
X143795510Y-79710395D01*
X144099388Y-79736147D01*
X144401978Y-79756883D01*
X144549118Y-79767357D01*
X144691878Y-79779422D01*
X144829047Y-79794217D01*
X144959418Y-79812881D01*
X145021677Y-79824020D01*
X145081783Y-79836553D01*
X145139584Y-79850624D01*
X145194931Y-79866374D01*
X145247715Y-79883943D01*
X145297986Y-79903444D01*
X145345834Y-79924978D01*
X145391348Y-79948643D01*
X145434619Y-79974541D01*
X145475735Y-80002770D01*
X145514787Y-80033432D01*
X145551865Y-80066625D01*
X145587058Y-80102451D01*
X145620456Y-80141008D01*
X145652149Y-80182398D01*
X145682226Y-80226720D01*
X145710778Y-80274074D01*
X145737894Y-80324560D01*
X145763664Y-80378278D01*
X145788178Y-80435328D01*
X145811583Y-80495714D01*
X145834276Y-80559055D01*
X145879384Y-80692689D01*
X145927211Y-80832408D01*
X145953303Y-80903355D01*
X145981467Y-80974390D01*
X146012165Y-81045034D01*
X146045861Y-81114812D01*
X146083020Y-81183243D01*
X146124104Y-81249852D01*
X146169578Y-81314159D01*
X146219906Y-81375688D01*
X146247034Y-81405261D01*
X146275550Y-81433960D01*
X146305511Y-81461725D01*
X146336975Y-81488497D01*
X146404539Y-81538926D01*
X146478204Y-81585314D01*
X146557831Y-81627843D01*
X146643283Y-81666698D01*
X146734422Y-81702059D01*
X146831109Y-81734111D01*
X146933207Y-81763035D01*
X147040577Y-81789014D01*
X147153081Y-81812232D01*
X147270583Y-81832870D01*
X147392942Y-81851111D01*
X147520022Y-81867138D01*
X147787790Y-81893281D01*
X148072784Y-81912760D01*
X148374038Y-81926764D01*
X148691148Y-81935301D01*
X149023810Y-81938070D01*
X149371723Y-81934771D01*
X149734582Y-81925104D01*
X150112087Y-81908767D01*
X150503933Y-81885461D01*
X150909820Y-81854884D01*
X151328409Y-81816961D01*
X151754159Y-81772495D01*
X152180480Y-81722499D01*
X152600782Y-81667983D01*
X153008475Y-81609957D01*
X153396968Y-81549434D01*
X153759672Y-81487423D01*
X154089996Y-81424937D01*
X154241119Y-81393804D01*
X154382666Y-81362776D01*
X154514815Y-81331822D01*
X154637747Y-81300914D01*
X154751642Y-81270024D01*
X154856679Y-81239122D01*
X154953038Y-81208180D01*
X155040899Y-81177169D01*
X155120441Y-81146061D01*
X155191844Y-81114827D01*
X155255288Y-81083437D01*
X155310952Y-81051864D01*
X155335923Y-81036000D01*
X155359017Y-81020078D01*
X155380256Y-81004097D01*
X155399662Y-80988051D01*
X155417258Y-80971939D01*
X155433067Y-80955755D01*
X155447110Y-80939496D01*
X155459411Y-80923159D01*
X155469992Y-80906740D01*
X155478870Y-80890231D01*
X155486058Y-80873627D01*
X155491573Y-80856919D01*
X155495429Y-80840101D01*
X155497641Y-80823166D01*
X155498225Y-80806106D01*
X155497194Y-80788915D01*
X155494565Y-80771586D01*
X155490352Y-80754111D01*
X155484571Y-80736483D01*
X155477235Y-80718696D01*
X155468362Y-80700742D01*
X155457964Y-80682614D01*
X155446058Y-80664305D01*
X155432659Y-80645809D01*
X155401439Y-80608224D01*
X155364425Y-80569802D01*
X155321738Y-80530488D01*
X155273497Y-80490224D01*
X155219823Y-80448954D01*
X155160836Y-80406622D01*
X155096657Y-80363171D01*
X155027404Y-80318545D01*
X154873861Y-80225873D01*
X154699617Y-80129755D01*
X154503774Y-80031644D01*
X154285432Y-79932991D01*
X154043694Y-79835248D01*
X153777660Y-79739867D01*
X153635252Y-79693516D01*
X153486432Y-79648300D01*
X153331090Y-79604400D01*
X153169113Y-79561999D01*
X152825717Y-79482167D01*
X152460000Y-79408935D01*
X152076675Y-79342139D01*
X151680450Y-79281617D01*
X151276037Y-79227203D01*
X150868146Y-79178735D01*
X150461489Y-79136048D01*
X150060775Y-79098979D01*
X149669614Y-79067353D01*
X149287161Y-79040928D01*
X148911467Y-79019443D01*
X148540582Y-79002638D01*
X148172556Y-78990254D01*
X147805439Y-78982030D01*
X147066131Y-78977023D01*
X146314966Y-78985138D01*
X145575779Y-79002786D01*
X144880262Y-79026155D01*
X144260109Y-79051432D01*
X143741230Y-79076183D01*
X143520848Y-79089323D01*
X143325886Y-79103795D01*
X143155879Y-79120216D01*
X143080089Y-79129350D01*
X143010363Y-79139203D01*
X142946644Y-79149851D01*
X142888874Y-79161372D01*
X142836994Y-79173844D01*
X142790947Y-79187342D01*
X142770088Y-79194496D01*
X142750634Y-79201909D01*
X142732547Y-79209563D01*
X142715789Y-79217444D01*
X142700320Y-79225532D01*
X142686104Y-79233813D01*
X142673100Y-79242269D01*
X142661271Y-79250884D01*
X142650578Y-79259640D01*
X142640983Y-79268522D01*
X142632447Y-79277512D01*
X142624931Y-79286594D01*
X142618398Y-79295750D01*
X142612809Y-79304965D01*
X142608125Y-79314222D01*
X142604307Y-79323503D01*
X142601318Y-79332792D01*
X142599119Y-79342073D01*
X142597672Y-79351329D01*
X142596937Y-79360542D01*
X142596876Y-79369697D01*
X137713424Y-79369697D01*
X137707117Y-79302182D01*
X137679099Y-79058078D01*
X137649140Y-78851458D01*
X137636580Y-78779859D01*
X137630130Y-78746446D01*
X137623539Y-78714578D01*
X137616788Y-78684220D01*
X137609855Y-78655339D01*
X137602722Y-78627898D01*
X137595368Y-78601865D01*
X137587773Y-78577205D01*
X137579915Y-78553882D01*
X137571776Y-78531863D01*
X137563335Y-78511113D01*
X137554572Y-78491597D01*
X137545466Y-78473281D01*
X137535998Y-78456131D01*
X137526147Y-78440112D01*
X138237920Y-78348667D01*
X138951268Y-78270498D01*
X139665940Y-78204159D01*
X140381685Y-78148204D01*
X141815381Y-78061664D01*
X143250344Y-77999308D01*
X143250740Y-77999323D01*
X144443875Y-77983021D01*
X145636934Y-77986025D01*
G37*
%TD.AperFunction*%
D11*
%TA.AperFunction,Conductor*%
G36*
X145645408Y-102887220D02*
G01*
X146551116Y-102905292D01*
X147456512Y-102940826D01*
X147691747Y-102939636D01*
X147798134Y-102939681D01*
X147897417Y-102940156D01*
X147989882Y-102941064D01*
X148075817Y-102942409D01*
X148155508Y-102944193D01*
X148229242Y-102946420D01*
X148297306Y-102949092D01*
X148359988Y-102952212D01*
X148417574Y-102955784D01*
X148470350Y-102959809D01*
X148518604Y-102964292D01*
X148562624Y-102969235D01*
X148602695Y-102974642D01*
X148639104Y-102980514D01*
X148672139Y-102986856D01*
X148702087Y-102993669D01*
X148729234Y-103000958D01*
X148753867Y-103008725D01*
X148776274Y-103016972D01*
X148796741Y-103025704D01*
X148815554Y-103034923D01*
X148833002Y-103044632D01*
X148849371Y-103054833D01*
X148864948Y-103065531D01*
X148880019Y-103076727D01*
X148894872Y-103088426D01*
X148957839Y-103140296D01*
X148967605Y-103150134D01*
X148976801Y-103159941D01*
X148985453Y-103169715D01*
X148993590Y-103179454D01*
X149001237Y-103189155D01*
X149008420Y-103198817D01*
X149015168Y-103208436D01*
X149021507Y-103218011D01*
X149027462Y-103227540D01*
X149033062Y-103237019D01*
X149038333Y-103246448D01*
X149043301Y-103255822D01*
X149052437Y-103274402D01*
X149060684Y-103292739D01*
X149069744Y-103314614D01*
X149077807Y-103336121D01*
X149084876Y-103357268D01*
X149090956Y-103378062D01*
X149096053Y-103398507D01*
X149100171Y-103418611D01*
X149103315Y-103438380D01*
X149105489Y-103457820D01*
X149106699Y-103476939D01*
X149106950Y-103495741D01*
X149106246Y-103514234D01*
X149104592Y-103532424D01*
X149101994Y-103550317D01*
X149098455Y-103567919D01*
X149093981Y-103585238D01*
X149088577Y-103602279D01*
X149076241Y-103634731D01*
X149068871Y-103650024D01*
X149060009Y-103664773D01*
X149049134Y-103679034D01*
X149035728Y-103692865D01*
X149019273Y-103706326D01*
X148999250Y-103719472D01*
X148975139Y-103732363D01*
X148946423Y-103745056D01*
X148912581Y-103757608D01*
X148873097Y-103770078D01*
X148827449Y-103782523D01*
X148775121Y-103795002D01*
X148715593Y-103807571D01*
X148648345Y-103820289D01*
X148648345Y-103820808D01*
X148612885Y-103821276D01*
X148578640Y-103822323D01*
X148545611Y-103823934D01*
X148513794Y-103826094D01*
X148483190Y-103828789D01*
X148453796Y-103832003D01*
X148425612Y-103835723D01*
X148398635Y-103839934D01*
X148372865Y-103844621D01*
X148348301Y-103849770D01*
X148324940Y-103855366D01*
X148302782Y-103861394D01*
X148281826Y-103867840D01*
X148262069Y-103874690D01*
X148243511Y-103881929D01*
X148226150Y-103889541D01*
X148221296Y-103891810D01*
X148216560Y-103894116D01*
X148211941Y-103896460D01*
X148207433Y-103898838D01*
X148203033Y-103901248D01*
X148198738Y-103903690D01*
X148194543Y-103906162D01*
X148190444Y-103908660D01*
X148194543Y-103906119D01*
X148198738Y-103903611D01*
X148203033Y-103901134D01*
X148207433Y-103898681D01*
X148211941Y-103896249D01*
X148216560Y-103893831D01*
X148221296Y-103891424D01*
X148226150Y-103889022D01*
X148231638Y-103886408D01*
X148237302Y-103883867D01*
X148243129Y-103881394D01*
X148249105Y-103878985D01*
X148255218Y-103876636D01*
X148261454Y-103874342D01*
X148267801Y-103872099D01*
X148274246Y-103869903D01*
X148108018Y-103878964D01*
X147920972Y-103887336D01*
X147479980Y-103904014D01*
X146950479Y-103924062D01*
X146367306Y-103952889D01*
X146069147Y-103972447D01*
X145773838Y-103996423D01*
X145486800Y-104025557D01*
X145213456Y-104060592D01*
X145083514Y-104080503D01*
X144958430Y-104101848D01*
X144838271Y-104124395D01*
X144723105Y-104147914D01*
X144612999Y-104172173D01*
X144508021Y-104196941D01*
X144313719Y-104247082D01*
X144140740Y-104296488D01*
X143989624Y-104343311D01*
X143755143Y-104421814D01*
X143672465Y-104450420D01*
X143639013Y-104462227D01*
X143610351Y-104472662D01*
X143597705Y-104477434D01*
X143586125Y-104481945D01*
X143575566Y-104486222D01*
X143565984Y-104490294D01*
X143557335Y-104494187D01*
X143549575Y-104497928D01*
X143542660Y-104501546D01*
X143536546Y-104505067D01*
X143531189Y-104508520D01*
X143526546Y-104511930D01*
X143522571Y-104515326D01*
X143519221Y-104518736D01*
X143516452Y-104522186D01*
X143514220Y-104525703D01*
X143512481Y-104529317D01*
X143511191Y-104533052D01*
X143510306Y-104536938D01*
X143509782Y-104541001D01*
X143509574Y-104545269D01*
X143509640Y-104549769D01*
X143509934Y-104554529D01*
X143510413Y-104559576D01*
X143511750Y-104570640D01*
X143515268Y-104596929D01*
X143520076Y-104627959D01*
X143526780Y-104662578D01*
X143531033Y-104680873D01*
X143535986Y-104699633D01*
X143541717Y-104718714D01*
X143548300Y-104737972D01*
X143555811Y-104757264D01*
X143564327Y-104776444D01*
X143573923Y-104795369D01*
X143584675Y-104813895D01*
X143596657Y-104831878D01*
X143609947Y-104849174D01*
X143624684Y-104865665D01*
X143641238Y-104881354D01*
X143660045Y-104896263D01*
X143681542Y-104910416D01*
X143706165Y-104923834D01*
X143734350Y-104936542D01*
X143766533Y-104948561D01*
X143803151Y-104959915D01*
X143844641Y-104970626D01*
X143891437Y-104980717D01*
X143943977Y-104990211D01*
X144002697Y-104999131D01*
X144068033Y-105007500D01*
X144140421Y-105015340D01*
X144308098Y-105029525D01*
X144507296Y-105041874D01*
X144731894Y-105052610D01*
X145225141Y-105070176D01*
X146162766Y-105096183D01*
X146342193Y-105102231D01*
X146495289Y-105109379D01*
X146563384Y-105113712D01*
X146626603Y-105118734D01*
X146685513Y-105124583D01*
X146740684Y-105131399D01*
X146792685Y-105139318D01*
X146842083Y-105148479D01*
X146889448Y-105159020D01*
X146935348Y-105171079D01*
X146980353Y-105184795D01*
X147025030Y-105200304D01*
X147069948Y-105217746D01*
X147115676Y-105237258D01*
X147149105Y-105252556D01*
X147183156Y-105268893D01*
X147217834Y-105286207D01*
X147253143Y-105304435D01*
X147220751Y-105325701D01*
X147188603Y-105347369D01*
X147156739Y-105369467D01*
X147125196Y-105392022D01*
X147094012Y-105415062D01*
X147063227Y-105438615D01*
X147032879Y-105462710D01*
X147003005Y-105487373D01*
X146994027Y-105498273D01*
X146985803Y-105509131D01*
X146978307Y-105519938D01*
X146971511Y-105530684D01*
X146965387Y-105541361D01*
X146959908Y-105551959D01*
X146955047Y-105562469D01*
X146950775Y-105572882D01*
X146947065Y-105583190D01*
X146943889Y-105593382D01*
X146941221Y-105603450D01*
X146939031Y-105613384D01*
X146937293Y-105623177D01*
X146935980Y-105632817D01*
X146935063Y-105642297D01*
X146934514Y-105651607D01*
X146934414Y-105669681D01*
X146935459Y-105686967D01*
X146937427Y-105703392D01*
X146940098Y-105718882D01*
X146943251Y-105733365D01*
X146946667Y-105746768D01*
X146953399Y-105770042D01*
X146959399Y-105788338D01*
X146962849Y-105795558D01*
X146967160Y-105801510D01*
X146972750Y-105806204D01*
X146980039Y-105809653D01*
X146989447Y-105811869D01*
X147001392Y-105812865D01*
X147016294Y-105812652D01*
X147034573Y-105811243D01*
X147056648Y-105808649D01*
X147082939Y-105804884D01*
X147149845Y-105793885D01*
X147238647Y-105778343D01*
X147293368Y-105769904D01*
X147364751Y-105760506D01*
X147541486Y-105739445D01*
X147736815Y-105716389D01*
X147918701Y-105692565D01*
X147984802Y-105729255D01*
X148102652Y-105794103D01*
X148220347Y-105856142D01*
X148337018Y-105915145D01*
X148451799Y-105970883D01*
X148563822Y-106023128D01*
X148672222Y-106071652D01*
X148776130Y-106116227D01*
X148874679Y-106156623D01*
X148968058Y-106192675D01*
X149060665Y-106224402D01*
X149157966Y-106251899D01*
X149210083Y-106264090D01*
X149265424Y-106275259D01*
X149324671Y-106285417D01*
X149388506Y-106294577D01*
X149457614Y-106302749D01*
X149532676Y-106309947D01*
X149703400Y-106321464D01*
X149906143Y-106329223D01*
X149954697Y-106330365D01*
X150007881Y-106330819D01*
X150115432Y-106331321D01*
X150245909Y-106316813D01*
X150376575Y-106304347D01*
X150638212Y-106282587D01*
X150899811Y-106260131D01*
X151030431Y-106246796D01*
X151160842Y-106231071D01*
X150717322Y-106297203D01*
X150273276Y-106356578D01*
X149828701Y-106409487D01*
X149383592Y-106456216D01*
X148937946Y-106497056D01*
X148491759Y-106532294D01*
X148045027Y-106562219D01*
X147597747Y-106587120D01*
X146496891Y-106583467D01*
X145394767Y-106592635D01*
X144292133Y-106604731D01*
X143189743Y-106609863D01*
X142366085Y-106570744D01*
X141543854Y-106518349D01*
X140723444Y-106449298D01*
X139905249Y-106360216D01*
X139089662Y-106247723D01*
X138277078Y-106108444D01*
X137467890Y-105939000D01*
X137064692Y-105841911D01*
X136662492Y-105736015D01*
X136547200Y-105694328D01*
X136428307Y-105653853D01*
X136183628Y-105573337D01*
X135936280Y-105488071D01*
X135814051Y-105441657D01*
X135694090Y-105391656D01*
X135577374Y-105337269D01*
X135464882Y-105277696D01*
X135357591Y-105212137D01*
X135306202Y-105176863D01*
X135256481Y-105139792D01*
X135208549Y-105100825D01*
X135162529Y-105059862D01*
X135118543Y-105016802D01*
X135076713Y-104971547D01*
X135037162Y-104923995D01*
X135000012Y-104874047D01*
X134965385Y-104821603D01*
X134933404Y-104766563D01*
X134961025Y-104716206D01*
X134991079Y-104668144D01*
X135023454Y-104622289D01*
X135058038Y-104578552D01*
X135094719Y-104536844D01*
X135133385Y-104497079D01*
X135216226Y-104423019D01*
X135305666Y-104355667D01*
X135400811Y-104294316D01*
X135500766Y-104238259D01*
X135604637Y-104186792D01*
X135711529Y-104139207D01*
X135820548Y-104094799D01*
X136041387Y-104012686D01*
X136259998Y-103934805D01*
X136469224Y-103855506D01*
X136648413Y-103804437D01*
X136738131Y-103779591D01*
X136827866Y-103755256D01*
X136851688Y-103874555D01*
X136876992Y-103990769D01*
X136903869Y-104103817D01*
X136932411Y-104213619D01*
X136962709Y-104320095D01*
X136994855Y-104423165D01*
X137028941Y-104522749D01*
X137065057Y-104618766D01*
X137087509Y-104673987D01*
X137110863Y-104727839D01*
X137135278Y-104780242D01*
X137160914Y-104831115D01*
X137187932Y-104880379D01*
X137216492Y-104927953D01*
X137246753Y-104973758D01*
X137278877Y-105017713D01*
X137313023Y-105059738D01*
X137349351Y-105099753D01*
X137388023Y-105137678D01*
X137429197Y-105173432D01*
X137473034Y-105206936D01*
X137496001Y-105222819D01*
X137519694Y-105238109D01*
X137544133Y-105252797D01*
X137569337Y-105266872D01*
X137595328Y-105280324D01*
X137622125Y-105293144D01*
X137678130Y-105316853D01*
X137737112Y-105337932D01*
X137798736Y-105356330D01*
X137862670Y-105371996D01*
X137928580Y-105384879D01*
X137996133Y-105394928D01*
X138064996Y-105402091D01*
X138134835Y-105406318D01*
X138205318Y-105407557D01*
X138276111Y-105405758D01*
X138346881Y-105400869D01*
X138417294Y-105392838D01*
X138487018Y-105381616D01*
X138555720Y-105367150D01*
X138623065Y-105349390D01*
X138688721Y-105328285D01*
X138752398Y-105303801D01*
X138813944Y-105275955D01*
X138873235Y-105244782D01*
X138930150Y-105210316D01*
X138984566Y-105172590D01*
X139036361Y-105131637D01*
X139085413Y-105087493D01*
X139131600Y-105040189D01*
X139174798Y-104989761D01*
X139214886Y-104936242D01*
X139251742Y-104879666D01*
X139285242Y-104820066D01*
X139315265Y-104757477D01*
X139341689Y-104691932D01*
X139364390Y-104623464D01*
X139383248Y-104552108D01*
X139393821Y-104501881D01*
X139402567Y-104449837D01*
X139409500Y-104395474D01*
X139414636Y-104338290D01*
X139419572Y-104213451D01*
X139417492Y-104071306D01*
X139408513Y-103907838D01*
X139392751Y-103719031D01*
X139370324Y-103500872D01*
X139341347Y-103249343D01*
X139899591Y-103175543D01*
X140459162Y-103112686D01*
X141019846Y-103059569D01*
X141581433Y-103014988D01*
X142143708Y-102977739D01*
X142706462Y-102946617D01*
X143832550Y-102897941D01*
X143833062Y-102897422D01*
X143833474Y-102897415D01*
X144739492Y-102885098D01*
X145645408Y-102887220D01*
G37*
%TD.AperFunction*%
%TA.AperFunction,Conductor*%
G36*
X157775618Y-73458079D02*
G01*
X157803367Y-73459605D01*
X157816458Y-73460705D01*
X157829044Y-73462037D01*
X157841140Y-73463607D01*
X157852757Y-73465422D01*
X157863910Y-73467486D01*
X157874612Y-73469805D01*
X157884877Y-73472386D01*
X157894718Y-73475234D01*
X157904148Y-73478355D01*
X157913180Y-73481754D01*
X157921829Y-73485438D01*
X157930108Y-73489412D01*
X157938029Y-73493681D01*
X157945607Y-73498253D01*
X157952855Y-73503132D01*
X157959787Y-73508324D01*
X157966415Y-73513835D01*
X157972753Y-73519671D01*
X157978815Y-73525838D01*
X157984613Y-73532341D01*
X157990163Y-73539186D01*
X157995476Y-73546379D01*
X158000566Y-73553925D01*
X158005447Y-73561831D01*
X158023035Y-73597128D01*
X158037655Y-73638329D01*
X158049468Y-73685459D01*
X158058636Y-73738540D01*
X158065319Y-73797595D01*
X158069678Y-73862647D01*
X158072072Y-74010835D01*
X158067107Y-74183286D01*
X158056072Y-74380184D01*
X158020950Y-74848056D01*
X157976996Y-75405513D01*
X157933738Y-76001934D01*
X157900757Y-76576292D01*
X157891114Y-76836127D01*
X157887634Y-77067561D01*
X157888549Y-77170513D01*
X157891281Y-77265096D01*
X157895805Y-77351942D01*
X157902099Y-77431680D01*
X157910139Y-77504943D01*
X157919903Y-77572360D01*
X157931367Y-77634564D01*
X157944509Y-77692185D01*
X157959305Y-77745854D01*
X157975732Y-77796202D01*
X157993766Y-77843859D01*
X158013386Y-77889458D01*
X158034568Y-77933629D01*
X158057289Y-77977003D01*
X158081525Y-78020211D01*
X158107253Y-78063883D01*
X158222834Y-78250026D01*
X158285551Y-78351490D01*
X158349466Y-78459555D01*
X158413012Y-78574973D01*
X158444157Y-78635674D01*
X158474624Y-78698496D01*
X158504215Y-78763533D01*
X158532736Y-78830878D01*
X158559991Y-78900627D01*
X158585784Y-78972872D01*
X158609787Y-79047575D01*
X158631884Y-79124159D01*
X158651810Y-79201923D01*
X158669300Y-79280163D01*
X158684089Y-79358179D01*
X158695912Y-79435268D01*
X158704506Y-79510728D01*
X158709604Y-79583856D01*
X158710942Y-79653952D01*
X158708255Y-79720312D01*
X158701279Y-79782235D01*
X158696100Y-79811313D01*
X158689749Y-79839019D01*
X158682193Y-79865264D01*
X158673399Y-79889961D01*
X158663335Y-79913022D01*
X158651966Y-79934360D01*
X158639260Y-79953886D01*
X158625184Y-79971514D01*
X158609704Y-79987154D01*
X158592788Y-80000720D01*
X158592391Y-80001077D01*
X158591953Y-80001436D01*
X158591479Y-80001797D01*
X158590977Y-80002158D01*
X158589907Y-80002883D01*
X158588790Y-80003606D01*
X158587674Y-80004325D01*
X158586604Y-80005036D01*
X158586101Y-80005387D01*
X158585628Y-80005735D01*
X158585190Y-80006079D01*
X158584792Y-80006419D01*
X158411654Y-79840680D01*
X158197355Y-79678818D01*
X157943223Y-79521079D01*
X157650588Y-79367710D01*
X157320778Y-79218957D01*
X156955121Y-79075069D01*
X156554948Y-78936290D01*
X156121585Y-78802868D01*
X155656363Y-78675051D01*
X155160609Y-78553084D01*
X154082823Y-78327688D01*
X152898856Y-78128657D01*
X151619338Y-77957964D01*
X151602583Y-77935675D01*
X151586696Y-77911440D01*
X151571679Y-77885143D01*
X151557535Y-77856667D01*
X151544265Y-77825896D01*
X151531872Y-77792714D01*
X151520356Y-77757005D01*
X151509721Y-77718652D01*
X151499968Y-77677539D01*
X151491099Y-77633550D01*
X151483116Y-77586569D01*
X151476020Y-77536479D01*
X151469815Y-77483164D01*
X151464501Y-77426508D01*
X151460082Y-77366394D01*
X151458437Y-77336667D01*
X157292920Y-77336667D01*
X157292961Y-77355046D01*
X157293303Y-77370872D01*
X157293614Y-77377898D01*
X157294032Y-77384371D01*
X157294569Y-77390319D01*
X157295235Y-77395770D01*
X157296041Y-77400752D01*
X157296998Y-77405293D01*
X157298117Y-77409421D01*
X157299407Y-77413166D01*
X157300881Y-77416554D01*
X157302549Y-77419614D01*
X157304421Y-77422374D01*
X157306509Y-77424863D01*
X157308823Y-77427108D01*
X157311374Y-77429138D01*
X157314173Y-77430980D01*
X157317231Y-77432664D01*
X157320557Y-77434217D01*
X157324165Y-77435668D01*
X157328062Y-77437044D01*
X157332262Y-77438374D01*
X157341610Y-77441009D01*
X157352294Y-77443797D01*
X157377719Y-77450226D01*
X157407605Y-77457151D01*
X157440739Y-77463580D01*
X157458146Y-77466299D01*
X157475911Y-77468523D01*
X157493883Y-77470127D01*
X157511910Y-77470987D01*
X157529840Y-77470980D01*
X157547523Y-77469983D01*
X157564806Y-77467869D01*
X157581539Y-77464517D01*
X157597569Y-77459802D01*
X157605274Y-77456895D01*
X157612747Y-77453600D01*
X157626936Y-77445799D01*
X157640158Y-77436304D01*
X157652460Y-77425019D01*
X157663887Y-77411848D01*
X157674486Y-77396696D01*
X157684303Y-77379465D01*
X157693385Y-77360060D01*
X157701778Y-77338384D01*
X157709528Y-77314342D01*
X157716682Y-77287837D01*
X157723286Y-77258774D01*
X157729386Y-77227056D01*
X157735029Y-77192586D01*
X157740262Y-77155270D01*
X157749679Y-77071711D01*
X157765844Y-76867717D01*
X157781631Y-76616568D01*
X157801092Y-76321302D01*
X157828277Y-75984957D01*
X157864280Y-75615963D01*
X157882438Y-75428378D01*
X157898383Y-75244742D01*
X157910378Y-75069563D01*
X157916683Y-74907345D01*
X157917158Y-74832505D01*
X157915560Y-74762595D01*
X157911671Y-74698179D01*
X157905273Y-74639819D01*
X157902869Y-74623777D01*
X157900231Y-74608314D01*
X157897364Y-74593423D01*
X157894275Y-74579103D01*
X157890968Y-74565347D01*
X157887451Y-74552152D01*
X157883728Y-74539513D01*
X157879805Y-74527427D01*
X157875689Y-74515888D01*
X157871385Y-74504893D01*
X157866899Y-74494436D01*
X157862237Y-74484515D01*
X157857404Y-74475124D01*
X157852407Y-74466260D01*
X157847250Y-74457917D01*
X157841941Y-74450092D01*
X157836485Y-74442781D01*
X157830887Y-74435978D01*
X157825154Y-74429680D01*
X157819291Y-74423882D01*
X157813304Y-74418581D01*
X157807199Y-74413771D01*
X157800982Y-74409449D01*
X157794658Y-74405610D01*
X157788234Y-74402249D01*
X157781715Y-74399364D01*
X157775107Y-74396948D01*
X157768416Y-74394998D01*
X157761647Y-74393510D01*
X157754807Y-74392479D01*
X157747901Y-74391901D01*
X157740936Y-74391772D01*
X157740417Y-74391772D01*
X157740264Y-74391788D01*
X157730644Y-74392421D01*
X157720933Y-74393885D01*
X157711145Y-74396170D01*
X157701297Y-74399264D01*
X157691401Y-74403153D01*
X157681474Y-74407828D01*
X157671529Y-74413275D01*
X157661582Y-74419484D01*
X157651647Y-74426442D01*
X157641739Y-74434138D01*
X157631873Y-74442560D01*
X157622063Y-74451695D01*
X157612323Y-74461533D01*
X157602670Y-74472062D01*
X157593117Y-74483269D01*
X157583679Y-74495143D01*
X157560909Y-74527280D01*
X157538936Y-74563274D01*
X157517783Y-74602943D01*
X157497475Y-74646103D01*
X157478035Y-74692570D01*
X157459488Y-74742161D01*
X157441858Y-74794692D01*
X157425168Y-74849980D01*
X157409443Y-74907842D01*
X157394707Y-74968093D01*
X157368297Y-75095031D01*
X157346130Y-75229326D01*
X157328399Y-75369510D01*
X157315126Y-75514108D01*
X157305847Y-75661657D01*
X157299910Y-75810713D01*
X157296657Y-75959834D01*
X157295586Y-76252495D01*
X157297393Y-76528094D01*
X157297893Y-76776113D01*
X157296893Y-76989864D01*
X157293395Y-77291354D01*
X157292920Y-77336667D01*
X151458437Y-77336667D01*
X151456558Y-77302706D01*
X151451254Y-77028080D01*
X151458327Y-76712940D01*
X151476960Y-76370424D01*
X151506336Y-76013669D01*
X151545638Y-75655811D01*
X151568683Y-75491195D01*
X156094437Y-75491195D01*
X156095062Y-75573359D01*
X156097162Y-75652489D01*
X156100194Y-75726222D01*
X156106872Y-75848041D01*
X156109661Y-75892043D01*
X156110947Y-75909849D01*
X156112257Y-75925127D01*
X156112943Y-75931882D01*
X156113662Y-75938081D01*
X156114422Y-75943748D01*
X156115233Y-75948911D01*
X156116105Y-75953593D01*
X156117045Y-75957821D01*
X156118062Y-75961619D01*
X156119167Y-75965013D01*
X156120367Y-75968028D01*
X156121672Y-75970689D01*
X156123091Y-75973022D01*
X156124632Y-75975052D01*
X156126305Y-75976805D01*
X156128119Y-75978304D01*
X156130083Y-75979577D01*
X156132205Y-75980647D01*
X156134495Y-75981542D01*
X156136961Y-75982284D01*
X156139614Y-75982901D01*
X156142461Y-75983417D01*
X156148774Y-75984248D01*
X156155975Y-75984980D01*
X156173205Y-75986324D01*
X156182973Y-75986739D01*
X156193356Y-75986763D01*
X156204240Y-75986232D01*
X156215512Y-75984981D01*
X156227058Y-75982845D01*
X156232898Y-75981393D01*
X156238763Y-75979659D01*
X156244640Y-75977620D01*
X156250513Y-75975258D01*
X156256370Y-75972551D01*
X156262195Y-75969478D01*
X156267974Y-75966020D01*
X156273693Y-75962155D01*
X156279338Y-75957862D01*
X156284895Y-75953122D01*
X156290348Y-75947913D01*
X156295685Y-75942216D01*
X156300890Y-75936009D01*
X156305950Y-75929271D01*
X156310849Y-75921983D01*
X156315575Y-75914124D01*
X156320112Y-75905673D01*
X156324447Y-75896609D01*
X156332572Y-75876626D01*
X156339824Y-75854288D01*
X156346220Y-75829760D01*
X156351780Y-75803209D01*
X156356522Y-75774799D01*
X156360466Y-75744697D01*
X156363631Y-75713069D01*
X156366035Y-75680079D01*
X156368636Y-75610683D01*
X156368422Y-75537833D01*
X156365544Y-75462857D01*
X156360153Y-75387080D01*
X156356553Y-75349324D01*
X156352368Y-75311944D01*
X156347622Y-75275167D01*
X156342339Y-75239223D01*
X156336544Y-75204341D01*
X156330261Y-75170748D01*
X156323515Y-75138674D01*
X156316329Y-75108348D01*
X156308729Y-75079998D01*
X156300738Y-75053853D01*
X156292381Y-75030142D01*
X156283682Y-75009093D01*
X156274665Y-74990935D01*
X156270046Y-74983012D01*
X156265356Y-74975897D01*
X156260599Y-74969619D01*
X156255778Y-74964208D01*
X156250896Y-74959690D01*
X156245956Y-74956096D01*
X156244936Y-74955438D01*
X156243899Y-74954817D01*
X156242846Y-74954233D01*
X156241778Y-74953686D01*
X156240696Y-74953178D01*
X156239603Y-74952710D01*
X156238500Y-74952282D01*
X156237388Y-74951896D01*
X156236269Y-74951551D01*
X156235144Y-74951250D01*
X156234015Y-74950993D01*
X156232884Y-74950781D01*
X156231751Y-74950614D01*
X156230619Y-74950494D01*
X156229489Y-74950421D01*
X156228362Y-74950397D01*
X156228317Y-74950427D01*
X156223757Y-74950865D01*
X156219185Y-74952004D01*
X156214605Y-74953830D01*
X156210024Y-74956330D01*
X156200884Y-74963308D01*
X156191816Y-74972836D01*
X156182870Y-74984818D01*
X156174097Y-74999153D01*
X156165545Y-75015742D01*
X156157266Y-75034487D01*
X156149310Y-75055288D01*
X156141726Y-75078046D01*
X156134566Y-75102662D01*
X156127880Y-75129037D01*
X156121717Y-75157073D01*
X156116128Y-75186669D01*
X156111163Y-75217727D01*
X156106872Y-75250148D01*
X156102912Y-75288032D01*
X156099797Y-75327226D01*
X156095834Y-75408363D01*
X156094437Y-75491195D01*
X151568683Y-75491195D01*
X151594050Y-75309988D01*
X151650754Y-74989338D01*
X151681961Y-74842557D01*
X151714935Y-74706996D01*
X151734237Y-74636256D01*
X151754226Y-74569445D01*
X151775070Y-74506429D01*
X151796936Y-74447077D01*
X151819993Y-74391257D01*
X151844408Y-74338838D01*
X151870350Y-74289687D01*
X151883945Y-74266296D01*
X151897985Y-74243673D01*
X151912490Y-74221802D01*
X151927482Y-74200665D01*
X151942981Y-74180246D01*
X151959008Y-74160529D01*
X151975584Y-74141498D01*
X151992731Y-74123135D01*
X152010469Y-74105425D01*
X152028820Y-74088351D01*
X152047803Y-74071896D01*
X152067441Y-74056044D01*
X152087754Y-74040779D01*
X152108763Y-74026084D01*
X152130489Y-74011942D01*
X152152953Y-73998338D01*
X152176176Y-73985254D01*
X152200179Y-73972674D01*
X153026918Y-73898726D01*
X153853006Y-73814020D01*
X154678341Y-73718336D01*
X155502822Y-73611457D01*
X156150121Y-73574734D01*
X156444280Y-73556481D01*
X156711028Y-73538077D01*
X156882110Y-73524808D01*
X157037128Y-73511717D01*
X157302434Y-73487609D01*
X157513882Y-73468841D01*
X157601576Y-73462424D01*
X157678405Y-73458499D01*
X157678863Y-73458480D01*
X157713473Y-73457563D01*
X157745689Y-73457414D01*
X157775618Y-73458079D01*
G37*
%TD.AperFunction*%
%TA.AperFunction,Conductor*%
G36*
X137871453Y-83147357D02*
G01*
X138189829Y-83187121D01*
X138513409Y-83225151D01*
X138841962Y-83261362D01*
X139175255Y-83295672D01*
X139181007Y-83423685D01*
X139187957Y-83552312D01*
X139196182Y-83681293D01*
X139205757Y-83810366D01*
X139234617Y-84123647D01*
X139270242Y-84433587D01*
X139311069Y-84737401D01*
X139355536Y-85032302D01*
X139402081Y-85315506D01*
X139449141Y-85584226D01*
X139538559Y-86067071D01*
X139578439Y-86276262D01*
X139616361Y-86463739D01*
X139635278Y-86549701D01*
X139654536Y-86630674D01*
X139674410Y-86706805D01*
X139695177Y-86778241D01*
X139717114Y-86845127D01*
X139740497Y-86907610D01*
X139765603Y-86965838D01*
X139792708Y-87019956D01*
X139822089Y-87070112D01*
X139854022Y-87116451D01*
X139871032Y-87138235D01*
X139888784Y-87159120D01*
X139907312Y-87179125D01*
X139926651Y-87198266D01*
X139946821Y-87216558D01*
X139967783Y-87233994D01*
X140011868Y-87266242D01*
X140058473Y-87294906D01*
X140107169Y-87319878D01*
X140157524Y-87341052D01*
X140209107Y-87358322D01*
X140261488Y-87371581D01*
X140314234Y-87380722D01*
X140366916Y-87385638D01*
X140419101Y-87386225D01*
X140444873Y-87384861D01*
X140470360Y-87382374D01*
X140495507Y-87378751D01*
X140520261Y-87373979D01*
X140544567Y-87368045D01*
X140568372Y-87360934D01*
X140591623Y-87352635D01*
X140614264Y-87343133D01*
X140636242Y-87332415D01*
X140657504Y-87320468D01*
X140677996Y-87307278D01*
X140697663Y-87292833D01*
X140734403Y-87260095D01*
X140767733Y-87222002D01*
X140797760Y-87178270D01*
X140824590Y-87128615D01*
X140848328Y-87072753D01*
X140869083Y-87010399D01*
X140886959Y-86941270D01*
X140902064Y-86865081D01*
X140914503Y-86781549D01*
X140924384Y-86690389D01*
X140931812Y-86591316D01*
X140936894Y-86484048D01*
X140940446Y-86243787D01*
X140935890Y-85967332D01*
X140912597Y-85422339D01*
X140874081Y-84798155D01*
X140772080Y-83428988D01*
X141784652Y-83489330D01*
X142824798Y-83533197D01*
X143889164Y-83559971D01*
X144974396Y-83569033D01*
X146204116Y-83557373D01*
X147406948Y-83522990D01*
X148577799Y-83466800D01*
X149711578Y-83389719D01*
X149696774Y-83398674D01*
X149683267Y-83407477D01*
X149671014Y-83416137D01*
X149659974Y-83424657D01*
X149650107Y-83433045D01*
X149641370Y-83441305D01*
X149633723Y-83449445D01*
X149627125Y-83457471D01*
X149621533Y-83465387D01*
X149616907Y-83473200D01*
X149613205Y-83480916D01*
X149610386Y-83488541D01*
X149608409Y-83496080D01*
X149607233Y-83503540D01*
X149606815Y-83510927D01*
X149607116Y-83518247D01*
X149608093Y-83525505D01*
X149609706Y-83532708D01*
X149611913Y-83539861D01*
X149614672Y-83546971D01*
X149617943Y-83554042D01*
X149621684Y-83561083D01*
X149625854Y-83568097D01*
X149630412Y-83575091D01*
X149640525Y-83589044D01*
X149651693Y-83602989D01*
X149675872Y-83631045D01*
X149717399Y-83679081D01*
X149759602Y-83730019D01*
X149802439Y-83785283D01*
X149845868Y-83846293D01*
X149867793Y-83879397D01*
X149889849Y-83914471D01*
X149912034Y-83951692D01*
X149934341Y-83991239D01*
X149956765Y-84033289D01*
X149979301Y-84078019D01*
X150001943Y-84125608D01*
X150024688Y-84176233D01*
X150070280Y-84288324D01*
X150115187Y-84420771D01*
X150158351Y-84581064D01*
X150198713Y-84776696D01*
X150235214Y-85015157D01*
X150266797Y-85303938D01*
X150292403Y-85650530D01*
X150310974Y-86062425D01*
X150321792Y-86543890D01*
X150325333Y-87086365D01*
X150313644Y-88307311D01*
X150282019Y-89631191D01*
X150236572Y-90963937D01*
X150182875Y-92221355D01*
X150121490Y-93358925D01*
X150087789Y-93871968D01*
X150052014Y-94342090D01*
X150014116Y-94764972D01*
X149974044Y-95136293D01*
X149953155Y-95301456D01*
X149931568Y-95453239D01*
X149909145Y-95592226D01*
X149885750Y-95719004D01*
X149861247Y-95834157D01*
X149848537Y-95887557D01*
X149835499Y-95938271D01*
X149822115Y-95986371D01*
X149808369Y-96031932D01*
X149794244Y-96075025D01*
X149779722Y-96115724D01*
X149764786Y-96154103D01*
X149749419Y-96190234D01*
X149733605Y-96224191D01*
X149717326Y-96256047D01*
X149700565Y-96285875D01*
X149683305Y-96313748D01*
X149665529Y-96339740D01*
X149647220Y-96363923D01*
X149628361Y-96386371D01*
X149608934Y-96407157D01*
X149588923Y-96426354D01*
X149568311Y-96444036D01*
X149547080Y-96460275D01*
X149525214Y-96475145D01*
X149502695Y-96488719D01*
X149479507Y-96501070D01*
X149455642Y-96512251D01*
X149431137Y-96522233D01*
X149406041Y-96530963D01*
X149380401Y-96538390D01*
X149354265Y-96544461D01*
X149327682Y-96549125D01*
X149300699Y-96552331D01*
X149273364Y-96554026D01*
X149245726Y-96554159D01*
X149217832Y-96552678D01*
X149189730Y-96549532D01*
X149161469Y-96544668D01*
X149133096Y-96538034D01*
X149104660Y-96529580D01*
X149076208Y-96519254D01*
X149047788Y-96507002D01*
X149019449Y-96492775D01*
X148991238Y-96476520D01*
X148963204Y-96458185D01*
X148935394Y-96437719D01*
X148907856Y-96415070D01*
X148880639Y-96390185D01*
X148853791Y-96363015D01*
X148827359Y-96333506D01*
X148801391Y-96301606D01*
X148775936Y-96267265D01*
X148751042Y-96230431D01*
X148726756Y-96191051D01*
X148703126Y-96149074D01*
X148680201Y-96104448D01*
X148658029Y-96057122D01*
X148636657Y-96007043D01*
X148596411Y-95898553D01*
X148559344Y-95779177D01*
X148525239Y-95649242D01*
X148493876Y-95509077D01*
X148438510Y-95199363D01*
X148391502Y-94852657D01*
X148351108Y-94471577D01*
X148315586Y-94058745D01*
X148252181Y-93148302D01*
X148125301Y-91166647D01*
X148058783Y-90281535D01*
X148024571Y-89908976D01*
X147989654Y-89599679D01*
X147971910Y-89472280D01*
X147953932Y-89363175D01*
X147935673Y-89271734D01*
X147926424Y-89232439D01*
X147917088Y-89197325D01*
X147907660Y-89166310D01*
X147898133Y-89139317D01*
X147888502Y-89116267D01*
X147878761Y-89097081D01*
X147868906Y-89081679D01*
X147858929Y-89069984D01*
X147848826Y-89061916D01*
X147838590Y-89057396D01*
X147828216Y-89056346D01*
X147817699Y-89058687D01*
X147807033Y-89064339D01*
X147796212Y-89073224D01*
X147785230Y-89085263D01*
X147774082Y-89100378D01*
X147762763Y-89118488D01*
X147751266Y-89139516D01*
X147727716Y-89190010D01*
X147703389Y-89251226D01*
X147678239Y-89322536D01*
X147652221Y-89403306D01*
X147597718Y-89591576D01*
X147541191Y-89815336D01*
X147484298Y-90074767D01*
X147428691Y-90370047D01*
X147376027Y-90701355D01*
X147327961Y-91068869D01*
X147286148Y-91472769D01*
X147252242Y-91913232D01*
X147227272Y-92389636D01*
X147209918Y-92898219D01*
X147190116Y-93993769D01*
X147176952Y-95163582D01*
X147154540Y-96371355D01*
X147135393Y-96977588D01*
X147110983Y-97576447D01*
X147050456Y-98720944D01*
X146981124Y-99742649D01*
X146911147Y-100579368D01*
X146878319Y-100911344D01*
X146847619Y-101188224D01*
X146819379Y-101416670D01*
X146793930Y-101603344D01*
X146752726Y-101878030D01*
X146737633Y-101979367D01*
X146726654Y-102065582D01*
X146722869Y-102104984D01*
X146720610Y-102142405D01*
X146720296Y-102177976D01*
X146722346Y-102211830D01*
X146724388Y-102228154D01*
X146727179Y-102244098D01*
X146730769Y-102259679D01*
X146735212Y-102274913D01*
X146740560Y-102289816D01*
X146746866Y-102304407D01*
X146754181Y-102318699D01*
X146762558Y-102332712D01*
X146772050Y-102346460D01*
X146782708Y-102359960D01*
X146794585Y-102373230D01*
X146807734Y-102386284D01*
X146822206Y-102399141D01*
X146838055Y-102411816D01*
X146855332Y-102424326D01*
X146874090Y-102436688D01*
X146894380Y-102448918D01*
X146916257Y-102461032D01*
X146939771Y-102473047D01*
X146964975Y-102484980D01*
X147020663Y-102508665D01*
X147083740Y-102532218D01*
X147126649Y-102546769D01*
X147172339Y-102561291D01*
X147220590Y-102575796D01*
X147271179Y-102590297D01*
X147378486Y-102619332D01*
X147492492Y-102648490D01*
X146361275Y-102606506D01*
X145616155Y-102584976D01*
X145326462Y-102583777D01*
X145218300Y-102586782D01*
X145140679Y-102592651D01*
X144340235Y-102599051D01*
X143555719Y-102617939D01*
X142789342Y-102648866D01*
X142043314Y-102691382D01*
X141319848Y-102745037D01*
X140621154Y-102809381D01*
X139949445Y-102883964D01*
X139306931Y-102968338D01*
X139174637Y-101932739D01*
X138987570Y-100431647D01*
X138863534Y-99365139D01*
X144060125Y-99365139D01*
X144062295Y-99982777D01*
X144066071Y-100215223D01*
X144072546Y-100410720D01*
X144082398Y-100579744D01*
X144096306Y-100732772D01*
X144104965Y-100806316D01*
X144114668Y-100878318D01*
X144125275Y-100948616D01*
X144136640Y-101017050D01*
X144161079Y-101147686D01*
X144186842Y-101268943D01*
X144212786Y-101379539D01*
X144237768Y-101478190D01*
X144280274Y-101634529D01*
X144296033Y-101690116D01*
X144302873Y-101712494D01*
X144309348Y-101731529D01*
X144312527Y-101739855D01*
X144315708Y-101747420D01*
X144318922Y-101754249D01*
X144322199Y-101760368D01*
X144325571Y-101765801D01*
X144329068Y-101770573D01*
X144332722Y-101774709D01*
X144336563Y-101778234D01*
X144340623Y-101781174D01*
X144344932Y-101783552D01*
X144349521Y-101785396D01*
X144354421Y-101786728D01*
X144359664Y-101787575D01*
X144365279Y-101787961D01*
X144371298Y-101787911D01*
X144377752Y-101787451D01*
X144384671Y-101786605D01*
X144392087Y-101785399D01*
X144408534Y-101782004D01*
X144427337Y-101777467D01*
X144448746Y-101771987D01*
X144499601Y-101758261D01*
X144528479Y-101749374D01*
X144559212Y-101738649D01*
X144591467Y-101725717D01*
X144624907Y-101710212D01*
X144659200Y-101691765D01*
X144694011Y-101670009D01*
X144729006Y-101644577D01*
X144746467Y-101630367D01*
X144763850Y-101615101D01*
X144781111Y-101598732D01*
X144798209Y-101581213D01*
X144815103Y-101562501D01*
X144831749Y-101542547D01*
X144848108Y-101521307D01*
X144864136Y-101498734D01*
X144879793Y-101474783D01*
X144895036Y-101449407D01*
X144909823Y-101422561D01*
X144924113Y-101394198D01*
X144937865Y-101364273D01*
X144951035Y-101332740D01*
X144975576Y-101264635D01*
X144997764Y-101189351D01*
X145035661Y-101014969D01*
X145065890Y-100805037D01*
X145089615Y-100554996D01*
X145108000Y-100260290D01*
X145122209Y-99916359D01*
X145142754Y-99062593D01*
X145158528Y-97983694D01*
X145168753Y-96775367D01*
X145170878Y-95559690D01*
X145162354Y-94458742D01*
X145153273Y-93986351D01*
X145140361Y-93569927D01*
X145123056Y-93206254D01*
X145112581Y-93043195D01*
X145100798Y-92892118D01*
X145087636Y-92752621D01*
X145073024Y-92624303D01*
X145056894Y-92506762D01*
X145039174Y-92399595D01*
X145019794Y-92302401D01*
X144998685Y-92214778D01*
X144975776Y-92136323D01*
X144950997Y-92066637D01*
X144942861Y-92046589D01*
X144934540Y-92027347D01*
X144926039Y-92008898D01*
X144917366Y-91991232D01*
X144908527Y-91974336D01*
X144899527Y-91958199D01*
X144890374Y-91942809D01*
X144881073Y-91928155D01*
X144871631Y-91914225D01*
X144862054Y-91901007D01*
X144852349Y-91888490D01*
X144842522Y-91876662D01*
X144832579Y-91865512D01*
X144822527Y-91855027D01*
X144812371Y-91845197D01*
X144802119Y-91836010D01*
X144791776Y-91827453D01*
X144781349Y-91819516D01*
X144770844Y-91812186D01*
X144760268Y-91805452D01*
X144749627Y-91799303D01*
X144738927Y-91793727D01*
X144728175Y-91788712D01*
X144717376Y-91784247D01*
X144706538Y-91780320D01*
X144695666Y-91776919D01*
X144684768Y-91774033D01*
X144673848Y-91771650D01*
X144662914Y-91769758D01*
X144651972Y-91768346D01*
X144630089Y-91766916D01*
X144616981Y-91766945D01*
X144603900Y-91767598D01*
X144590854Y-91768855D01*
X144577855Y-91770695D01*
X144564912Y-91773098D01*
X144552035Y-91776045D01*
X144539234Y-91779515D01*
X144526518Y-91783489D01*
X144513898Y-91787946D01*
X144501384Y-91792866D01*
X144488985Y-91798229D01*
X144476712Y-91804016D01*
X144464574Y-91810206D01*
X144452581Y-91816779D01*
X144440743Y-91823716D01*
X144429070Y-91830995D01*
X144398835Y-91852235D01*
X144369891Y-91877210D01*
X144342244Y-91907357D01*
X144315898Y-91944110D01*
X144290861Y-91988905D01*
X144267139Y-92043180D01*
X144244736Y-92108369D01*
X144223660Y-92185908D01*
X144203916Y-92277233D01*
X144185510Y-92383781D01*
X144168448Y-92506987D01*
X144152736Y-92648287D01*
X144138380Y-92809116D01*
X144125386Y-92990912D01*
X144103508Y-93423143D01*
X144075330Y-94555343D01*
X144062970Y-95901522D01*
X144060608Y-98474000D01*
X144060125Y-99365139D01*
X138863534Y-99365139D01*
X138772196Y-98579779D01*
X138553146Y-96480865D01*
X138355050Y-94238634D01*
X138197399Y-91956169D01*
X138079090Y-89733738D01*
X137993858Y-87670860D01*
X137935441Y-85867052D01*
X137896675Y-84359416D01*
X137871339Y-83147318D01*
X137871453Y-83147357D01*
G37*
%TD.AperFunction*%
D10*
%TA.AperFunction,NonConductor*%
G36*
X134790345Y-107760276D02*
G01*
X134814924Y-107761035D01*
X134840737Y-107764919D01*
X134867680Y-107772221D01*
X134895647Y-107783237D01*
X134924534Y-107798260D01*
X134954235Y-107817585D01*
X134984647Y-107841506D01*
X135015664Y-107870317D01*
X135047181Y-107904313D01*
X135079094Y-107943788D01*
X135111297Y-107989037D01*
X135143686Y-108040353D01*
X135176156Y-108098031D01*
X135208602Y-108162365D01*
X135240920Y-108233650D01*
X135273003Y-108312179D01*
X135340793Y-108506841D01*
X135406691Y-108739244D01*
X135470375Y-109012318D01*
X135531522Y-109328993D01*
X135589809Y-109692200D01*
X135644914Y-110104868D01*
X135696514Y-110569927D01*
X135744286Y-111090309D01*
X136054864Y-115876060D01*
X136076040Y-116098188D01*
X136097928Y-116301565D01*
X136120465Y-116487321D01*
X136143585Y-116656583D01*
X136167223Y-116810479D01*
X136191315Y-116950138D01*
X136215796Y-117076688D01*
X136240601Y-117191256D01*
X136265666Y-117294971D01*
X136290926Y-117388962D01*
X136316317Y-117474356D01*
X136341772Y-117552281D01*
X136367229Y-117623866D01*
X136392621Y-117690238D01*
X136442956Y-117811859D01*
X136814507Y-118626800D01*
X136993440Y-119056691D01*
X137042732Y-119168402D01*
X137095400Y-119280498D01*
X137152220Y-119392325D01*
X137182429Y-119447932D01*
X137213967Y-119503227D01*
X137246910Y-119558155D01*
X137281248Y-119612775D01*
X137316949Y-119667166D01*
X137353980Y-119721411D01*
X137431905Y-119829785D01*
X137514766Y-119938550D01*
X137602305Y-120048354D01*
X137694265Y-120159850D01*
X137890420Y-120390518D01*
X137983865Y-120499398D01*
X138075753Y-120608676D01*
X138119673Y-120662656D01*
X138161476Y-120715766D01*
X138200586Y-120767683D01*
X138236427Y-120818084D01*
X138268424Y-120866646D01*
X138296000Y-120913045D01*
X138318580Y-120956959D01*
X138327817Y-120977883D01*
X138335588Y-120998064D01*
X138341823Y-121017462D01*
X138346448Y-121036037D01*
X138349392Y-121053749D01*
X138350584Y-121070556D01*
X138349951Y-121086419D01*
X138347420Y-121101297D01*
X138342921Y-121115150D01*
X138336381Y-121127937D01*
X138028939Y-121059585D01*
X137751886Y-120995837D01*
X137316811Y-120892295D01*
X137191418Y-120862261D01*
X137140626Y-120850305D01*
X137097002Y-120840308D01*
X137077699Y-120836026D01*
X137059972Y-120832210D01*
X137043749Y-120828854D01*
X137028958Y-120825950D01*
X137015527Y-120823489D01*
X137003385Y-120821466D01*
X136992458Y-120819871D01*
X136982676Y-120818697D01*
X136973967Y-120817938D01*
X136966257Y-120817584D01*
X136962755Y-120817557D01*
X136959475Y-120817628D01*
X136956410Y-120817798D01*
X136953550Y-120818064D01*
X136950886Y-120818426D01*
X136948409Y-120818882D01*
X136946110Y-120819433D01*
X136943981Y-120820077D01*
X136942011Y-120820812D01*
X136940192Y-120821639D01*
X136938516Y-120822555D01*
X136936972Y-120823561D01*
X136935552Y-120824655D01*
X136934248Y-120825836D01*
X136933050Y-120827104D01*
X136931948Y-120828456D01*
X136930935Y-120829893D01*
X136930001Y-120831414D01*
X136928334Y-120834702D01*
X136926875Y-120838311D01*
X136925552Y-120842236D01*
X136923028Y-120850997D01*
X136923013Y-120851718D01*
X136922971Y-120852421D01*
X136922905Y-120853109D01*
X136922816Y-120853783D01*
X136922709Y-120854448D01*
X136922584Y-120855106D01*
X136922297Y-120856411D01*
X136921644Y-120859058D01*
X136921321Y-120860444D01*
X136921170Y-120861161D01*
X136921029Y-120861900D01*
X136885163Y-120847110D01*
X136849133Y-120832002D01*
X136813007Y-120816594D01*
X136776849Y-120800903D01*
X136645414Y-120742046D01*
X136513551Y-120680225D01*
X136250976Y-120549898D01*
X135993996Y-120414353D01*
X135747482Y-120278018D01*
X135516306Y-120145323D01*
X135305338Y-120020695D01*
X134963517Y-119813362D01*
X134877717Y-119761161D01*
X134880154Y-119758190D01*
X134881370Y-119756763D01*
X134881984Y-119756075D01*
X134882604Y-119755408D01*
X134883232Y-119754764D01*
X134883870Y-119754146D01*
X134884520Y-119753558D01*
X134885184Y-119753002D01*
X134885864Y-119752481D01*
X134886561Y-119751999D01*
X134887278Y-119751557D01*
X134888017Y-119751159D01*
X134893696Y-119746042D01*
X134898984Y-119740798D01*
X134903886Y-119735432D01*
X134908409Y-119729949D01*
X134912559Y-119724356D01*
X134916343Y-119718658D01*
X134919767Y-119712859D01*
X134922837Y-119706965D01*
X134925560Y-119700983D01*
X134927942Y-119694916D01*
X134929990Y-119688771D01*
X134931710Y-119682553D01*
X134933109Y-119676267D01*
X134934192Y-119669919D01*
X134934967Y-119663515D01*
X134935439Y-119657058D01*
X134935502Y-119644013D01*
X134934433Y-119630827D01*
X134932283Y-119617543D01*
X134929104Y-119604204D01*
X134924946Y-119590854D01*
X134919860Y-119577537D01*
X134913899Y-119564294D01*
X134907113Y-119551170D01*
X134899558Y-119538188D01*
X134891208Y-119525327D01*
X134882028Y-119512546D01*
X134871984Y-119499802D01*
X134861040Y-119487054D01*
X134849163Y-119474261D01*
X134836318Y-119461380D01*
X134822471Y-119448370D01*
X134807586Y-119435190D01*
X134791630Y-119421797D01*
X134774569Y-119408151D01*
X134756367Y-119394208D01*
X134736989Y-119379928D01*
X134716403Y-119365269D01*
X134671464Y-119334648D01*
X134621605Y-119302228D01*
X134568207Y-119268686D01*
X134513003Y-119234887D01*
X134457722Y-119201696D01*
X134353855Y-119140591D01*
X134270455Y-119092285D01*
X134251744Y-119075799D01*
X134230163Y-119046583D01*
X134206127Y-119005283D01*
X134180053Y-118952544D01*
X134123445Y-118815333D01*
X134063659Y-118640111D01*
X134004014Y-118432043D01*
X133947829Y-118196292D01*
X133922071Y-118069648D01*
X133898423Y-117938020D01*
X133877300Y-117802052D01*
X133859117Y-117662391D01*
X133828897Y-117377942D01*
X133800631Y-117059895D01*
X133749073Y-116337475D01*
X133702670Y-115524071D01*
X133659646Y-114648620D01*
X133675146Y-114659205D01*
X133690827Y-114671667D01*
X133706644Y-114685956D01*
X133722550Y-114702023D01*
X133738498Y-114719819D01*
X133754443Y-114739294D01*
X133770339Y-114760398D01*
X133786140Y-114783083D01*
X133801798Y-114807298D01*
X133817268Y-114832995D01*
X133832505Y-114860124D01*
X133847461Y-114888635D01*
X133862090Y-114918479D01*
X133876347Y-114949608D01*
X133890185Y-114981970D01*
X133903558Y-115015518D01*
X133923736Y-115070957D01*
X133942791Y-115128885D01*
X133978252Y-115250710D01*
X134011372Y-115378001D01*
X134043580Y-115507764D01*
X134076308Y-115637008D01*
X134110985Y-115762738D01*
X134129502Y-115823351D01*
X134149042Y-115881964D01*
X134169786Y-115938202D01*
X134191911Y-115991691D01*
X134211888Y-116034700D01*
X134232894Y-116075329D01*
X134254825Y-116113453D01*
X134277575Y-116148949D01*
X134301037Y-116181695D01*
X134313002Y-116196997D01*
X134325106Y-116211565D01*
X134337334Y-116225384D01*
X134349675Y-116238438D01*
X134362115Y-116250711D01*
X134374640Y-116262188D01*
X134387237Y-116272855D01*
X134399893Y-116282694D01*
X134412595Y-116291692D01*
X134425330Y-116299832D01*
X134438084Y-116307099D01*
X134450844Y-116313477D01*
X134463597Y-116318952D01*
X134476329Y-116323507D01*
X134489028Y-116327128D01*
X134501680Y-116329798D01*
X134514272Y-116331503D01*
X134526791Y-116332227D01*
X134539223Y-116331955D01*
X134551555Y-116330670D01*
X134563775Y-116328359D01*
X134575868Y-116325004D01*
X134573907Y-116371236D01*
X134572471Y-116418259D01*
X134571484Y-116466068D01*
X134570870Y-116514656D01*
X134571352Y-116680661D01*
X134575287Y-116851213D01*
X134582135Y-117022590D01*
X134591356Y-117191072D01*
X134602410Y-117352937D01*
X134614757Y-117504464D01*
X134627856Y-117641931D01*
X134641168Y-117761619D01*
X134647759Y-117813759D01*
X134654245Y-117860818D01*
X134660608Y-117903085D01*
X134666830Y-117940849D01*
X134672893Y-117974400D01*
X134678778Y-118004028D01*
X134684468Y-118030021D01*
X134689943Y-118052669D01*
X134695187Y-118072262D01*
X134700180Y-118089088D01*
X134704905Y-118103438D01*
X134709344Y-118115600D01*
X134713478Y-118125864D01*
X134717289Y-118134520D01*
X134723870Y-118148162D01*
X134729094Y-118158629D01*
X134731380Y-118163059D01*
X134733577Y-118167109D01*
X134735781Y-118170897D01*
X134738088Y-118174539D01*
X134740594Y-118178154D01*
X134743396Y-118181858D01*
X134746589Y-118185768D01*
X134750269Y-118190001D01*
X134754533Y-118194675D01*
X134759477Y-118199908D01*
X134771789Y-118212514D01*
X134787973Y-118228759D01*
X134808631Y-118249266D01*
X134833684Y-118273404D01*
X134862893Y-118300241D01*
X134896017Y-118328841D01*
X134913973Y-118343510D01*
X134932818Y-118358270D01*
X134952522Y-118373004D01*
X134973057Y-118387594D01*
X134994390Y-118401925D01*
X135016494Y-118415880D01*
X135039337Y-118429341D01*
X135062890Y-118442192D01*
X135087098Y-118454317D01*
X135111808Y-118465610D01*
X135136832Y-118475969D01*
X135161986Y-118485287D01*
X135187082Y-118493460D01*
X135211934Y-118500384D01*
X135236355Y-118505954D01*
X135260159Y-118510066D01*
X135283161Y-118512614D01*
X135305172Y-118513494D01*
X135315749Y-118513275D01*
X135326008Y-118512601D01*
X135335926Y-118511458D01*
X135345481Y-118509832D01*
X135354648Y-118507710D01*
X135363405Y-118505080D01*
X135371729Y-118501929D01*
X135379595Y-118498243D01*
X135386980Y-118494009D01*
X135393862Y-118489214D01*
X135400217Y-118483845D01*
X135406022Y-118477890D01*
X135415856Y-118464155D01*
X135423564Y-118447789D01*
X135429303Y-118428562D01*
X135433230Y-118406240D01*
X135435500Y-118380594D01*
X135436272Y-118351392D01*
X135433945Y-118281391D01*
X135396020Y-117812820D01*
X135375589Y-117449759D01*
X135357391Y-117036313D01*
X135339907Y-116619927D01*
X135321618Y-116248046D01*
X135311713Y-116092309D01*
X135306420Y-116022427D01*
X135300828Y-115957528D01*
X135294881Y-115897355D01*
X135288524Y-115841651D01*
X135281703Y-115790159D01*
X135274362Y-115742623D01*
X135266448Y-115698786D01*
X135257904Y-115658391D01*
X135248676Y-115621182D01*
X135238709Y-115586902D01*
X135227948Y-115555294D01*
X135216339Y-115526102D01*
X135203826Y-115499069D01*
X135190354Y-115473938D01*
X135175889Y-115450481D01*
X135160498Y-115428652D01*
X135144283Y-115408431D01*
X135127342Y-115389801D01*
X135109774Y-115372741D01*
X135091679Y-115357232D01*
X135073155Y-115343255D01*
X135054303Y-115330792D01*
X135035221Y-115319822D01*
X135016009Y-115310327D01*
X134996766Y-115302288D01*
X134977591Y-115295685D01*
X134958583Y-115290500D01*
X134939842Y-115286713D01*
X134921467Y-115284304D01*
X134903558Y-115283256D01*
X134897384Y-115283312D01*
X134894332Y-115283385D01*
X134891296Y-115283490D01*
X134888275Y-115283627D01*
X134885264Y-115283800D01*
X134882259Y-115284009D01*
X134879258Y-115284256D01*
X134874041Y-115185523D01*
X134865420Y-115086117D01*
X134840998Y-114876312D01*
X134812056Y-114636901D01*
X134797786Y-114500487D01*
X134784661Y-114349945D01*
X134771314Y-114152134D01*
X134759935Y-113936294D01*
X134740460Y-113470060D01*
X134720986Y-112990307D01*
X134696260Y-112536102D01*
X134680358Y-112330011D01*
X134661642Y-112140262D01*
X134651171Y-112051572D01*
X134639925Y-111967038D01*
X134627881Y-111886681D01*
X134615017Y-111810525D01*
X134601308Y-111738594D01*
X134586731Y-111670909D01*
X134571263Y-111607495D01*
X134554880Y-111548375D01*
X134537559Y-111493572D01*
X134519276Y-111443108D01*
X134500007Y-111397007D01*
X134479730Y-111355293D01*
X134469204Y-111336093D01*
X134458425Y-111318001D01*
X134447402Y-111301022D01*
X134436141Y-111285159D01*
X134424652Y-111270417D01*
X134412942Y-111256799D01*
X134401021Y-111244310D01*
X134388895Y-111232953D01*
X134376574Y-111222734D01*
X134364065Y-111213655D01*
X134351377Y-111205722D01*
X134338517Y-111198937D01*
X134325495Y-111193306D01*
X134312319Y-111188833D01*
X134298995Y-111185521D01*
X134285534Y-111183374D01*
X134271943Y-111182397D01*
X134258229Y-111182594D01*
X134244402Y-111183968D01*
X134230470Y-111186525D01*
X134216441Y-111190268D01*
X134202322Y-111195201D01*
X134188123Y-111201328D01*
X134173852Y-111208653D01*
X134159516Y-111217181D01*
X134145124Y-111226916D01*
X134130684Y-111237861D01*
X134116204Y-111250021D01*
X134101693Y-111263399D01*
X134087159Y-111278001D01*
X134072609Y-111293830D01*
X134058053Y-111310890D01*
X134028952Y-111348578D01*
X133999933Y-111390382D01*
X133971078Y-111435474D01*
X133942468Y-111483023D01*
X133886305Y-111582176D01*
X133832093Y-111681207D01*
X133780483Y-111773481D01*
X133755855Y-111815011D01*
X133732122Y-111852363D01*
X133709363Y-111884709D01*
X133687659Y-111911219D01*
X133677229Y-111922026D01*
X133667093Y-111931063D01*
X133657261Y-111938226D01*
X133647744Y-111943412D01*
X133643158Y-111945212D01*
X133638651Y-111946508D01*
X133634220Y-111947306D01*
X133629865Y-111947609D01*
X133625584Y-111947425D01*
X133621375Y-111946756D01*
X133617237Y-111945610D01*
X133613169Y-111943991D01*
X133609169Y-111941903D01*
X133605235Y-111939353D01*
X133601366Y-111936345D01*
X133597561Y-111932884D01*
X133590135Y-111924625D01*
X133582945Y-111914616D01*
X133575979Y-111902899D01*
X133569226Y-111889515D01*
X133562674Y-111874505D01*
X133556310Y-111857909D01*
X133550123Y-111839768D01*
X133544100Y-111820124D01*
X133538231Y-111799017D01*
X133532502Y-111776489D01*
X133476205Y-110501121D01*
X133405404Y-109018524D01*
X133414047Y-109018963D01*
X133423024Y-109020722D01*
X133432326Y-109023724D01*
X133441947Y-109027895D01*
X133451877Y-109033159D01*
X133462110Y-109039442D01*
X133483450Y-109054764D01*
X133505905Y-109073260D01*
X133529411Y-109094331D01*
X133579327Y-109141797D01*
X133632694Y-109192359D01*
X133660514Y-109217302D01*
X133689009Y-109241219D01*
X133718115Y-109263510D01*
X133747770Y-109283575D01*
X133762783Y-109292586D01*
X133777910Y-109300815D01*
X133793142Y-109308187D01*
X133808473Y-109314628D01*
X133824637Y-109320320D01*
X133840888Y-109324939D01*
X133857211Y-109328515D01*
X133873597Y-109331079D01*
X133890031Y-109332660D01*
X133906502Y-109333289D01*
X133922998Y-109332997D01*
X133939506Y-109331814D01*
X133956015Y-109329770D01*
X133972511Y-109326896D01*
X133988984Y-109323222D01*
X134005420Y-109318779D01*
X134021807Y-109313597D01*
X134038133Y-109307706D01*
X134070555Y-109293920D01*
X134102586Y-109277665D01*
X134134130Y-109259183D01*
X134165088Y-109238718D01*
X134195362Y-109216513D01*
X134224855Y-109192811D01*
X134253470Y-109167856D01*
X134281108Y-109141890D01*
X134307672Y-109115158D01*
X134327716Y-109093778D01*
X134347035Y-109072086D01*
X134365619Y-109050090D01*
X134383460Y-109027796D01*
X134400550Y-109005214D01*
X134416882Y-108982350D01*
X134432445Y-108959213D01*
X134447232Y-108935811D01*
X134461235Y-108912151D01*
X134474446Y-108888242D01*
X134486856Y-108864091D01*
X134498456Y-108839707D01*
X134509239Y-108815096D01*
X134519196Y-108790268D01*
X134528319Y-108765230D01*
X134536599Y-108739990D01*
X134540736Y-108738493D01*
X134544819Y-108736914D01*
X134548845Y-108735251D01*
X134552813Y-108733503D01*
X134556720Y-108731672D01*
X134560564Y-108729756D01*
X134564342Y-108727755D01*
X134568052Y-108725669D01*
X134571692Y-108723498D01*
X134575259Y-108721241D01*
X134578751Y-108718898D01*
X134582166Y-108716468D01*
X134585500Y-108713951D01*
X134588753Y-108711348D01*
X134591921Y-108708657D01*
X134595002Y-108705879D01*
X134607127Y-108693421D01*
X134617873Y-108679475D01*
X134627326Y-108664082D01*
X134635571Y-108647282D01*
X134642695Y-108629116D01*
X134648781Y-108609626D01*
X134653918Y-108588853D01*
X134658189Y-108566836D01*
X134661681Y-108543617D01*
X134664479Y-108519237D01*
X134666670Y-108493737D01*
X134668338Y-108467157D01*
X134670451Y-108410922D01*
X134671502Y-108350860D01*
X134673520Y-108222118D01*
X134675115Y-108156233D01*
X134677622Y-108091325D01*
X134681432Y-108028888D01*
X134686938Y-107970411D01*
X134690448Y-107943125D01*
X134694529Y-107917387D01*
X134699230Y-107893386D01*
X134704599Y-107871307D01*
X134707397Y-107861511D01*
X134710352Y-107852173D01*
X134713459Y-107843278D01*
X134716715Y-107834811D01*
X134720113Y-107826757D01*
X134723650Y-107819102D01*
X134727321Y-107811830D01*
X134731120Y-107804928D01*
X134735044Y-107798381D01*
X134739087Y-107792173D01*
X134743245Y-107786290D01*
X134747514Y-107780718D01*
X134751888Y-107775441D01*
X134756362Y-107770445D01*
X134760933Y-107765716D01*
X134765596Y-107761238D01*
X134767105Y-107760846D01*
X134768631Y-107760489D01*
X134771722Y-107759870D01*
X134774850Y-107759367D01*
X134777997Y-107758968D01*
X134781144Y-107758659D01*
X134784272Y-107758427D01*
X134787363Y-107758258D01*
X134790399Y-107758140D01*
X134790345Y-107760276D01*
G37*
%TD.AperFunction*%
D11*
%TA.AperFunction,Conductor*%
G36*
X153755242Y-107471971D02*
G01*
X153854423Y-107477256D01*
X153952720Y-107486265D01*
X154001242Y-107492224D01*
X154049189Y-107499185D01*
X154096443Y-107507171D01*
X154142885Y-107516205D01*
X154188398Y-107526311D01*
X154232862Y-107537512D01*
X154276161Y-107549831D01*
X154318176Y-107563293D01*
X154372070Y-107583028D01*
X154423622Y-107604726D01*
X154472962Y-107628272D01*
X154520221Y-107653554D01*
X154565529Y-107680458D01*
X154609015Y-107708872D01*
X154650811Y-107738681D01*
X154691047Y-107769774D01*
X154729853Y-107802036D01*
X154767360Y-107835355D01*
X154803697Y-107869617D01*
X154838996Y-107904709D01*
X154873387Y-107940518D01*
X154906999Y-107976932D01*
X154972411Y-108051116D01*
X154988078Y-108069692D01*
X154995916Y-108078990D01*
X155003906Y-108088325D01*
X155033750Y-108144254D01*
X155061819Y-108200723D01*
X155088031Y-108257425D01*
X155112306Y-108314057D01*
X155134562Y-108370313D01*
X155154717Y-108425887D01*
X155172690Y-108480477D01*
X155188400Y-108533775D01*
X155196336Y-108563658D01*
X155203592Y-108592955D01*
X155216430Y-108649553D01*
X155238006Y-108753073D01*
X155248226Y-108799032D01*
X155253518Y-108820349D01*
X155259055Y-108840479D01*
X155264930Y-108859361D01*
X155271235Y-108876933D01*
X155278063Y-108893138D01*
X155285507Y-108907913D01*
X155293646Y-108921177D01*
X155302372Y-108932751D01*
X155306916Y-108937843D01*
X155311558Y-108942437D01*
X155316285Y-108946509D01*
X155321080Y-108950034D01*
X155325926Y-108952987D01*
X155330810Y-108955343D01*
X155335714Y-108957077D01*
X155340624Y-108958164D01*
X155345523Y-108958578D01*
X155350396Y-108958296D01*
X155355227Y-108957293D01*
X155360000Y-108955542D01*
X155364700Y-108953020D01*
X155369311Y-108949701D01*
X155373817Y-108945560D01*
X155378203Y-108940572D01*
X155382453Y-108934713D01*
X155386551Y-108927957D01*
X155390481Y-108920280D01*
X155394228Y-108911656D01*
X155397777Y-108902061D01*
X155401110Y-108891469D01*
X155404213Y-108879856D01*
X155407071Y-108867196D01*
X155409666Y-108853465D01*
X155411984Y-108838638D01*
X155414009Y-108822690D01*
X155415725Y-108805595D01*
X155417497Y-108779629D01*
X155418699Y-108751448D01*
X155419371Y-108721183D01*
X155419555Y-108688961D01*
X155418626Y-108619160D01*
X155416244Y-108543075D01*
X155424979Y-108550519D01*
X155433773Y-108557872D01*
X155442623Y-108565132D01*
X155451524Y-108572296D01*
X155460472Y-108579359D01*
X155469461Y-108586319D01*
X155478488Y-108593172D01*
X155487548Y-108599914D01*
X155523264Y-108625134D01*
X155559584Y-108649060D01*
X155633358Y-108694585D01*
X155707511Y-108739603D01*
X155744305Y-108762894D01*
X155780683Y-108787226D01*
X155816476Y-108812988D01*
X155851514Y-108840569D01*
X155885626Y-108870357D01*
X155918644Y-108902743D01*
X155934688Y-108920031D01*
X155950396Y-108938115D01*
X155965744Y-108957042D01*
X155980713Y-108976862D01*
X155995280Y-108997623D01*
X156009424Y-109019374D01*
X156023125Y-109042163D01*
X156036361Y-109066040D01*
X156050818Y-109094516D01*
X156064671Y-109124401D01*
X156077928Y-109155633D01*
X156090601Y-109188154D01*
X156102699Y-109221903D01*
X156114232Y-109256822D01*
X156135644Y-109329930D01*
X156154917Y-109407000D01*
X156172130Y-109487557D01*
X156187364Y-109571125D01*
X156200698Y-109657226D01*
X156208651Y-109873137D01*
X156215165Y-110101364D01*
X156219223Y-110343037D01*
X156219802Y-110599288D01*
X156218728Y-110676292D01*
X156217182Y-110754599D01*
X156213806Y-110915031D01*
X156209274Y-110935785D01*
X156204452Y-110955918D01*
X156199333Y-110975410D01*
X156193910Y-110994243D01*
X156188176Y-111012399D01*
X156182126Y-111029859D01*
X156175751Y-111046603D01*
X156169046Y-111062614D01*
X156162003Y-111077872D01*
X156154616Y-111092359D01*
X156146878Y-111106057D01*
X156138783Y-111118945D01*
X156130323Y-111131007D01*
X156121493Y-111142222D01*
X156112284Y-111152573D01*
X156102691Y-111162040D01*
X156089354Y-111173210D01*
X156075364Y-111182833D01*
X156060753Y-111190953D01*
X156045552Y-111197613D01*
X156029794Y-111202857D01*
X156013509Y-111206728D01*
X155996730Y-111209270D01*
X155979488Y-111210527D01*
X155961815Y-111210542D01*
X155943741Y-111209358D01*
X155925300Y-111207020D01*
X155906521Y-111203570D01*
X155887438Y-111199052D01*
X155868081Y-111193511D01*
X155828674Y-111179529D01*
X155788552Y-111161972D01*
X155747968Y-111141190D01*
X155707175Y-111117530D01*
X155666426Y-111091342D01*
X155625974Y-111062972D01*
X155586072Y-111032770D01*
X155546971Y-111001083D01*
X155508926Y-110968261D01*
X155472142Y-110934589D01*
X155436647Y-110900097D01*
X155402424Y-110864745D01*
X155369456Y-110828493D01*
X155337726Y-110791299D01*
X155307217Y-110753122D01*
X155277911Y-110713923D01*
X155249793Y-110673659D01*
X155222845Y-110632290D01*
X155197051Y-110589776D01*
X155172392Y-110546076D01*
X155148853Y-110501148D01*
X155126416Y-110454952D01*
X155105065Y-110407448D01*
X155084782Y-110358594D01*
X155065551Y-110308349D01*
X155047337Y-110256716D01*
X155030073Y-110203849D01*
X154998041Y-110095193D01*
X154968741Y-109983942D01*
X154941455Y-109871653D01*
X154890070Y-109650194D01*
X154864540Y-109544141D01*
X154838165Y-109443283D01*
X154824429Y-109395244D01*
X154810159Y-109348835D01*
X154795210Y-109304009D01*
X154779435Y-109260718D01*
X154762686Y-109218916D01*
X154744817Y-109178555D01*
X154725682Y-109139588D01*
X154705135Y-109101967D01*
X154683027Y-109065647D01*
X154659214Y-109030579D01*
X154633547Y-108996716D01*
X154605881Y-108964012D01*
X154576069Y-108932418D01*
X154543964Y-108901889D01*
X154509420Y-108872376D01*
X154472289Y-108843833D01*
X154432516Y-108816279D01*
X154390428Y-108790033D01*
X154346449Y-108765485D01*
X154301003Y-108743024D01*
X154254512Y-108723037D01*
X154207401Y-108705914D01*
X154160093Y-108692044D01*
X154113012Y-108681814D01*
X154089688Y-108678186D01*
X154066580Y-108675613D01*
X154043740Y-108674146D01*
X154021222Y-108673831D01*
X153999078Y-108674719D01*
X153977361Y-108676856D01*
X153956124Y-108680293D01*
X153935421Y-108685077D01*
X153915303Y-108691257D01*
X153895824Y-108698881D01*
X153877037Y-108707999D01*
X153858995Y-108718659D01*
X153841751Y-108730909D01*
X153825357Y-108744798D01*
X153809867Y-108760374D01*
X153795333Y-108777687D01*
X153769244Y-108817557D01*
X153746953Y-108864004D01*
X153728215Y-108916459D01*
X153712783Y-108974355D01*
X153700412Y-109037124D01*
X153690856Y-109104197D01*
X153683871Y-109175006D01*
X153679210Y-109248983D01*
X153676628Y-109325560D01*
X153675879Y-109404168D01*
X153678900Y-109565207D01*
X153686307Y-109727554D01*
X153696136Y-109886665D01*
X153717973Y-110185888D01*
X153742328Y-110471088D01*
X153769813Y-110759406D01*
X153801040Y-111067985D01*
X153823205Y-111280561D01*
X153847761Y-111502755D01*
X153875311Y-111729127D01*
X153906463Y-111954238D01*
X153901073Y-111952454D01*
X153895668Y-111950812D01*
X153890252Y-111949310D01*
X153884830Y-111947945D01*
X153879405Y-111946715D01*
X153873980Y-111945617D01*
X153868561Y-111944649D01*
X153863151Y-111943808D01*
X153857754Y-111943091D01*
X153852373Y-111942496D01*
X153847013Y-111942020D01*
X153841678Y-111941661D01*
X153831097Y-111941282D01*
X153820663Y-111941337D01*
X153805763Y-111942357D01*
X153791210Y-111944482D01*
X153777033Y-111947841D01*
X153763261Y-111952566D01*
X153749924Y-111958785D01*
X153737051Y-111966629D01*
X153724672Y-111976228D01*
X153718677Y-111981727D01*
X153712816Y-111987712D01*
X153707093Y-111994202D01*
X153701512Y-112001211D01*
X153690789Y-112016855D01*
X153680678Y-112034774D01*
X153671208Y-112055097D01*
X153662407Y-112077955D01*
X153654306Y-112103479D01*
X153646934Y-112131797D01*
X153640319Y-112163040D01*
X153634471Y-112197273D01*
X153629426Y-112234241D01*
X153625204Y-112273614D01*
X153621825Y-112315061D01*
X153617676Y-112402856D01*
X153617139Y-112494982D01*
X153620376Y-112588798D01*
X153623459Y-112635513D01*
X153627545Y-112681660D01*
X153632655Y-112726907D01*
X153638809Y-112770925D01*
X153646026Y-112813383D01*
X153654327Y-112853950D01*
X153658878Y-112873430D01*
X153663686Y-112892362D01*
X153668732Y-112910752D01*
X153674002Y-112928607D01*
X153685138Y-112962738D01*
X153696958Y-112994812D01*
X153709326Y-113024881D01*
X153722104Y-113053001D01*
X153735156Y-113079226D01*
X153748346Y-113103610D01*
X153761536Y-113126207D01*
X153774591Y-113147072D01*
X153787374Y-113166260D01*
X153799748Y-113183824D01*
X153811576Y-113199820D01*
X153822722Y-113214301D01*
X153842422Y-113238937D01*
X153858033Y-113257886D01*
X153864521Y-113265066D01*
X153870302Y-113270580D01*
X153872968Y-113272681D01*
X153875506Y-113274327D01*
X153877931Y-113275505D01*
X153880259Y-113276203D01*
X153882507Y-113276408D01*
X153884691Y-113276107D01*
X153886827Y-113275288D01*
X153888931Y-113273937D01*
X153891018Y-113272042D01*
X153893106Y-113269590D01*
X153895209Y-113266568D01*
X153897345Y-113262964D01*
X153901776Y-113253958D01*
X153906529Y-113242469D01*
X153911731Y-113228394D01*
X153917511Y-113211633D01*
X153931320Y-113169639D01*
X153961084Y-113077349D01*
X153996581Y-112961881D01*
X154015028Y-112898140D01*
X154033166Y-112831825D01*
X154050414Y-112764010D01*
X154066192Y-112695770D01*
X154082655Y-112744705D01*
X154099656Y-112791780D01*
X154117197Y-112836979D01*
X154135276Y-112880288D01*
X154153895Y-112921692D01*
X154173053Y-112961176D01*
X154192751Y-112998725D01*
X154212989Y-113034325D01*
X154233767Y-113067961D01*
X154255085Y-113099617D01*
X154276943Y-113129279D01*
X154299342Y-113156933D01*
X154322282Y-113182562D01*
X154345763Y-113206154D01*
X154369785Y-113227692D01*
X154394347Y-113247161D01*
X154414427Y-113261253D01*
X154434858Y-113274043D01*
X154455647Y-113285576D01*
X154476803Y-113295896D01*
X154498335Y-113305047D01*
X154520250Y-113313072D01*
X154542557Y-113320017D01*
X154565263Y-113325925D01*
X154588377Y-113330841D01*
X154611908Y-113334808D01*
X154635862Y-113337871D01*
X154660249Y-113340073D01*
X154685076Y-113341459D01*
X154710352Y-113342074D01*
X154736085Y-113341960D01*
X154762283Y-113341163D01*
X154747196Y-113515049D01*
X154732934Y-113693164D01*
X154719648Y-113875629D01*
X154707488Y-114062561D01*
X154627395Y-115736877D01*
X154616519Y-115884142D01*
X154604787Y-116011401D01*
X154592354Y-116120991D01*
X154579374Y-116215249D01*
X154566001Y-116296509D01*
X154552390Y-116367107D01*
X154538695Y-116429380D01*
X154525070Y-116485664D01*
X154518310Y-116512226D01*
X154511498Y-116537785D01*
X154504525Y-116562251D01*
X154497283Y-116585537D01*
X154489662Y-116607556D01*
X154481555Y-116628219D01*
X154477286Y-116638014D01*
X154472854Y-116647438D01*
X154468246Y-116656479D01*
X154463449Y-116665125D01*
X154458449Y-116673367D01*
X154453232Y-116681194D01*
X154447786Y-116688593D01*
X154442096Y-116695554D01*
X154436149Y-116702067D01*
X154429931Y-116708120D01*
X154423429Y-116713702D01*
X154416629Y-116718803D01*
X154409518Y-116723410D01*
X154402082Y-116727514D01*
X154394307Y-116731103D01*
X154386181Y-116734167D01*
X154377688Y-116736693D01*
X154368817Y-116738672D01*
X154359553Y-116740093D01*
X154349883Y-116740943D01*
X154339797Y-116741161D01*
X154329312Y-116740797D01*
X154307254Y-116738319D01*
X154283917Y-116733508D01*
X154259509Y-116726364D01*
X154234237Y-116716886D01*
X154208309Y-116705073D01*
X154181934Y-116690923D01*
X154155319Y-116674436D01*
X154128671Y-116655611D01*
X154102199Y-116634446D01*
X154076110Y-116610941D01*
X154050613Y-116585094D01*
X154025915Y-116556905D01*
X154013931Y-116541932D01*
X154002224Y-116526373D01*
X153990821Y-116510228D01*
X153979748Y-116493496D01*
X153969030Y-116476179D01*
X153958694Y-116458274D01*
X153939207Y-116420749D01*
X153921274Y-116381098D01*
X153904821Y-116339533D01*
X153889775Y-116296263D01*
X153876062Y-116251500D01*
X153863609Y-116205455D01*
X153852344Y-116158339D01*
X153842193Y-116110362D01*
X153824939Y-116012668D01*
X153811262Y-115914062D01*
X153800577Y-115816229D01*
X153792297Y-115720855D01*
X153785855Y-115629346D01*
X153780630Y-115542079D01*
X153771165Y-115380852D01*
X153765591Y-115307185D01*
X153758567Y-115238344D01*
X153754303Y-115205779D01*
X153749427Y-115174474D01*
X153743854Y-115144449D01*
X153737502Y-115115722D01*
X153734016Y-115101850D01*
X153730326Y-115088308D01*
X153726440Y-115075101D01*
X153722369Y-115062232D01*
X153718120Y-115049703D01*
X153713701Y-115037519D01*
X153709123Y-115025683D01*
X153704393Y-115014199D01*
X153699520Y-115003068D01*
X153694513Y-114992296D01*
X153689380Y-114981885D01*
X153684131Y-114971839D01*
X153678773Y-114962161D01*
X153673316Y-114952854D01*
X153667769Y-114943922D01*
X153662139Y-114935368D01*
X153656436Y-114927196D01*
X153650669Y-114919408D01*
X153644845Y-114912009D01*
X153638975Y-114905001D01*
X153633066Y-114898389D01*
X153627126Y-114892175D01*
X153621166Y-114886362D01*
X153615194Y-114880955D01*
X153609217Y-114875956D01*
X153603246Y-114871369D01*
X153597288Y-114867197D01*
X153591353Y-114863444D01*
X153585448Y-114860112D01*
X153579583Y-114857206D01*
X153573767Y-114854729D01*
X153568008Y-114852684D01*
X153562325Y-114851080D01*
X153556705Y-114849917D01*
X153551150Y-114849196D01*
X153545658Y-114848918D01*
X153540231Y-114849084D01*
X153534867Y-114849694D01*
X153529568Y-114850751D01*
X153524332Y-114852254D01*
X153519161Y-114854204D01*
X153514055Y-114856603D01*
X153509013Y-114859451D01*
X153504035Y-114862750D01*
X153499122Y-114866500D01*
X153494273Y-114870703D01*
X153484771Y-114880469D01*
X153475528Y-114892055D01*
X153466546Y-114905470D01*
X153457824Y-114920720D01*
X153449364Y-114937814D01*
X153441166Y-114956758D01*
X153433231Y-114977561D01*
X153425559Y-115000230D01*
X153418151Y-115024772D01*
X153404080Y-115079750D01*
X153390745Y-115143803D01*
X153377814Y-115218455D01*
X153364953Y-115305231D01*
X153338112Y-115521249D01*
X153307555Y-115804054D01*
X153230052Y-116563201D01*
X153185178Y-116987817D01*
X153138061Y-117403434D01*
X153090609Y-117784822D01*
X153046573Y-118123095D01*
X153010302Y-118413536D01*
X152996437Y-118539345D01*
X152986144Y-118651428D01*
X152982507Y-118702185D01*
X152979842Y-118749575D01*
X152978096Y-118793804D01*
X152977211Y-118835081D01*
X152977132Y-118873612D01*
X152977804Y-118909603D01*
X152979170Y-118943263D01*
X152981176Y-118974798D01*
X152983765Y-119004415D01*
X152986882Y-119032321D01*
X152990471Y-119058724D01*
X152994476Y-119083830D01*
X153003514Y-119130981D01*
X153013549Y-119175430D01*
X153024177Y-119218494D01*
X153035040Y-119260024D01*
X153045886Y-119299533D01*
X153056465Y-119336539D01*
X153075806Y-119401099D01*
X153091049Y-119449829D01*
X153096677Y-119467111D01*
X153099231Y-119474073D01*
X153101778Y-119480001D01*
X153103089Y-119482598D01*
X153104444Y-119484961D01*
X153105860Y-119487099D01*
X153107353Y-119489018D01*
X153108938Y-119490729D01*
X153110631Y-119492238D01*
X153112447Y-119493553D01*
X153114402Y-119494684D01*
X153116512Y-119495637D01*
X153118792Y-119496422D01*
X153121258Y-119497046D01*
X153123926Y-119497517D01*
X153126811Y-119497844D01*
X153129928Y-119498035D01*
X153136925Y-119498040D01*
X153145041Y-119497597D01*
X153154400Y-119496771D01*
X153177352Y-119494232D01*
X153206357Y-119490680D01*
X153240375Y-119485562D01*
X153258809Y-119482185D01*
X153277951Y-119478138D01*
X153297620Y-119473331D01*
X153317632Y-119467669D01*
X153337807Y-119461061D01*
X153357961Y-119453414D01*
X153377915Y-119444636D01*
X153397484Y-119434634D01*
X153416489Y-119423316D01*
X153434746Y-119410589D01*
X153443538Y-119403668D01*
X153452074Y-119396360D01*
X153460333Y-119388654D01*
X153468292Y-119380538D01*
X153483243Y-119363068D01*
X153497009Y-119343947D01*
X153509704Y-119323207D01*
X153521443Y-119300881D01*
X153532337Y-119276999D01*
X153542502Y-119251593D01*
X153552050Y-119224694D01*
X153561096Y-119196333D01*
X153578133Y-119135355D01*
X153594523Y-119068908D01*
X153628997Y-118920616D01*
X153648753Y-118839450D01*
X153670531Y-118754908D01*
X153694263Y-118668332D01*
X153719880Y-118581065D01*
X153747315Y-118494448D01*
X153776499Y-118409823D01*
X153807365Y-118328534D01*
X153839843Y-118251922D01*
X153856663Y-118215754D01*
X153873810Y-118181065D01*
X153891213Y-118147836D01*
X153908803Y-118116045D01*
X153926509Y-118085671D01*
X153944263Y-118056693D01*
X153961995Y-118029089D01*
X153979635Y-118002839D01*
X153997112Y-117977920D01*
X154014358Y-117954313D01*
X154031303Y-117931996D01*
X154047877Y-117910948D01*
X154079634Y-117872573D01*
X154109069Y-117839019D01*
X154109588Y-117838508D01*
X154109588Y-117837989D01*
X154110107Y-117837989D01*
X154110131Y-117837805D01*
X154110159Y-117837626D01*
X154110189Y-117837454D01*
X154110222Y-117837289D01*
X154110256Y-117837130D01*
X154110292Y-117836980D01*
X154110328Y-117836838D01*
X154110364Y-117836704D01*
X154110401Y-117836579D01*
X154110436Y-117836463D01*
X154110504Y-117836262D01*
X154110563Y-117836103D01*
X154110610Y-117835990D01*
X154110610Y-117835472D01*
X154111129Y-117835472D01*
X154110838Y-117856963D01*
X154112640Y-117881365D01*
X154116521Y-117908484D01*
X154122470Y-117938125D01*
X154130473Y-117970094D01*
X154140517Y-118004198D01*
X154152589Y-118040243D01*
X154166677Y-118078033D01*
X154182767Y-118117375D01*
X154200847Y-118158076D01*
X154220904Y-118199940D01*
X154242924Y-118242775D01*
X154266896Y-118286385D01*
X154292805Y-118330577D01*
X154320640Y-118375156D01*
X154350387Y-118419929D01*
X154390292Y-118476073D01*
X154432835Y-118532143D01*
X154477667Y-118588058D01*
X154524440Y-118643734D01*
X154572804Y-118699090D01*
X154622410Y-118754042D01*
X154723955Y-118862409D01*
X154926596Y-119070684D01*
X155022110Y-119169275D01*
X155110030Y-119263290D01*
X155122423Y-119277020D01*
X155134565Y-119290628D01*
X155146463Y-119304141D01*
X155158126Y-119317588D01*
X155152734Y-119324293D01*
X155147355Y-119330864D01*
X155142185Y-119337249D01*
X155139740Y-119340354D01*
X155137420Y-119343391D01*
X155087965Y-119406610D01*
X155050639Y-119454421D01*
X155023480Y-119489317D01*
X155004525Y-119513792D01*
X154991815Y-119530337D01*
X154983386Y-119541447D01*
X154971526Y-119557334D01*
X154964723Y-119566600D01*
X154961161Y-119571896D01*
X154957714Y-119577576D01*
X154954547Y-119583594D01*
X154951825Y-119589909D01*
X154950683Y-119593163D01*
X154949715Y-119596475D01*
X154948940Y-119599839D01*
X154948381Y-119603249D01*
X154948057Y-119606700D01*
X154947989Y-119610187D01*
X154948198Y-119613704D01*
X154948705Y-119617245D01*
X154949530Y-119620805D01*
X154950694Y-119624379D01*
X154952218Y-119627960D01*
X154954122Y-119631545D01*
X154956427Y-119635126D01*
X154959155Y-119638699D01*
X154962324Y-119642258D01*
X154965957Y-119645798D01*
X154970074Y-119649312D01*
X154974695Y-119652797D01*
X154979842Y-119656245D01*
X154985534Y-119659652D01*
X154996093Y-119665096D01*
X155008181Y-119670273D01*
X155021802Y-119675043D01*
X155036962Y-119679268D01*
X155053664Y-119682809D01*
X155071914Y-119685528D01*
X155091716Y-119687286D01*
X155113075Y-119687943D01*
X155135995Y-119687362D01*
X155160481Y-119685403D01*
X155186538Y-119681928D01*
X155214170Y-119676798D01*
X155243382Y-119669874D01*
X155274179Y-119661019D01*
X155306565Y-119650092D01*
X155340545Y-119636955D01*
X155342449Y-119654219D01*
X155343267Y-119671470D01*
X155342975Y-119688717D01*
X155341546Y-119705972D01*
X155338954Y-119723246D01*
X155335175Y-119740548D01*
X155330181Y-119757891D01*
X155323947Y-119775285D01*
X155316448Y-119792741D01*
X155307657Y-119810269D01*
X155297549Y-119827880D01*
X155286098Y-119845586D01*
X155273278Y-119863396D01*
X155259064Y-119881322D01*
X155243429Y-119899374D01*
X155226348Y-119917564D01*
X155182044Y-119959547D01*
X155130537Y-120002299D01*
X155072281Y-120045803D01*
X155007729Y-120090042D01*
X154937335Y-120134998D01*
X154861551Y-120180654D01*
X154695630Y-120274003D01*
X154513592Y-120369950D01*
X154319064Y-120468362D01*
X153907043Y-120672035D01*
X153667016Y-120790926D01*
X153422836Y-120909057D01*
X153298547Y-120966770D01*
X153172452Y-121023011D01*
X153044294Y-121077354D01*
X152913818Y-121129371D01*
X152927530Y-121119302D01*
X152940637Y-121109344D01*
X152953174Y-121099496D01*
X152965171Y-121089757D01*
X152976662Y-121080127D01*
X152987679Y-121070603D01*
X152998255Y-121061185D01*
X153008422Y-121051872D01*
X153030312Y-121030783D01*
X153050290Y-121010166D01*
X153068408Y-120990042D01*
X153084716Y-120970430D01*
X153099265Y-120951352D01*
X153112106Y-120932829D01*
X153123290Y-120914880D01*
X153132867Y-120897527D01*
X153140889Y-120880791D01*
X153147406Y-120864691D01*
X153152470Y-120849250D01*
X153156130Y-120834486D01*
X153158439Y-120820422D01*
X153159446Y-120807078D01*
X153159203Y-120794473D01*
X153158628Y-120788455D01*
X153157760Y-120782630D01*
X153156178Y-120775641D01*
X153154091Y-120768975D01*
X153151437Y-120762657D01*
X153148156Y-120756713D01*
X153144185Y-120751165D01*
X153139463Y-120746037D01*
X153133927Y-120741355D01*
X153127517Y-120737142D01*
X153120171Y-120733422D01*
X153111827Y-120730220D01*
X153102423Y-120727560D01*
X153091898Y-120725465D01*
X153080190Y-120723960D01*
X153067238Y-120723070D01*
X153052979Y-120722818D01*
X153037353Y-120723228D01*
X153037353Y-120722717D01*
X153016681Y-120723921D01*
X152993859Y-120726195D01*
X152968781Y-120729562D01*
X152941341Y-120734043D01*
X152911433Y-120739657D01*
X152878952Y-120746428D01*
X152843792Y-120754374D01*
X152805847Y-120763519D01*
X152690749Y-120793831D01*
X152556340Y-120831940D01*
X152234538Y-120926354D01*
X151850349Y-121036373D01*
X151637956Y-121093989D01*
X151413680Y-121151611D01*
X151137089Y-121217330D01*
X150991636Y-121249257D01*
X150840524Y-121280444D01*
X150683090Y-121310804D01*
X150518670Y-121340248D01*
X150346599Y-121368690D01*
X150166213Y-121396041D01*
X150133257Y-121392579D01*
X150101465Y-121388976D01*
X150070785Y-121385279D01*
X150041168Y-121381538D01*
X149962701Y-121371130D01*
X149926886Y-121365906D01*
X149893251Y-121360655D01*
X149861723Y-121355369D01*
X149832226Y-121350038D01*
X149804689Y-121344654D01*
X149779035Y-121339206D01*
X149755192Y-121333686D01*
X149733086Y-121328085D01*
X149712641Y-121322393D01*
X149693786Y-121316600D01*
X149676444Y-121310699D01*
X149660543Y-121304679D01*
X149646008Y-121298531D01*
X149632766Y-121292246D01*
X149620742Y-121285815D01*
X149609863Y-121279229D01*
X149600054Y-121272478D01*
X149591242Y-121265553D01*
X149583352Y-121258445D01*
X149576310Y-121251144D01*
X149570043Y-121243642D01*
X149564477Y-121235929D01*
X149559537Y-121227996D01*
X149555149Y-121219834D01*
X149551241Y-121211433D01*
X149547736Y-121202784D01*
X149544563Y-121193879D01*
X149541645Y-121184707D01*
X149536285Y-121165527D01*
X149513764Y-121077318D01*
X149506514Y-121052462D01*
X149498095Y-121026518D01*
X149488246Y-120999501D01*
X149476709Y-120971428D01*
X149463222Y-120942316D01*
X149447524Y-120912179D01*
X149429357Y-120881035D01*
X149408459Y-120848901D01*
X149384571Y-120815791D01*
X149357431Y-120781723D01*
X149326780Y-120746713D01*
X149292358Y-120710777D01*
X149256393Y-120676167D01*
X149217051Y-120640831D01*
X149174506Y-120604850D01*
X149128932Y-120568306D01*
X149029394Y-120493852D01*
X148919832Y-120418122D01*
X148801638Y-120341767D01*
X148676207Y-120265439D01*
X148544933Y-120189790D01*
X148409210Y-120115470D01*
X148902750Y-120104969D01*
X149399534Y-120090119D01*
X149862497Y-120071144D01*
X150254577Y-120048271D01*
X150314474Y-120043794D01*
X150371018Y-120039197D01*
X150424314Y-120034475D01*
X150474468Y-120029627D01*
X150521584Y-120024647D01*
X150565769Y-120019534D01*
X150607128Y-120014283D01*
X150645767Y-120008892D01*
X150681791Y-120003357D01*
X150715305Y-119997674D01*
X150746416Y-119991841D01*
X150775228Y-119985854D01*
X150801847Y-119979709D01*
X150826378Y-119973404D01*
X150848928Y-119966935D01*
X150869602Y-119960298D01*
X150888504Y-119953491D01*
X150905741Y-119946510D01*
X150921419Y-119939351D01*
X150935641Y-119932012D01*
X150948515Y-119924489D01*
X150960146Y-119916779D01*
X150970639Y-119908878D01*
X150980100Y-119900784D01*
X150988633Y-119892491D01*
X150996346Y-119883999D01*
X151003342Y-119875302D01*
X151009728Y-119866398D01*
X151015610Y-119857284D01*
X151021092Y-119847955D01*
X151031280Y-119828643D01*
X151040984Y-119808432D01*
X151050317Y-119787300D01*
X151059252Y-119765231D01*
X151067765Y-119742207D01*
X151075832Y-119718212D01*
X151083426Y-119693228D01*
X151090522Y-119667238D01*
X151097097Y-119640226D01*
X151103124Y-119612174D01*
X151108579Y-119583065D01*
X151113436Y-119552882D01*
X151117671Y-119521608D01*
X151121258Y-119489226D01*
X151124172Y-119455719D01*
X151126389Y-119421069D01*
X151127883Y-119385261D01*
X151128515Y-119348329D01*
X151128359Y-119310500D01*
X151127391Y-119272040D01*
X151125582Y-119233218D01*
X151122907Y-119194301D01*
X151119340Y-119155556D01*
X151114852Y-119117251D01*
X151109418Y-119079654D01*
X151103011Y-119043032D01*
X151095605Y-119007654D01*
X151087173Y-118973785D01*
X151077687Y-118941694D01*
X151067123Y-118911650D01*
X151055452Y-118883918D01*
X151042649Y-118858766D01*
X151028686Y-118836463D01*
X151021255Y-118826423D01*
X151013535Y-118817154D01*
X151005530Y-118808649D01*
X150997245Y-118800895D01*
X150988685Y-118793883D01*
X150979853Y-118787603D01*
X150970756Y-118782043D01*
X150961397Y-118777195D01*
X150951782Y-118773047D01*
X150941914Y-118769590D01*
X150931799Y-118766813D01*
X150921442Y-118764705D01*
X150910846Y-118763257D01*
X150900018Y-118762458D01*
X150888960Y-118762299D01*
X150877679Y-118762767D01*
X150866179Y-118763854D01*
X150854464Y-118765550D01*
X150830410Y-118770723D01*
X150805554Y-118778205D01*
X150779934Y-118787913D01*
X150753587Y-118799766D01*
X150726551Y-118813680D01*
X150698863Y-118829575D01*
X150670562Y-118847366D01*
X150335708Y-119094894D01*
X150344609Y-119086179D01*
X150352432Y-119077197D01*
X150359197Y-119067959D01*
X150364922Y-119058476D01*
X150369626Y-119048758D01*
X150373329Y-119038816D01*
X150376048Y-119028659D01*
X150377803Y-119018299D01*
X150378612Y-119007746D01*
X150378495Y-118997010D01*
X150377470Y-118986101D01*
X150375556Y-118975031D01*
X150372773Y-118963810D01*
X150369138Y-118952448D01*
X150364670Y-118940955D01*
X150359390Y-118929342D01*
X150353314Y-118917619D01*
X150346463Y-118905798D01*
X150338855Y-118893888D01*
X150330508Y-118881899D01*
X150311677Y-118857729D01*
X150290119Y-118833372D01*
X150265986Y-118808911D01*
X150239428Y-118784430D01*
X150210596Y-118760011D01*
X150179641Y-118735740D01*
X150135293Y-118703698D01*
X150087649Y-118672005D01*
X150036910Y-118640620D01*
X149983278Y-118609504D01*
X149868141Y-118547914D01*
X149743852Y-118486909D01*
X149612025Y-118426164D01*
X149474274Y-118365353D01*
X149327536Y-118302364D01*
X151770618Y-118302364D01*
X151771093Y-118391468D01*
X151775170Y-118575456D01*
X151782714Y-118769310D01*
X151791970Y-118972301D01*
X151802013Y-119170584D01*
X151818908Y-119484512D01*
X151821717Y-119534046D01*
X151823114Y-119554124D01*
X151824651Y-119571392D01*
X151825506Y-119579046D01*
X151826438Y-119586085D01*
X151827459Y-119592540D01*
X151828583Y-119598439D01*
X151829825Y-119603813D01*
X151831197Y-119608690D01*
X151832714Y-119613100D01*
X151834388Y-119617074D01*
X151836234Y-119620639D01*
X151838266Y-119623826D01*
X151840496Y-119626664D01*
X151842939Y-119629182D01*
X151845609Y-119631411D01*
X151848518Y-119633379D01*
X151851681Y-119635116D01*
X151855111Y-119636652D01*
X151858823Y-119638016D01*
X151862828Y-119639237D01*
X151867142Y-119640346D01*
X151871778Y-119641371D01*
X151882070Y-119643288D01*
X151893813Y-119645225D01*
X151921731Y-119649767D01*
X151954937Y-119654461D01*
X151992493Y-119658390D01*
X152012609Y-119659780D01*
X152033460Y-119660635D01*
X152054929Y-119660839D01*
X152076898Y-119660278D01*
X152099250Y-119658837D01*
X152121868Y-119656402D01*
X152144634Y-119652858D01*
X152167430Y-119648090D01*
X152190140Y-119641982D01*
X152212646Y-119634422D01*
X152234833Y-119625301D01*
X152256630Y-119614531D01*
X152277967Y-119602029D01*
X152298776Y-119587709D01*
X152318985Y-119571487D01*
X152338526Y-119553278D01*
X152357330Y-119532997D01*
X152375326Y-119510559D01*
X152392444Y-119485879D01*
X152408616Y-119458873D01*
X152423772Y-119429455D01*
X152437842Y-119397542D01*
X152450757Y-119363048D01*
X152462446Y-119325888D01*
X152472841Y-119285978D01*
X152481872Y-119243232D01*
X152489491Y-119197612D01*
X152495762Y-119149275D01*
X152504638Y-119045242D01*
X152509261Y-118932716D01*
X152510394Y-118813279D01*
X152508800Y-118688513D01*
X152505239Y-118560002D01*
X152495269Y-118298072D01*
X152490037Y-118167908D01*
X152483903Y-118040828D01*
X152475694Y-117918880D01*
X152470445Y-117860470D01*
X152464237Y-117804112D01*
X152456923Y-117750061D01*
X152448358Y-117698573D01*
X152438393Y-117649904D01*
X152426884Y-117604310D01*
X152413682Y-117562048D01*
X152398641Y-117523373D01*
X152381615Y-117488541D01*
X152372311Y-117472647D01*
X152362457Y-117457809D01*
X152353366Y-117445725D01*
X152343859Y-117434474D01*
X152333958Y-117424040D01*
X152323688Y-117414411D01*
X152313071Y-117405571D01*
X152302131Y-117397508D01*
X152290890Y-117390208D01*
X152279373Y-117383656D01*
X152267601Y-117377839D01*
X152255598Y-117372742D01*
X152243388Y-117368353D01*
X152230994Y-117364656D01*
X152218439Y-117361638D01*
X152205745Y-117359286D01*
X152192937Y-117357585D01*
X152180038Y-117356521D01*
X152180328Y-117356468D01*
X152172829Y-117356349D01*
X152169079Y-117356346D01*
X152165328Y-117356384D01*
X152161578Y-117356464D01*
X152157827Y-117356590D01*
X152154078Y-117356763D01*
X152150329Y-117356987D01*
X152149810Y-117356987D01*
X152134916Y-117358404D01*
X152120033Y-117360614D01*
X152105196Y-117363602D01*
X152090437Y-117367352D01*
X152075791Y-117371847D01*
X152061291Y-117377072D01*
X152046971Y-117383012D01*
X152032865Y-117389651D01*
X152019006Y-117396972D01*
X152005428Y-117404961D01*
X151992165Y-117413602D01*
X151979250Y-117422878D01*
X151966717Y-117432774D01*
X151954599Y-117443274D01*
X151942932Y-117454364D01*
X151931747Y-117466026D01*
X151910953Y-117491026D01*
X151892128Y-117518105D01*
X151875167Y-117547133D01*
X151859965Y-117577979D01*
X151846417Y-117610514D01*
X151834420Y-117644608D01*
X151823869Y-117680132D01*
X151814658Y-117716955D01*
X151806685Y-117754947D01*
X151799844Y-117793980D01*
X151794030Y-117833922D01*
X151789139Y-117874644D01*
X151781709Y-117957910D01*
X151776717Y-118042739D01*
X151773325Y-118128324D01*
X151771327Y-118214757D01*
X151770618Y-118302364D01*
X149327536Y-118302364D01*
X149187454Y-118242233D01*
X149037402Y-118177514D01*
X148963534Y-118144900D01*
X148891357Y-118111999D01*
X148900738Y-118109866D01*
X148909767Y-118107213D01*
X148918432Y-118104053D01*
X148926721Y-118100396D01*
X148934621Y-118096257D01*
X148942122Y-118091645D01*
X148949210Y-118086574D01*
X148955873Y-118081056D01*
X148962099Y-118075103D01*
X148967877Y-118068726D01*
X148973194Y-118061939D01*
X148978038Y-118054753D01*
X148982397Y-118047179D01*
X148986259Y-118039231D01*
X148989611Y-118030921D01*
X148992442Y-118022259D01*
X148994740Y-118013259D01*
X148996492Y-118003933D01*
X148997686Y-117994293D01*
X148998311Y-117984350D01*
X148998353Y-117974118D01*
X148997802Y-117963607D01*
X148996644Y-117952830D01*
X148994869Y-117941800D01*
X148992463Y-117930528D01*
X148989414Y-117919026D01*
X148985711Y-117907307D01*
X148981341Y-117895382D01*
X148976293Y-117883264D01*
X148970554Y-117870965D01*
X148964112Y-117858496D01*
X148956954Y-117845870D01*
X148945134Y-117827075D01*
X148931672Y-117807961D01*
X148916495Y-117788522D01*
X148899531Y-117768754D01*
X148880707Y-117748653D01*
X148859951Y-117728215D01*
X148837190Y-117707435D01*
X148812351Y-117686308D01*
X148785361Y-117664831D01*
X148756148Y-117642998D01*
X148724640Y-117620805D01*
X148690763Y-117598248D01*
X148654446Y-117575322D01*
X148615614Y-117552023D01*
X148574197Y-117528346D01*
X148530120Y-117504287D01*
X148634453Y-117405991D01*
X148691466Y-117351028D01*
X148749906Y-117291411D01*
X148779239Y-117259675D01*
X148808423Y-117226558D01*
X148837288Y-117191986D01*
X148865665Y-117155887D01*
X148893385Y-117118187D01*
X148920280Y-117078814D01*
X148946180Y-117037695D01*
X148970916Y-116994758D01*
X149009601Y-116918302D01*
X149044710Y-116836725D01*
X149076438Y-116750231D01*
X149104981Y-116659021D01*
X149130533Y-116563297D01*
X149153291Y-116463263D01*
X149173450Y-116359119D01*
X149191203Y-116251070D01*
X149220279Y-116024060D01*
X149242081Y-115783852D01*
X149258171Y-115532065D01*
X149270110Y-115270317D01*
X149331115Y-112802246D01*
X149385314Y-111326605D01*
X149392069Y-110979005D01*
X149392192Y-110655636D01*
X149383726Y-110364352D01*
X149375661Y-110233196D01*
X149364715Y-110113006D01*
X149358087Y-110057292D01*
X149350696Y-110004464D01*
X149342561Y-109954423D01*
X149333702Y-109907065D01*
X149324139Y-109862291D01*
X149313890Y-109819997D01*
X149302975Y-109780083D01*
X149291415Y-109742448D01*
X149279227Y-109706989D01*
X149266432Y-109673605D01*
X149253049Y-109642195D01*
X149239097Y-109612658D01*
X149224597Y-109584891D01*
X149209567Y-109558794D01*
X149194027Y-109534264D01*
X149177997Y-109511200D01*
X149161495Y-109489502D01*
X149144542Y-109469067D01*
X149127157Y-109449793D01*
X149109359Y-109431580D01*
X149091168Y-109414326D01*
X149072603Y-109397929D01*
X149034430Y-109367302D01*
X148994995Y-109338886D01*
X148954455Y-109311870D01*
X148870681Y-109258789D01*
X148784476Y-109202812D01*
X148697770Y-109143713D01*
X148612637Y-109082531D01*
X148571308Y-109051484D01*
X148531150Y-109020307D01*
X148492422Y-108989130D01*
X148455382Y-108958083D01*
X148420291Y-108927296D01*
X148387407Y-108896898D01*
X148356989Y-108867022D01*
X148329297Y-108837795D01*
X148304590Y-108809349D01*
X148283126Y-108781814D01*
X148272602Y-108766796D01*
X148263198Y-108752090D01*
X148254927Y-108737691D01*
X148247803Y-108723592D01*
X148241836Y-108709787D01*
X148239291Y-108702993D01*
X148237041Y-108696271D01*
X148235086Y-108689619D01*
X148233428Y-108683036D01*
X148232070Y-108676523D01*
X148231012Y-108670078D01*
X148230256Y-108663700D01*
X148229803Y-108657389D01*
X148229656Y-108651145D01*
X148229816Y-108644965D01*
X148230284Y-108638850D01*
X148231061Y-108632798D01*
X148232150Y-108626810D01*
X148233553Y-108620884D01*
X148235269Y-108615019D01*
X148237302Y-108609215D01*
X148239653Y-108603471D01*
X148242322Y-108597786D01*
X148245313Y-108592159D01*
X148248626Y-108586590D01*
X148252263Y-108581078D01*
X148256225Y-108575622D01*
X148337967Y-108559779D01*
X148413371Y-108544202D01*
X148482725Y-108528874D01*
X148546314Y-108513782D01*
X148604426Y-108498911D01*
X148657348Y-108484246D01*
X148705366Y-108469771D01*
X148748767Y-108455473D01*
X148787839Y-108441337D01*
X148822868Y-108427348D01*
X148854140Y-108413490D01*
X148881944Y-108399750D01*
X148906565Y-108386112D01*
X148928290Y-108372561D01*
X148947407Y-108359084D01*
X148964202Y-108345665D01*
X149035434Y-108336107D01*
X149107988Y-108327524D01*
X149181538Y-108319962D01*
X149255758Y-108313469D01*
X149330320Y-108308095D01*
X149404898Y-108303885D01*
X149479165Y-108300890D01*
X149552795Y-108299156D01*
X149627090Y-108298909D01*
X149700040Y-108300570D01*
X149771346Y-108304619D01*
X149840707Y-108311536D01*
X149907823Y-108321799D01*
X149940446Y-108328335D01*
X149972396Y-108335888D01*
X150003634Y-108344517D01*
X150034123Y-108354282D01*
X150063826Y-108365243D01*
X150092706Y-108377461D01*
X150120725Y-108390994D01*
X150147845Y-108405904D01*
X150174028Y-108422249D01*
X150199239Y-108440090D01*
X150223438Y-108459487D01*
X150246588Y-108480499D01*
X150268653Y-108503187D01*
X150289593Y-108527610D01*
X150309373Y-108553829D01*
X150327954Y-108581903D01*
X150345299Y-108611892D01*
X150361370Y-108643856D01*
X150376131Y-108677856D01*
X150389542Y-108713950D01*
X150401568Y-108752199D01*
X150412170Y-108792663D01*
X150429080Y-108880322D01*
X150440596Y-108976634D01*
X150447164Y-109081150D01*
X150449230Y-109193425D01*
X150441637Y-109439463D01*
X150421382Y-109711172D01*
X150285049Y-110983222D01*
X150254271Y-111330086D01*
X150228959Y-111683657D01*
X150209290Y-112042826D01*
X150195443Y-112406484D01*
X150187597Y-112773522D01*
X150185929Y-113142830D01*
X150190618Y-113513299D01*
X150201843Y-113883819D01*
X150219697Y-114252809D01*
X150243752Y-114616886D01*
X150273413Y-114972227D01*
X150308086Y-115315012D01*
X150347178Y-115641421D01*
X150390095Y-115947632D01*
X150436244Y-116229824D01*
X150485030Y-116484176D01*
X150510261Y-116599839D01*
X150536096Y-116707844D01*
X150562623Y-116808460D01*
X150589934Y-116901953D01*
X150618118Y-116988592D01*
X150647267Y-117068644D01*
X150677469Y-117142377D01*
X150692994Y-117176957D01*
X150708816Y-117210058D01*
X150724947Y-117241712D01*
X150741397Y-117271955D01*
X150758179Y-117300818D01*
X150775303Y-117328335D01*
X150792781Y-117354540D01*
X150810624Y-117379466D01*
X150828844Y-117403147D01*
X150847451Y-117425617D01*
X150866456Y-117446907D01*
X150885872Y-117467053D01*
X150905709Y-117486087D01*
X150925979Y-117504044D01*
X150946693Y-117520955D01*
X150967862Y-117536856D01*
X150989498Y-117551779D01*
X151011611Y-117565757D01*
X151057244Y-117590985D01*
X151104500Y-117612634D01*
X151153056Y-117630770D01*
X151202587Y-117645457D01*
X151252767Y-117656763D01*
X151303272Y-117664751D01*
X151353777Y-117669489D01*
X151403957Y-117671041D01*
X151453487Y-117669473D01*
X151502042Y-117664852D01*
X151549298Y-117657242D01*
X151594930Y-117646708D01*
X151638612Y-117633318D01*
X151680020Y-117617136D01*
X151718829Y-117598228D01*
X151754714Y-117576660D01*
X151787448Y-117552437D01*
X151817192Y-117525329D01*
X151844206Y-117495041D01*
X151868750Y-117461280D01*
X151891085Y-117423752D01*
X151911470Y-117382166D01*
X151930165Y-117336226D01*
X151947431Y-117285641D01*
X151963527Y-117230117D01*
X151978713Y-117169360D01*
X151993250Y-117103078D01*
X152007398Y-117030977D01*
X152035564Y-116868146D01*
X152065292Y-116678520D01*
X152133648Y-116216339D01*
X152208726Y-115659560D01*
X152282754Y-115029994D01*
X152316946Y-114694734D01*
X152347961Y-114349456D01*
X152375047Y-113997094D01*
X152398108Y-113641409D01*
X152417269Y-113286371D01*
X152432660Y-112935944D01*
X152452642Y-112264795D01*
X152459075Y-111659698D01*
X152457571Y-111390613D01*
X152453323Y-111142552D01*
X152446727Y-110912061D01*
X152438178Y-110695683D01*
X152416808Y-110291444D01*
X152392379Y-109902191D01*
X152368144Y-109508279D01*
X152349252Y-109122059D01*
X152343410Y-108938204D01*
X152340823Y-108763914D01*
X152342132Y-108601738D01*
X152347976Y-108454223D01*
X152352793Y-108386668D01*
X152358946Y-108323208D01*
X152366467Y-108263650D01*
X152375388Y-108207797D01*
X152385740Y-108155454D01*
X152397557Y-108106427D01*
X152410869Y-108060521D01*
X152425708Y-108017539D01*
X152442107Y-107977286D01*
X152460098Y-107939568D01*
X152479712Y-107904190D01*
X152500982Y-107870955D01*
X152523939Y-107839670D01*
X152548616Y-107810138D01*
X152575044Y-107782164D01*
X152603256Y-107755554D01*
X152633281Y-107730144D01*
X152665136Y-107705905D01*
X152698827Y-107682836D01*
X152734364Y-107660937D01*
X152771753Y-107640209D01*
X152811003Y-107620651D01*
X152852122Y-107602264D01*
X152895118Y-107585046D01*
X152939998Y-107568999D01*
X152986772Y-107554121D01*
X153035445Y-107540413D01*
X153086027Y-107527875D01*
X153138526Y-107516506D01*
X153192949Y-107506307D01*
X153249305Y-107497278D01*
X153307601Y-107489418D01*
X153337472Y-107485924D01*
X153367791Y-107482737D01*
X153398525Y-107479861D01*
X153429639Y-107477300D01*
X153461099Y-107475059D01*
X153492869Y-107473142D01*
X153524916Y-107471554D01*
X153557205Y-107470298D01*
X153558013Y-107471824D01*
X153656124Y-107470223D01*
X153755242Y-107471971D01*
G37*
%TD.AperFunction*%
%TD*%
D12*
%TO.N,GND*%
X145800000Y-106200000D03*
X135000000Y-87600000D03*
X147400000Y-84600000D03*
X153800000Y-108200000D03*
X142000000Y-95800000D03*
X136400000Y-105000000D03*
X154400000Y-75000000D03*
X135000000Y-83600000D03*
X142000000Y-99200000D03*
X142000000Y-97500000D03*
X152800000Y-112200000D03*
X135600000Y-95800000D03*
X152200000Y-76200000D03*
X142000000Y-104200000D03*
%TD*%
M02*
