%TF.GenerationSoftware,KiCad,Pcbnew,10.0.1*%
%TF.CreationDate,2026-04-26T00:56:36+02:00*%
%TF.ProjectId,rakija,72616b69-6a61-42e6-9b69-6361645f7063,rev?*%
%TF.SameCoordinates,Original*%
%TF.FileFunction,Profile,NP*%
%FSLAX46Y46*%
G04 Gerber Fmt 4.6, Leading zero omitted, Abs format (unit mm)*
G04 Created by KiCad (PCBNEW 10.0.1) date 2026-04-26 00:56:36*
%MOMM*%
%LPD*%
G01*
G04 APERTURE LIST*
%TA.AperFunction,Profile*%
%ADD10C,0.183579*%
%TD*%
G04 APERTURE END LIST*
D10*
X148000000Y-65500000D02*
X150852647Y-65644268D01*
X153555207Y-65892631D01*
X156030253Y-66247476D01*
X158200355Y-66711196D01*
X159988084Y-67286180D01*
X160714362Y-67616142D01*
X161316010Y-67974817D01*
X161783351Y-68362503D01*
X162106706Y-68779499D01*
X162114569Y-71219026D01*
X161914362Y-75847357D01*
X161030458Y-89635857D01*
X159736431Y-106075861D01*
X159023572Y-114018571D01*
X158313722Y-121098230D01*
X157962373Y-121609215D01*
X157514992Y-122087066D01*
X156978095Y-122531737D01*
X156358197Y-122943184D01*
X155661812Y-123321362D01*
X154895458Y-123666225D01*
X154065648Y-123977730D01*
X153178899Y-124255830D01*
X151260642Y-124711640D01*
X149192810Y-125033296D01*
X147027525Y-125220438D01*
X144816911Y-125272708D01*
X142613089Y-125189746D01*
X140468183Y-124971194D01*
X138434315Y-124616692D01*
X136563607Y-124125881D01*
X135705727Y-123829247D01*
X134908183Y-123498402D01*
X134177491Y-123133300D01*
X133520165Y-122733897D01*
X132942722Y-122300146D01*
X132451676Y-121832005D01*
X132053543Y-121329427D01*
X131754838Y-120792368D01*
X129079754Y-88253046D01*
X128184716Y-74314010D01*
X128098320Y-70080543D01*
X128176715Y-68916997D01*
X128348100Y-68491451D01*
X128348107Y-68491443D01*
X128634477Y-68138759D01*
X129067220Y-67806421D01*
X129636656Y-67494729D01*
X130333108Y-67203981D01*
X132068343Y-66686515D01*
X134195495Y-66256413D01*
X136637135Y-65916063D01*
X139315835Y-65667857D01*
X142154165Y-65514184D01*
X145074697Y-65457436D01*
X148000000Y-65500000D01*
M02*
