%TF.GenerationSoftware,KiCad,Pcbnew,10.0.1*%
%TF.CreationDate,2026-04-26T00:56:36+02:00*%
%TF.ProjectId,rakija,72616b69-6a61-42e6-9b69-6361645f7063,rev?*%
%TF.SameCoordinates,Original*%
%TF.FileFunction,Legend,Bot*%
%TF.FilePolarity,Positive*%
%FSLAX46Y46*%
G04 Gerber Fmt 4.6, Leading zero omitted, Abs format (unit mm)*
G04 Created by KiCad (PCBNEW 10.0.1) date 2026-04-26 00:56:36*
%MOMM*%
%LPD*%
G01*
G04 APERTURE LIST*
%ADD10C,0.150000*%
%ADD11C,0.120000*%
G04 APERTURE END LIST*
D10*
X153500273Y-97424283D02*
X153547892Y-97471902D01*
X153547892Y-97471902D02*
X153690749Y-97567140D01*
X153690749Y-97567140D02*
X153785987Y-97614759D01*
X153785987Y-97614759D02*
X153928845Y-97662378D01*
X153928845Y-97662378D02*
X154166940Y-97709997D01*
X154166940Y-97709997D02*
X154357416Y-97709997D01*
X154357416Y-97709997D02*
X154595511Y-97662378D01*
X154595511Y-97662378D02*
X154738368Y-97614759D01*
X154738368Y-97614759D02*
X154833606Y-97567140D01*
X154833606Y-97567140D02*
X154976464Y-97471902D01*
X154976464Y-97471902D02*
X155024083Y-97424283D01*
X153881225Y-96614759D02*
X154881225Y-96614759D01*
X153928845Y-96614759D02*
X153881225Y-96709997D01*
X153881225Y-96709997D02*
X153881225Y-96900473D01*
X153881225Y-96900473D02*
X153928845Y-96995711D01*
X153928845Y-96995711D02*
X153976464Y-97043330D01*
X153976464Y-97043330D02*
X154071702Y-97090949D01*
X154071702Y-97090949D02*
X154357416Y-97090949D01*
X154357416Y-97090949D02*
X154452654Y-97043330D01*
X154452654Y-97043330D02*
X154500273Y-96995711D01*
X154500273Y-96995711D02*
X154547892Y-96900473D01*
X154547892Y-96900473D02*
X154547892Y-96709997D01*
X154547892Y-96709997D02*
X154500273Y-96614759D01*
X153881225Y-96138568D02*
X154547892Y-96138568D01*
X154357416Y-96138568D02*
X154452654Y-96090949D01*
X154452654Y-96090949D02*
X154500273Y-96043330D01*
X154500273Y-96043330D02*
X154547892Y-95948092D01*
X154547892Y-95948092D02*
X154547892Y-95852854D01*
X153881225Y-95519520D02*
X154547892Y-95519520D01*
X154881225Y-95519520D02*
X154833606Y-95567139D01*
X154833606Y-95567139D02*
X154785987Y-95519520D01*
X154785987Y-95519520D02*
X154833606Y-95471901D01*
X154833606Y-95471901D02*
X154881225Y-95519520D01*
X154881225Y-95519520D02*
X154785987Y-95519520D01*
X154547892Y-95043330D02*
X153881225Y-95043330D01*
X154452654Y-95043330D02*
X154500273Y-94995711D01*
X154500273Y-94995711D02*
X154547892Y-94900473D01*
X154547892Y-94900473D02*
X154547892Y-94757616D01*
X154547892Y-94757616D02*
X154500273Y-94662378D01*
X154500273Y-94662378D02*
X154405035Y-94614759D01*
X154405035Y-94614759D02*
X153881225Y-94614759D01*
X153881225Y-94138568D02*
X154881225Y-94138568D01*
X154262178Y-94043330D02*
X153881225Y-93757616D01*
X154547892Y-93757616D02*
X154166940Y-94138568D01*
X153881225Y-92567139D02*
X154547892Y-92567139D01*
X154357416Y-92567139D02*
X154452654Y-92519520D01*
X154452654Y-92519520D02*
X154500273Y-92471901D01*
X154500273Y-92471901D02*
X154547892Y-92376663D01*
X154547892Y-92376663D02*
X154547892Y-92281425D01*
X153928845Y-91567139D02*
X153881225Y-91662377D01*
X153881225Y-91662377D02*
X153881225Y-91852853D01*
X153881225Y-91852853D02*
X153928845Y-91948091D01*
X153928845Y-91948091D02*
X154024083Y-91995710D01*
X154024083Y-91995710D02*
X154405035Y-91995710D01*
X154405035Y-91995710D02*
X154500273Y-91948091D01*
X154500273Y-91948091D02*
X154547892Y-91852853D01*
X154547892Y-91852853D02*
X154547892Y-91662377D01*
X154547892Y-91662377D02*
X154500273Y-91567139D01*
X154500273Y-91567139D02*
X154405035Y-91519520D01*
X154405035Y-91519520D02*
X154309797Y-91519520D01*
X154309797Y-91519520D02*
X154214559Y-91995710D01*
X153928845Y-91138567D02*
X153881225Y-91043329D01*
X153881225Y-91043329D02*
X153881225Y-90852853D01*
X153881225Y-90852853D02*
X153928845Y-90757615D01*
X153928845Y-90757615D02*
X154024083Y-90709996D01*
X154024083Y-90709996D02*
X154071702Y-90709996D01*
X154071702Y-90709996D02*
X154166940Y-90757615D01*
X154166940Y-90757615D02*
X154214559Y-90852853D01*
X154214559Y-90852853D02*
X154214559Y-90995710D01*
X154214559Y-90995710D02*
X154262178Y-91090948D01*
X154262178Y-91090948D02*
X154357416Y-91138567D01*
X154357416Y-91138567D02*
X154405035Y-91138567D01*
X154405035Y-91138567D02*
X154500273Y-91090948D01*
X154500273Y-91090948D02*
X154547892Y-90995710D01*
X154547892Y-90995710D02*
X154547892Y-90852853D01*
X154547892Y-90852853D02*
X154500273Y-90757615D01*
X154547892Y-90281424D02*
X153547892Y-90281424D01*
X154500273Y-90281424D02*
X154547892Y-90186186D01*
X154547892Y-90186186D02*
X154547892Y-89995710D01*
X154547892Y-89995710D02*
X154500273Y-89900472D01*
X154500273Y-89900472D02*
X154452654Y-89852853D01*
X154452654Y-89852853D02*
X154357416Y-89805234D01*
X154357416Y-89805234D02*
X154071702Y-89805234D01*
X154071702Y-89805234D02*
X153976464Y-89852853D01*
X153976464Y-89852853D02*
X153928845Y-89900472D01*
X153928845Y-89900472D02*
X153881225Y-89995710D01*
X153881225Y-89995710D02*
X153881225Y-90186186D01*
X153881225Y-90186186D02*
X153928845Y-90281424D01*
X153881225Y-89233805D02*
X153928845Y-89329043D01*
X153928845Y-89329043D02*
X153976464Y-89376662D01*
X153976464Y-89376662D02*
X154071702Y-89424281D01*
X154071702Y-89424281D02*
X154357416Y-89424281D01*
X154357416Y-89424281D02*
X154452654Y-89376662D01*
X154452654Y-89376662D02*
X154500273Y-89329043D01*
X154500273Y-89329043D02*
X154547892Y-89233805D01*
X154547892Y-89233805D02*
X154547892Y-89090948D01*
X154547892Y-89090948D02*
X154500273Y-88995710D01*
X154500273Y-88995710D02*
X154452654Y-88948091D01*
X154452654Y-88948091D02*
X154357416Y-88900472D01*
X154357416Y-88900472D02*
X154071702Y-88900472D01*
X154071702Y-88900472D02*
X153976464Y-88948091D01*
X153976464Y-88948091D02*
X153928845Y-88995710D01*
X153928845Y-88995710D02*
X153881225Y-89090948D01*
X153881225Y-89090948D02*
X153881225Y-89233805D01*
X154547892Y-88471900D02*
X153881225Y-88471900D01*
X154452654Y-88471900D02*
X154500273Y-88424281D01*
X154500273Y-88424281D02*
X154547892Y-88329043D01*
X154547892Y-88329043D02*
X154547892Y-88186186D01*
X154547892Y-88186186D02*
X154500273Y-88090948D01*
X154500273Y-88090948D02*
X154405035Y-88043329D01*
X154405035Y-88043329D02*
X153881225Y-88043329D01*
X153928845Y-87614757D02*
X153881225Y-87519519D01*
X153881225Y-87519519D02*
X153881225Y-87329043D01*
X153881225Y-87329043D02*
X153928845Y-87233805D01*
X153928845Y-87233805D02*
X154024083Y-87186186D01*
X154024083Y-87186186D02*
X154071702Y-87186186D01*
X154071702Y-87186186D02*
X154166940Y-87233805D01*
X154166940Y-87233805D02*
X154214559Y-87329043D01*
X154214559Y-87329043D02*
X154214559Y-87471900D01*
X154214559Y-87471900D02*
X154262178Y-87567138D01*
X154262178Y-87567138D02*
X154357416Y-87614757D01*
X154357416Y-87614757D02*
X154405035Y-87614757D01*
X154405035Y-87614757D02*
X154500273Y-87567138D01*
X154500273Y-87567138D02*
X154547892Y-87471900D01*
X154547892Y-87471900D02*
X154547892Y-87329043D01*
X154547892Y-87329043D02*
X154500273Y-87233805D01*
X153881225Y-86757614D02*
X154547892Y-86757614D01*
X154881225Y-86757614D02*
X154833606Y-86805233D01*
X154833606Y-86805233D02*
X154785987Y-86757614D01*
X154785987Y-86757614D02*
X154833606Y-86709995D01*
X154833606Y-86709995D02*
X154881225Y-86757614D01*
X154881225Y-86757614D02*
X154785987Y-86757614D01*
X153881225Y-86281424D02*
X154881225Y-86281424D01*
X154500273Y-86281424D02*
X154547892Y-86186186D01*
X154547892Y-86186186D02*
X154547892Y-85995710D01*
X154547892Y-85995710D02*
X154500273Y-85900472D01*
X154500273Y-85900472D02*
X154452654Y-85852853D01*
X154452654Y-85852853D02*
X154357416Y-85805234D01*
X154357416Y-85805234D02*
X154071702Y-85805234D01*
X154071702Y-85805234D02*
X153976464Y-85852853D01*
X153976464Y-85852853D02*
X153928845Y-85900472D01*
X153928845Y-85900472D02*
X153881225Y-85995710D01*
X153881225Y-85995710D02*
X153881225Y-86186186D01*
X153881225Y-86186186D02*
X153928845Y-86281424D01*
X153881225Y-85233805D02*
X153928845Y-85329043D01*
X153928845Y-85329043D02*
X154024083Y-85376662D01*
X154024083Y-85376662D02*
X154881225Y-85376662D01*
X154547892Y-84948090D02*
X153881225Y-84709995D01*
X154547892Y-84471900D02*
X153881225Y-84709995D01*
X153881225Y-84709995D02*
X153643130Y-84805233D01*
X153643130Y-84805233D02*
X153595511Y-84852852D01*
X153595511Y-84852852D02*
X153547892Y-84948090D01*
X153500273Y-84186185D02*
X153547892Y-84138566D01*
X153547892Y-84138566D02*
X153690749Y-84043328D01*
X153690749Y-84043328D02*
X153785987Y-83995709D01*
X153785987Y-83995709D02*
X153928845Y-83948090D01*
X153928845Y-83948090D02*
X154166940Y-83900471D01*
X154166940Y-83900471D02*
X154357416Y-83900471D01*
X154357416Y-83900471D02*
X154595511Y-83948090D01*
X154595511Y-83948090D02*
X154738368Y-83995709D01*
X154738368Y-83995709D02*
X154833606Y-84043328D01*
X154833606Y-84043328D02*
X154976464Y-84138566D01*
X154976464Y-84138566D02*
X155024083Y-84186185D01*
X156561616Y-94925482D02*
X155704473Y-95568339D01*
X155704473Y-94711196D02*
X157204473Y-94711196D01*
X156347330Y-94711196D02*
X157204473Y-95568339D01*
X155704473Y-93854054D02*
X156561616Y-94496911D01*
X157204473Y-93854054D02*
X156347330Y-94711196D01*
X156704473Y-93211197D02*
X155704473Y-93211197D01*
X155704473Y-93211197D02*
X156704473Y-92496911D01*
X156704473Y-92496911D02*
X155704473Y-92496911D01*
X156204473Y-91425483D02*
X156133044Y-91211197D01*
X156133044Y-91211197D02*
X155990187Y-91139769D01*
X155990187Y-91139769D02*
X155918759Y-91139769D01*
X155918759Y-91139769D02*
X155775902Y-91211197D01*
X155775902Y-91211197D02*
X155704473Y-91354054D01*
X155704473Y-91354054D02*
X155704473Y-91782626D01*
X155704473Y-91782626D02*
X156704473Y-91782626D01*
X156704473Y-91782626D02*
X156704473Y-91425483D01*
X156704473Y-91425483D02*
X156633044Y-91282626D01*
X156633044Y-91282626D02*
X156490187Y-91211197D01*
X156490187Y-91211197D02*
X156418759Y-91211197D01*
X156418759Y-91211197D02*
X156275902Y-91282626D01*
X156275902Y-91282626D02*
X156204473Y-91425483D01*
X156204473Y-91425483D02*
X156204473Y-91782626D01*
X155775902Y-89925483D02*
X155704473Y-90068340D01*
X155704473Y-90068340D02*
X155704473Y-90354055D01*
X155704473Y-90354055D02*
X155775902Y-90496912D01*
X155775902Y-90496912D02*
X155918759Y-90568340D01*
X155918759Y-90568340D02*
X156490187Y-90568340D01*
X156490187Y-90568340D02*
X156633044Y-90496912D01*
X156633044Y-90496912D02*
X156704473Y-90354055D01*
X156704473Y-90354055D02*
X156704473Y-90068340D01*
X156704473Y-90068340D02*
X156633044Y-89925483D01*
X156633044Y-89925483D02*
X156490187Y-89854055D01*
X156490187Y-89854055D02*
X156347330Y-89854055D01*
X156347330Y-89854055D02*
X156204473Y-90568340D01*
X155704473Y-88639769D02*
X156704473Y-88639769D01*
X156704473Y-88639769D02*
X156704473Y-88854055D01*
X156704473Y-88854055D02*
X156633044Y-88996912D01*
X156633044Y-88996912D02*
X156490187Y-89068341D01*
X156490187Y-89068341D02*
X155918759Y-89139769D01*
X155918759Y-89139769D02*
X155775902Y-89211198D01*
X155775902Y-89211198D02*
X155704473Y-89354055D01*
X156704473Y-87925484D02*
X155704473Y-87925484D01*
X155704473Y-87925484D02*
X156704473Y-87211198D01*
X156704473Y-87211198D02*
X155704473Y-87211198D01*
X155847330Y-86496913D02*
X155775902Y-86425484D01*
X155775902Y-86425484D02*
X155704473Y-86496913D01*
X155704473Y-86496913D02*
X155775902Y-86568341D01*
X155775902Y-86568341D02*
X155847330Y-86496913D01*
X155847330Y-86496913D02*
X155704473Y-86496913D01*
X156275902Y-86496913D02*
X157133044Y-86568341D01*
X157133044Y-86568341D02*
X157204473Y-86496913D01*
X157204473Y-86496913D02*
X157133044Y-86425484D01*
X157133044Y-86425484D02*
X156275902Y-86496913D01*
X156275902Y-86496913D02*
X157204473Y-86496913D01*
%TO.C,D4*%
D11*
X144765000Y-72590000D02*
X146235000Y-72590000D01*
X144765000Y-75050000D02*
X144765000Y-72590000D01*
X146235000Y-72590000D02*
X146235000Y-75050000D01*
%TO.C,R3*%
X142692745Y-68398703D02*
X143202193Y-68398703D01*
X142692745Y-69443703D02*
X143202193Y-69443703D01*
%TO.C,R17*%
X151977733Y-99732187D02*
X152487181Y-99732187D01*
X151977733Y-100777187D02*
X152487181Y-100777187D01*
%TO.C,D10*%
X133340000Y-107515000D02*
X135800000Y-107515000D01*
X133340000Y-108985000D02*
X133340000Y-107515000D01*
X135800000Y-108985000D02*
X133340000Y-108985000D01*
%TO.C,R19*%
X153323352Y-109696127D02*
X153832800Y-109696127D01*
X153323352Y-110741127D02*
X153832800Y-110741127D01*
%TO.C,R2*%
X141852332Y-66587142D02*
X141342884Y-66587142D01*
X141852332Y-67632142D02*
X141342884Y-67632142D01*
%TO.C,D12*%
X159208830Y-90204637D02*
X159423233Y-87753998D01*
X160673237Y-90332756D02*
X159208830Y-90204637D01*
X160887640Y-87882117D02*
X160673237Y-90332756D01*
%TO.C,R24*%
X145074960Y-119686761D02*
X145584408Y-119686761D01*
X145074960Y-120731761D02*
X145584408Y-120731761D01*
%TO.C,D19*%
X156200000Y-109515000D02*
X158660000Y-109515000D01*
X158660000Y-109515000D02*
X158660000Y-110985000D01*
X158660000Y-110985000D02*
X156200000Y-110985000D01*
%TO.C,D14*%
X132950000Y-101015000D02*
X135410000Y-101015000D01*
X135410000Y-101015000D02*
X135410000Y-102485000D01*
X135410000Y-102485000D02*
X132950000Y-102485000D01*
%TO.C,R1*%
X150473207Y-68235682D02*
X150517607Y-67728172D01*
X151514231Y-68326758D02*
X151558631Y-67819248D01*
%TO.C,R13*%
X130453025Y-88238891D02*
X130453025Y-88748339D01*
X131498025Y-88238891D02*
X131498025Y-88748339D01*
%TO.C,D17*%
X154950000Y-99515000D02*
X157410000Y-99515000D01*
X157410000Y-99515000D02*
X157410000Y-100985000D01*
X157410000Y-100985000D02*
X154950000Y-100985000D01*
%TO.C,R23*%
X135755961Y-122431893D02*
X136248051Y-122563749D01*
X136026427Y-121422501D02*
X136518517Y-121554357D01*
%TO.C,D6*%
X135487910Y-73507149D02*
X135915085Y-71084522D01*
X136935578Y-73762412D02*
X135487910Y-73507149D01*
X137362752Y-71339785D02*
X136935578Y-73762412D01*
%TO.C,D24*%
X145765000Y-116090000D02*
X147235000Y-116090000D01*
X145765000Y-118550000D02*
X145765000Y-116090000D01*
X147235000Y-116090000D02*
X147235000Y-118550000D01*
%TO.C,R12*%
X159313984Y-84917583D02*
X159313984Y-85427031D01*
X160358984Y-84917583D02*
X160358984Y-85427031D01*
%TO.C,R21*%
X137477500Y-116245276D02*
X137477500Y-116754724D01*
X138522500Y-116245276D02*
X138522500Y-116754724D01*
%TO.C,D5*%
X153814422Y-73762412D02*
X153387248Y-71339785D01*
X154834915Y-71084522D02*
X155262090Y-73507149D01*
X155262090Y-73507149D02*
X153814422Y-73762412D01*
%TO.C,R11*%
X130269135Y-84857479D02*
X130269135Y-85366927D01*
X131314135Y-84857479D02*
X131314135Y-85366927D01*
%TO.C,R22*%
X154258831Y-121514711D02*
X153780107Y-121688954D01*
X154616241Y-122496690D02*
X154137517Y-122670933D01*
%TO.C,D20*%
X153700000Y-116765000D02*
X156160000Y-116765000D01*
X156160000Y-116765000D02*
X156160000Y-118235000D01*
X156160000Y-118235000D02*
X153700000Y-118235000D01*
%TO.C,D8*%
X149015000Y-81715000D02*
X150485000Y-81715000D01*
X149015000Y-84175000D02*
X149015000Y-81715000D01*
X150485000Y-81715000D02*
X150485000Y-84175000D01*
%TO.C,J1*%
X136810000Y-89115000D02*
X136810000Y-98285000D01*
X136810000Y-98285000D02*
X140990000Y-98285000D01*
X140990000Y-89115000D02*
X136810000Y-89115000D01*
X140990000Y-89115000D02*
X140990000Y-87615000D01*
X148090000Y-89115000D02*
X152270000Y-89115000D01*
X152270000Y-89115000D02*
X152270000Y-98285000D01*
X152270000Y-98285000D02*
X148090000Y-98285000D01*
%TO.C,D13*%
X129836214Y-93596073D02*
X129621811Y-91145434D01*
X131086218Y-91017315D02*
X131300621Y-93467954D01*
X131300621Y-93467954D02*
X129836214Y-93596073D01*
%TO.C,R7*%
X154232776Y-76477500D02*
X154742224Y-76477500D01*
X154232776Y-77522500D02*
X154742224Y-77522500D01*
%TO.C,R16*%
X155071343Y-80453210D02*
X155580791Y-80453210D01*
X155071343Y-81498210D02*
X155580791Y-81498210D01*
%TO.C,D2*%
X136282257Y-66162475D02*
X138732896Y-65948072D01*
X136410376Y-67626882D02*
X136282257Y-66162475D01*
X138861015Y-67412479D02*
X136410376Y-67626882D01*
%TO.C,R18*%
X145831625Y-104218447D02*
X146341073Y-104218447D01*
X145831625Y-105263447D02*
X146341073Y-105263447D01*
%TO.C,D22*%
X149237588Y-123314423D02*
X151660215Y-122887248D01*
X149492850Y-124762090D02*
X149237588Y-123314423D01*
X151915478Y-124334915D02*
X149492850Y-124762090D01*
%TO.C,D11*%
X132450000Y-85265000D02*
X134910000Y-85265000D01*
X134910000Y-85265000D02*
X134910000Y-86735000D01*
X134910000Y-86735000D02*
X132450000Y-86735000D01*
%TO.C,D23*%
X138611542Y-122907523D02*
X141034169Y-123334697D01*
X140778906Y-124782365D02*
X138356279Y-124355190D01*
X141034169Y-123334697D02*
X140778906Y-124782365D01*
%TO.C,D15*%
X131700000Y-75015000D02*
X134160000Y-75015000D01*
X134160000Y-75015000D02*
X134160000Y-76485000D01*
X134160000Y-76485000D02*
X131700000Y-76485000D01*
%TO.C,R10*%
X135423090Y-111019539D02*
X135423090Y-110510091D01*
X136468090Y-111019539D02*
X136468090Y-110510091D01*
%TO.C,R8*%
X151054724Y-85277500D02*
X150545276Y-85277500D01*
X151054724Y-86322500D02*
X150545276Y-86322500D01*
%TO.C,R9*%
X142679873Y-107457701D02*
X143189321Y-107457701D01*
X142679873Y-108502701D02*
X143189321Y-108502701D01*
%TO.C,R6*%
X138257360Y-68839937D02*
X137747912Y-68839937D01*
X138257360Y-69884937D02*
X137747912Y-69884937D01*
%TO.C,D7*%
X157200000Y-76265000D02*
X159660000Y-76265000D01*
X159660000Y-76265000D02*
X159660000Y-77735000D01*
X159660000Y-77735000D02*
X157200000Y-77735000D01*
%TO.C,D21*%
X133840000Y-116765000D02*
X136300000Y-116765000D01*
X133840000Y-118235000D02*
X133840000Y-116765000D01*
X136300000Y-118235000D02*
X133840000Y-118235000D01*
%TO.C,D9*%
X144765000Y-110660000D02*
X144765000Y-108200000D01*
X146235000Y-108200000D02*
X146235000Y-110660000D01*
X146235000Y-110660000D02*
X144765000Y-110660000D01*
%TO.C,D1*%
X152872500Y-66059950D02*
X155323139Y-66274353D01*
X155195020Y-67738760D02*
X152744381Y-67524357D01*
X155323139Y-66274353D02*
X155195020Y-67738760D01*
%TO.C,D16*%
X157950000Y-80265000D02*
X160410000Y-80265000D01*
X160410000Y-80265000D02*
X160410000Y-81735000D01*
X160410000Y-81735000D02*
X157950000Y-81735000D01*
%TO.C,R15*%
X129596601Y-76454724D02*
X129596601Y-75945276D01*
X130641601Y-76454724D02*
X130641601Y-75945276D01*
%TO.C,R5*%
X151212274Y-70466332D02*
X151721722Y-70466332D01*
X151212274Y-71511332D02*
X151721722Y-71511332D01*
%TO.C,D3*%
X144765000Y-66090000D02*
X146235000Y-66090000D01*
X144765000Y-68550000D02*
X144765000Y-66090000D01*
X146235000Y-66090000D02*
X146235000Y-68550000D01*
%TO.C,R20*%
X151977500Y-114745276D02*
X151977500Y-115254724D01*
X153022500Y-114745276D02*
X153022500Y-115254724D01*
%TO.C,R4*%
X142706458Y-74839577D02*
X143215906Y-74839574D01*
X142706458Y-75884578D02*
X143215906Y-75884575D01*
%TO.C,R14*%
X134277500Y-98945276D02*
X134277500Y-99454724D01*
X135322500Y-98945276D02*
X135322500Y-99454724D01*
%TO.C,D18*%
X148700000Y-104515000D02*
X151160000Y-104515000D01*
X151160000Y-104515000D02*
X151160000Y-105985000D01*
X151160000Y-105985000D02*
X148700000Y-105985000D01*
%TD*%
M02*
