%TF.GenerationSoftware,KiCad,Pcbnew,10.0.1*%
%TF.CreationDate,2026-04-26T00:56:36+02:00*%
%TF.ProjectId,rakija,72616b69-6a61-42e6-9b69-6361645f7063,rev?*%
%TF.SameCoordinates,Original*%
%TF.FileFunction,Paste,Bot*%
%TF.FilePolarity,Positive*%
%FSLAX46Y46*%
G04 Gerber Fmt 4.6, Leading zero omitted, Abs format (unit mm)*
G04 Created by KiCad (PCBNEW 10.0.1) date 2026-04-26 00:56:36*
%MOMM*%
%LPD*%
G01*
G04 APERTURE LIST*
G04 Aperture macros list*
%AMRoundRect*
0 Rectangle with rounded corners*
0 $1 Rounding radius*
0 $2 $3 $4 $5 $6 $7 $8 $9 X,Y pos of 4 corners*
0 Add a 4 corners polygon primitive as box body*
4,1,4,$2,$3,$4,$5,$6,$7,$8,$9,$2,$3,0*
0 Add four circle primitives for the rounded corners*
1,1,$1+$1,$2,$3*
1,1,$1+$1,$4,$5*
1,1,$1+$1,$6,$7*
1,1,$1+$1,$8,$9*
0 Add four rect primitives between the rounded corners*
20,1,$1+$1,$2,$3,$4,$5,0*
20,1,$1+$1,$4,$5,$6,$7,0*
20,1,$1+$1,$6,$7,$8,$9,0*
20,1,$1+$1,$8,$9,$2,$3,0*%
G04 Aperture macros list end*
%ADD10RoundRect,0.237500X-0.237500X0.287500X-0.237500X-0.287500X0.237500X-0.287500X0.237500X0.287500X0*%
%ADD11RoundRect,0.237500X-0.250000X-0.237500X0.250000X-0.237500X0.250000X0.237500X-0.250000X0.237500X0*%
%ADD12RoundRect,0.237500X-0.287500X-0.237500X0.287500X-0.237500X0.287500X0.237500X-0.287500X0.237500X0*%
%ADD13RoundRect,0.237500X0.250000X0.237500X-0.250000X0.237500X-0.250000X-0.237500X0.250000X-0.237500X0*%
%ADD14RoundRect,0.237500X0.211539X-0.307105X0.261654X0.265706X-0.211539X0.307105X-0.261654X-0.265706X0*%
%ADD15RoundRect,0.237500X0.287500X0.237500X-0.287500X0.237500X-0.287500X-0.237500X0.287500X-0.237500X0*%
%ADD16RoundRect,0.237500X0.214807X-0.269748X0.258385X0.228349X-0.214807X0.269748X-0.258385X-0.228349X0*%
%ADD17RoundRect,0.237500X-0.237500X0.250000X-0.237500X-0.250000X0.237500X-0.250000X0.237500X0.250000X0*%
%ADD18RoundRect,0.237500X-0.302951X-0.164703X0.180012X-0.294112X0.302951X0.164703X-0.180012X0.294112X0*%
%ADD19RoundRect,0.237500X0.183968X-0.324374X0.283816X0.241891X-0.183968X0.324374X-0.283816X-0.241891X0*%
%ADD20RoundRect,0.237500X0.283816X-0.241891X0.183968X0.324374X-0.283816X0.241891X-0.183968X-0.324374X0*%
%ADD21RoundRect,0.237500X0.153693X0.308682X-0.316153X0.137672X-0.153693X-0.308682X0.316153X-0.137672X0*%
%ADD22RoundRect,0.250000X-0.260000X2.250000X-0.260000X-2.250000X0.260000X-2.250000X0.260000X2.250000X0*%
%ADD23RoundRect,0.237500X0.261654X-0.265706X0.211539X0.307105X-0.261654X0.265706X-0.211539X-0.307105X0*%
%ADD24RoundRect,0.237500X-0.265706X-0.261654X0.307105X-0.211539X0.265706X0.261654X-0.307105X0.211539X0*%
%ADD25RoundRect,0.237500X-0.241891X-0.283816X0.324374X-0.183968X0.241891X0.283816X-0.324374X0.183968X0*%
%ADD26RoundRect,0.237500X0.324374X0.183968X-0.241891X0.283816X-0.324374X-0.183968X0.241891X-0.283816X0*%
%ADD27RoundRect,0.237500X0.237500X-0.250000X0.237500X0.250000X-0.237500X0.250000X-0.237500X-0.250000X0*%
%ADD28RoundRect,0.237500X0.237500X-0.287500X0.237500X0.287500X-0.237500X0.287500X-0.237500X-0.287500X0*%
%ADD29RoundRect,0.237500X0.307105X0.211539X-0.265706X0.261654X-0.307105X-0.211539X0.265706X-0.261654X0*%
G04 APERTURE END LIST*
D10*
%TO.C,D4*%
X145500000Y-73375000D03*
X145500000Y-75125000D03*
%TD*%
D11*
%TO.C,R3*%
X142034969Y-68921203D03*
X143859969Y-68921203D03*
%TD*%
%TO.C,R17*%
X151319957Y-100254687D03*
X153144957Y-100254687D03*
%TD*%
D12*
%TO.C,D10*%
X134125000Y-108250000D03*
X135875000Y-108250000D03*
%TD*%
D11*
%TO.C,R19*%
X152665576Y-110218627D03*
X154490576Y-110218627D03*
%TD*%
D13*
%TO.C,R2*%
X142510108Y-67109642D03*
X140685108Y-67109642D03*
%TD*%
D14*
%TO.C,D12*%
X160009451Y-89486683D03*
X160161973Y-87743343D03*
%TD*%
D11*
%TO.C,R24*%
X144417184Y-120209261D03*
X146242184Y-120209261D03*
%TD*%
D15*
%TO.C,D19*%
X157875000Y-110250000D03*
X156125000Y-110250000D03*
%TD*%
%TO.C,D14*%
X134625000Y-101750000D03*
X132875000Y-101750000D03*
%TD*%
D16*
%TO.C,R1*%
X150936389Y-68936492D03*
X151095449Y-67118438D03*
%TD*%
D17*
%TO.C,R13*%
X130975525Y-87581115D03*
X130975525Y-89406115D03*
%TD*%
D15*
%TO.C,D17*%
X156625000Y-100250000D03*
X154875000Y-100250000D03*
%TD*%
D18*
%TO.C,R23*%
X135255832Y-121756952D03*
X137018646Y-122229298D03*
%TD*%
D19*
%TO.C,D6*%
X136348058Y-72861707D03*
X136651942Y-71138293D03*
%TD*%
D10*
%TO.C,D24*%
X146500000Y-116875000D03*
X146500000Y-118625000D03*
%TD*%
D17*
%TO.C,R12*%
X159836484Y-84259807D03*
X159836484Y-86084807D03*
%TD*%
%TO.C,R21*%
X138000000Y-115587500D03*
X138000000Y-117412500D03*
%TD*%
D20*
%TO.C,D5*%
X154401942Y-72861707D03*
X154098058Y-71138293D03*
%TD*%
D17*
%TO.C,R11*%
X130791635Y-84199703D03*
X130791635Y-86024703D03*
%TD*%
D21*
%TO.C,R22*%
X155055644Y-121780728D03*
X153340704Y-122404916D03*
%TD*%
D15*
%TO.C,D20*%
X155375000Y-117500000D03*
X153625000Y-117500000D03*
%TD*%
D10*
%TO.C,D8*%
X149750000Y-82500000D03*
X149750000Y-84250000D03*
%TD*%
D22*
%TO.C,J1*%
X142000000Y-89900000D03*
X142000000Y-97500000D03*
X144540000Y-89900000D03*
X144540000Y-97500000D03*
X147080000Y-89900000D03*
X147080000Y-97500000D03*
%TD*%
D23*
%TO.C,D13*%
X130500000Y-92750000D03*
X130347478Y-91006660D03*
%TD*%
D11*
%TO.C,R7*%
X153575000Y-77000000D03*
X155400000Y-77000000D03*
%TD*%
%TO.C,R16*%
X154413567Y-80975710D03*
X156238567Y-80975710D03*
%TD*%
D24*
%TO.C,D2*%
X137128330Y-66826261D03*
X138871670Y-66673739D03*
%TD*%
D11*
%TO.C,R18*%
X145173849Y-104740947D03*
X146998849Y-104740947D03*
%TD*%
D25*
%TO.C,D22*%
X150138293Y-123901943D03*
X151861707Y-123598057D03*
%TD*%
D15*
%TO.C,D11*%
X134125000Y-86000000D03*
X132375000Y-86000000D03*
%TD*%
D26*
%TO.C,D23*%
X140133464Y-123922217D03*
X138410050Y-123618333D03*
%TD*%
D15*
%TO.C,D15*%
X133375000Y-75750000D03*
X131625000Y-75750000D03*
%TD*%
D27*
%TO.C,R10*%
X135945590Y-111677315D03*
X135945590Y-109852315D03*
%TD*%
D13*
%TO.C,R8*%
X151712500Y-85800000D03*
X149887500Y-85800000D03*
%TD*%
D11*
%TO.C,R9*%
X142022097Y-107980201D03*
X143847097Y-107980201D03*
%TD*%
D13*
%TO.C,R6*%
X138915136Y-69362437D03*
X137090136Y-69362437D03*
%TD*%
D15*
%TO.C,D7*%
X158875000Y-77000000D03*
X157125000Y-77000000D03*
%TD*%
D12*
%TO.C,D21*%
X134625000Y-117500000D03*
X136375000Y-117500000D03*
%TD*%
D28*
%TO.C,D9*%
X145500000Y-109875000D03*
X145500000Y-108125000D03*
%TD*%
D29*
%TO.C,D1*%
X154477066Y-66938139D03*
X152733726Y-66785617D03*
%TD*%
D15*
%TO.C,D16*%
X159625000Y-81000000D03*
X157875000Y-81000000D03*
%TD*%
D27*
%TO.C,R15*%
X130119101Y-77112500D03*
X130119101Y-75287500D03*
%TD*%
D11*
%TO.C,R5*%
X150554498Y-70988832D03*
X152379498Y-70988832D03*
%TD*%
D10*
%TO.C,D3*%
X145500000Y-66875000D03*
X145500000Y-68625000D03*
%TD*%
D17*
%TO.C,R20*%
X152500000Y-114087500D03*
X152500000Y-115912500D03*
%TD*%
D11*
%TO.C,R4*%
X142048681Y-75362077D03*
X143873683Y-75362075D03*
%TD*%
D17*
%TO.C,R14*%
X134800000Y-98287500D03*
X134800000Y-100112500D03*
%TD*%
D15*
%TO.C,D18*%
X150375000Y-105250000D03*
X148625000Y-105250000D03*
%TD*%
M02*
