<?xml version="1.0" encoding="UTF-8" standalone="no"?>
<!-- Created with Inkscape (http://www.inkscape.org/) -->

<svg
   width="34.048035mm"
   height="59.816135mm"
   viewBox="0 0 34.048035 59.816135"
   version="1.1"
   id="svg1"
   xml:space="preserve"
   xmlns="http://www.w3.org/2000/svg"
   xmlns:svg="http://www.w3.org/2000/svg"><defs
     id="defs1" /><g
     id="layer1"
     transform="translate(-110.44308,-55.58444)"><path
       id="rect125"
       style="display:inline;opacity:1;fill:#000000;fill-rule:evenodd;stroke:none;stroke-width:0.18358;stroke-dasharray:none"
       d="m 127.42736,55.584721 c -7.82886,0.01999 -15.60737,1.099208 -16.72714,3.033923 -1.17793,0.16485 1.9932,35.098863 3.40651,52.300686 2.63273,5.91269 23.34672,5.933 26.5591,0.30592 1.85763,-17.276225 4.12272,-49.183892 3.79305,-52.318768 -1.32337,-2.302667 -9.20267,-3.341738 -17.03152,-3.321761 z m -1.43867,0.973584 c 4.35334,-0.03318 8.67426,0.06091 12.95167,0.911055 1.57577,0.382387 3.35897,0.607976 4.57181,1.785938 0.0314,2.124107 -0.0718,4.247559 -0.19275,6.36757 -0.81072,14.450034 -1.95161,28.910145 -3.38481,43.323972 -0.15136,0.71048 0.0154,1.5055 -0.33486,2.15387 -1.57516,1.7219 -3.93721,2.06901 -6.14433,2.38745 -4.39794,0.34193 -8.93525,0.40969 -13.35526,-0.21755 -1.85892,-0.37142 -4.01055,-0.86286 -5.0555,-2.63447 -0.47217,-5.63085 -0.94948,-11.260851 -1.418,-16.891991 -0.76452,-9.515881 -1.6106,-19.052506 -2.0929,-28.570349 -0.0391,-1.992943 -0.22611,-4.004364 -0.0475,-5.987232 0.43709,-0.607855 1.23866,-0.837948 1.91564,-1.09399 4.08654,-1.184807 8.37541,-1.401191 12.58683,-1.534273 z m 1.46089,1.020609 c -8.36056,-2.8e-5 -15.13851,1.184436 -15.13912,2.645317 5.9e-4,1.460881 6.77854,2.644827 15.13912,2.6448 8.36038,-9e-6 15.13803,-1.183946 15.13862,-2.6448 -6.2e-4,-1.460845 -6.77826,-2.645308 -15.13862,-2.645317 z m -1.95026,0.424781 c 2.54643,-0.02948 5.10053,0.01024 7.63984,0.224275 7.8e-4,-3.3e-5 0.002,-4.84e-4 0.003,-5.16e-4 1.12872,0.09518 2.25459,0.225292 3.37551,0.398942 1.56601,0.288236 4.2227,0.858827 4.99401,1.32395 0.0174,0.02339 0.0333,0.04641 0.0475,0.06976 0.0547,0.09031 0.0839,0.179721 0.0899,0.268201 -0.51196,0.564129 -2.22925,0.8735 -3.35742,1.088305 -0.90617,0.183037 -1.81747,0.332239 -2.73213,0.453203 -1.8e-4,-2.6e-5 -3.4e-4,2.5e-5 -5.2e-4,0 -3.24207,0.428751 -6.52796,0.503257 -9.7932,0.478007 -3.07316,-0.08622 -6.18566,-0.212432 -9.20977,-0.818038 -0.92355,-0.184944 -1.83897,-0.414967 -2.74247,-0.701766 -0.63597,-0.104576 -0.67428,-1.044487 -0.0605,-1.21698 1.85248,-0.630772 3.76464,-0.981788 5.69732,-1.194242 2.4e-4,0.0015 3.4e-4,0.0031 5.2e-4,0.0047 2.00891,-0.220842 4.03918,-0.297016 6.04873,-0.377754 z m -6.04821,0.38809 c 2.2e-4,0.0051 3e-4,0.01027 0,0.0155 3.1e-4,-0.0053 2.2e-4,-0.01039 0,-0.0155 z m 0,0.0155 c -2.6e-4,0.0044 -4.2e-4,0.009 -0.001,0.01344 6.3e-4,-0.0045 7.8e-4,-0.0091 0.001,-0.01344 z m -5.92414,4.453983 v 5.17e-4 c -0.38526,0.01474 -0.63507,0.60875 -0.62322,1.02371 0.28067,9.830234 1.64467,19.947567 2.91662,29.960962 0.12662,1.202828 1.6538,2.447181 3.81941,3.05046 2.06689,0.575739 4.79613,0.534586 7.51427,0.531234 0.16563,0.0022 0.33129,0.0031 0.49712,0.0031 0.13759,-2.9e-5 0.2749,-5.32e-4 0.41238,-0.0021 2.66411,0.0072 5.25504,0.03968 7.28844,-0.526066 2.16561,-0.60253 3.65147,-1.790001 3.77807,-2.998783 1.33541,-9.326179 2.75352,-23.737479 2.9409,-29.573389 0.027,-0.842474 -0.65346,-1.3919 -1.48363,-1.247469 -13.93141,2.423693 -24.42336,-0.322905 -27.06036,-0.222209 z m -0.0326,0.461988 c 0.88751,0.04511 1.75561,0.154493 2.63394,0.254759 3.92826,0.563075 7.8902,0.919366 11.85096,0.969967 h 5.2e-4 c 0.0106,1.34e-4 0.0207,3.91e-4 0.0315,5.17e-4 5.52242,0.06822 9.6571,-0.499093 11.88612,-0.876444 0.22449,-0.07475 0.50078,-0.12607 0.76637,-0.118856 0.44263,0.01202 0.85436,0.186398 0.94051,0.684712 -0.11316,2.080745 -0.25113,4.16062 -0.41031,6.238896 -0.0291,-0.04088 -0.0622,-0.08169 -0.0987,-0.121956 -0.80988,-0.892231 -6.45239,-1.938089 -6.15673,-1.896525 -1.92392,-0.269834 -4.06307,-0.472816 -6.46317,-0.50953 -3.3e-4,8.8e-5 -7e-4,4.29e-4 -0.001,5.17e-4 -0.26231,-0.0041 -0.52646,-0.0065 -0.7922,-0.0072 -4.1e-4,-1.34e-4 -6.3e-4,-3.82e-4 -0.001,-5.17e-4 -0.0656,-1.95e-4 -0.13066,0 -0.19638,0 -5.16144,1.4e-5 -9.71395,0.612855 -12.10107,1.534274 -5.1e-4,2e-4 -0.001,3.16e-4 -0.002,5.16e-4 -0.84144,0.324868 -1.42612,0.686513 -1.65623,1.075387 -0.14603,-2.05501 -0.23598,-3.741538 -0.29352,-6.228526 -0.003,-0.0029 -0.006,-0.0059 -0.009,-0.0088 -0.005,-0.193373 -0.008,-0.386437 -0.0119,-0.57981 0.0276,-0.137174 0.0556,-0.27418 0.0832,-0.411344 z m 26.75651,1.416969 c -0.051,0.0011 -0.10654,0.03827 -0.15658,0.103353 -0.12352,0.160782 -0.21408,0.493995 -0.25528,0.874365 -0.0413,0.380378 -0.033,0.807625 -0.031,1.158586 0.002,0.350962 -0.002,0.626011 -0.004,0.763261 -0.002,0.137253 -0.002,0.136765 0.0589,0.152445 0.0608,0.0156 0.18205,0.04708 0.26045,0.0098 0.0783,-0.03726 0.11344,-0.142686 0.13694,-0.381889 0.0235,-0.239205 0.0354,-0.612262 0.0786,-1.086755 0.0431,-0.474484 0.1182,-1.051041 0.077,-1.345138 -0.0244,-0.174204 -0.0897,-0.249091 -0.16433,-0.248047 z m -25.59689,0.285254 c -4.1e-4,9.1e-5 -6.7e-4,4.54e-4 -10e-4,5.17e-4 -0.0285,0.0036 -0.0521,0.0412 -0.0724,0.116789 -0.0394,0.147626 -0.0648,0.441668 -0.0641,0.628385 0.018,0.07023 0.0367,0.170151 0.0522,0.322461 v 5.17e-4 c 0.007,0.01364 0.0153,0.02366 0.0408,0.05478 0.0374,0.04576 0.11217,0.136836 0.18707,0.06615 0.0748,-0.07072 0.14981,-0.303156 0.13901,-0.533301 -0.0111,-0.230151 -0.10828,-0.457531 -0.18448,-0.572575 -0.0359,-0.05393 -0.0669,-0.0834 -0.0941,-0.08372 0,-5e-6 -6.2e-4,1e-5 -10e-4,0 h -5.2e-4 -5.1e-4 -5.2e-4 z m 24.08484,0.273369 c -0.0485,9.04e-4 -0.10044,0.123352 -0.12144,0.299723 -0.0235,0.19803 -0.008,0.46457 0,0.597896 0.008,0.133323 0.008,0.132943 0.0491,0.136943 0.0412,0.0036 0.12337,0.01165 0.16847,-0.08837 0.0455,-0.100002 0.0533,-0.307575 0.0357,-0.50953 -0.0176,-0.201954 -0.0612,-0.397661 -0.1142,-0.430981 -0.005,-0.0036 -0.0116,-0.0057 -0.0176,-0.0057 z m -12.97849,3.048908 h 5.2e-4 5.2e-4 c 1.59081,-0.03372 3.18247,-0.02117 4.7718,0.05839 2.95631,0.189006 10.26838,1.954798 10.21632,2.558981 -0.75311,0.828774 -1.93449,1.048065 -2.96675,1.359091 -3.86999,0.891823 -7.78738,1.057596 -11.7507,1.002522 -0.93302,-0.0288 -1.86533,-0.06708 -2.79518,-0.12764 7.1e-4,0.01642 0.002,0.03261 0.004,0.04909 0.0134,0.173866 0.0275,0.350959 0.0413,0.52865 1.33022,0.09115 2.7429,0.14056 4.20232,0.14056 6.67168,2.8e-5 12.39838,-1.023554 13.63121,-2.436027 -0.21889,2.739622 -1.86007,19.216401 -2.42259,20.308838 -0.15493,0.300915 -0.30695,0.685409 -0.45113,1.167887 -0.14419,0.48247 -0.41055,0.992368 -0.54364,1.247469 -0.0671,0.128388 -0.10001,0.192325 -0.11369,0.234611 -1.48427,-0.898297 -5.4661,-1.499148 -9.93376,-1.499133 -2.15379,1.4e-5 -4.16128,0.138086 -5.83375,0.375688 0.0125,0.09989 0.0236,0.193653 0.0341,0.281119 1.48669,-0.212459 2.98979,-0.295882 4.4912,-0.351916 1.20805,-0.02538 2.41611,-0.01577 3.62303,0.04393 1.44414,0.09137 4.33973,0.527918 4.56355,0.602547 0.34105,0.113676 1.02308,0.34146 1.44177,0.532784 0.4187,0.191323 0.57445,0.346831 0.69091,0.618567 0.0977,0.227783 0.16716,0.537339 0.28371,0.701766 -0.0403,0.02239 -0.0807,0.04416 -0.12144,0.06563 -0.43484,0.181917 -0.91208,0.29164 -1.35341,0.42323 -1.77468,0.404717 -3.56223,0.6103 -5.36298,0.700732 -1.46661,-0.01783 -2.93813,0.02483 -4.40748,0.02325 -2.19797,-0.08962 -4.38543,-0.284831 -6.52777,-0.873849 -0.60355,-0.226976 -1.402,-0.368153 -1.72858,-0.969449 0.28124,-0.549692 0.99623,-0.693196 1.53531,-0.911573 0.11928,-0.03466 0.23903,-0.06817 0.35864,-0.100252 -0.012,-0.05998 -0.0232,-0.120791 -0.0336,-0.182935 -0.006,-0.03272 -0.0105,-0.06542 -0.0155,-0.0987 -1.27646,0.354908 -2.06776,0.793557 -2.15956,1.272791 -0.32815,-0.308996 -0.60309,-0.676176 -0.79995,-1.114144 -0.96643,-7.51212 -1.94754,-15.026149 -2.53989,-22.578984 0.48998,0.66018 1.96091,1.240717 4.06125,1.677417 -0.01,-0.199657 -0.0183,-0.394226 -0.0269,-0.584977 -0.50352,-0.108144 -1.0058,-0.230554 -1.50586,-0.369486 -0.79485,-0.302072 -1.84622,-0.489095 -2.27634,-1.289327 0.37041,-0.731557 1.31268,-0.922729 2.02261,-1.213363 0.54051,-0.158746 1.08366,-0.297096 1.62936,-0.417545 6.9e-4,-0.137693 0.0167,-0.144754 0.062,-0.164848 0.0707,-0.03137 0.21201,-0.09439 0.57671,-0.176734 0.36469,-0.08234 0.95303,-0.184 1.29811,-0.203605 0.20679,-0.01176 0.3259,0.0064 0.40618,0.129708 1.89573,-0.262838 3.81046,-0.368642 5.72368,-0.4408 z m -5.39037,4.579049 c 0.004,0.18036 0.008,0.36939 0.0119,0.568957 0.42093,0.05413 0.85635,0.103869 1.3038,0.148312 -0.008,-0.193915 -0.0124,-0.3856 -0.0145,-0.570508 -0.43428,-0.04201 -0.86801,-0.09049 -1.3007,-0.146761 z m -5.11183,1.501717 c -0.065,0.0028 -0.12647,0.02677 -0.16691,0.08682 -0.0647,0.09607 -0.0765,0.284732 -0.0413,0.61805 0.0353,0.333318 0.11784,0.811168 0.17466,1.179773 0.0569,0.368614 0.088,0.62746 0.12713,0.829407 0.0392,0.201955 0.0866,0.347067 0.11007,0.419613 0.0235,0.07253 0.0232,0.07265 0.0997,0.05891 0.0764,-0.01375 0.22965,-0.04111 0.30024,-0.170532 0.0706,-0.129418 0.059,-0.360646 0.0295,-0.731222 -0.0294,-0.370567 -0.0769,-0.880418 -0.11989,-1.258838 -0.0431,-0.378416 -0.0819,-0.625325 -0.1447,-0.778247 -0.0628,-0.152932 -0.14917,-0.211806 -0.25114,-0.239262 -0.0383,-0.01032 -0.0783,-0.0162 -0.11731,-0.01447 z m 22.87457,13.949536 c -0.0445,0.0029 -0.0885,0.06492 -0.14572,0.24598 -0.0832,0.263422 -0.19451,0.778696 -0.27492,1.189075 -0.0804,0.410379 -0.13038,0.71603 -0.2496,1.120861 -0.11928,0.404845 -0.30752,0.909054 -0.41289,1.211296 -0.10536,0.302221 -0.12759,0.402115 -0.13591,0.476973 -0.008,0.07488 -0.002,0.124897 0,0.149862 0.002,0.02496 0.002,0.02473 0.0692,0.04134 0.0666,0.01662 0.19983,0.04992 0.36897,0 0.16914,-0.04992 0.37438,-0.182517 0.47698,-0.393257 0.1026,-0.210741 0.1024,-0.499704 0.13849,-0.901754 0.0361,-0.402064 0.10808,-0.917588 0.1912,-1.405599 0.0832,-0.488025 0.1774,-0.948054 0.18294,-1.239201 0.006,-0.291146 -0.0774,-0.413242 -0.14676,-0.468705 -0.0217,-0.01733 -0.0417,-0.0283 -0.062,-0.02687 z m -1.93993,2.801896 c -0.0395,0.0022 -0.0789,0.01587 -0.11627,0.04496 -0.0749,0.05826 -0.14169,0.174572 -0.15555,0.274402 -0.0138,0.09983 0.025,0.182954 0.0444,0.266133 0.0194,0.0832 0.0192,0.166436 0.0858,0.188619 0.0665,0.02218 0.19961,-0.01632 0.28835,-0.110587 0.0887,-0.09428 0.13305,-0.244372 0.12196,-0.366386 -0.0108,-0.122012 -0.0776,-0.216415 -0.15245,-0.26355 -0.0374,-0.0236 -0.0768,-0.03502 -0.11627,-0.03359 z m -5.03432,2.989482 v 5.17e-4 c -0.19235,7.14e-4 -0.33328,0.02709 -0.42271,0.06873 -0.11928,0.0554 -0.14682,0.138528 -0.13849,0.243913 0.008,0.105372 0.0523,0.233505 0.0884,0.386023 0.0361,0.152511 0.0637,0.329744 -0.0388,0.435115 -0.1026,0.10536 -0.33502,0.138377 -0.56793,0.216008 -0.23293,0.07759 -0.46654,0.199801 -0.56637,0.31626 -0.0998,0.11646 -0.0656,0.227731 -0.0491,0.283187 0.0167,0.0554 0.0163,0.05483 0.28525,0.0078 0.26898,-0.04714 0.80646,-0.141288 1.52187,-0.191203 0.71539,-0.04992 1.60869,-0.0554 2.20762,-0.0832 0.59893,-0.02774 0.90339,-0.07761 1.03094,-0.166398 0.12755,-0.08872 0.0781,-0.216393 -0.14107,-0.294039 -0.21906,-0.07759 -0.60703,-0.105372 -0.88987,-0.113688 -0.28283,-0.0082 -0.4603,0.0027 -0.56844,-0.08062 -0.10812,-0.0832 -0.14707,-0.260534 -0.21084,-0.418579 -0.0637,-0.158052 -0.15254,-0.296672 -0.39378,-0.402043 -0.24123,-0.105372 -0.63466,-0.177287 -0.93689,-0.199471 -0.0755,-0.0058 -0.1457,-0.0083 -0.20981,-0.0083 z m -15.613,2.425175 v 5.17e-4 c -0.0584,0.0036 -0.12953,0.04881 -0.17415,0.176216 -0.0548,0.156861 -0.0699,0.438574 -0.0465,1.140499 0.0235,0.701924 0.0857,1.823927 0.19947,3.666957 0.11376,1.84305 0.27837,4.4073 0.36071,5.68958 0.0824,1.28229 0.0827,1.28217 0.0827,1.3596 0,0.0774 2.2e-4,0.23249 0.0806,0.4315 0.0804,0.19901 0.24099,0.44236 0.4253,0.64234 0.18429,0.19999 0.39212,0.35686 0.56172,0.41961 0.22375,0.0829 0.34519,-0.007 0.35347,-0.0119 h 5.2e-4 c 0.004,-0.004 0.006,-0.008 0.01,-0.01 0.0627,-0.0539 0.0574,-0.13039 0.0191,-0.19999 -0.0382,-0.0696 -0.10893,-0.13232 -0.23565,-0.21652 -0.1267,-0.0842 -0.30961,-0.18956 -0.40101,-0.24236 -0.0914,-0.0528 -0.32294,-0.67633 -0.41134,-1.42989 -0.0834,-0.71052 -0.14357,-1.818 -0.19947,-3.01377 0.001,6.7e-4 0.002,0.001 0.003,0.002 -0.004,-0.0864 -0.0104,-0.13328 -0.0145,-0.22066 -0.0397,-0.86265 -0.0773,-1.76134 -0.11576,-2.65204 0.007,0.0285 0.0146,0.0536 0.0222,0.0754 -0.008,-0.0222 -0.0152,-0.048 -0.0222,-0.077 -0.0184,-0.42851 -0.0372,-0.85527 -0.0563,-1.27537 -0.0234,-0.51444 -0.0474,-1.019057 -0.0708,-1.482599 -0.0355,-0.702568 -0.0693,-1.31134 -0.0977,-1.717724 -0.047,-0.674485 -0.0781,-0.791928 -0.10955,-0.882117 -0.0314,-0.09017 -0.0634,-0.153288 -0.12609,-0.168982 -0.012,-0.0029 -0.0242,-0.0043 -0.0377,-0.0036 z m 0.52038,5.607409 c 0.008,0.0222 0.0161,0.0406 0.0248,0.0553 -0.009,-0.0146 -0.017,-0.0331 -0.0248,-0.0553 z m 23.44767,-5.598107 c -0.0206,7.13e-4 -0.0422,0.0082 -0.0651,0.01964 -0.0914,0.04442 -0.19719,0.154909 -0.29146,0.346232 -0.0943,0.191332 -0.17739,0.463487 -0.26613,0.81287 -0.0887,0.349383 -0.18282,0.776405 -0.19947,1.281059 -0.009,0.278847 0.005,0.581487 0.0191,0.930692 5.3e-4,0.0037 0.001,0.0072 0.002,0.01086 0.0112,0.28017 0.0211,0.59017 0.0191,0.94206 -0.001,0.10179 -0.004,0.20712 -0.006,0.31574 -4.1e-4,0.002 -6.3e-4,0.004 -0.001,0.006 -0.10111,1.96745 -0.17173,3.93573 -0.24133,5.90455 -0.0305,0.82908 -0.0581,1.1956 -0.22169,1.56993 -0.15641,0.35789 -0.43703,0.72328 -0.59221,0.92191 l 5.2e-4,5.1e-4 c -0.007,0.009 -0.0147,0.0178 -0.0207,0.0258 -0.14977,0.19137 -0.14929,0.19174 -0.16589,0.21394 -0.0153,0.0203 -0.0441,0.0589 0,0.093 0.002,0.002 0.004,0.003 0.006,0.005 0.002,0.002 0.005,0.003 0.008,0.005 0.0188,0.0106 0.0459,0.0206 0.0816,0.0253 5e-4,7e-5 0.001,-6e-5 0.002,0 0.057,0.007 0.13579,8.6e-4 0.23616,-0.0351 1.4e-4,-5e-5 3.7e-4,5e-5 5.1e-4,0 0.0505,-0.0182 0.10578,-0.0439 0.16744,-0.0796 0.26343,-0.1525 0.62963,-0.48505 0.82372,-0.74569 0.1941,-0.26065 0.21572,-0.44945 0.23513,-0.75447 0.0194,-0.30501 0.0365,-0.72607 0.0698,-1.18081 0.0332,-0.45475 0.0832,-0.94285 0.11369,-1.55288 0.0305,-0.61002 0.0416,-1.34178 0.0749,-1.98231 0.0332,-0.64052 0.0886,-1.18999 0.0997,-1.69188 0.0108,-0.50188 -0.0223,-0.95645 -0.0109,-1.36684 0.0108,-0.41037 0.0665,-0.776189 0.12196,-1.269754 0.0554,-0.493566 0.11111,-1.115031 0.14159,-1.594735 0.0305,-0.479689 0.0361,-0.817637 0,-0.997872 -0.027,-0.135177 -0.0774,-0.181796 -0.13953,-0.177766 z m -1.93167,0.535367 c -0.12183,1.41e-4 -0.24408,0.04998 -0.42684,0.152446 -0.183,0.1026 -0.42732,0.25825 -0.54932,0.335897 -0.12201,0.07759 -0.12209,0.07734 -0.014,0.110587 0.10812,0.0333 0.32436,0.09961 0.49351,0.207739 0.16913,0.108144 0.29137,0.258414 0.39119,0.424781 0.10867,0.181826 0.17773,0.345048 0.22369,0.511061 0.0444,0.160825 0.0556,0.299257 0.0971,0.374137 0.0416,0.07489 0.11362,0.08622 0.13022,-0.102319 0.006,-0.06611 0.005,-0.156956 5.2e-4,-0.262 v -5.17e-4 c -0.0805,-0.127611 -0.0276,-0.545737 -0.0295,-0.667659 -0.006,-0.352149 0.0223,-0.668101 -0.0248,-0.851111 -0.0471,-0.182761 -0.1691,-0.23292 -0.29094,-0.233061 z m -20.64835,0.234611 v 5.17e-4 c -0.084,0.0036 -0.13307,0.02558 -0.1726,0.05994 -0.0527,0.04578 -0.0889,0.112166 -0.11937,0.278536 -0.0305,0.166365 -0.0555,0.433011 -0.0568,0.638204 -0.008,0.39288 0.0527,0.810196 0.52141,0.703316 0.0682,-0.0624 0.0745,-0.190042 0.0765,-0.355017 0.003,-0.16499 0.003,-0.367261 0.0331,-0.479557 0.006,-0.09981 0.0755,-0.137091 0.1525,-0.165881 0.0611,-0.03044 0.122,-0.06939 0.17053,-0.135909 0.0486,-0.06653 0.0846,-0.160793 0.0971,-0.235644 0.0125,-0.07488 0.002,-0.130405 -0.11627,-0.184485 -0.11784,-0.05405 -0.34293,-0.106544 -0.48989,-0.120406 -0.0367,-0.0036 -0.0682,-0.0043 -0.0961,-0.0036 z m 14.24554,1.085203 c -0.40205,-0.01662 -1.20008,0.03887 -2.51716,0.07493 -1.1465,0.03141 -2.6862,0.04815 -3.67109,0.05736 -0.001,-9e-5 -0.002,9e-5 -0.003,0 -0.14521,7.19e-4 -0.27843,0.0029 -0.39636,0.0036 -0.91861,0.0081 -0.91887,0.0078 -0.92087,0.04961 -0.003,0.0416 -0.009,0.125189 0.0553,0.191719 0.0637,0.06656 0.19746,0.116094 0.6134,0.179834 0.41593,0.06376 1.11434,0.1418 1.7632,0.19172 0.10923,0.0084 0.21781,0.01146 0.32556,0.01809 0.325,0.01999 0.64503,0.0353 1.00563,0.03049 0.23119,-0.003 0.47748,-0.01233 0.74827,-0.02946 0.83185,-0.05262 1.89646,-0.1797 2.50372,-0.287837 0.0281,-0.005 0.0555,-0.01007 0.0816,-0.01499 0.45336,-0.08523 0.62407,-0.15852 0.70797,-0.22996 0.0158,-0.0135 0.0289,-0.02687 0.0398,-0.04031 0.0721,-0.08872 0.0661,-0.177682 -0.3359,-0.194304 z m 6.60835,2.808096 c -0.006,2.9e-4 -0.0132,0.002 -0.0202,0.004 -0.0749,0.0222 -0.16373,0.13345 -0.23306,0.39687 -0.0694,0.26343 -0.11888,0.67946 -0.17157,1.15084 -0.0303,0.27107 -0.0619,0.56036 -0.0899,0.87023 h 5.1e-4 c -1e-5,1.6e-4 2e-5,3.5e-4 0,5.1e-4 -4e-5,4.9e-4 5e-5,0.001 0,0.002 -0.0205,0.22849 -0.0394,0.46778 -0.0548,0.71933 -0.0361,0.59338 -0.0524,1.25285 -0.0801,1.67432 -0.0278,0.42146 -0.0662,0.60461 -0.10232,0.74879 -0.0361,0.14419 -0.0698,0.24928 -0.17518,0.25528 -0.10538,0.005 -0.28307,-0.0886 -0.39119,-0.28267 -0.10816,-0.19409 -0.147,-0.48787 -0.1664,-0.73742 -0.0169,-0.21681 -0.02,-0.39793 -0.0439,-0.54054 -7.7e-4,-0.005 -10e-4,-0.009 -0.002,-0.0134 -0.003,-0.0174 -0.006,-0.0356 -0.01,-0.0517 -0.003,-0.0133 -0.007,-0.0253 -0.0109,-0.0377 0.004,0.0125 0.008,0.0248 0.0114,0.0382 0.004,0.0159 0.006,0.034 0.009,0.0512 -0.003,-0.0168 -0.005,-0.0356 -0.009,-0.0512 -0.0361,-0.14973 -0.1084,-0.24354 -0.1695,-0.26304 -0.061,-0.0195 -0.11106,0.0362 -0.14986,0.17209 -0.0388,0.13586 -0.0662,0.35226 -0.11059,0.77928 -0.0444,0.42703 -0.1058,1.06423 -0.1695,1.59938 -0.0636,0.53516 -0.12972,0.96793 -0.15192,1.24799 -0.0221,0.28005 -3.2e-4,0.4076 0.0274,0.524 0.0278,0.11646 0.0608,0.2217 0.0775,0.2744 0.0166,0.0524 0.0169,0.0524 0.0863,0.0444 0.0693,-0.008 0.20719,-0.0251 0.29042,-0.11369 0.0103,-0.0111 0.0201,-0.0235 0.0289,-0.0367 6.7e-4,-0.001 0.001,-0.002 0.002,-0.003 0.007,-0.0105 0.013,-0.0217 0.0191,-0.0336 0.0473,-0.0929 0.0728,-0.22475 0.1111,-0.38654 0.0499,-0.21074 0.12214,-0.47182 0.21084,-0.66869 0.0887,-0.19688 0.19433,-0.3297 0.26923,-0.4129 l 5.2e-4,-5.1e-4 v -5.2e-4 h 5.2e-4 c 1.4e-4,-3e-4 3.7e-4,-0.001 5.1e-4,-0.002 v -5.2e-4 c 0.0201,-0.0222 0.0379,-0.0409 0.0543,-0.0563 0.0438,-0.0411 0.0767,-0.0596 0.11265,-0.0636 0.004,-3.1e-4 0.006,-4.6e-4 0.009,-5.1e-4 h 10e-4 c 0.003,-5e-5 0.006,-1.1e-4 0.009,0 0.002,6e-5 0.003,3.7e-4 0.005,5.1e-4 0.001,1.4e-4 0.003,1.8e-4 0.005,5.2e-4 5.4e-4,10e-5 0.001,4e-4 0.002,5.2e-4 0.004,6.1e-4 0.009,0.001 0.0134,0.003 1.5e-4,4e-5 3.6e-4,-4e-5 5.2e-4,0 0.001,2.8e-4 0.002,6.9e-4 0.004,0.001 0.035,0.0103 0.0693,0.0376 0.0977,0.0925 1.9e-4,3.5e-4 3.3e-4,6.7e-4 5.2e-4,10e-4 0.004,0.008 0.008,0.017 0.0119,0.0264 0.0235,0.0554 0.0418,0.12882 0.0543,0.20877 -10e-4,-10e-4 -0.003,-0.002 -0.004,-0.003 0.007,0.0406 0.0141,0.0801 0.0176,0.12195 0.0108,0.13587 0.006,0.26911 0.0646,0.34675 0.0583,0.0776 0.17989,0.10002 0.28526,-0.0413 0.10536,-0.14141 0.19404,-0.44658 0.23564,-0.91519 0.0293,-0.33088 0.0354,-0.74348 0.0393,-1.21026 -2.5e-4,7e-4 -2.8e-4,0.001 -5.2e-4,0.002 0.002,-0.19504 0.004,-0.39935 0.006,-0.61134 0.008,-0.71816 0.0309,-1.52219 0.0863,-2.32078 0.004,-0.0506 0.007,-0.10144 0.0109,-0.15193 h -5.2e-4 c 0.0554,-0.7457 0.13431,-1.46669 0.14728,-1.86914 0.0126,-0.3895 -0.0364,-0.48085 -0.10129,-0.47801 z m -1.80868,8.4615 c 9e-5,-9e-5 4.3e-4,9e-5 5.2e-4,0 0.007,-0.008 0.0142,-0.0159 0.0207,-0.0248 -0.007,0.009 -0.0139,0.017 -0.0212,0.0248 z m -18.78797,-3.8447 c -0.05,0.16998 -0.0917,0.44537 -0.10542,0.79013 3.8e-4,-1.2e-4 10e-4,-4e-4 0.002,-5.2e-4 -0.003,0.0611 -0.005,0.12435 -0.005,0.18965 -0.004,0.43331 0.035,0.95481 0.0703,1.24696 0.0354,0.29218 0.0671,0.35514 0.0827,0.38654 0.0156,0.0314 0.0151,0.0316 0.0641,0.0806 0.049,0.049 0.14746,0.14673 0.27492,0.21343 0.12744,0.0666 0.28423,0.10235 0.34313,0.0357 0.0586,-0.0666 0.0196,-0.23566 -0.01,-0.66507 -0.0294,-0.4294 -0.0488,-1.11969 -0.0744,-1.56477 -0.0255,-0.44507 -0.0568,-0.64469 -0.13126,-0.77411 -0.0745,-0.1295 -0.1927,-0.18868 -0.2868,-0.19068 -0.0995,0 -0.16603,0.0541 -0.22427,0.25214 z m -1.08008,-3.6003 c 0.004,0.003 0.008,0.006 0.0114,0.008 -0.004,-0.002 -0.008,-0.005 -0.0114,-0.008 z m 0.0114,0.008 c 0.002,10e-4 0.005,0.002 0.007,0.003 -0.003,-7.8e-4 -0.005,-0.002 -0.007,-0.003 z m 20.20962,-0.002 c -0.0804,0.003 -0.14715,0.047 -0.18035,0.2217 -0.0333,0.1747 -0.0332,0.48018 0.014,0.69091 0.0471,0.21074 0.1409,0.32669 0.1881,0.38499 0.047,0.0582 0.0474,0.0583 0.0889,-0.0693 0.0966,-0.29687 0.26106,-0.81664 0.11874,-1.0873 -0.0361,-0.0687 -0.0892,-0.10919 -0.14366,-0.12816 -0.0287,-0.01 -0.0582,-0.0136 -0.0858,-0.0129 z m -8.30802,4.85759 c -0.0633,6.3e-4 -0.12609,0.002 -0.1881,0.004 v 5.2e-4 c -0.32684,0.0121 -0.63399,0.0464 -0.90434,0.0894 -0.54071,0.086 -0.93447,0.2076 -1.44746,0.42943 -0.51296,0.22183 -1.14498,0.54378 -1.5415,0.7767 -0.3965,0.23291 -0.55721,0.37662 -0.62374,0.47645 -0.0666,0.0998 -0.0386,0.15573 -0.0248,0.18346 0.0138,0.0277 0.0135,0.0277 0.0884,0.0305 0.0749,0.002 0.22514,0.008 0.50798,-0.0977 0.28282,-0.10536 0.69843,-0.3214 1.16427,-0.52659 0.46582,-0.2052 0.98152,-0.39937 1.57768,-0.49919 0.40107,-0.0671 0.83833,-0.0913 1.22008,-0.0646 0.18564,0.0128 0.3587,0.0379 0.50747,0.076 0.45475,0.11647 0.68734,0.35469 0.9064,0.57929 0.21905,0.2246 0.42455,0.43556 0.54932,0.61857 0.1248,0.183 0.16862,0.33835 0.0744,0.49919 -0.0483,0.0823 -0.13265,0.16611 -0.22015,0.24391 -0.0834,0.0742 -0.16935,0.14261 -0.22892,0.19948 -0.122,0.1164 -0.13287,0.18333 -0.0858,0.23047 0.0472,0.0472 0.15229,0.0749 0.82888,0.0749 0.20413,0 0.46016,-0.002 0.73639,-0.007 h 5.2e-4 c 0.001,-2e-5 0.003,-5e-4 0.004,-5.2e-4 0.63836,-0.0112 1.38286,-0.0343 1.84071,-0.0672 0.36478,0.01 0.56799,-0.0374 0.77683,-0.21941 0.0821,-0.16414 0.0952,-0.37678 0.0973,-0.44326 0.005,-0.1941 -0.0216,-0.43792 -0.0992,-0.5488 -0.0777,-0.11131 -0.20561,-0.0889 -0.35812,0.0109 -0.0824,0.0539 -0.36505,0.27928 -0.39629,0.28678 -1.9e-4,1.2e-4 -3.2e-4,4e-4 -5.1e-4,5.2e-4 -0.0538,0.033 -0.11084,0.0637 -0.17209,0.0894 -0.23847,0.0998 -0.53782,0.12211 -0.87333,0.0279 -0.33552,-0.0943 -0.70714,-0.30544 -0.95394,-0.5023 -0.20469,-0.1633 -0.32359,-0.31668 -0.38189,-0.43718 -3.1e-4,-3.5e-4 -7.3e-4,-6.9e-4 -0.001,-10e-4 -0.0118,-0.0245 -0.0209,-0.0472 -0.0279,-0.0687 -0.0415,-0.12754 -0.002,-0.1998 0.11059,-0.23306 0.0568,-0.0166 0.13225,-0.0233 0.21549,-0.0212 0.0832,0.002 0.17414,0.0132 0.26148,0.0326 0.1489,0.0584 0.30427,0.0725 0.45681,0.086 5.2e-4,-1.7e-4 0.001,-3.4e-4 0.002,-5.1e-4 0.0162,-0.006 0.034,-0.0148 0.0495,-0.03 0.004,-0.004 0.009,-0.009 0.0124,-0.0145 -0.004,0.005 -0.008,0.01 -0.0124,0.0145 -2.7e-4,2.7e-4 -2.4e-4,7.7e-4 -5.2e-4,10e-4 0.009,-0.009 0.0166,-0.0191 0.0227,-0.0305 2.9e-4,-5.4e-4 7.5e-4,-0.001 0.001,-0.002 0.003,-0.006 0.005,-0.0115 0.007,-0.0176 0.002,-0.006 0.004,-0.0128 0.005,-0.0196 -0.001,0.007 -0.003,0.0134 -0.005,0.0196 -0.002,0.006 -0.004,0.0121 -0.007,0.0176 0.0244,-0.0474 0.0217,-0.11528 -0.0212,-0.19172 -0.001,-0.002 -0.003,-0.006 -0.005,-0.008 -0.007,-0.0123 -0.0159,-0.0245 -0.0253,-0.0372 0.009,0.0126 0.0178,0.0255 0.0248,0.0377 -0.007,-0.0124 -0.0153,-0.0248 -0.0253,-0.0377 h 5.1e-4 c -0.0667,-0.09 -0.18922,-0.19105 -0.40152,-0.30437 -0.089,-0.0475 -0.19382,-0.0972 -0.31678,-0.14935 -0.27743,-0.11768 -0.6474,-0.24752 -1.05161,-0.3514 v 5.2e-4 c -0.26239,-0.0674 -0.53885,-0.12426 -0.81391,-0.15916 -0.28314,-0.036 -0.5646,-0.049 -0.83509,-0.046 z m 6.66729,0.5581 c -0.01,-2.5e-4 -0.02,-1.4e-4 -0.03,5.2e-4 h -5.2e-4 c -0.0794,0.005 -0.15977,0.0453 -0.21807,0.10904 -0.009,0.0104 -0.018,0.0215 -0.0264,0.0331 -8.6e-4,0.001 -0.002,0.002 -0.003,0.004 -1.4e-4,2e-4 -3.8e-4,3.1e-4 -5.2e-4,5.1e-4 -8.5e-4,0.001 -0.002,0.002 -0.003,0.004 -0.0445,0.0651 -0.0726,0.14735 -0.091,0.23875 -0.001,0.006 -0.002,0.0129 -0.003,0.0191 -0.006,0.0341 -0.0114,0.0694 -0.0155,0.10542 -0.006,0.0562 -0.0106,0.11406 -0.0134,0.1726 -0.0108,0.22737 -0.006,0.46038 0.006,0.72657 0.001,0.0272 0.002,0.055 0.004,0.0827 0.007,0.15403 0.0151,0.31201 0.0222,0.44183 0.001,0.0182 0.002,0.029 0.003,0.046 0.003,0.0533 0.006,0.10723 0.008,0.14469 0.002,0.0325 0.004,0.0508 0.005,0.0708 9.9e-4,0.01 0.002,0.0268 0.003,0.0341 0.001,0.007 0.002,0.0139 0.004,0.0191 0.006,0.0192 0.0161,0.0269 0.0341,0.0315 0.008,0.002 0.0174,0.003 0.0284,0.005 0.0666,0.011 0.19956,0.0336 0.31884,-0.0108 0.11925,-0.0444 0.22483,-0.1555 0.26923,-0.39119 0.0444,-0.23571 0.0272,-0.59578 0.0134,-0.94516 -0.0138,-0.34939 -0.0247,-0.68774 -0.13281,-0.84026 -0.0473,-0.0667 -0.11342,-0.0973 -0.18242,-0.10129 z m -14.65789,1.47745 c -0.25491,0.008 -0.38431,0.0944 -0.41961,0.19637 -0.0353,0.10188 0.0234,0.21961 0.17828,0.34313 0.15488,0.12352 0.4063,0.2531 0.62787,0.31781 0.22156,0.0648 0.41334,0.0646 0.55449,0.0176 0.14116,-0.047 0.23173,-0.14148 0.23564,-0.27285 0.004,-0.13137 -0.0787,-0.2995 -0.31006,-0.41909 -0.23136,-0.11964 -0.61173,-0.19077 -0.86661,-0.18294 z m 17.6239,0.85319 c -0.0164,0.002 -0.0317,0.003 -0.046,0.002 0.0144,0 0.0295,-0.001 0.046,-0.002 z m -2.10943,1.0356 c -0.0523,0.002 -0.12651,0.0148 -0.23151,0.0408 -0.28008,0.0693 -0.77936,0.23558 -1.39217,0.38809 -0.35784,0.0891 -0.75476,0.17303 -1.24747,0.24443 -7.8e-4,-8e-5 -0.001,8e-5 -0.002,0 -0.35053,0.0507 -0.74998,0.0947 -1.21853,0.12919 -1.12856,0.0832 -2.65932,0.11106 -3.93206,0.12764 -1.27274,0.0166 -2.28731,0.0222 -3.21066,-0.0305 -0.92334,-0.0527 -1.75493,-0.16361 -2.55075,-0.31057 -0.31802,-0.0587 -0.63058,-0.12298 -0.91519,-0.185 -2e-4,3.3e-4 -3.1e-4,7e-4 -5.2e-4,10e-4 -0.42709,-0.0931 -0.79171,-0.18064 -1.01957,-0.23564 -0.37979,-0.0914 -0.37998,-0.0912 -0.39378,-0.0413 0,0.004 -0.001,0.007 -0.002,0.0109 -3.6e-4,-1.5e-4 -6.8e-4,-3.8e-4 -10e-4,-5.2e-4 -0.014,0.0527 -0.0324,0.14414 0.0444,0.22376 0.0832,0.086 0.27716,0.15778 0.70694,0.2992 0.42978,0.14141 1.095,0.35213 1.83813,0.51574 0.74312,0.16359 1.56402,0.28006 2.68149,0.34106 1.11745,0.0611 2.53158,0.0666 3.82095,0.0444 1.28938,-0.0222 2.45394,-0.0721 3.51038,-0.21911 1.05646,-0.14697 2.00502,-0.39126 2.58176,-0.57981 0.32232,-0.10537 1.10814,-0.39548 1.05362,-0.70383 -0.007,-0.0381 -0.0333,-0.0634 -0.1204,-0.0594 z m 0.1178,0.0522 c 9.5e-4,0.003 0.002,0.006 0.002,0.009 0.001,0.008 0.002,0.0153 0.002,0.0243 0,-0.015 -0.001,-0.0246 -0.004,-0.0336 z" /></g></svg>
