<?xml version="1.0" encoding="UTF-8" standalone="no"?>
<!-- Created with Inkscape (http://www.inkscape.org/) -->

<svg
   width="28.33514mm"
   height="53.517147mm"
   viewBox="0 0 28.33514 53.517147"
   version="1.1"
   id="svg1"
   xml:space="preserve"
   xmlns="http://www.w3.org/2000/svg"
   xmlns:svg="http://www.w3.org/2000/svg"><defs
     id="defs1" /><g
     id="layer1"
     transform="translate(-113.31359,-58.227454)"><path
       id="path188"
       style="display:inline;opacity:1;fill:#ffcc00;fill-rule:evenodd;stroke:none;stroke-width:0.0452164;stroke-dasharray:none"
       d="m 133.14174,58.227454 c -0.031,0.0013 -0.0619,0.0028 -0.0925,0.0041 -1.57641,0.07842 -2.56496,0.376507 -3.20807,0.572575 -0.64311,0.196068 -0.94085,0.290839 -0.95653,0.56534 -0.0156,0.2745 0.25096,0.729333 0.66663,1.113627 0.41567,0.384295 0.98011,0.69788 1.26245,0.854728 0.28234,0.156856 0.2826,0.156767 0.37672,0.141077 0.0941,-0.01568 0.28252,-0.04712 0.38447,-0.1726 0.102,-0.125485 0.11734,-0.345438 0.24288,-0.768945 0.12548,-0.423507 0.3609,-1.050723 0.69815,-1.348755 0.33723,-0.298031 0.77606,-0.266202 1.09761,-0.03876 0.32157,0.227438 0.52553,0.650811 0.65887,1.121379 0.13333,0.470568 0.19599,0.987768 0.54106,1.277958 0.17225,0.144846 0.41519,0.233497 0.74569,0.280603 0.91466,-0.120964 1.82596,-0.270166 2.73213,-0.453203 1.12817,-0.214805 2.84546,-0.524176 3.35742,-1.088305 -0.006,-0.08848 -0.0352,-0.177895 -0.0899,-0.268201 -0.0142,-0.02335 -0.0301,-0.04637 -0.0475,-0.06976 -0.77131,-0.465123 -3.428,-1.035714 -4.99401,-1.32395 -1.12092,-0.17365 -2.24679,-0.303761 -3.37551,-0.398942 z m -13.69167,0.149345 c -1.93268,0.212454 -3.84484,0.56347 -5.69732,1.194242 -0.61382,0.172493 -0.57551,1.112404 0.0605,1.21698 0.9035,0.286799 1.81892,0.516822 2.74247,0.701766 0.11076,-0.120448 0.21193,-0.280015 0.29817,-0.457853 0.12548,-0.25881 0.21956,-0.557223 0.447,-0.855245 0.22744,-0.298021 0.58843,-0.595589 0.95705,-0.838709 0.3686,-0.243128 0.7446,-0.431381 0.97203,-0.6196 0.1492,-0.123465 0.2346,-0.24689 0.22014,-0.341581 z m 7.6817,0.346748 c -0.0566,0.0029 -0.11168,0.02396 -0.16071,0.06563 -0.15686,0.133335 -0.25121,0.477793 -0.29042,0.807186 -0.0392,0.329393 -0.0231,0.643558 0.008,0.894519 0.0314,0.250969 0.0783,0.439188 0.1018,0.533301 0.0235,0.09412 0.0234,0.09433 0.14883,0.0708 0.12549,-0.02352 0.37655,-0.07082 0.52555,-0.290422 0.14902,-0.219597 0.19637,-0.611785 0.19637,-0.97255 0,-0.360772 -0.047,-0.690093 -0.18035,-0.894002 -0.0917,-0.140189 -0.22455,-0.220924 -0.34934,-0.214458 z m -13.63741,4.59972 c -0.0276,0.137164 -0.0556,0.27417 -0.0832,0.411344 0.004,0.193373 0.007,0.386437 0.0119,0.57981 0.1622,0.151357 0.35568,0.274437 0.51366,0.411344 0.23527,0.203917 0.39233,0.439482 0.5178,0.862996 0.0223,0.0753 0.0434,0.156159 0.0631,0.241329 -5e-4,-0.01444 -5.2e-4,-0.02981 -5.2e-4,-0.04599 -0.002,-0.185777 0.0233,-0.490153 0.0636,-0.641304 0.0202,-0.07559 0.0438,-0.113165 0.0724,-0.116789 3.6e-4,-6.3e-5 0.001,-4.26e-4 0.002,-5.17e-4 h 5.2e-4 5.1e-4 5.2e-4 c 4.1e-4,10e-6 0.001,-5e-6 0.001,0 0.0272,3.15e-4 0.0582,0.02979 0.0941,0.08372 0.0762,0.115044 0.17338,0.342424 0.18448,0.572575 0.0108,0.230145 -0.0642,0.462583 -0.13901,0.533301 -0.0749,0.07069 -0.14964,-0.02039 -0.18707,-0.06615 -0.0258,-0.0315 -0.0338,-0.04138 -0.0408,-0.05529 0.0559,0.330288 0.0791,0.685917 0.0336,0.96945 -0.0706,0.439197 -0.30614,0.705597 -0.51005,0.77618 -0.20391,0.07058 -0.37639,-0.05475 -0.49403,0.03152 -0.0132,0.0097 -0.0255,0.02215 -0.0372,0.03721 0.0468,0.88146 0.10222,1.76283 0.16484,2.643766 0.25302,-0.427604 0.91736,-0.8244 1.90118,-1.173055 0.1,-0.105816 0.18691,-0.21703 0.25373,-0.331763 0.36076,-0.619573 0.14096,-1.356514 0.0233,-2.242757 -0.1176,-0.886235 -0.1335,-1.921445 -0.25115,-2.533179 -0.0864,-0.449623 -0.2279,-0.670318 -0.48059,-0.811836 -0.55784,-0.0614 -1.11696,-0.108276 -1.67794,-0.135909 z m 3.33365,0.35295 c -0.0815,0.08794 -0.14597,0.259379 -0.18603,0.47749 -0.0499,0.271743 -0.0613,0.615674 -0.0558,1.037146 0.006,0.421482 0.0278,0.920422 0.061,1.336352 0.0332,0.415927 0.0775,0.748821 0.0997,0.91519 0.0222,0.166369 0.0223,0.166756 0.0889,0.222209 0.0665,0.05545 0.1996,0.165929 0.34934,0.188102 0.14974,0.02219 0.31613,-0.04414 0.39377,-0.321428 0.0776,-0.277286 0.0666,-0.765348 0.0222,-1.303279 -0.0444,-0.537932 -0.12246,-1.126246 -0.18345,-1.547709 -0.0611,-0.421471 -0.1051,-0.676097 -0.19379,-0.848011 -0.0222,-0.04304 -0.0475,-0.081 -0.0744,-0.112654 -0.10723,-0.01435 -0.21426,-0.02875 -0.32143,-0.04341 z m 23.36085,0.130741 c -0.19116,0.0068 -0.48897,0.0443 -0.96738,0.07958 -0.33481,0.02471 -0.75821,0.04858 -1.2082,0.07338 -1.0987,0.150063 -2.19993,0.269692 -3.30264,0.361219 -0.26027,0.131552 -0.38384,0.346337 -0.48524,0.734322 -0.18039,0.690157 -0.28975,1.929072 -0.25838,2.595707 0.0164,0.349406 0.0711,0.541366 0.16278,0.655257 3.53,0.415639 6.15417,1.154614 6.96546,2.048454 0.002,-0.0018 0.006,-0.0038 0.008,-0.0057 0.18822,-0.133325 0.12562,-0.635699 -0.007,-1.027844 -0.13332,-0.392135 -0.33735,-0.67371 -0.47853,-0.908988 -0.14116,-0.23528 -0.21962,-0.423809 -0.21962,-0.996322 0,-0.572513 0.0785,-1.529327 0.13332,-2.219503 0.055,-0.690166 0.0865,-1.113689 -0.0155,-1.286226 -0.051,-0.08627 -0.13542,-0.110205 -0.32659,-0.103353 z m -8.68836,0.702799 c -0.3372,0.01188 -0.67448,0.02137 -1.01182,0.02842 -0.0124,0.0048 -0.0246,0.0098 -0.0357,0.01499 -0.20392,0.09412 -0.20377,0.235242 -0.1881,0.846976 0.0156,0.611734 0.0473,1.694372 0.063,2.235523 0.006,0.172274 0.008,0.289435 0.0134,0.369486 0.40039,0.01811 0.79479,0.03969 1.18235,0.06511 0.0622,-0.09124 0.10866,-0.240233 0.13746,-0.489376 0.047,-0.407826 0.0469,-1.082799 0.0548,-1.600419 0.008,-0.51763 0.0237,-0.878251 -0.0155,-1.121379 -0.0276,-0.171009 -0.0827,-0.283815 -0.19999,-0.349333 z m -3.52123,0.03824 c -0.0203,0.01597 -0.0455,0.06273 -0.091,0.146761 -0.102,0.188228 -0.30569,0.564395 -0.41548,0.956531 -0.1098,0.392135 -0.12506,0.79955 -0.12506,1.144633 0,0.345084 0.0155,0.62818 0.0625,0.824239 0.0388,0.161477 0.0984,0.264347 0.27182,0.321944 0.26574,7.84e-4 0.52989,0.0031 0.7922,0.0072 0.1158,-0.03071 0.21952,-0.07857 0.29249,-0.148828 0.21176,-0.203907 0.1645,-0.596551 0.0625,-1.067119 -0.102,-0.470568 -0.2582,-1.019238 -0.40721,-1.403532 -0.14902,-0.384295 -0.29012,-0.603848 -0.36071,-0.713651 -0.0216,-0.03359 -0.0369,-0.0569 -0.0501,-0.0677 -0.0108,-1.26e-4 -0.0209,-3.83e-4 -0.0315,-5.17e-4 z m 12.2716,0.192236 h 5.2e-4 c 0.0746,-0.001 0.13997,0.07384 0.16433,0.248047 0.0412,0.294097 -0.0339,0.870654 -0.077,1.345138 -0.0432,0.474493 -0.055,0.84755 -0.0786,1.086755 -0.0235,0.239203 -0.0586,0.34463 -0.13694,0.381889 -0.0784,0.03726 -0.19968,0.0058 -0.26045,-0.0098 -0.0607,-0.01568 -0.0607,-0.01519 -0.0589,-0.152445 0.002,-0.13725 0.006,-0.412299 0.004,-0.763261 -0.002,-0.350961 -0.0103,-0.778208 0.031,-1.158586 0.0412,-0.38037 0.13176,-0.713583 0.25528,-0.874365 0.05,-0.06509 0.10555,-0.102219 0.15658,-0.103353 z m -1.51205,0.558623 c 0.006,0 0.0122,0.0021 0.0176,0.0057 0.053,0.03332 0.0966,0.229027 0.1142,0.430981 0.0176,0.201955 0.01,0.409528 -0.0357,0.50953 -0.0451,0.10002 -0.12723,0.09199 -0.16847,0.08837 -0.0409,-0.004 -0.0409,-0.0036 -0.0491,-0.136943 -0.008,-0.133326 -0.0235,-0.399866 0,-0.597896 0.021,-0.176371 0.0729,-0.298819 0.12144,-0.299723 z m -12.97802,3.048909 c -1.91323,0.07216 -3.82846,0.177963 -5.7242,0.4408 0.0536,0.08248 0.09,0.211749 0.12299,0.411344 0.0824,0.498014 0.14505,1.431758 0.18035,2.514059 0.0122,0.375324 0.0208,0.767998 0.03,1.212846 0.4327,0.05627 0.86642,0.104759 1.3007,0.146761 -0.006,-0.44258 0.004,-0.849313 0.006,-1.172538 0.006,-0.576755 -0.006,-0.887334 0.0331,-1.136882 0.0388,-0.249559 0.12788,-0.437793 0.26097,-0.56534 0.1331,-0.127547 0.30998,-0.194398 0.49299,-0.177767 0.18301,0.01663 0.37165,0.116159 0.4992,0.648539 0.12561,0.524268 0.19192,1.468204 0.27337,2.529562 0.92985,0.06056 1.86215,0.09884 2.79517,0.12764 3.96331,0.05507 7.88124,-0.110699 11.75122,-1.002522 1.03227,-0.311027 2.21313,-0.530318 2.96623,-1.359091 0.0513,-0.595524 -0.74111,-0.800085 -1.18959,-1.048514 -0.016,-0.0089 -0.0314,-0.01787 -0.0465,-0.02687 -1.5e-4,-5.6e-5 -3.6e-4,5.6e-5 -5.2e-4,0 -0.15065,-0.05504 -0.30395,-0.10019 -0.45578,-0.150895 -0.18344,-0.06131 -0.36582,-0.126602 -0.55087,-0.181901 -2.58815,-0.773389 -5.32147,-0.981303 -7.97316,-1.150835 -1.58933,-0.07957 -3.18047,-0.09213 -4.77128,-0.05839 z m -8.06721,0.856279 c -0.54563,0.120435 -1.0889,0.25882 -1.62936,0.417545 -0.70993,0.290634 -1.65169,0.481806 -2.0221,1.213363 0.43012,0.800234 1.48149,0.987254 2.27635,1.289327 0.5002,0.138977 1.00166,0.261309 1.50534,0.369486 -0.002,-0.06965 -0.006,-0.139082 -0.01,-0.207739 -0.051,-1.160733 -0.09,-2.187948 -0.10956,-2.701644 -0.007,-0.184566 -0.0121,-0.303117 -0.0109,-0.380338 z m 11.883,0.121439 c 0.99546,-0.0028 1.9382,0.03046 2.99465,0.121957 1.05645,0.09151 2.22657,0.241187 3.10833,0.46302 0.88177,0.221822 1.47564,0.515303 1.85829,0.756543 0.38266,0.241238 0.55401,0.429926 0.43201,0.604615 -0.122,0.17469 -0.53757,0.335408 -1.36942,0.501778 -0.83184,0.16637 -2.07934,0.338439 -3.18017,0.429948 -1.10082,0.0915 -2.0551,0.102239 -2.83704,0.05788 -0.78196,-0.04436 -1.39199,-0.144211 -1.73581,-0.424263 -0.34384,-0.280062 -0.42125,-0.739834 -0.5488,-1.053166 -0.12755,-0.313332 -0.30487,-0.480224 -0.59325,-0.568957 -0.28837,-0.08873 -0.68793,-0.09973 -1.09554,-0.130225 -0.4076,-0.0305 -0.8235,-0.07996 -1.03146,-0.104903 -0.20796,-0.02496 -0.20783,-0.02523 -0.25218,-0.04186 -0.0444,-0.01664 -0.13333,-0.05 -0.18603,-0.127641 -0.0526,-0.07764 -0.0689,-0.199532 0.16123,-0.274402 0.23013,-0.07487 0.70665,-0.102624 1.46916,-0.135909 0.76254,-0.03328 1.81057,-0.07164 2.80603,-0.07441 z m -11.95896,1.011825 0.006,0.0279 c 0.006,0.02772 0.0164,0.08295 0.0248,0.238228 0.008,0.155273 0.0144,0.410179 -0.008,0.632003 -0.0222,0.221822 -0.0721,0.410594 -0.2191,0.504879 -0.14695,0.09427 -0.39106,0.09413 -0.64338,-0.0057 -0.25232,-0.09982 -0.51284,-0.299427 -0.67644,-0.46302 -0.16359,-0.163594 -0.23033,-0.29118 -0.25528,-0.393775 -0.025,-0.1026 -0.008,-0.180069 0.14676,-0.252181 0.15528,-0.07211 0.44918,-0.138892 0.74311,-0.186035 0.29381,-0.04712 0.58779,-0.07459 0.8816,-0.102319 z m -3.82819,1.064017 c 0.0503,0.659753 0.10405,1.319434 0.16123,1.978691 0.0912,-0.263721 0.27099,-0.518161 0.39739,-0.691947 0.14116,-0.194104 0.21564,-0.288254 0.38034,-0.35295 0.089,-0.03496 0.20443,-0.06136 0.34571,-0.0708 -0.61703,-0.266208 -1.05675,-0.555905 -1.28467,-0.862997 z m 27.32546,0.08062 c -1.1e-4,0.0025 -0.002,0.01276 -0.002,0.01499 0.001,-0.0034 0.002,-0.01236 0.002,-0.01499 z m -0.6873,0.505912 c -0.0966,0.05485 -0.19529,0.109634 -0.30592,0.162781 0.0577,-0.0271 0.12736,-0.05246 0.18035,-0.0801 0.0478,-0.02479 0.0885,-0.05325 0.12557,-0.08268 z m -0.67231,0.325562 c -0.0967,0.03964 -0.20274,0.07774 -0.30695,0.116271 0.0419,-0.01379 0.0966,-0.02585 0.13435,-0.04031 0.006,-0.0018 0.0111,-0.0039 0.0176,-0.0067 0.0574,-0.02222 0.10199,-0.04637 0.15503,-0.06925 z m -23.70966,0.305924 c 0.23906,0.07507 0.49355,0.147834 0.76223,0.217558 0.0542,0.115596 0.0844,0.28377 0.1049,0.555005 0.0431,0.568607 0.0433,1.588239 0.0884,2.878377 0.0451,1.290143 0.13539,2.850778 0.26871,4.189925 0.13333,1.339158 0.30946,2.456676 0.37414,3.446818 0.0648,0.99015 0.0178,1.852888 0.0786,2.648934 0.0607,0.796036 0.2293,1.525341 0.40773,2.303735 0.17843,0.778401 0.36685,1.60586 0.53743,2.32544 0.17058,0.719573 0.32354,1.33156 0.41961,1.776636 0.0961,0.445084 0.13491,0.723267 0.15452,0.862479 4.6e-4,0.0036 7.6e-4,0.0064 0.002,0.0098 0.015,-0.0043 0.0299,-0.008 0.045,-0.0124 -0.0584,-0.370304 -0.10314,-0.78142 -0.16433,-1.277958 -0.0667,-0.541156 -0.15266,-1.183677 -0.2899,-2.913 -0.13725,-1.729322 -0.32537,-4.545394 -0.47439,-6.992338 -0.14901,-2.446954 -0.25892,-4.524797 -0.3452,-6.210991 -0.0672,-1.313271 -0.12013,-2.38884 -0.16433,-3.348633 -0.66936,-0.139166 -1.27494,-0.293069 -1.80506,-0.459403 z m 21.75009,0.297656 c -0.13083,0.03145 -0.29839,0.05454 -0.43511,0.08475 0.0857,-0.01687 0.20994,-0.02341 0.28939,-0.04186 0.0559,-0.01291 0.0959,-0.02878 0.14572,-0.04289 z m -17.41392,0.578776 c 0.0144,0.727615 0.0318,1.59807 0.0641,2.719731 0.0628,2.188135 0.1804,5.332501 0.41961,8.371582 0.23921,3.039083 0.59998,5.972604 0.81959,7.694104 0.0521,0.408725 0.0965,0.7489 0.13229,1.035596 1.67248,-0.237651 3.67996,-0.375674 5.83375,-0.375688 1.68638,-7e-6 3.30368,0.08587 4.74338,0.240812 -0.70989,-0.07678 -1.46397,-0.13698 -2.24896,-0.177767 -0.0301,-0.0022 -0.0602,-0.0027 -0.0904,-0.0041 -0.0175,-7.13e-4 -0.0347,-0.0024 -0.0522,-0.0031 -0.15569,-0.039 -0.29824,-0.07742 -0.40876,-0.116272 -0.35686,-0.125501 -0.3806,-0.250972 -0.35709,-0.466639 0.0235,-0.215668 0.0944,-0.521559 0.18449,-1.486214 0.0901,-0.964662 0.20025,-2.588474 0.24339,-4.208012 0.0431,-1.619537 0.0192,-3.23465 0.0977,-4.458125 0.0784,-1.223477 0.25881,-2.055039 0.39998,-2.509925 0.14116,-0.454884 0.24334,-0.532996 0.33744,0.196371 0.0941,0.729378 0.18012,2.266325 0.26252,3.54862 0.0824,1.282294 0.16096,2.309739 0.38447,2.85874 0.22353,0.549036 0.59187,0.619512 0.84285,0.494027 0.25097,-0.125484 0.38475,-0.447178 0.49454,-1.364774 0.1098,-0.917605 0.19587,-2.431258 0.26252,-4.172356 0.0671,-1.741094 0.11363,-3.709404 0.0744,-4.901509 -0.0392,-1.192118 -0.16473,-1.607766 -0.28629,-1.88619 -0.12156,-0.278415 -0.23901,-0.419701 -0.34881,-0.545186 -0.066,-0.07536 -0.12925,-0.14499 0.0357,-0.241329 -1.48473,0.116292 -3.0819,0.179325 -4.73718,0.179317 -1.4594,0 -2.87209,-0.04888 -4.20232,-0.140043 0.0722,0.927543 0.1452,1.877459 0.16381,2.538346 0.0222,0.787489 -0.033,1.164675 -0.23823,1.325501 -0.20519,0.160827 -0.56028,0.105062 -0.77101,-0.09457 -0.21073,-0.199648 -0.27717,-0.543355 -0.38809,-1.131197 -0.11088,-0.58784 -0.26625,-1.41931 -0.3328,-2.25671 -0.0137,-0.17204 -0.0236,-0.344538 -0.0305,-0.514697 -0.44745,-0.04444 -0.88287,-0.09418 -1.3038,-0.148312 z m 19.37143,0.6165 c -0.10584,0.003 -0.21357,0.02546 -0.31161,0.06666 -0.19608,0.08234 -0.3526,0.23889 -0.4036,0.60358 -0.0509,0.364688 0.005,0.936979 -0.0155,1.929082 -0.0196,0.992113 -0.11443,2.404051 -0.20464,3.596163 -0.0901,1.192105 -0.17587,2.165008 -0.24649,3.427697 -0.0706,1.262679 -0.12602,2.81494 -0.11783,3.846277 0.008,1.031334 0.0785,1.541315 0.1726,1.823662 0.09,0.270112 0.20147,0.33337 0.28991,0.516764 0.56367,-2.800943 1.40315,-10.802134 1.84588,-15.473991 -0.0989,0.130631 -0.18872,0.114086 -0.29249,0.03256 -0.1098,-0.08627 -0.23559,-0.243293 -0.41599,-0.31781 -0.0901,-0.03726 -0.19436,-0.05362 -0.30024,-0.05064 z m -25.71523,0.249597 -5.2e-4,5.17e-4 5.2e-4,5.17e-4 c -2e-5,-2.51e-4 2e-5,-7.83e-4 0,-10e-4 z m 0,10e-4 c 0.15017,1.647765 0.31799,3.293691 0.49299,4.937166 0.38675,3.56149 0.85304,7.113449 1.30638,10.667049 -2.4e-4,-0.2095 0.0759,-0.505896 0.0992,-0.946195 0.0235,-0.445076 -0.008,-1.033536 0.0646,-1.443323 0.0725,-0.409787 0.24861,-0.641213 0.34468,-1.05885 0.0961,-0.417629 0.11209,-1.021297 0.0434,-2.148706 -0.0686,-1.1274 -0.22145,-2.778277 -0.33125,-3.95273 -0.1098,-1.17445 -0.17661,-1.872579 -0.23151,-2.364714 -0.0212,-0.189494 -0.0405,-0.348831 -0.0579,-0.502812 -0.0718,0.04703 -0.15644,0.06218 -0.20722,0.07131 -0.0766,0.01375 -0.0763,0.01362 -0.0997,-0.05891 -0.0235,-0.07253 -0.0709,-0.217657 -0.11007,-0.419613 -0.0392,-0.201945 -0.0702,-0.460794 -0.12713,-0.829407 -0.0569,-0.368606 -0.13935,-0.846455 -0.17466,-1.179773 -0.0254,-0.23837 -0.0261,-0.402247 -5.2e-4,-0.511596 -6.3e-4,0.0016 -0.002,0.0029 -0.003,0.0047 -0.0372,0.01558 -0.0724,0.03236 -0.10697,0.04599 -0.0941,0.03725 -0.18021,0.053 -0.28215,0.04909 -0.102,-0.004 -0.2199,-0.02771 -0.33951,-0.09043 -0.0987,-0.05176 -0.19857,-0.129963 -0.28009,-0.268201 z m 20.58221,0.306958 c -0.13491,0.0015 -0.26061,0.09256 -0.37517,0.298173 -0.15293,0.274492 -0.28646,0.753324 -0.40411,1.96112 -0.1176,1.207795 -0.21935,3.145235 -0.30955,5.102015 -0.0901,1.95677 -0.1683,3.932581 -0.2036,5.41879 -0.0353,1.486201 -0.0278,2.482097 -0.0124,3.140894 0.0156,0.658785 0.0392,0.980172 0.094,1.235067 0.055,0.254879 0.14134,0.443322 0.18448,0.537434 0.0431,0.09412 0.0429,0.09395 0.21549,0.101803 0.17254,0.0082 0.51768,0.02357 0.77257,-0.199988 0.2549,-0.223519 0.41978,-0.686129 0.53743,-1.674316 0.1176,-0.9882 0.18812,-2.501524 0.2744,-4.842599 0.0863,-2.341083 0.1879,-5.509669 0.18397,-7.403682 -0.004,-1.894019 -0.11346,-2.513561 -0.27027,-2.933154 -0.15687,-0.419591 -0.36057,-0.639152 -0.5488,-0.713652 -0.0468,-0.01855 -0.093,-0.02825 -0.13798,-0.02791 z m -7.47965,7.44554 c 0.11664,0.0028 0.23514,0.08154 0.32091,0.299724 0.13727,0.348999 0.19175,1.054916 0.21136,2.392102 0.0196,1.337188 0.004,3.30586 -0.0196,4.603853 -0.0235,1.29798 -0.0543,1.925049 -0.19172,2.270146 -0.13724,0.34509 -0.38073,0.407874 -0.50229,0.439249 -0.12157,0.03138 -0.12143,0.0311 -0.16847,-0.137459 -0.047,-0.168619 -0.14083,-0.505694 -0.18397,-0.901754 -0.0431,-0.39606 -0.0357,-0.851005 -0.0357,-2.258777 0,-1.40777 -0.008,-3.768551 0.0429,-5.050854 0.051,-1.282303 0.16088,-1.486273 0.32556,-1.592151 0.0618,-0.0397 0.13106,-0.06562 0.20102,-0.06408 z m 10.98589,6.2606 -5.1e-4,5.17e-4 h -5.2e-4 l -5.2e-4,5.17e-4 h -5.1e-4 -5.2e-4 -5.2e-4 l -5.1e-4,5.16e-4 h -5.2e-4 -5.2e-4 c -6.8e-4,2.14e-4 -0.002,10e-4 -0.002,10e-4 h -5.1e-4 -5.2e-4 c -0.001,5.35e-4 -0.004,0.0027 -0.006,0.0036 -2.8e-4,1.28e-4 -7.8e-4,-8.7e-5 -0.001,0 -0.001,5.35e-4 -0.004,0.0021 -0.006,0.0031 v 5.16e-4 h -5.1e-4 l -5.2e-4,5.17e-4 h -5.2e-4 l -5.1e-4,5.17e-4 h -5.2e-4 v 5.17e-4 h -5.2e-4 -5.2e-4 v 5.17e-4 l -5.1e-4,5.16e-4 -5.2e-4,5.17e-4 -5.2e-4,5.17e-4 h -5.1e-4 v 5.17e-4 h -5.2e-4 l -5.2e-4,5.16e-4 -5.1e-4,5.17e-4 -0.002,0.0026 -0.006,0.0057 c 0.0139,-0.01359 0.0278,-0.01984 0.0413,-0.02067 10e-4,-1.07e-4 0.002,-5.06e-4 0.004,-5.17e-4 -0.001,-5.8e-5 -0.002,-9.5e-5 -0.004,0 l -0.002,-0.0021 c -3.5e-4,3.2e-5 -0.002,1.5e-5 -0.002,0 h -5.1e-4 -5.2e-4 z m -0.0362,0.02377 c -0.003,0.0027 -0.005,0.006 -0.008,0.0093 0.003,-0.003 0.006,-0.0063 0.008,-0.0093 z m -0.008,0.0093 c -4.8e-4,4.35e-4 -10e-4,5.99e-4 -0.002,10e-4 -2.5e-4,4.5e-4 -2.1e-4,0.0011 -5.2e-4,0.0016 6.5e-4,-8e-4 10e-4,-0.0018 0.002,-0.0026 z m -0.003,0.0041 c -0.002,0.0028 -0.005,0.0056 -0.008,0.0093 l -5.1e-4,5.17e-4 c -4.4e-4,6.32e-4 -0.001,0.002 -0.002,0.0026 v 5.17e-4 5.17e-4 l -5.2e-4,5.17e-4 c -2.9e-4,9.2e-4 -5.3e-4,0.0016 -0.001,0.0026 0.004,-0.0063 0.008,-0.01149 0.0119,-0.01654 z m -0.0155,0.02274 c -0.005,0.0059 -0.009,0.0123 -0.0114,0.01964 0.004,-0.007 0.008,-0.01366 0.0114,-0.01964 z m -0.0155,0.02842 c -4.8e-4,9.85e-4 -0.002,0.0016 -0.002,0.0026 7.3e-4,-7.57e-4 0.002,-0.0017 0.002,-0.0026 z m -0.01,0.02015 c -0.0163,0.03521 -0.0334,0.07991 -0.0522,0.13901 -0.0832,0.263421 -0.19452,0.778696 -0.27492,1.189075 -0.0804,0.410385 -0.13037,0.716024 -0.24959,1.120862 -0.11928,0.404838 -0.30753,0.909061 -0.4129,1.211295 -0.10536,0.302228 -0.12725,0.402094 -0.13539,0.476974 -0.008,0.07488 -0.002,0.124896 0,0.149861 0,0.0043 7.8e-4,0.0079 0.002,0.01137 v 5.17e-4 l 5.1e-4,5.17e-4 c -6.3e-4,-0.0034 -3.2e-4,-0.0067 -0.002,-0.01189 -0.002,-0.02496 -0.008,-0.07501 0,-0.149862 0.008,-0.07488 0.03,-0.174746 0.1354,-0.476973 0.10536,-0.302235 0.29366,-0.806451 0.41289,-1.211296 0.11928,-0.404831 0.16922,-0.710474 0.2496,-1.120861 0.0804,-0.410371 0.19173,-0.925654 0.27492,-1.189075 0.0184,-0.05799 0.0352,-0.104 0.0512,-0.139527 z m -22.17746,1.673283 c 0.16256,1.273621 0.30702,2.549337 0.4687,3.823023 0.19685,0.437968 0.47128,0.805158 0.79944,1.114144 0.0907,-0.473534 0.86476,-0.907739 2.1146,-1.260388 v -5.17e-4 c -0.0932,0.02632 -0.18347,0.05285 -0.2713,0.0801 -0.13428,-0.01818 -0.3035,-0.0302 -0.44959,0.0026 -0.2137,0.04706 -0.37866,0.188396 -0.63355,0.31781 -0.25489,0.129408 -0.59982,0.247006 -0.77825,0.113688 -0.17843,-0.133337 -0.19006,-0.51796 -0.32143,-0.959114 -0.13137,-0.441162 -0.38233,-0.9389 -0.5333,-1.442806 -0.15098,-0.503898 -0.20205,-1.013342 -0.26871,-1.327051 -0.0456,-0.215004 -0.0972,-0.337874 -0.12661,-0.461471 z m 20.33416,1.021127 -0.002,5.16e-4 c 0.005,-1.67e-4 0.009,-1.79e-4 0.0139,0 -0.005,-2.06e-4 -0.009,-5.84e-4 -0.0119,-5.16e-4 z m 0.0145,5.16e-4 c -4.2e-4,9e-6 -5e-4,5.05e-4 -0.001,5.17e-4 7.7e-4,4.6e-5 0.002,-5.1e-5 0.003,0 -6.8e-4,-3.8e-5 -0.001,-5.25e-4 -0.002,-5.17e-4 z m 0.0398,0.0067 c 5.2e-4,1.47e-4 0.001,3.67e-4 0.002,5.17e-4 v -5.17e-4 h -5.2e-4 c -2.3e-4,-4.2e-5 -7.1e-4,1.1e-5 -0.001,0 z m 0.002,5.17e-4 c 0.0118,0.0034 0.0231,0.0078 0.0346,0.01344 -0.0108,-0.0058 -0.0214,-0.01033 -0.0326,-0.01344 h -5.2e-4 -5.2e-4 -5.2e-4 z m 0.17777,0.165881 c 0.0106,0.02258 0.0189,0.04735 0.0248,0.07338 -0.006,-0.02594 -0.0137,-0.05087 -0.0243,-0.07338 z m 0.0248,0.07338 c 0.002,0.0088 0.004,0.01773 0.005,0.02687 -0.001,-0.0092 -0.003,-0.01805 -0.005,-0.02687 z m 0.005,0.02687 c 0.001,0.008 0.002,0.01555 0.003,0.02377 8.5e-4,0.0066 0.001,0.01338 0.002,0.02015 -1.3e-4,-0.0066 4.9e-4,-0.01365 0,-0.02015 -9.2e-4,-0.0084 -0.003,-0.01568 -0.005,-0.02377 z m 0.005,0.04393 c 1.8e-4,0.0093 7.8e-4,0.01878 5.2e-4,0.02842 0,-0.0095 -1.4e-4,-0.0192 -5.2e-4,-0.02842 z m -5.2e-4,0.03876 c -5.5e-4,0.01387 -0.001,0.02832 -0.004,0.04237 5e-4,-0.0018 9.2e-4,-0.0038 0.002,-0.0057 7.1e-4,-0.01219 0.002,-0.02463 0.002,-0.03669 z m -0.004,0.04237 c -0.001,0.0039 -0.002,0.0075 -0.002,0.01189 9e-4,-0.0041 0.001,-0.0078 0.002,-0.01189 z m -0.0109,0.05529 c -0.002,0.0062 -0.003,0.01255 -0.005,0.0186 0.002,-0.0062 0.004,-0.01235 0.005,-0.0186 z m -0.0796,0.175699 c -0.009,0.01197 -0.0187,0.02393 -0.0289,0.03462 h 5.2e-4 c 0.0103,-0.01067 0.0197,-0.0226 0.0284,-0.03462 z m 1.52962,0.381372 c -0.002,0.0066 -0.002,0.01426 -0.003,0.02171 0.001,-0.0074 0.002,-0.01478 0.003,-0.02171 z m 0.54984,0.157097 c -0.0688,0.180614 -0.137,0.380163 -0.20309,0.60048 -5.3e-4,0.0022 -0.002,0.0053 -0.002,0.0072 -3e-5,3.14e-4 0,7.33e-4 0,0.001 v 5.17e-4 h -5.1e-4 v 5.17e-4 5.16e-4 5.17e-4 h 5.1e-4 c 0.067,-0.224168 0.13584,-0.427011 0.20568,-0.610298 z m -0.94103,0.398942 c -0.0114,0.0065 -0.0226,0.01264 -0.0341,0.0186 0.003,-0.0016 0.006,-0.0029 0.01,-0.0047 0.008,-0.0043 0.0161,-0.0094 0.0243,-0.01395 z m -0.0791,0.03979 c -5.4e-4,2.24e-4 -0.001,8.1e-4 -0.002,0.001 3.6e-4,-1.28e-4 0.001,-3.76e-4 0.002,-5.17e-4 z m -0.51057,0.0036 v 5.17e-4 h 5.2e-4 v 5.17e-4 h 5.2e-4 v -5.17e-4 -5.17e-4 h -5.2e-4 z m 1.27796,0.289388 c -0.14921,0.443437 -0.37496,0.892864 -0.49661,1.12603 v 5.16e-4 c -0.0668,0.127982 -0.10001,0.191867 -0.11369,0.234095 -0.0227,-0.01376 -0.0462,-0.02734 -0.0703,-0.04082 -0.006,-0.0036 -0.0124,-0.0072 -0.0186,-0.01033 0.0307,0.01718 0.0606,0.03472 0.0894,0.05219 0.0138,-0.04229 0.0467,-0.106223 0.11369,-0.234611 0.12172,-0.233317 0.34686,-0.683348 0.49609,-1.127063 z m -11.85199,0.166915 -5.1e-4,5.17e-4 c -1.5014,0.05605 -3.00451,0.13894 -4.4912,0.351399 0.0859,0.718802 0.10319,1.038842 0.0419,1.302763 -0.0901,0.388209 -0.34945,0.654615 -0.69453,0.77618 -0.34507,0.121578 -0.77643,0.09823 -1.0666,-0.03514 -0.2902,-0.13333 -0.43944,-0.376356 -0.55707,-0.674377 -0.0991,-0.251221 -0.17556,-0.541333 -0.23719,-0.863513 -0.11964,0.03209 -0.23936,0.06564 -0.35864,0.100252 -0.53906,0.218377 -1.25456,0.361366 -1.53582,0.911056 0.32659,0.601297 1.12554,0.742471 1.72909,0.969449 2.14233,0.589016 4.32928,0.78423 6.52725,0.873849 1.46935,0.0022 2.94138,-0.04056 4.408,-0.02274 1.19348,-0.05996 2.38108,-0.17043 3.56309,-0.35605 -0.34742,0.04578 -0.69778,0.05818 -1.04541,0.100252 -0.068,-7.13e-4 -0.14905,6.9e-5 -0.20929,-0.0021 -0.5882,-0.01576 -0.77656,-0.07061 -1.03146,-0.172599 -0.25489,-0.101952 -0.57617,-0.250902 -0.88987,-0.427365 -0.022,-0.01248 -0.0443,-0.02422 -0.0661,-0.03669 -0.21931,0.03173 -0.5599,0.06469 -0.68006,0.08578 -0.26898,0.04742 -0.26862,0.04741 -0.28525,-0.0083 -0.0166,-0.0554 -0.0503,-0.166205 0.0496,-0.28267 0.062,-0.07243 0.17593,-0.147092 0.30903,-0.211874 -0.0126,0.0058 -0.0255,0.01145 -0.0377,0.01757 -0.007,0.0036 -0.014,0.0075 -0.0212,0.01137 -0.0475,-0.02489 -0.0933,-0.0475 -0.13746,-0.06718 -0.24705,-0.109836 -0.43529,-0.125433 -0.95291,-0.141077 -0.51762,-0.01576 -1.36449,-0.03137 -1.85467,-0.06666 -0.49018,-0.03529 -0.62363,-0.09022 -0.69815,-0.180351 -0.0745,-0.09016 -0.09,-0.215778 -0.0982,-0.278536 -0.008,-0.06275 -0.007,-0.0625 0.24339,-0.148828 0.25098,-0.08628 0.75246,-0.259264 1.45831,-0.361219 0.70584,-0.101952 1.61558,-0.133062 2.26653,-0.156579 0.32521,-0.01176 0.58602,-0.02135 0.79427,-0.03411 -0.0173,0.0058 -0.0337,0.01205 -0.0481,0.01912 -0.0131,0.0064 -0.0249,0.01281 -0.0357,0.01964 0.0108,-0.0067 0.0226,-0.01312 0.0357,-0.01912 0.0894,-0.04157 0.22983,-0.0678 0.42219,-0.06873 v -5.17e-4 c 0.0641,0 0.13429,0.003 0.20981,0.0083 0.30223,0.02218 0.69567,0.0941 0.93689,0.199471 0.001,3.57e-4 0.002,0.001 0.003,0.0016 -0.001,-6.36e-4 -0.002,-0.0014 -0.003,-0.0021 -0.24123,-0.105372 -0.63466,-0.177316 -0.93689,-0.199471 -0.0428,-0.0029 -0.0837,-0.0056 -0.12299,-0.0062 0.006,-7.14e-4 0.0132,-0.0029 0.0196,-0.0036 0.23138,-0.04706 0.30245,-0.125847 0.33383,-0.216008 0.0313,-0.09016 0.0231,-0.191885 -0.0279,-0.309541 -0.021,-0.04856 -0.0492,-0.0999 -0.10284,-0.152446 1.30936,0.162208 2.90662,0.353753 3.05925,0.40411 h 5.2e-4 c 7.5e-4,2.66e-4 0.002,5.17e-4 0.004,5.17e-4 l 5.2e-4,5.16e-4 h 5.2e-4 c 0.34104,0.113688 1.02307,0.341468 1.44177,0.532784 0.0596,0.02724 0.10961,0.05336 0.15916,0.07958 -0.0505,-0.02688 -0.10073,-0.05376 -0.16174,-0.08165 -0.41869,-0.191318 -1.10073,-0.419099 -1.44178,-0.532784 -0.22381,-0.0746 -3.11941,-0.511181 -4.56354,-0.602547 -1.20694,-0.05969 -2.41499,-0.06879 -3.62304,-0.04341 z m 4.34599,1.019576 c -0.004,0.0025 -0.009,0.0046 -0.0109,0.0067 -0.008,0.0064 -0.0149,0.01294 -0.0217,0.01964 0.01,-0.0093 0.0202,-0.01797 0.0326,-0.02635 z m -0.0331,0.02687 c -5e-4,5.5e-4 -9.7e-4,0.0011 -0.002,0.0016 4.8e-4,-4.44e-4 0.001,-5.8e-4 0.002,-0.001 z m -0.002,0.0016 c -10e-4,9.5e-4 -0.003,0.0022 -0.004,0.0031 v 5.16e-4 l -5.1e-4,5.17e-4 c -0.002,0.0022 -0.004,0.0043 -0.006,0.0072 0.004,-0.0039 0.006,-0.0075 0.0103,-0.01137 z m -0.0119,0.01292 c -0.002,0.0016 -0.004,0.0032 -0.005,0.0047 -1.5e-4,2.53e-4 -3.9e-4,7.59e-4 -5.2e-4,0.001 -0.001,0.0027 -0.004,0.0056 -0.006,0.0083 0.003,-0.0048 0.007,-0.0091 0.0109,-0.01344 z m -0.0109,0.01395 c -4.1e-4,6.75e-4 -7.8e-4,0.0014 -0.001,0.0021 4.4e-4,-6.43e-4 5.8e-4,-0.0014 0.001,-0.0021 z m 1.86552,0.170015 c 0.0174,0.01403 0.0328,0.02867 0.0475,0.04341 -0.008,-0.0085 -0.0165,-0.0171 -0.0258,-0.02532 -0.007,-0.0064 -0.0141,-0.01203 -0.0217,-0.01809 z m 2.96674,0.03152 c -0.11808,0.0036 -0.1862,0.05613 -0.14211,0.176733 0.0588,0.160776 0.31745,0.442957 0.54881,0.701766 0.20556,0.229943 0.38922,0.4416 0.32039,0.628902 0.21496,-0.06332 0.42868,-0.132578 0.63304,-0.218074 0.0408,-0.02154 0.0811,-0.04376 0.12144,-0.06615 -0.11652,-0.164427 -0.1866,-0.473982 -0.28422,-0.701766 -0.067,-0.156283 -0.1467,-0.274176 -0.28216,-0.382406 -0.01,7.14e-4 -0.0199,0.0021 -0.03,0.0021 -0.31763,0.01561 -0.56079,-0.09393 -0.75293,-0.129191 -0.048,-0.009 -0.0929,-0.01315 -0.13229,-0.01188 z m -2.90163,0.02945 c 0.017,0.01848 0.0326,0.03736 0.0465,0.05684 -0.0123,-0.01721 -0.0256,-0.03425 -0.0403,-0.05064 z m -1.85777,0.406694 c 8e-4,0.0046 0.001,0.0094 0.002,0.01395 -5.7e-4,-0.0046 -9.8e-4,-0.0094 -0.002,-0.01395 z m -0.005,0.257349 c -0.002,0.003 -0.003,0.0064 -0.004,0.0093 0.002,-0.0036 0.002,-0.0057 0.004,-0.0093 z m -0.0289,0.05736 c -0.007,0.01068 -0.0155,0.02101 -0.0248,0.03049 -0.01,0.01023 -0.0212,0.0204 -0.0336,0.02946 0.0127,-0.0089 0.0241,-0.01868 0.0341,-0.02894 0.01,-0.0097 0.0171,-0.02025 0.0243,-0.03101 z m -0.0589,0.05994 c -0.0108,0.0072 -0.0215,0.0138 -0.0331,0.02015 0.008,-0.0043 0.0158,-0.008 0.0227,-0.01292 0.004,-0.0028 0.007,-0.0045 0.0103,-0.0072 z m -0.046,0.02687 c -0.0162,0.0081 -0.0334,0.0162 -0.0512,0.02377 0.0108,-0.0043 0.0225,-0.0084 0.032,-0.01292 0.007,-0.0036 0.0124,-0.007 0.0191,-0.01085 z m -0.14004,0.05684 c -0.10356,0.03316 -0.22519,0.062 -0.34778,0.102836 -0.0233,0.0082 -0.0467,0.01617 -0.0698,0.02429 -0.034,0.01277 -0.0672,0.02663 -0.10025,0.04082 -0.004,0.0022 -0.008,0.0035 -0.0124,0.0057 0.0592,-0.02588 0.12085,-0.04975 0.18242,-0.07028 0.12273,-0.04086 0.2442,-0.07017 0.34778,-0.103353 z m 4.14755,0.123507 -0.002,10e-4 c 0.0192,0.05056 -0.002,0.102242 -0.0625,0.144694 -0.0638,0.0444 -0.17196,0.07891 -0.339,0.105937 0.13681,-0.02228 0.23978,-0.0488 0.30489,-0.08268 0.0134,-0.0072 0.0253,-0.01502 0.0362,-0.02222 0.0166,-0.01152 0.0302,-0.02355 0.0408,-0.03617 0.004,-0.0043 0.007,-0.008 0.0103,-0.01292 0.002,-0.0043 0.006,-0.0084 0.007,-0.01292 v -5.17e-4 l 5.2e-4,-5.17e-4 c 2.2e-4,-7.51e-4 -7e-5,-0.0021 0,-0.0026 0.002,-0.0036 0.004,-0.0067 0.005,-0.01034 0.002,-0.0043 0.002,-0.0094 0.004,-0.01395 7.2e-4,-0.0043 7.9e-4,-0.0089 0.002,-0.01344 7.2e-4,-0.01384 -0.002,-0.0275 -0.007,-0.04134 v -5.17e-4 l -5.1e-4,-5.17e-4 v -5.17e-4 z m -0.40308,0.251664 c -0.16704,0.02702 -0.39299,0.04658 -0.69246,0.06046 -0.59892,0.02774 -1.4917,0.0333 -2.2071,0.0832 -0.0151,6.15e-4 -0.0192,0.0026 -0.031,0.0036 0.0108,-7.74e-4 0.0216,-0.002 0.0326,-0.0026 0.7154,-0.04992 1.60818,-0.0554 2.2071,-0.0832 0.30207,-0.01398 0.52335,-0.03421 0.69091,-0.0615 z m 1.89756,2.026749 c -0.0864,0.0029 -0.17058,0.0094 -0.2496,0.01912 -0.3161,0.0388 -0.54907,0.127498 -0.70435,0.266133 -0.15527,0.138635 -0.23309,0.3271 -0.25528,0.698666 -0.0222,0.371559 0.0108,0.926679 0.0444,1.44797 0.0332,0.5213 0.0667,1.00884 0.0667,1.75751 0,0.74866 -0.0334,1.75808 -0.11111,2.68976 -0.0776,0.93167 -0.19947,1.78558 -0.28267,2.32906 -0.0832,0.54348 -0.12757,0.77613 -0.31057,0.89814 -0.18302,0.12201 -0.50464,0.13331 -0.74311,-0.0109 -0.23847,-0.14419 -0.39347,-0.44382 -0.52658,-1.08158 -0.13309,-0.63776 -0.24437,-1.61323 -0.28319,-2.60036 -0.0388,-0.98714 -0.006,-1.98556 0.0832,-2.9006 0.0887,-0.91504 0.23249,-1.746909 0.12712,-2.19056 -0.10536,-0.443644 -0.46009,-0.499065 -0.85938,-0.49351 -0.19521,0.0029 -0.40069,0.01977 -0.58859,0.04651 -0.0839,0.07144 -0.25461,0.144726 -0.70797,0.22996 -0.044,0.0579 -0.0322,0.125255 0.0269,0.206189 0.10536,0.144197 0.36018,0.332792 0.58756,0.476974 0.22736,0.14419 0.42748,0.24417 0.49403,0.854217 0.0665,0.61002 -3.6e-4,1.72983 -0.0336,2.68924 -0.0332,0.95939 -0.0333,1.75822 -0.061,2.46807 -0.0277,0.70984 -0.083,1.33069 -0.2992,1.72444 -0.12852,0.23398 -0.3139,0.38725 -0.4408,0.50953 0.2423,0.12934 0.36804,0.24219 0.42684,0.34158 0.0802,0.13547 0.0363,0.24619 -0.0656,0.26613 0.0948,0.0441 0.19596,0.0872 0.2961,0.13023 0.38819,0.16636 0.76481,0.32161 0.99219,0.49351 0.17049,0.12891 0.25682,0.26765 0.15606,0.35915 0.12826,-0.0871 0.23678,-0.18332 0.33486,-0.24753 0.15251,-0.0998 0.28043,-0.12216 0.35812,-0.0109 0.0776,0.11088 0.10462,0.3547 0.0992,0.5488 -0.006,0.1941 -0.0439,0.33801 -0.0966,0.44338 -0.0527,0.10536 -0.11953,0.17251 -0.7767,0.21963 -0.45905,0.033 -1.20595,0.0562 -1.84537,0.0672 0.36663,0.19583 0.70065,0.4128 0.88315,0.59531 0.1941,0.1941 0.21619,0.34939 0.24392,0.45475 0.0277,0.10536 0.0613,0.16055 0.50488,0.21601 0.0388,0.005 0.0803,0.01 0.12505,0.0145 0.49271,-0.0714 0.88963,-0.15538 1.24747,-0.24443 0.61281,-0.15251 1.11209,-0.31881 1.39217,-0.38809 0.105,-0.026 0.17916,-0.039 0.23151,-0.0408 v 5.1e-4 c 0.0871,-0.004 0.11321,0.0213 0.1204,0.0594 0.0108,0.0611 -0.0274,0.15555 -0.14934,0.26924 -0.0266,0.0247 -0.0572,0.0505 -0.0946,0.0775 0.35125,-0.13523 0.67505,-0.29983 0.99322,-0.45734 0.56011,-0.27729 1.10302,-0.53264 1.3193,-0.75447 0.095,-0.0974 0.1272,-0.18848 0.1142,-0.28061 -0.18548,0.0762 -0.30277,0.0522 -0.35501,0.0227 -0.0637,-0.0361 -0.0307,-0.0802 -0.014,-0.10232 0.0166,-0.0222 0.0161,-0.0226 0.16589,-0.21394 0.006,-0.008 0.0136,-0.0168 0.0207,-0.0258 -0.0154,-0.0179 -0.0314,-0.0359 -0.0481,-0.0543 -0.22184,-0.24402 -0.55447,-0.54388 -0.75965,-0.84336 -0.16373,-0.23896 -0.24641,-0.47794 -0.23926,-0.58446 h -5.2e-4 v 5.2e-4 c -1.1e-4,2.4e-4 -3.8e-4,10e-4 -5.1e-4,0.002 h -5.2e-4 v 5.2e-4 l -5.2e-4,5.1e-4 c -0.0749,0.0832 -0.18051,0.21602 -0.26923,0.4129 -0.0887,0.19687 -0.16092,0.45795 -0.21084,0.66869 -0.0499,0.21074 -0.0776,0.3712 -0.16071,0.45992 -0.0832,0.0888 -0.22158,0.10565 -0.29094,0.11369 -0.0694,0.008 -0.0697,0.008 -0.0863,-0.0444 -0.0167,-0.0527 -0.0497,-0.15794 -0.0775,-0.2744 -0.0277,-0.1164 -0.0495,-0.24395 -0.0274,-0.524 0.0222,-0.28006 0.0883,-0.71283 0.15192,-1.24799 0.0637,-0.53515 0.1251,-1.17235 0.1695,-1.59938 0.0444,-0.42702 0.0718,-0.64342 0.11059,-0.77928 0.0388,-0.1359 0.0889,-0.19154 0.14986,-0.17209 0.0611,0.0195 0.13343,0.11331 0.1695,0.26304 0.0361,0.14972 0.0354,0.35558 0.0548,0.60513 0.0194,0.24955 0.0582,0.54333 0.1664,0.73742 0.10812,0.19411 0.28581,0.2881 0.39119,0.28267 0.10536,-0.006 0.13909,-0.11109 0.17518,-0.25528 0.0361,-0.14418 0.0746,-0.32733 0.10232,-0.74879 0.0277,-0.42147 0.044,-1.08094 0.0801,-1.67432 0.0154,-0.25227 0.0342,-0.49232 0.0548,-0.7214 -0.14097,0.006 -0.26177,-0.0153 -0.36793,-0.094 -0.13245,-0.0983 -0.24179,-0.28547 -0.32815,-0.55139 -0.0396,0.18159 -0.10108,0.37009 -0.13487,0.47387 -0.0415,0.12759 -0.0419,0.12744 -0.0889,0.0693 -0.0472,-0.0583 -0.14098,-0.17425 -0.1881,-0.38499 -0.0472,-0.21073 -0.0473,-0.51621 -0.014,-0.69091 0.0332,-0.17466 0.1,-0.21898 0.18035,-0.2217 0.0276,-7.1e-4 0.0571,0.003 0.0858,0.0129 -0.0442,-0.29689 -0.0772,-0.61165 -0.10542,-0.88625 -0.0444,-0.43256 -0.0772,-0.76539 -0.1049,-1.18132 -0.0277,-0.415936 -0.0505,-0.914884 0.0992,-1.108982 0.14973,-0.194097 0.47176,-0.08361 0.67696,0.06615 0.20518,0.14973 0.29378,0.338813 0.36587,0.599447 0.0721,0.260645 0.12755,0.593325 0.22738,0.865065 0.0998,0.27175 0.24373,0.48244 0.44338,0.65991 0.19965,0.17746 0.4551,0.32133 0.59376,0.19378 0.0522,-0.0481 0.0877,-0.1347 0.11111,-0.24701 0.002,-0.10862 0.005,-0.21395 0.006,-0.31574 0.002,-0.35189 -0.008,-0.66189 -0.0191,-0.94206 -0.0331,-0.232557 -0.0856,-0.443171 -0.16433,-0.591183 -0.13863,-0.260648 -0.36025,-0.32748 -0.54881,-0.466122 -0.0242,-0.01783 -0.0481,-0.03687 -0.0713,-0.05684 0.004,0.10518 0.005,0.196344 -5.2e-4,0.262517 -0.0166,0.188543 -0.0886,0.177205 -0.13022,0.102319 -0.0415,-0.07488 -0.0528,-0.213312 -0.0971,-0.374137 -0.0388,-0.14014 -0.10262,-0.297297 -0.18449,-0.445451 -0.0108,-0.01248 -0.0209,-0.0248 -0.0315,-0.03721 -0.17191,-0.199638 -0.36032,-0.388003 -0.65423,-0.487826 -0.22044,-0.07488 -0.50072,-0.100037 -0.76016,-0.09147 z m -18.76681,0.287838 c -0.008,2.57e-4 -0.0168,9.15e-4 -0.0248,0.0031 -0.0251,0.02324 -0.0465,0.05658 -0.061,0.110071 -0.0305,0.112296 -0.0304,0.314567 -0.0331,0.479557 -0.002,0.164975 -0.008,0.292616 -0.0765,0.355017 -0.0162,0.01505 -0.0362,0.02635 -0.0584,0.03411 -0.0419,0.13514 -0.1201,0.261992 -0.22893,0.375171 -0.13863,0.14419 -0.32728,0.266022 -0.4992,0.199471 -0.16402,-0.06347 -0.31268,-0.298716 -0.40307,-0.296106 0.0234,0.463587 0.0474,0.9681 0.0708,1.4826 0.0191,0.4201 0.0379,0.84686 0.0563,1.27537 0.0302,0.12387 0.0659,0.18883 0.11524,0.16692 0.0998,-0.0444 0.25503,-0.44397 0.41031,-0.63252 0.15527,-0.18855 0.31078,-0.16629 0.42168,0.0444 0.11088,0.21074 0.17771,0.60961 0.21653,1.18081 0.0388,0.57121 0.0496,1.31473 0.0884,1.81384 0.0328,0.42228 0.0859,0.66993 0.0946,0.93431 0.008,-7.1e-4 0.016,-0.001 0.0243,-0.001 0.0941,0.002 0.21229,0.0612 0.2868,0.19068 0.0745,0.12942 0.10577,0.32904 0.13126,0.77411 0.0256,0.44508 0.045,1.13537 0.0744,1.56477 0.0294,0.42941 0.0684,0.59842 0.01,0.66507 -0.0589,0.0667 -0.21569,0.031 -0.34313,-0.0357 -0.12746,-0.0667 -0.2259,-0.16442 -0.27492,-0.21343 -0.049,-0.049 -0.0485,-0.0492 -0.0641,-0.0806 -0.0156,-0.0314 -0.0473,-0.0944 -0.0827,-0.38654 -0.0353,-0.29215 -0.0741,-0.81365 -0.0703,-1.24696 6e-4,-0.0653 0.002,-0.12854 0.005,-0.18965 -0.12827,0.0414 -0.28035,-0.0978 -0.38396,-0.33331 -0.122,-0.27728 -0.17743,-0.6878 -0.28835,-0.97617 -0.07,-0.18199 -0.16181,-0.31554 -0.24391,-0.3669 0.0559,1.19577 0.11608,2.30325 0.19947,3.01377 0.0884,0.75356 0.31993,1.37706 0.41134,1.42989 0.0914,0.0528 0.27431,0.15817 0.40101,0.24236 0.12672,0.0842 0.19742,0.14689 0.23565,0.21652 0.0383,0.0696 0.0436,0.1461 -0.0191,0.19999 -0.004,0.002 -0.007,0.006 -0.0103,0.01 0.0263,0.0161 0.0548,0.0331 0.0858,0.0522 0.37156,0.22737 1.11457,0.68253 1.81333,0.98754 0.0482,0.0211 0.0965,0.0415 0.14418,0.061 7.2e-4,-0.004 0.002,-0.007 0.002,-0.0109 0.0138,-0.0499 0.014,-0.05 0.39378,0.0413 0.22786,0.055 0.59248,0.14256 1.01957,0.23564 0.0809,-0.13057 -0.19879,-0.4499 -0.44596,-0.73742 -0.27173,-0.31612 -0.50453,-0.59337 -0.67645,-0.88729 -0.17192,-0.29392 -0.283,-0.6047 -0.39946,-0.87643 -0.1164,-0.27175 -0.23845,-0.50438 -0.37155,-0.81494 -0.13308,-0.31056 -0.27717,-0.69911 -0.38809,-1.9358 -0.11088,-1.2367 -0.18857,-3.3217 -0.31058,-4.78575 -0.122,-1.464047 -0.28828,-2.30675 -0.47128,-2.778126 -0.1703,-0.438665 -0.35505,-0.555663 -0.48266,-0.551905 z m 6.24561,0.419613 c -0.46986,-7.12e-4 -0.9,0.01802 -1.20458,0.06046 -0.63774,0.08872 -0.72675,0.277092 -0.69349,0.487826 0.0332,0.210733 0.18889,0.443795 0.88211,0.604614 0.69322,0.160825 1.92421,0.249903 2.84479,0.199988 0.92058,-0.04992 1.53106,-0.239164 1.83606,-0.399976 0.15,-0.07913 0.22585,-0.151111 0.2217,-0.222725 -0.47893,0.0064 -0.89361,-0.01492 -1.33119,-0.04858 -0.64886,-0.04992 -1.34727,-0.127965 -1.7632,-0.19172 -0.41594,-0.06374 -0.54965,-0.113272 -0.6134,-0.179834 -0.0642,-0.06653 -0.0581,-0.150119 -0.0553,-0.191719 0.002,-0.04186 0.002,-0.04148 0.92087,-0.04961 0.11892,-7.13e-4 0.25335,-0.0029 0.39998,-0.0036 -0.46478,-0.04142 -0.97449,-0.06375 -1.44436,-0.06511 z m 5.51336,2.644288 c -0.0347,0.004 -0.0616,0.0781 -0.12402,0.2496 -0.11088,0.30501 -0.3327,0.91546 -0.49351,1.60868 -0.16084,0.69321 -0.26067,1.46936 -0.31058,2.03502 -0.0499,0.56566 -0.05,0.92031 -0.061,1.26969 -0.01,0.27832 -0.0247,0.55386 -0.0475,0.81391 0.27049,-0.003 0.55195,0.01 0.83509,0.046 0.27506,0.0349 0.55152,0.0918 0.81391,0.15916 -0.0906,-0.37234 -0.0831,-0.77456 -0.0543,-1.45676 0.0388,-0.92059 0.11659,-2.35113 0.0279,-3.23288 -0.0887,-0.88176 -0.34374,-1.21442 -0.47129,-1.38079 -0.0558,-0.0728 -0.0877,-0.11412 -0.11472,-0.11162 z m 9.55962,2.29805 c -0.0514,0.002 -0.10647,0.007 -0.16226,0.015 -0.23066,0.0304 -0.48496,0.0846 -0.7152,0.13074 -0.004,0.0505 -0.007,0.10129 -0.0109,0.15193 -0.0554,0.79859 -0.0782,1.60262 -0.0863,2.32078 -0.002,0.21199 -0.004,0.4163 -0.006,0.61134 0.0108,-0.0314 0.022,-0.0606 0.0357,-0.0873 0.12199,-0.23847 0.38807,-0.27175 0.67644,-0.76532 0.062,-0.10634 0.12543,-0.23391 0.18655,-0.37362 0.0172,-0.51568 0.0369,-1.05684 0.0605,-1.56993 0.006,-0.14688 0.0139,-0.29145 0.0212,-0.43357 z m -3.92896,4.23643 c 0.069,0.004 0.13509,0.0346 0.18242,0.10129 0.10812,0.15252 0.11902,0.49087 0.13281,0.84026 0.0138,0.34938 0.031,0.70945 -0.0134,0.94516 -0.0444,0.23569 -0.14998,0.34679 -0.26923,0.39119 -0.11928,0.0444 -0.25228,0.0219 -0.31884,0.0108 -0.0667,-0.0108 -0.0668,-0.0107 -0.0749,-0.16071 -0.008,-0.14972 -0.025,-0.44902 -0.0362,-0.7152 -0.012,-0.2662 -0.017,-0.49919 -0.006,-0.72657 0.0108,-0.22737 0.0387,-0.44915 0.15503,-0.57671 0.0583,-0.0637 0.13866,-0.10362 0.21807,-0.10904 h 5.2e-4 c 0.01,-6.6e-4 0.02,-7.7e-4 0.03,-5.2e-4 z m -6.83886,0.24443 c -0.0422,0.0742 -0.097,0.14261 -0.16949,0.20361 -0.24402,0.20519 -0.68708,0.32714 -1.00873,0.49351 -0.32165,0.16638 -0.52176,0.37703 -0.34985,0.55449 0.17193,0.17747 0.71547,0.32148 1.3255,0.42684 0.61002,0.10536 1.28653,0.17204 1.83555,0.29404 0.0631,0.014 0.1246,0.0289 0.18448,0.0444 0.0875,-0.0778 0.17187,-0.16158 0.22015,-0.24391 0.0942,-0.16084 0.0504,-0.31619 -0.0744,-0.49919 -0.12477,-0.18301 -0.33027,-0.39397 -0.54932,-0.61857 -0.21906,-0.2246 -0.45165,-0.46282 -0.9064,-0.57929 -0.14877,-0.0381 -0.32183,-0.0632 -0.50747,-0.076 z m 8.94519,0.11421 c -0.003,5e-5 -0.005,2e-4 -0.009,5.1e-4 -0.036,0.004 -0.0689,0.0225 -0.11265,0.0636 0.0737,0.0158 0.21138,0.15195 0.32556,0.26975 -0.0145,-0.0933 -0.0373,-0.17938 -0.0667,-0.23616 -0.0364,-0.0704 -0.0825,-0.096 -0.12712,-0.0977 -0.004,-1.1e-4 -0.006,-5e-5 -0.009,0 z m -6.39444,0.59531 c 0.058,0.12074 0.17733,0.27523 0.38293,0.43925 0.2468,0.19686 0.61842,0.40802 0.95394,0.5023 0.33551,0.0942 0.63486,0.0719 0.87333,-0.0279 0.0628,-0.0263 0.12127,-0.058 0.17622,-0.092 -0.0294,0.0142 -0.0661,0.0266 -0.11007,0.0367 -0.31612,0.0721 -1.02535,0.0274 -1.60765,-0.30541 -0.24853,-0.14202 -0.47441,-0.33649 -0.6687,-0.55294 z" /></g></svg>
