<?xml version="1.0" encoding="UTF-8" standalone="no"?>
<!-- Created with Inkscape (http://www.inkscape.org/) -->

<svg
   width="34.048035mm"
   height="59.816135mm"
   viewBox="0 0 34.048035 59.816135"
   version="1.1"
   id="svg1"
   xml:space="preserve"
   xmlns="http://www.w3.org/2000/svg"
   xmlns:svg="http://www.w3.org/2000/svg"><defs
     id="defs1" /><g
     id="layer1"
     transform="translate(-110.44308,-55.58444)"><path
       id="rect125"
       style="display:inline;opacity:1;fill:#000000;fill-rule:evenodd;stroke:none;stroke-width:0.18358;stroke-dasharray:none"
       d="m 127.42736,55.584721 c -7.82886,0.01999 -15.60737,1.099208 -16.72714,3.033923 -1.17793,0.16485 1.9932,35.098865 3.40651,52.300686 2.63273,5.91269 23.34672,5.933 26.5591,0.30592 1.85763,-17.276227 4.12272,-49.183892 3.79305,-52.318768 -1.32337,-2.302667 -9.20267,-3.341738 -17.03152,-3.321761 z m -1.43867,0.973584 c 4.35334,-0.03318 8.67426,0.06091 12.95167,0.911055 1.57577,0.382387 3.35897,0.607976 4.57181,1.785938 0.0314,2.124107 -0.0718,4.247559 -0.19275,6.36757 -0.81072,14.450034 -1.95161,28.910147 -3.38481,43.323972 -0.15136,0.71048 0.0154,1.5055 -0.33486,2.15387 -1.57516,1.7219 -3.93721,2.06901 -6.14433,2.38745 -4.39794,0.34193 -8.93525,0.40969 -13.35526,-0.21755 -1.85892,-0.37142 -4.01055,-0.86286 -5.0555,-2.63447 -0.47217,-5.63085 -0.94948,-11.260851 -1.418,-16.891991 -0.76452,-9.515881 -1.6106,-19.052506 -2.0929,-28.570349 -0.0391,-1.992943 -0.22607,-4.004364 -0.0475,-5.987232 0.43709,-0.607855 1.23866,-0.837948 1.91564,-1.09399 4.08654,-1.184807 8.37541,-1.401191 12.58683,-1.534273 z m 1.46089,1.020609 c -8.36056,-2.8e-5 -15.13851,1.184436 -15.13912,2.645317 5.9e-4,1.460881 6.77854,2.644827 15.13912,2.6448 8.36038,-9e-6 15.13803,-1.183946 15.13862,-2.6448 -6.2e-4,-1.460845 -6.77826,-2.645308 -15.13862,-2.645317 z m -1.95026,0.424781 c 2.5471,-0.02949 5.10194,0.01009 7.64191,0.224275 -0.0309,0.0013 -0.0615,0.0023 -0.092,0.0036 -1.57641,0.07842 -2.56496,0.376507 -3.20807,0.572575 -0.64311,0.196068 -0.94085,0.290839 -0.95653,0.56534 -0.0156,0.2745 0.25096,0.729333 0.66663,1.113627 0.41567,0.384295 0.98011,0.69788 1.26245,0.854728 0.28234,0.156856 0.2826,0.156767 0.37672,0.141077 0.0941,-0.01568 0.28252,-0.04712 0.38447,-0.1726 0.102,-0.125485 0.11734,-0.345438 0.24288,-0.768945 0.12548,-0.423507 0.3609,-1.050723 0.69815,-1.348755 0.33723,-0.298031 0.77606,-0.266202 1.09761,-0.03876 0.32157,0.227438 0.52553,0.650811 0.65887,1.121379 0.13333,0.470568 0.19599,0.987768 0.54106,1.277958 0.1722,0.14481 0.4148,0.233488 0.74517,0.280603 -3.24207,0.428751 -6.52796,0.503257 -9.7932,0.478007 -3.07316,-0.08622 -6.18566,-0.212432 -9.20977,-0.818038 0.11072,-0.120437 0.21195,-0.280064 0.29817,-0.457853 0.12548,-0.25881 0.21956,-0.557223 0.447,-0.855245 0.22744,-0.298021 0.58843,-0.595589 0.95705,-0.838709 0.3686,-0.243128 0.7446,-0.431381 0.97203,-0.6196 0.1468,-0.121477 0.23174,-0.24286 0.22066,-0.336931 2.00891,-0.220842 4.03918,-0.297016 6.04873,-0.377754 z m 1.63245,0.719852 c -0.0566,0.0029 -0.11168,0.02396 -0.16071,0.06563 -0.15686,0.133335 -0.25121,0.477793 -0.29042,0.807186 -0.0392,0.329393 -0.0231,0.643558 0.008,0.894519 0.0314,0.250969 0.0783,0.439188 0.1018,0.533301 0.0235,0.09412 0.0234,0.09433 0.14883,0.0708 0.12549,-0.02352 0.37655,-0.07082 0.52555,-0.290422 0.14902,-0.219597 0.19637,-0.611785 0.19637,-0.97255 0,-0.360772 -0.047,-0.690093 -0.18035,-0.894002 -0.0917,-0.140189 -0.22455,-0.220924 -0.34934,-0.214458 z m -13.60485,4.137737 v 5.17e-4 c -0.38526,0.01474 -0.63507,0.60875 -0.62322,1.02371 0.28067,9.830234 1.64467,19.947567 2.91662,29.960962 0.12662,1.202828 1.6538,2.447181 3.81941,3.05046 2.06689,0.575739 4.79613,0.534586 7.51427,0.531234 0.16563,0.0022 0.33129,0.0031 0.49712,0.0031 0.13759,-2.9e-5 0.2749,-5.65e-4 0.41238,-0.0021 2.66411,0.0072 5.25504,0.03968 7.28844,-0.526066 2.16561,-0.60253 3.65147,-1.790001 3.77807,-2.998783 1.33541,-9.326179 2.75352,-23.737479 2.9409,-29.573389 0.027,-0.842474 -0.65346,-1.3919 -1.48363,-1.247469 -13.93141,2.423693 -24.42336,-0.322905 -27.06036,-0.222209 z m 1.69447,0.628902 c 0.30193,0.03372 0.60582,0.04611 0.90692,0.08785 3.92826,0.563075 7.8902,0.919366 11.85096,0.969967 -0.0203,0.01609 -0.0456,0.06296 -0.091,0.146761 -0.102,0.188228 -0.30569,0.564395 -0.41548,0.956531 -0.1098,0.392135 -0.12506,0.79955 -0.12506,1.144633 0,0.345084 0.0155,0.62818 0.0625,0.824239 0.0388,0.161319 0.0983,0.263798 0.2713,0.321427 -0.0657,-1.98e-4 -0.13103,0 -0.19689,0 -5.16238,1.4e-5 -9.71586,0.613094 -12.10262,1.53479 0.0838,-0.03233 0.15591,-0.06611 0.24495,-0.09767 0.1,-0.105816 0.18691,-0.21703 0.25373,-0.331763 0.36076,-0.619573 0.14096,-1.356514 0.0233,-2.242757 -0.1176,-0.886235 -0.1335,-1.921445 -0.25115,-2.533179 -0.0805,-0.418946 -0.20996,-0.638208 -0.4315,-0.780831 z m 25.44238,0.06305 c 0.44263,0.01202 0.85436,0.186398 0.94051,0.684712 -0.11316,2.080745 -0.25113,4.16062 -0.41031,6.238896 -0.0291,-0.04088 -0.0622,-0.08169 -0.0987,-0.121956 0.002,-0.0018 0.006,-0.0038 0.008,-0.0057 0.18822,-0.133325 0.12562,-0.635699 -0.007,-1.027844 -0.13332,-0.392135 -0.33735,-0.67371 -0.47853,-0.908988 -0.14116,-0.23528 -0.21962,-0.423809 -0.21962,-0.996322 0,-0.572513 0.0785,-1.529327 0.13332,-2.219503 0.055,-0.690166 0.0865,-1.113689 -0.0155,-1.286226 -0.051,-0.08627 -0.13542,-0.110205 -0.32659,-0.103353 h -5.2e-4 c -0.19116,0.0068 -0.48897,0.0443 -0.96738,0.07958 -0.33481,0.02471 -0.75821,0.04858 -1.2082,0.07338 -1.0987,0.150063 -2.19993,0.269692 -3.30264,0.361219 -0.2602,0.131556 -0.38385,0.346385 -0.48524,0.734322 -0.18039,0.690157 -0.28975,1.929072 -0.25838,2.595707 0.0164,0.349406 0.0711,0.541366 0.16278,0.655257 0.31703,0.03733 0.50697,0.109508 0.80873,0.151929 -1.92422,-0.269876 -4.06365,-0.472862 -6.4642,-0.50953 0.11576,-0.03071 0.21954,-0.07807 0.29249,-0.148311 0.21176,-0.203907 0.1645,-0.596551 0.0625,-1.067119 -0.102,-0.470568 -0.2582,-1.019238 -0.40721,-1.403532 -0.14902,-0.384295 -0.29012,-0.603848 -0.36071,-0.713651 -0.0216,-0.03359 -0.0369,-0.0569 -0.0501,-0.0677 -0.0108,-1.26e-4 -0.0209,-3.83e-4 -0.0315,-5.17e-4 0.83621,0.01068 1.67257,0.0077 2.50837,-0.0098 -0.0122,0.0047 -0.0242,0.0098 -0.0351,0.01499 -0.20392,0.09412 -0.20377,0.235242 -0.1881,0.846976 0.0156,0.611734 0.0473,1.694372 0.063,2.235523 0.006,0.172274 0.008,0.289435 0.0134,0.369486 0.40039,0.01811 0.79479,0.03969 1.18235,0.06511 0.0622,-0.09124 0.10866,-0.240233 0.13746,-0.489376 0.047,-0.407826 0.0469,-1.082799 0.0548,-1.600419 0.008,-0.51763 0.0237,-0.878251 -0.0155,-1.121379 -0.0276,-0.171009 -0.0827,-0.283815 -0.19999,-0.349333 -0.15356,0.0054 -0.30737,0.01066 -0.46095,0.01499 1.22501,-0.03509 2.44902,-0.102177 3.67109,-0.203605 1.73377,-0.1439 3.46392,-0.357399 5.18676,-0.649056 0.22449,-0.07475 0.50078,-0.12607 0.76637,-0.118856 z m -23.83576,0.12299 c -0.0815,0.08794 -0.14597,0.259379 -0.18603,0.47749 -0.0499,0.271743 -0.0613,0.615674 -0.0558,1.037146 0.006,0.421482 0.0278,0.920422 0.061,1.336352 0.0332,0.415927 0.0775,0.748821 0.0997,0.91519 0.0222,0.166369 0.0223,0.166756 0.0889,0.222209 0.0665,0.05545 0.1996,0.165929 0.34934,0.188102 0.14974,0.02219 0.31613,-0.04414 0.39377,-0.321428 0.0776,-0.277286 0.0666,-0.765348 0.0222,-1.303279 -0.0444,-0.537932 -0.12246,-1.126246 -0.18345,-1.547709 -0.0611,-0.421471 -0.1051,-0.676097 -0.19379,-0.848011 -0.0222,-0.04304 -0.0475,-0.081 -0.0744,-0.112654 -0.10723,-0.01435 -0.21426,-0.02875 -0.32143,-0.04341 z m -3.39566,0.645438 c 0.16038,0.147663 0.34921,0.269654 0.50436,0.40411 0.23527,0.203917 0.39233,0.439482 0.5178,0.862996 0.0223,0.0753 0.077,0.139136 0.1143,0.50488 0.0559,0.330288 0.0791,0.685917 0.0336,0.96945 -0.0706,0.439197 -0.30614,0.705597 -0.51005,0.77618 -0.20391,0.07058 -0.37639,-0.05475 -0.49403,0.03152 -0.0129,0.0095 -0.0252,0.02153 -0.0367,0.03617 -0.0634,-1.194745 -0.10155,-2.390036 -0.12919,-3.585311 z m 12.32842,4.026113 h 5.2e-4 c 1.59081,-0.03372 3.18247,-0.02117 4.7718,0.05839 2.99816,0.191681 8.3086,1.251201 7.96902,1.149801 0.36802,0.119647 2.30003,0.798351 2.24739,1.409217 -0.75311,0.828774 -1.93449,1.048065 -2.96675,1.359091 -3.86999,0.891823 -7.78738,1.057596 -11.7507,1.002522 -0.93302,-0.0288 -1.86533,-0.06708 -2.79518,-0.12764 7.1e-4,0.01642 0.002,0.03261 0.004,0.04909 0.0134,0.173866 0.0275,0.350959 0.0413,0.52865 1.33022,0.09115 2.7429,0.14056 4.20232,0.14056 6.67168,2.8e-5 12.39838,-1.023554 13.63121,-2.436027 -0.21889,2.739622 -1.86007,19.216401 -2.42259,20.308838 -0.15493,0.300915 -0.30695,0.685409 -0.45113,1.167887 -0.14419,0.48247 -0.41055,0.992368 -0.54364,1.247469 -0.0671,0.128388 -0.10001,0.192325 -0.11369,0.234611 -1.48427,-0.898297 -5.4661,-1.499148 -9.93376,-1.499133 -2.15379,1.4e-5 -4.16128,0.138086 -5.83375,0.375688 0.0125,0.09989 0.0236,0.193653 0.0341,0.281119 1.48669,-0.212459 2.98979,-0.295882 4.4912,-0.351916 1.20805,-0.02538 2.41611,-0.01577 3.62303,0.04393 1.44414,0.09137 4.33973,0.527918 4.56355,0.602547 0.34105,0.113676 1.02308,0.34146 1.44177,0.532784 0.4187,0.191323 0.57445,0.346831 0.69091,0.618567 0.0977,0.227783 0.16716,0.537339 0.28371,0.701766 -0.0403,0.02239 -0.0807,0.04416 -0.12144,0.06563 -0.43484,0.181917 -0.91208,0.29164 -1.35341,0.42323 -1.77468,0.404717 -3.56223,0.6103 -5.36298,0.700732 -1.46661,-0.01783 -2.93813,0.02483 -4.40748,0.02325 -2.19797,-0.08962 -4.38543,-0.284831 -6.52777,-0.873849 -0.60355,-0.226976 -1.402,-0.368153 -1.72858,-0.969449 0.28124,-0.549692 0.99623,-0.693196 1.53531,-0.911573 0.11928,-0.03466 0.23903,-0.06817 0.35864,-0.100252 -0.012,-0.05998 -0.0227,-0.120791 -0.0331,-0.182935 -0.006,-0.03272 -0.011,-0.06542 -0.016,-0.0987 -1.27646,0.354908 -2.06776,0.793557 -2.15956,1.272791 -0.32815,-0.308996 -0.60309,-0.676176 -0.79995,-1.114144 -0.96643,-7.51212 -1.94754,-15.026149 -2.53989,-22.578984 0.48998,0.66018 1.96091,1.240717 4.06125,1.677417 -0.01,-0.199657 -0.0178,-0.394226 -0.0264,-0.584977 -0.50352,-0.108144 -1.00579,-0.230554 -1.50585,-0.369486 -0.79485,-0.302072 -1.84623,-0.489095 -2.27635,-1.289327 0.37041,-0.731557 1.31269,-0.922729 2.02262,-1.213363 0.54051,-0.158746 1.08366,-0.297096 1.62936,-0.417545 6.9e-4,-0.137693 0.0167,-0.144754 0.062,-0.164848 0.0707,-0.03137 0.21201,-0.09439 0.57671,-0.176734 0.36469,-0.08234 0.95303,-0.184 1.29811,-0.203605 0.20679,-0.01176 0.3259,0.0064 0.40618,0.129708 1.89573,-0.262838 3.81046,-0.368642 5.72368,-0.4408 z m -5.3909,4.579051 c 0.004,0.18036 0.008,0.36939 0.0119,0.568957 0.42093,0.05413 0.85635,0.103869 1.3038,0.148312 -0.008,-0.193915 -0.0124,-0.3856 -0.0145,-0.570508 -0.43428,-0.04201 -0.86801,-0.09049 -1.3007,-0.146761 z m -5.11183,1.501717 c -0.065,0.0028 -0.12647,0.02677 -0.16691,0.08682 -0.0647,0.09607 -0.0765,0.284732 -0.0413,0.61805 0.0353,0.333318 0.11784,0.811168 0.17466,1.179773 0.0569,0.368614 0.088,0.62746 0.12713,0.829407 0.0392,0.201955 0.0866,0.347067 0.11007,0.419613 0.0235,0.07253 0.0232,0.07265 0.0997,0.05891 0.0764,-0.01375 0.22965,-0.04111 0.30024,-0.170532 0.0706,-0.129418 0.059,-0.360646 0.0295,-0.731222 -0.0294,-0.370567 -0.0769,-0.880418 -0.11989,-1.258838 -0.0431,-0.378416 -0.0819,-0.625325 -0.1447,-0.778247 -0.0628,-0.152932 -0.14917,-0.211806 -0.25114,-0.239262 -0.0383,-0.01032 -0.0783,-0.0162 -0.11731,-0.01447 z m 22.87457,13.949536 c -0.0445,0.0029 -0.0885,0.06492 -0.14572,0.24598 -0.0832,0.263422 -0.19451,0.778696 -0.27492,1.189075 -0.0804,0.410379 -0.13038,0.71603 -0.2496,1.120861 -0.11928,0.404845 -0.30752,0.909054 -0.41289,1.211296 -0.10536,0.302221 -0.12759,0.402115 -0.13591,0.476973 -0.008,0.07488 -0.002,0.124897 0,0.149862 0.002,0.02496 0.002,0.02473 0.0692,0.04134 0.0666,0.01662 0.19983,0.04992 0.36897,0 0.16914,-0.04992 0.37438,-0.182517 0.47698,-0.393257 0.1026,-0.210741 0.1024,-0.499704 0.13849,-0.901754 0.0361,-0.402064 0.10808,-0.917588 0.1912,-1.405599 0.0832,-0.488025 0.1774,-0.948054 0.18294,-1.239201 0.006,-0.291146 -0.0774,-0.413242 -0.14676,-0.468705 -0.0217,-0.01733 -0.0417,-0.0283 -0.062,-0.02687 z m -1.93993,2.801896 c -0.0395,0.0022 -0.0789,0.01587 -0.11627,0.04496 -0.0749,0.05826 -0.14169,0.174572 -0.15555,0.274402 -0.0138,0.09983 0.025,0.182954 0.0444,0.266133 0.0194,0.0832 0.0192,0.166436 0.0858,0.188619 0.0665,0.02218 0.19961,-0.01632 0.28835,-0.110587 0.0887,-0.09428 0.13305,-0.244372 0.12196,-0.366386 -0.0108,-0.122012 -0.0776,-0.216415 -0.15245,-0.26355 -0.0374,-0.0236 -0.0768,-0.03502 -0.11627,-0.03359 z m -5.03432,2.989482 v 5.17e-4 c -0.19235,7.14e-4 -0.33328,0.02709 -0.42271,0.06873 -0.11928,0.0554 -0.14682,0.138528 -0.13849,0.243913 0.008,0.105372 0.0523,0.233505 0.0884,0.386023 0.0361,0.152511 0.0637,0.329744 -0.0388,0.435115 -0.1026,0.10536 -0.33502,0.138377 -0.56793,0.216008 -0.23293,0.07759 -0.46654,0.199801 -0.56637,0.31626 -0.0998,0.11646 -0.0656,0.227731 -0.0491,0.283187 0.0167,0.0554 0.0163,0.05488 0.28525,0.0078 0.26898,-0.04714 0.80646,-0.141288 1.52187,-0.191203 0.71539,-0.04992 1.60869,-0.0554 2.20762,-0.0832 0.59893,-0.02774 0.90339,-0.07761 1.03094,-0.166398 0.12755,-0.08872 0.0781,-0.216393 -0.14107,-0.294039 -0.21906,-0.07759 -0.60703,-0.105372 -0.88987,-0.113688 -0.28283,-0.0082 -0.4603,0.0027 -0.56844,-0.08062 -0.10812,-0.0832 -0.14707,-0.260534 -0.21084,-0.418579 -0.0637,-0.158052 -0.15254,-0.296672 -0.39378,-0.402043 -0.24123,-0.105372 -0.63466,-0.177287 -0.93689,-0.199471 -0.0755,-0.0058 -0.1457,-0.0083 -0.20981,-0.0083 z m -15.613,2.425175 v 5.17e-4 c -0.0584,0.0036 -0.12953,0.04881 -0.17415,0.176216 -0.0548,0.156861 -0.0699,0.438574 -0.0465,1.140499 0.0235,0.701924 0.0857,1.823921 0.19947,3.666954 0.11376,1.84305 0.27837,4.4073 0.36071,5.68958 0.0824,1.28229 0.0827,1.28217 0.0827,1.3596 0,0.0774 2.1e-4,0.23249 0.0806,0.4315 0.0804,0.19901 0.24099,0.44236 0.4253,0.64234 0.18429,0.19999 0.39212,0.35686 0.56172,0.41961 0.24139,0.0894 0.36394,-0.0228 0.35351,-0.0117 0.0263,0.0161 0.0548,0.0331 0.0858,0.0522 0.37156,0.22737 1.11457,0.68253 1.81333,0.98754 0.0477,0.0209 0.0959,0.0411 0.14314,0.0605 -0.014,0.0527 -0.0324,0.14414 0.0444,0.22376 0.0832,0.086 0.27716,0.15778 0.70694,0.2992 0.42978,0.14141 1.095,0.35213 1.83813,0.51574 0.74312,0.16359 1.56402,0.28006 2.68149,0.34106 1.11745,0.0611 2.53158,0.0666 3.82095,0.0444 1.28938,-0.0222 2.45394,-0.0721 3.51038,-0.21911 1.05646,-0.14697 2.00502,-0.39126 2.58176,-0.57981 0.4768,-0.15588 0.6981,-0.27323 0.82992,-0.37362 -0.007,0.006 -0.0122,0.0108 -0.0202,0.0165 0.35125,-0.13523 0.67505,-0.29983 0.99322,-0.45734 0.56011,-0.27729 1.10302,-0.53264 1.3193,-0.75447 0.095,-0.0974 0.1272,-0.18848 0.1142,-0.28061 -0.0125,0.005 -0.0238,0.009 -0.0357,0.0129 0.0506,-0.0182 0.10612,-0.0438 0.16795,-0.0796 0.26343,-0.1525 0.62963,-0.48505 0.82372,-0.74569 0.1941,-0.26065 0.21572,-0.44945 0.23513,-0.75447 0.0194,-0.30501 0.0365,-0.72607 0.0698,-1.18081 0.0332,-0.45475 0.0832,-0.94285 0.11369,-1.55288 0.0305,-0.61002 0.0416,-1.34178 0.0749,-1.98231 0.0332,-0.64052 0.0886,-1.18999 0.0997,-1.69188 0.0108,-0.50188 -0.0223,-0.95645 -0.0109,-1.36684 0.0108,-0.41037 0.0665,-0.776126 0.12196,-1.269691 0.0554,-0.493566 0.11111,-1.115031 0.14159,-1.594735 0.0305,-0.479689 0.0361,-0.817637 0,-0.997872 -0.027,-0.135177 -0.0774,-0.181796 -0.13953,-0.177766 h -5.1e-4 c -0.0206,7.13e-4 -0.0422,0.0082 -0.0651,0.01964 -0.0914,0.04442 -0.19719,0.154909 -0.29146,0.346232 -0.0943,0.191332 -0.17739,0.463487 -0.26613,0.81287 -0.0887,0.349383 -0.18282,0.776405 -0.19947,1.281059 -0.009,0.278915 0.005,0.581379 0.0191,0.930692 -0.0332,-0.228254 -0.0853,-0.434615 -0.16278,-0.580326 -0.13863,-0.260648 -0.36025,-0.32748 -0.54881,-0.466122 -0.0242,-0.01783 -0.0481,-0.03687 -0.0713,-0.05684 -0.0805,-0.127611 -0.0275,-0.545737 -0.0294,-0.667659 -0.006,-0.352149 0.0223,-0.668101 -0.0248,-0.851111 -0.0471,-0.182761 -0.1691,-0.23292 -0.29094,-0.233061 h -5.2e-4 c -0.12183,1.41e-4 -0.24408,0.04998 -0.42684,0.152446 -0.183,0.1026 -0.42732,0.25825 -0.54932,0.335897 -0.12201,0.07759 -0.12213,0.07734 -0.014,0.110587 0.10812,0.0333 0.32436,0.09961 0.49351,0.207739 0.16913,0.108144 0.29137,0.258414 0.39119,0.424781 0.0125,0.02085 0.0249,0.04174 0.0367,0.06305 -0.01,-0.01158 -0.0196,-0.02311 -0.0294,-0.03462 -0.17191,-0.199638 -0.36032,-0.388003 -0.65423,-0.487826 -0.22044,-0.07488 -0.50072,-0.100037 -0.76016,-0.09147 l -0.001,-10e-4 c -0.0864,0.0029 -0.17058,0.0094 -0.2496,0.01912 -0.3161,0.0388 -0.54907,0.127498 -0.70435,0.266133 -0.15527,0.138635 -0.23309,0.3271 -0.25528,0.698666 -0.0222,0.371559 0.0108,0.926679 0.0444,1.447977 0.0332,0.5213 0.0667,1.00884 0.0667,1.75751 0,0.74866 -0.0334,1.75808 -0.11111,2.68976 -0.0776,0.93167 -0.19947,1.78558 -0.28267,2.32906 -0.0832,0.54348 -0.12757,0.77613 -0.31057,0.89814 -0.18302,0.12201 -0.50464,0.13331 -0.74311,-0.0109 -0.23847,-0.14419 -0.39347,-0.44382 -0.52658,-1.08158 -0.13309,-0.63776 -0.24437,-1.61323 -0.28319,-2.60036 -0.0388,-0.98714 -0.006,-1.98556 0.0832,-2.9006 0.0887,-0.91504 0.23249,-1.746916 0.12712,-2.190567 -0.10536,-0.443644 -0.46009,-0.499065 -0.85938,-0.49351 -0.19521,0.0029 -0.40069,0.01977 -0.58859,0.04651 0.0158,-0.0135 0.0289,-0.02687 0.0398,-0.04031 0.0721,-0.08872 0.0661,-0.177682 -0.3359,-0.194304 v -5.17e-4 c -0.40205,-0.01662 -1.20008,0.03887 -2.51716,0.07493 -1.1465,0.03141 -2.6862,0.04815 -3.67109,0.05736 -0.4647,-0.0414 -0.97407,-0.06375 -1.44384,-0.06511 -0.46986,-7.12e-4 -0.9,0.01802 -1.20458,0.06046 -0.63774,0.08872 -0.72675,0.277092 -0.69349,0.487826 0.0332,0.210733 0.18889,0.443795 0.88211,0.604614 0.69322,0.160825 1.92421,0.249903 2.84479,0.199988 0.92058,-0.04992 1.53106,-0.239164 1.83606,-0.399976 0.15,-0.07913 0.22585,-0.151111 0.2217,-0.222725 -0.41248,0.0055 -0.77745,-0.0094 -1.15032,-0.03514 0.5819,0.04012 1.14458,0.05338 1.89859,0.0057 0.83185,-0.05262 1.89646,-0.1797 2.50372,-0.287837 0.0281,-0.005 0.0555,-0.01007 0.0816,-0.01499 -0.0439,0.05788 -0.0322,0.125294 0.0269,0.206189 0.10536,0.144197 0.36018,0.332792 0.58756,0.476974 0.22736,0.14419 0.42748,0.24417 0.49403,0.854215 0.0665,0.61002 -3.6e-4,1.72983 -0.0336,2.68924 -0.0332,0.95939 -0.0333,1.75822 -0.061,2.46807 -0.0277,0.70984 -0.083,1.33069 -0.2992,1.72444 -0.1285,0.23394 -0.3139,0.38726 -0.4408,0.50953 -0.089,-0.0475 -0.19382,-0.0972 -0.31678,-0.14935 -0.27744,-0.11769 -0.64737,-0.24752 -1.05161,-0.3514 -0.0905,-0.3722 -0.083,-0.77433 -0.0543,-1.45624 0.0388,-0.92059 0.11659,-2.35113 0.0279,-3.23288 -0.0887,-0.88176 -0.34374,-1.21442 -0.47129,-1.38079 -0.0558,-0.0728 -0.0877,-0.11412 -0.11472,-0.11162 -0.0347,0.004 -0.0616,0.0781 -0.12402,0.2496 -0.11088,0.30501 -0.3327,0.91546 -0.49351,1.60868 -0.16084,0.69321 -0.26067,1.46936 -0.31058,2.03502 -0.0499,0.56566 -0.05,0.92031 -0.061,1.26969 -0.01,0.27812 -0.0248,0.55351 -0.0475,0.81339 -0.0633,6.3e-4 -0.12608,0.002 -0.1881,0.004 v 5.2e-4 c -0.32684,0.0121 -0.63399,0.0464 -0.90434,0.0894 -0.54071,0.086 -0.93447,0.2076 -1.44746,0.42943 -0.51296,0.22183 -1.14498,0.54378 -1.5415,0.7767 -0.3965,0.23291 -0.55721,0.37662 -0.62374,0.47645 -0.0666,0.0998 -0.0386,0.15573 -0.0248,0.18346 0.0138,0.0277 0.0135,0.0277 0.0884,0.0305 0.0749,0.002 0.22514,0.008 0.50798,-0.0977 0.28282,-0.10536 0.69843,-0.3214 1.16427,-0.52659 0.46582,-0.2052 0.98152,-0.39937 1.57768,-0.49919 0.40107,-0.0671 0.83833,-0.0913 1.22008,-0.0646 -0.0422,0.0741 -0.097,0.14265 -0.16949,0.20361 -0.24402,0.20519 -0.68708,0.32714 -1.00873,0.49351 -0.32165,0.16638 -0.52176,0.37703 -0.34985,0.55449 0.17193,0.17747 0.71547,0.32148 1.3255,0.42684 0.61002,0.10536 1.28653,0.17204 1.83555,0.29404 0.0631,0.014 0.12465,0.029 0.18448,0.0444 -0.0834,0.0742 -0.16935,0.14261 -0.22892,0.19948 -0.122,0.1164 -0.13289,0.18333 -0.0858,0.23047 0.0472,0.0472 0.15229,0.0749 0.82888,0.0749 0.67658,0 1.92458,-0.0277 2.58176,-0.0749 0.49287,-0.0354 0.6537,-0.0819 0.72554,-0.14728 0.012,-0.0109 0.0213,-0.0221 0.0294,-0.0341 -0.008,0.0119 -0.0176,0.0233 -0.0294,0.0341 -0.0717,0.0656 -0.23202,0.11241 -0.72554,0.1478 -0.45905,0.033 -1.20595,0.0562 -1.84537,0.0672 0.36663,0.19583 0.70065,0.4128 0.88315,0.59531 0.1941,0.1941 0.21619,0.34939 0.24392,0.45475 0.0277,0.10536 0.0613,0.16055 0.50488,0.21601 0.0382,0.005 0.0791,0.01 0.12299,0.0145 -0.35053,0.0507 -0.74996,0.0947 -1.21853,0.12919 -1.12856,0.0832 -2.65932,0.11106 -3.93206,0.12764 -1.27274,0.0166 -2.28731,0.0222 -3.21066,-0.0305 -0.92334,-0.0527 -1.75493,-0.16361 -2.55075,-0.31057 -0.31806,-0.0587 -0.63055,-0.12297 -0.91519,-0.185 0.0784,-0.13134 -0.20009,-0.44977 -0.44648,-0.73639 -0.27173,-0.31612 -0.50453,-0.59337 -0.67645,-0.88729 -0.17192,-0.29392 -0.283,-0.6047 -0.39946,-0.87643 -0.1164,-0.27175 -0.23845,-0.50438 -0.37155,-0.81494 -0.13308,-0.31056 -0.27717,-0.69911 -0.38809,-1.9358 -0.11088,-1.2367 -0.18857,-3.3217 -0.31058,-4.78575 -0.122,-1.464048 -0.28828,-2.306751 -0.47128,-2.778127 -0.23865,-0.614736 -0.49329,-0.554776 -0.50746,-0.550905 -0.0327,0.03156 -0.0317,0.02915 0,0 0.0275,-0.02554 0.0595,-0.03984 0.0915,-0.05581 0.0611,-0.03044 0.122,-0.06939 0.17053,-0.135909 0.0486,-0.06653 0.0846,-0.160793 0.0971,-0.235644 0.0125,-0.07488 0.002,-0.130405 -0.11627,-0.184485 -0.11784,-0.05405 -0.34293,-0.106544 -0.48989,-0.120406 -0.0367,-0.0036 -0.0682,-0.0043 -0.0961,-0.0036 v 5.17e-4 c -0.084,0.0036 -0.13307,0.02558 -0.1726,0.05994 -0.0527,0.04578 -0.0889,0.112166 -0.11937,0.278536 -0.0305,0.166365 -0.0555,0.433011 -0.0568,0.638204 -0.008,0.39288 0.0527,0.810199 0.5214,0.703319 -0.22849,0.212713 -0.003,0.113902 -0.28733,0.409281 -0.13863,0.14419 -0.32728,0.266022 -0.4992,0.199471 -0.16386,-0.06341 -0.31266,-0.298272 -0.40307,-0.296106 -0.0355,-0.702568 -0.0693,-1.31134 -0.0977,-1.717724 -0.047,-0.674485 -0.0781,-0.791928 -0.10955,-0.882117 -0.0314,-0.09017 -0.0634,-0.153288 -0.12609,-0.168982 -0.012,-0.0029 -0.0242,-0.0043 -0.0377,-0.0036 z m 20.98644,2.427248 c 0.14886,-0.0018 0.32289,0.07641 0.45114,0.170015 0.20518,0.14973 0.29378,0.338813 0.36587,0.599447 0.0721,0.260646 0.12755,0.593326 0.22738,0.865066 0.0998,0.27175 0.24373,0.48244 0.44338,0.65991 0.19965,0.17746 0.4551,0.32133 0.59376,0.19378 0.0517,-0.0477 0.0871,-0.13301 0.11059,-0.24391 -0.10119,1.96841 -0.1717,3.93787 -0.24133,5.90765 -0.0305,0.82908 -0.0581,1.1956 -0.22169,1.56993 -0.15644,0.35796 -0.43705,0.72331 -0.59221,0.92191 -0.0153,-0.0178 -0.0315,-0.0355 -0.0481,-0.0538 -0.22184,-0.24402 -0.55447,-0.54388 -0.75965,-0.84336 -0.16371,-0.23893 -0.24639,-0.47792 -0.23926,-0.58446 0.0201,-0.0222 0.0379,-0.0409 0.0543,-0.0563 0.0732,0.0163 0.20869,0.14991 0.32195,0.26665 0.007,0.0406 0.0141,0.0801 0.0176,0.12195 0.0108,0.13587 0.006,0.26911 0.0646,0.34675 0.0583,0.0776 0.17989,0.10006 0.28526,-0.0413 0.10536,-0.14141 0.19404,-0.44658 0.23564,-0.91519 0.0293,-0.33092 0.0354,-0.74342 0.0393,-1.21026 0.0105,-0.0305 0.0213,-0.0593 0.0346,-0.0853 0.12199,-0.23847 0.38807,-0.27175 0.67644,-0.76532 0.062,-0.10634 0.12543,-0.23391 0.18655,-0.37362 0.0287,-0.86139 0.0513,-1.41185 0.0817,-2.0035 -0.0514,0.002 -0.10647,0.007 -0.16226,0.015 -0.23056,0.0304 -0.48504,0.0846 -0.7152,0.13074 0.0554,-0.7457 0.1343,-1.46669 0.14727,-1.86914 0.0126,-0.3895 -0.0364,-0.48085 -0.10128,-0.47801 h -5.2e-4 c -0.006,2.9e-4 -0.0132,0.002 -0.0202,0.004 -0.0749,0.0222 -0.16373,0.13346 -0.23306,0.39688 -0.0694,0.26343 -0.11888,0.67945 -0.17157,1.15083 -0.0324,0.28952 -0.0662,0.59983 -0.0956,0.93379 0.002,-0.0211 0.004,-0.0421 0.006,-0.063 -0.14097,0.006 -0.26177,-0.0153 -0.36793,-0.094 -0.13245,-0.0983 -0.24179,-0.28547 -0.32815,-0.55139 -0.008,0.0374 -0.0183,0.0605 -0.0279,0.0977 0.0189,-0.0745 0.0395,-0.14967 0.0506,-0.22118 0.0332,-0.2135 0.0166,-0.38505 -0.0388,-0.49041 -0.0363,-0.0691 -0.0893,-0.10986 -0.14417,-0.12867 -0.0441,-0.29666 -0.0767,-0.61086 -0.10491,-0.88522 -0.0444,-0.43256 -0.0772,-0.76539 -0.1049,-1.18132 -0.0277,-0.415933 -0.0505,-0.914881 0.0992,-1.108979 0.0562,-0.07279 0.13651,-0.102797 0.22582,-0.103869 z m -19.76313,2.509408 c 0.0826,-0.005 0.15931,0.0541 0.22169,0.1726 0.11088,0.21074 0.17771,0.60961 0.21653,1.18081 0.0388,0.57121 0.0496,1.31473 0.0884,1.81384 0.0328,0.42199 0.0858,0.66962 0.0946,0.93379 -0.0821,0.008 -0.14532,0.0693 -0.19895,0.25167 -0.05,0.16999 -0.0917,0.44535 -0.10542,0.79013 -0.12814,0.0407 -0.27948,-0.0987 -0.38293,-0.33383 -0.122,-0.27728 -0.17743,-0.6878 -0.28835,-0.97617 -0.069,-0.17938 -0.1591,-0.31138 -0.2403,-0.36432 -0.004,-0.0866 -0.0104,-0.13368 -0.0145,-0.22117 -0.0397,-0.86265 -0.0773,-1.76134 -0.11575,-2.65204 0.0301,0.12275 0.0656,0.18718 0.11472,0.16537 0.0998,-0.0444 0.25503,-0.44397 0.41031,-0.63252 0.0679,-0.0825 0.13576,-0.12449 0.19999,-0.12816 z m 19.46806,3.89435 c 0.004,0.0125 0.008,0.0248 0.0114,0.0382 0.007,0.0291 0.0124,0.0603 0.0171,0.0935 -0.005,-0.0334 -0.0105,-0.0648 -0.0176,-0.094 -0.003,-0.0133 -0.007,-0.0253 -0.0109,-0.0377 z m -1.79472,2.389 c 8e-5,-9e-5 4.3e-4,9e-5 5.2e-4,0 -0.0145,0.0159 -0.0279,0.0335 -0.0398,0.0522 -0.0358,0.0562 -0.0604,0.1241 -0.0775,0.19896 -0.0229,0.0998 -0.0322,0.21187 -0.0377,0.32556 -0.0108,0.22737 -0.006,0.46038 0.006,0.72657 0.0108,0.26618 0.0283,0.56546 0.0367,0.7152 0.003,0.0561 0.005,0.0912 0.009,0.11369 0.002,0.009 0.005,0.0166 0.008,0.0222 -0.003,-0.006 -0.006,-0.0128 -0.008,-0.0222 -0.005,-0.0225 -0.007,-0.0575 -0.01,-0.11369 -0.008,-0.14972 -0.025,-0.44902 -0.0362,-0.7152 -0.012,-0.2662 -0.017,-0.49919 -0.006,-0.72657 0.005,-0.11369 0.0154,-0.22576 0.0382,-0.32556 0.0172,-0.0749 0.0418,-0.14281 0.0775,-0.19896 0.0119,-0.0187 0.0247,-0.0362 0.0393,-0.0522 z m 2.37091,0.24959 c 0.003,2.7e-4 0.007,9.8e-4 0.0103,0.002 -0.004,-6.2e-4 -0.007,-0.001 -0.0103,-0.002 z m 0.0119,0.002 c 0.005,9.7e-4 0.0106,0.002 0.016,0.004 0.004,0.001 0.009,0.003 0.0129,0.005 -0.004,-0.002 -0.009,-0.004 -0.0129,-0.005 -0.005,-0.002 -0.0107,-0.003 -0.016,-0.004 z m 0.0398,0.0155 0.009,0.006 c 0.005,0.004 0.0107,0.008 0.016,0.0129 0.0106,0.01 0.0208,0.022 0.0305,0.0367 -0.01,-0.0147 -0.02,-0.0268 -0.0305,-0.0367 -0.005,-0.005 -0.0106,-0.009 -0.016,-0.0129 z m -5.45496,0.0362 c 0.0118,0.0132 0.0225,0.026 0.032,0.0388 -0.01,-0.0128 -0.0201,-0.0255 -0.032,-0.0388 z m 5.51077,0.0196 c 0.005,0.008 0.0103,0.0157 0.015,0.0248 0.007,0.014 0.0138,0.0303 0.0202,0.0476 0.005,0.0128 0.009,0.0271 0.0134,0.0413 -0.004,-0.0143 -0.009,-0.0285 -0.0134,-0.0413 -0.006,-0.0175 -0.0138,-0.0339 -0.0212,-0.0481 -0.005,-0.009 -0.009,-0.0169 -0.0139,-0.0243 z m -5.47822,0.0196 c 0.01,0.0129 0.018,0.0253 0.0253,0.0377 0.002,0.003 0.003,0.006 0.005,0.008 -0.002,-0.003 -0.003,-0.005 -0.005,-0.008 -0.007,-0.0122 -0.0155,-0.0251 -0.0248,-0.0377 z m 5.1785,0.0289 v 5.2e-4 l -5.2e-4,5.2e-4 h -5.2e-4 c 3.6e-4,-4e-4 6.8e-4,-6.4e-4 10e-4,-0.001 z m -5.1263,0.0656 c 0.006,0.0154 0.01,0.0307 0.0119,0.045 -0.002,-0.0144 -0.006,-0.0294 -0.0119,-0.045 z m 5.48183,0.0269 c 0.007,0.0249 0.0114,0.0516 0.0165,0.0791 -0.005,-0.0272 -0.0101,-0.0544 -0.0165,-0.0791 z m -6.27507,0.0584 c 0.0832,0.002 0.17415,0.0132 0.26149,0.0326 0.17469,0.0388 0.33562,0.1104 0.43821,0.0909 0.0628,-0.0119 0.10359,-0.058 0.10749,-0.12299 -0.004,0.0651 -0.0441,0.11129 -0.10645,0.1235 0.0948,0.0441 0.19596,0.0872 0.2961,0.13023 0.38819,0.16636 0.76481,0.32161 0.99219,0.49351 0.16891,0.12771 0.25555,0.26505 0.15916,0.35657 -0.0207,0.0141 -0.0418,0.0279 -0.0636,0.0413 -0.0288,0.0136 -0.0645,0.0254 -0.10697,0.0351 -0.31612,0.0721 -1.02535,0.0274 -1.60765,-0.30541 -0.2484,-0.14194 -0.47396,-0.33611 -0.66818,-0.55242 -0.0118,-0.0245 -0.0209,-0.0472 -0.0279,-0.0687 -0.0415,-0.12754 -0.002,-0.1998 0.11059,-0.23306 0.0568,-0.0166 0.13225,-0.0233 0.21549,-0.0212 z m -10.66752,0.84543 c -0.25491,0.008 -0.38432,0.0944 -0.41962,0.19637 -0.0353,0.10188 0.0234,0.21961 0.17829,0.34313 0.15488,0.12352 0.4063,0.2531 0.62787,0.31781 0.22156,0.0648 0.41333,0.0646 0.55448,0.0176 0.14116,-0.047 0.23174,-0.14148 0.23565,-0.27285 0.004,-0.13137 -0.0787,-0.29951 -0.31006,-0.4191 -0.23136,-0.11964 -0.61173,-0.19076 -0.86661,-0.18293 z m 13.51959,0.0253 c 0.0135,0.0239 0.0251,0.0524 0.0351,0.0837 -0.0101,-0.0312 -0.0217,-0.0598 -0.0351,-0.0837 z m 2.5864,0.0615 c -0.0374,0.15782 -0.0624,0.2873 -0.10749,0.37982 0.0451,-0.0923 0.0702,-0.22227 0.10749,-0.37982 z m -0.10749,0.38034 c -0.015,0.0307 -0.0326,0.0569 -0.0532,0.0791 -9e-5,9e-5 9e-5,4.2e-4 0,5.1e-4 -0.0832,0.0888 -0.22158,0.10565 -0.29094,0.11369 -0.0217,0.003 -0.0368,0.004 -0.0475,0.004 0.0107,3.8e-4 0.0254,-0.002 0.047,-0.004 0.0694,-0.008 0.20827,-0.0249 0.29146,-0.11368 0.0207,-0.0221 0.0382,-0.0484 0.0532,-0.0791 z m -2.39365,0.0847 c -0.006,0.1941 -0.0439,0.33801 -0.0966,0.44338 0.0526,-0.10526 0.0911,-0.24957 0.0966,-0.44338 z m 1.98438,0.10749 c 0.003,0.002 0.007,0.003 0.0114,0.004 -0.005,-6.8e-4 -0.008,-0.002 -0.0114,-0.004 z m -1.24902,0.14624 c 0.008,0.002 0.0182,0.004 0.0305,0.006 -0.0123,-0.002 -0.0223,-0.004 -0.0305,-0.006 z m 3.10162,0.006 c 0.005,0.005 0.0118,0.01 0.0202,0.0145 -0.008,-0.005 -0.015,-0.01 -0.0202,-0.0145 z m -3.07062,5.1e-4 c 0.0338,0.006 0.085,0.0142 0.14263,0.0155 -0.0578,-0.001 -0.10861,-0.01 -0.14263,-0.0155 z m 3.39359,0.0109 c -0.0238,0.008 -0.047,0.0144 -0.0682,0.0191 -0.0229,0.005 -0.0442,0.008 -0.0641,0.01 0.0199,-0.002 0.0413,-0.005 0.0641,-0.01 0.0213,-0.005 0.0443,-0.0112 0.0682,-0.0191 z m -0.25424,0.0222 c 0.005,0.001 0.0108,0.003 0.0165,0.004 -0.006,-0.001 -0.0114,-0.002 -0.0165,-0.004 z m 0.0181,0.004 c 0.0127,0.002 0.0272,0.004 0.0424,0.005 -0.0154,-8.3e-4 -0.0296,-0.002 -0.0424,-0.005 z m 0.0956,0.004 c -0.0165,0.001 -0.0316,0.002 -0.046,0.002 0.0143,4.7e-4 0.0296,-2.6e-4 0.046,-0.002 z m -2.00194,1.06712 c 0.003,0.004 0.005,0.008 0.007,0.0129 -0.002,-0.004 -0.004,-0.009 -0.007,-0.0129 z m 0.009,0.0181 c 10e-4,0.004 0.002,0.008 0.003,0.0119 0.001,0.008 0.002,0.0156 0.002,0.0243 2.4e-4,-0.009 -6.8e-4,-0.0167 -0.002,-0.0243 -7.3e-4,-0.004 -0.001,-0.008 -0.003,-0.0119 z m 0.004,0.0496 c -0.004,0.032 -0.0185,0.0696 -0.0465,0.11214 0.0281,-0.0426 0.0427,-0.0802 0.0465,-0.11214 z m -0.0739,0.14987 c -0.0206,0.0258 -0.0455,0.0532 -0.076,0.0816 -0.005,0.004 -0.012,0.009 -0.0171,0.0139 0.005,-0.005 0.0115,-0.01 0.0165,-0.0145 0.0305,-0.0284 0.0559,-0.0553 0.0765,-0.0811 z" /></g></svg>
