<?xml version="1.0" encoding="UTF-8" standalone="no"?>
<!-- Created with Inkscape (http://www.inkscape.org/) -->

<svg
   width="32.290752mm"
   height="57.375668mm"
   viewBox="0 0 32.290752 57.375668"
   version="1.1"
   id="svg1"
   xml:space="preserve"
   xmlns="http://www.w3.org/2000/svg"
   xmlns:svg="http://www.w3.org/2000/svg"><defs
     id="defs1" /><g
     id="layer1"
     transform="translate(-111.31865,-56.46109)"><path
       id="path197"
       style="display:inline;opacity:1;fill:#ffffff;fill-rule:evenodd;stroke:#ffffff;stroke-width:0.18358;stroke-dasharray:none"
       d="m 125.98871,56.558409 c -4.21141,0.133082 -8.5004,0.349425 -12.58694,1.534232 -0.67698,0.256042 -1.47849,0.486158 -1.91558,1.094013 -0.17845,1.982868 0.01,3.994423 0.0476,5.987366 0.48231,9.517843 1.32816,19.054049 2.09268,28.56993 0.46852,5.63114 0.94617,11.26155 1.41833,16.8924 1.04495,1.77161 3.19614,2.2629 5.05506,2.63432 4.42,0.62724 8.95775,0.55922 13.35569,0.21729 2.20711,-0.31844 4.56876,-0.66519 6.14393,-2.38709 0.35027,-0.64837 0.18373,-1.44342 0.33507,-2.1539 1.43319,-14.413823 2.5741,-28.874286 3.38483,-43.32432 0.12093,-2.120011 0.22392,-4.243196 0.19254,-6.367303 -1.21284,-1.177962 -2.99607,-1.403728 -4.57184,-1.786115 -4.27741,-0.850142 -8.59811,-0.944012 -12.95146,-0.910823 z m 1.46086,1.020645 c 8.36036,9e-6 15.13792,1.18421 15.13854,2.645055 -5.9e-4,1.460854 -6.77816,2.645056 -15.13854,2.645065 -8.36058,2.7e-5 -15.13841,-1.184184 -15.139,-2.645065 6.1e-4,-1.460881 6.77844,-2.645083 15.139,-2.645055 z m -1.95015,0.4248 c -2.00966,0.08074 -4.04003,0.15672 -6.04905,0.377594 0.0108,0.09408 -0.0733,0.215455 -0.22013,0.336943 -0.22743,0.188219 -0.60389,0.376546 -0.97249,0.619674 -0.36861,0.24312 -0.72918,0.540826 -0.95662,0.838847 -0.22744,0.298022 -0.32174,0.596396 -0.44723,0.855206 -0.0862,0.177792 -0.18743,0.337072 -0.29815,0.45751 3.02408,0.605593 6.13643,0.732073 9.20957,0.818284 3.26513,0.02526 6.55133,-0.04936 9.79328,-0.478074 -0.33021,-0.04712 -0.57278,-0.135633 -0.74492,-0.280389 -0.34507,-0.29019 -0.40783,-0.807566 -0.54117,-1.278133 -0.13333,-0.470569 -0.33736,-0.894148 -0.65893,-1.121586 -0.32155,-0.227439 -0.7605,-0.258774 -1.09773,0.03925 -0.33725,0.29803 -0.57272,0.925192 -0.69819,1.348698 -0.12548,0.423508 -0.14106,0.643268 -0.24302,0.768752 -0.102,0.125486 -0.29003,0.156758 -0.38413,0.172438 -0.0941,0.01568 -0.0943,0.01572 -0.37667,-0.14113 -0.28234,-0.156846 -0.84705,-0.47044 -1.26271,-0.854736 -0.41567,-0.384295 -0.6821,-0.839136 -0.66641,-1.113637 0.0156,-0.274498 0.31351,-0.368929 0.95661,-0.564997 0.64312,-0.196068 1.63132,-0.494045 3.20772,-0.572467 0.0305,-0.0016 0.0611,-0.0029 0.092,-0.0041 -2.53996,-0.21419 -5.09458,-0.253339 -7.64169,-0.223849 z m 1.63236,0.719673 c 0.1248,-0.0065 0.25744,0.07432 0.34911,0.214508 0.1333,0.203908 0.18038,0.533219 0.18038,0.893993 0,0.360765 -0.0473,0.7529 -0.19628,0.972498 -0.14902,0.219598 -0.3998,0.266687 -0.52528,0.290208 -0.12548,0.02353 -0.12554,0.02354 -0.14906,-0.07056 -0.0235,-0.09412 -0.0706,-0.28225 -0.10188,-0.53322 -0.0313,-0.250959 -0.0472,-0.56506 -0.008,-0.894453 0.0392,-0.329394 0.13335,-0.674206 0.2902,-0.80754 0.049,-0.04166 0.10404,-0.06248 0.16077,-0.06544 z m -13.60477,4.138168 c 2.637,-0.100692 13.12906,2.645671 27.06047,0.221977 0.83017,-0.144431 1.51033,0.404822 1.48329,1.247297 -0.18738,5.835909 -1.60546,20.247556 -2.94087,29.573736 -0.1266,1.208781 -1.61226,2.396299 -3.77787,2.998828 -2.0334,0.565715 -4.62429,0.532978 -7.2884,0.52574 -0.13748,7.14e-4 -0.27505,0.0022 -0.41264,0.0022 -0.16583,0 -0.33162,-7.13e-4 -0.49725,-0.0029 -2.71814,0.0036 -5.44723,0.04442 -7.51412,-0.531344 -2.16563,-0.603278 -3.69283,-1.847884 -3.81945,-3.050704 -0.57429,-4.521148 -1.04738,-9.038449 -1.45525,-13.545889 -0.0557,-0.480109 -0.10896,-0.93965 -0.15794,-1.367386 -0.29947,-2.617581 -0.43263,-3.959601 -0.50472,-4.913461 -0.0721,-0.953858 -0.0828,-1.519735 -0.094,-1.935662 -0.01,-0.352128 -0.016,-0.594633 0.0149,-0.806137 -0.18349,-2.454459 -0.65045,-4.966751 -0.71969,-7.392153 -0.012,-0.41496 0.23815,-1.009169 0.62341,-1.02391 z m 0.83791,17.438709 c 0.0972,0.83721 0.20226,1.736818 0.30797,2.638516 -0.41174,-3.808717 -0.74333,-7.602748 -1.02858,-11.389647 0.21906,2.911841 0.45624,5.829466 0.72061,8.751131 z m 0.80848,-16.841462 c 0.25263,0.141518 0.39395,0.362635 0.48042,0.812205 0.1176,0.611734 0.13331,1.646667 0.25094,2.5329 0.1176,0.886244 0.33741,1.623588 -0.0233,2.243163 -0.0667,0.114636 -0.153,0.225142 -0.25283,0.330867 2.449,-0.867777 6.87548,-1.436545 11.85605,-1.436554 0.066,0 0.13158,2.25e-4 0.19722,4.69e-4 -0.17309,-0.05762 -0.2328,-0.160617 -0.27152,-0.321995 -0.047,-0.196058 -0.0626,-0.478806 -0.0626,-0.823889 0,-0.345084 0.0155,-0.75281 0.12524,-1.144945 0.1098,-0.392136 0.31349,-0.768391 0.41544,-0.956617 0.0455,-0.08387 0.0709,-0.130686 0.0912,-0.146737 -3.96074,-0.0506 -7.92269,-0.406632 -11.8509,-0.969705 -0.31791,-0.04408 -0.63637,-0.08407 -0.95521,-0.11916 z m 25.49072,0.09439 c -0.26558,-0.0072 -0.5424,0.04396 -0.76688,0.118704 -0.62705,0.106152 -1.25508,0.201982 -1.88379,0.287875 0.44993,-0.0248 0.87327,-0.04867 1.20804,-0.07338 0.47841,-0.03529 0.7762,-0.07258 0.96736,-0.07944 0.19117,-0.0068 0.27569,0.017 0.32666,0.103284 0.102,0.172537 0.0704,0.595908 0.0155,1.286075 -0.055,0.690175 -0.13318,1.64682 -0.13318,2.219333 0,0.572512 0.0785,0.761056 0.21964,0.996337 0.14117,0.235278 0.34522,0.517275 0.47854,0.90941 0.13332,0.392146 0.19571,0.894329 0.007,1.027654 -0.002,0.0019 -0.006,0.0038 -0.008,0.0056 -0.002,-0.0023 -0.005,-0.0043 -0.007,-0.0065 0.0391,0.04255 0.0749,0.08528 0.1056,0.128514 0.15919,-2.078277 0.29712,-4.158043 0.41032,-6.238789 -0.0862,-0.498312 -0.49764,-0.672604 -0.94026,-0.684631 z M 116.8282,63.67624 c 0.10716,0.01468 0.21426,0.0291 0.32151,0.04346 0.0268,0.03166 0.0521,0.06958 0.0743,0.11262 0.0887,0.171913 0.13294,0.426725 0.19394,0.848198 0.0611,0.421463 0.13882,1.009376 0.1832,1.547307 0.0444,0.537932 0.0552,1.026089 -0.0224,1.303374 -0.0776,0.277287 -0.24376,0.343701 -0.39349,0.321516 -0.14974,-0.02218 -0.28302,-0.132872 -0.34955,-0.188326 -0.0665,-0.05545 -0.0667,-0.05561 -0.0888,-0.221986 -0.0222,-0.166369 -0.0664,-0.49909 -0.0996,-0.915018 -0.0332,-0.415928 -0.0557,-0.915073 -0.0612,-1.336554 -0.006,-0.421472 0.006,-0.765253 0.0557,-1.036994 0.0401,-0.218125 0.105,-0.389668 0.18647,-0.477605 z m -3.4054,0.638366 c 0.0276,1.197929 0.0752,2.395867 0.13879,3.593263 0.012,-0.01504 0.0241,-0.02722 0.0373,-0.03691 0.1176,-0.08627 0.29052,0.03881 0.49444,-0.03178 0.20392,-0.07058 0.43926,-0.337034 0.50984,-0.776231 0.0456,-0.283535 0.0222,-0.638945 -0.0336,-0.969233 0.002,0.0031 0.004,0.0059 0.006,0.0089 -0.006,-0.009 -0.01,-0.01718 -0.0155,-0.03271 -0.0127,-0.0304 -0.0368,-0.08843 -0.0421,-0.239738 -0.0196,-0.08516 -0.0408,-0.166325 -0.0631,-0.241609 -0.12548,-0.423516 -0.28252,-0.658769 -0.5178,-0.862686 -0.15793,-0.13687 -0.35139,-0.259941 -0.51358,-0.411244 z m 21.28806,0.0065 c -2.22865,0.184963 -4.46394,0.254741 -6.69957,0.227113 0.0133,0.0108 0.0283,0.0342 0.0499,0.06776 0.0706,0.1098 0.21175,0.329311 0.36076,0.713606 0.14903,0.384294 0.30557,0.933278 0.40752,1.403846 0.102,0.470568 0.14913,0.863001 -0.0626,1.06691 -0.073,0.07026 -0.17673,0.1179 -0.29254,0.148608 -0.22179,-0.0034 -0.44499,-0.0055 -0.66922,-0.0065 2.65967,0.01567 5.06082,0.224934 7.17064,0.522937 -0.31487,-0.0446 -0.51425,-0.119844 -0.84586,-0.158889 -0.0917,-0.113892 -0.14665,-0.305782 -0.16309,-0.655188 -0.0314,-0.666635 0.078,-1.905838 0.25843,-2.595995 0.1014,-0.38793 0.22534,-0.602609 0.48556,-0.734163 z m -20.13377,1.785183 c 0.006,0.0094 0.0154,0.0204 0.0328,0.04159 -0.0176,-0.02155 -0.0265,-0.03208 -0.0328,-0.04159 z m 5.05318,2.552521 c -0.34507,0.01962 -0.93306,0.121405 -1.29775,0.203754 -0.70497,0.15821 -0.65542,0.08948 -0.63261,0.723542 0.0196,0.513695 0.0589,1.541339 0.1098,2.702074 0.002,0.06864 0.006,0.137854 0.01,0.207498 0.006,0.120808 0.0108,0.240289 0.0164,0.364507 0.004,0.0728 0.006,0.146457 0.01,0.220585 0.0234,0.508892 0.0488,1.050071 0.078,1.642181 0.0259,0.524601 0.055,1.089277 0.0865,1.7062 0.0863,1.686196 0.1954,3.764266 0.34442,6.211219 0.14901,2.446944 0.33756,5.262787 0.4748,6.99211 0.13726,1.729322 0.22355,2.372161 0.29021,2.913309 0.0611,0.49654 0.35163,2.172363 0.45079,2.423549 0.044,0.111624 0.0928,0.21559 0.15142,0.308902 v 4.7e-4 c 0.0978,0.155556 0.22438,0.281713 0.40563,0.364978 0.1222,0.05618 0.26952,0.09293 0.4248,0.107484 0.0853,0.0082 0.17303,0.009 0.26029,0.0036 0.0875,-0.0058 0.17463,-0.01876 0.25844,-0.03922 0.0419,-0.0102 0.0829,-0.02232 0.1229,-0.03644 0.0502,-0.01776 0.0985,-0.03844 0.14488,-0.06211 0.0926,-0.0475 0.17701,-0.107112 0.25095,-0.178054 0.0901,-0.08645 0.16491,-0.189662 0.22057,-0.308903 0.0328,-0.07024 0.0592,-0.145971 0.078,-0.227112 0.033,-0.142008 0.0431,-0.300188 0.0323,-0.528085 -0.01,-0.195673 -0.0342,-0.442759 -0.0738,-0.774814 -0.006,-0.04214 -0.0108,-0.08592 -0.0158,-0.130863 -0.006,-0.04835 -0.012,-0.09822 -0.0182,-0.150008 -0.0358,-0.286697 -0.0802,-0.62686 -0.13226,-1.035592 -0.2196,-1.721499 -0.58048,-4.654962 -0.81968,-7.694044 -0.23921,-3.039081 -0.35692,-6.183518 -0.41966,-8.371654 -0.0326,-1.135378 -0.0496,-1.986832 -0.0641,-2.719837 -0.002,-0.08754 -0.004,-0.172998 -0.006,-0.256557 -0.002,-0.114072 -0.005,-0.204605 -0.006,-0.312175 -0.006,-0.264951 -0.0108,-0.511398 -0.0163,-0.746787 -0.005,-0.159885 -0.01,-0.314588 -0.0136,-0.466389 -0.0353,-1.082302 -0.098,-2.015733 -0.18038,-2.513747 -0.0806,-0.483873 -0.18386,-0.562195 -0.52496,-0.543571 z m 18.87386,0.468736 c 0.36618,0.103776 0.72458,0.209244 1.02672,0.323388 -0.30314,-0.11454 -0.65911,-0.219272 -1.02672,-0.323388 z m 1.63893,0.580878 c 0.0358,0.01724 0.0634,0.03539 0.0977,0.05281 -0.0343,-0.01742 -0.0618,-0.03556 -0.0977,-0.05281 z m 0.50658,0.285541 c 0.10452,0.0684 0.20439,0.137332 0.28646,0.20796 -0.0821,-0.0707 -0.18183,-0.139501 -0.28646,-0.20796 z m -18.25279,0.0243 -4.7e-4,4.69e-4 c -0.15838,0.0036 -0.3088,0.06828 -0.42527,0.179916 -0.13309,0.127547 -0.22195,0.31591 -0.26077,0.565469 -0.0388,0.24955 -0.0276,0.560242 -0.0331,1.136995 -0.002,0.323226 -0.012,0.729939 -0.006,1.172518 0.002,0.184908 0.006,0.376229 0.0145,0.570144 0.007,0.170159 0.0172,0.342479 0.0308,0.514518 0.0665,0.837401 0.22182,1.668879 0.33273,2.256721 0.11088,0.587842 0.17714,0.93175 0.38788,1.131398 0.21073,0.19964 0.5659,0.25522 0.77108,0.09439 0.20519,-0.160826 0.26052,-0.537841 0.23834,-1.32533 -0.0186,-0.660888 -0.0918,-1.610976 -0.16403,-2.538519 -0.0138,-0.177692 -0.0277,-0.354678 -0.0412,-0.528545 -7.2e-4,-0.01646 -0.002,-0.0326 -0.004,-0.04907 -0.0814,-1.061357 -0.14778,-2.00536 -0.27339,-2.529627 -0.12754,-0.532378 -0.3161,-0.632017 -0.49911,-0.648648 -0.0229,-0.0018 -0.0455,-0.0028 -0.0682,-0.0028 z m -6.84165,26.575846 c 0.01,2.5e-4 0.0192,0.0022 0.028,0.0043 0.0628,0.01576 0.0943,0.07859 0.12571,0.168712 0.0314,0.09016 0.0628,0.207824 0.1098,0.88231 0.0284,0.406314 0.0626,1.01452 0.0982,1.716951 0.0905,-0.0022 0.23897,0.232845 0.40283,0.296287 0.17193,0.06653 0.36047,-0.05533 0.49911,-0.199553 0.10872,-0.113124 0.18702,-0.240197 0.22899,-0.375259 -0.07,0.0246 -0.16196,0.01512 -0.23039,-0.01961 -0.0901,-0.04578 -0.14002,-0.134585 -0.16497,-0.178987 -0.025,-0.04442 -0.0248,-0.04428 -0.036,-0.116364 -0.0108,-0.07207 -0.0331,-0.216338 -0.0317,-0.421524 7.1e-4,-0.205193 0.0265,-0.471539 0.057,-0.637905 0.0305,-0.166374 0.0665,-0.232767 0.11916,-0.278524 0.0395,-0.03437 0.0884,-0.05719 0.17245,-0.06076 0.028,-7.13e-4 0.0595,-2.21e-4 0.0962,0.0036 0.14696,0.01384 0.3719,0.06646 0.48976,0.120565 0.1182,0.05405 0.12884,0.109716 0.1164,0.184592 -0.0125,0.07487 -0.0486,0.16897 -0.0972,0.235528 -0.0486,0.0666 -0.10956,0.105516 -0.17057,0.135996 -0.0319,0.0159 -0.0637,0.0293 -0.0912,0.0547 0.008,-7.13e-4 0.0158,-0.0022 0.0244,-0.0029 0.12761,-0.0036 0.31242,0.113244 0.48275,0.551916 0.183,0.471368 0.34952,1.314195 0.47152,2.778248 0.12201,1.46406 0.1994,3.54919 0.3103,4.78587 0.11088,1.2367 0.25526,1.62511 0.38834,1.93566 0.13311,0.31057 0.25508,0.54329 0.37154,0.81502 0.1164,0.27174 0.22765,0.58232 0.39957,0.87624 0.17191,0.29393 0.40447,0.57134 0.67621,0.88746 0.24388,0.28368 0.51948,0.59853 0.4491,0.73229 0.29289,0.0641 0.58305,0.12979 0.91269,0.19068 0.7958,0.14695 1.62731,0.25804 2.55066,0.31076 0.92335,0.0527 1.93825,0.047 3.21099,0.0304 1.27274,-0.0167 2.80353,-0.0444 3.93208,-0.12758 0.46914,-0.0347 0.86888,-0.0787 1.21972,-0.12945 -0.0444,-0.005 -0.0862,-0.01 -0.12478,-0.0145 -0.44365,-0.0554 -0.47699,-0.111 -0.50471,-0.21638 -0.0277,-0.10536 -0.0498,-0.26062 -0.24395,-0.45471 -0.18244,-0.18246 -0.51627,-0.39958 -0.88278,-0.59538 -0.27616,0.005 -0.53239,0.007 -0.7365,0.007 -0.67658,0 -0.78192,-0.0276 -0.82903,-0.0748 -0.0472,-0.0472 -0.036,-0.11388 0.086,-0.23037 0.0595,-0.0568 0.14567,-0.12546 0.22899,-0.19955 -0.0598,-0.0155 -0.12158,-0.0304 -0.18459,-0.0444 -0.54903,-0.122 -1.22563,-0.18859 -1.83566,-0.29395 -0.61002,-0.10536 -1.15342,-0.24921 -1.32534,-0.42666 -0.17191,-0.17747 0.028,-0.38834 0.34957,-0.55473 0.32165,-0.16637 0.76494,-0.2883 1.00895,-0.49349 0.0725,-0.061 0.12744,-0.12953 0.16964,-0.20375 -0.38175,-0.0267 -0.81912,-0.002 -1.22018,0.0649 -0.59616,0.0998 -1.11186,0.29392 -1.57769,0.49911 -0.46583,0.20519 -0.88175,0.4213 -1.16458,0.52668 -0.28284,0.10536 -0.43264,0.1 -0.50752,0.0972 -0.0749,-0.002 -0.075,-0.002 -0.0888,-0.0304 -0.0138,-0.0277 -0.0418,-0.0834 0.0248,-0.1832 0.0665,-0.0998 0.22736,-0.24376 0.62388,-0.47667 0.39651,-0.23292 1.02872,-0.55487 1.5417,-0.7767 0.51297,-0.22182 0.90661,-0.34346 1.4473,-0.42947 0.27035,-0.0429 0.57744,-0.0771 0.90429,-0.0893 0.0619,-0.003 0.12458,-0.004 0.18786,-0.004 0.0229,-0.26001 0.0388,-0.53536 0.0476,-0.81362 0.0108,-0.34937 0.0108,-0.70406 0.0613,-1.26972 0.0499,-0.56565 0.14947,-1.34199 0.31029,-2.0352 0.16083,-0.69322 0.38258,-1.30352 0.4935,-1.60853 0.0624,-0.17157 0.0898,-0.24633 0.12431,-0.24955 0.027,-0.003 0.0587,0.0384 0.11448,0.11123 0.12755,0.16637 0.38233,0.49918 0.47107,1.38094 0.0887,0.88175 0.0108,2.31237 -0.0276,3.23295 -0.0287,0.68211 -0.0364,1.08435 0.0542,1.45666 0.4043,0.10388 0.77448,0.23372 1.05196,0.35143 0.2213,0.0939 0.38146,0.17967 0.4991,0.2589 -0.0524,-0.0354 -0.11124,-0.0716 -0.18272,-0.10983 0.1269,-0.12227 0.31217,-0.27587 0.44069,-0.50985 0.21629,-0.39374 0.27182,-1.01458 0.29955,-1.72442 0.0277,-0.70985 0.0275,-1.50855 0.0607,-2.46795 0.0332,-0.9594 0.1002,-2.07943 0.0336,-2.68946 -0.0665,-0.610032 -0.2666,-0.71009 -0.49396,-0.854273 -0.22738,-0.14419 -0.48207,-0.332476 -0.58743,-0.476673 -0.0592,-0.08084 -0.0712,-0.148239 -0.0271,-0.206091 -0.026,0.0043 -0.0533,0.01 -0.0814,0.0149 -0.60726,0.108132 -1.67208,0.235235 -2.50393,0.287867 -0.33377,0.02118 -0.61555,0.02417 -0.89258,0.02431 0.0505,-3.6e-5 0.0925,0.0058 0.14439,0.0058 0.005,0.07163 -0.072,0.143818 -0.22197,0.222919 -0.30501,0.160819 -0.91508,0.349647 -1.83566,0.399561 -0.92058,0.04992 -2.15186,-0.03914 -2.84508,-0.200023 -0.6932,-0.160818 -0.84856,-0.393507 -0.88184,-0.604241 -0.0332,-0.21074 0.0558,-0.399162 0.69352,-0.487888 0.30458,-0.04243 0.73443,-0.06211 1.20428,-0.06076 0.45772,7.12e-4 0.95216,0.02368 1.40713,0.06311 0.97459,-0.009 2.50801,-0.02225 3.70776,-0.05519 1.31709,-0.03608 2.11542,-0.09139 2.51748,-0.0748 v 4.7e-4 c 0.40201,0.01662 0.40762,0.105216 0.33555,0.193934 -0.0108,0.01348 -0.0239,0.0271 -0.0397,0.04072 0.18789,-0.02666 0.39361,-0.04406 0.58881,-0.04678 0.3993,-0.0058 0.75406,0.04985 0.85942,0.493487 0.10536,0.443651 -0.0388,1.275791 -0.12757,2.190821 -0.0887,0.91504 -0.12201,1.91309 -0.0832,2.90022 0.0388,0.98713 0.15012,1.96291 0.28321,2.60066 0.13309,0.63776 0.2882,0.9372 0.52668,1.08139 0.23846,0.1442 0.56004,0.13323 0.74304,0.0112 0.18301,-0.122 0.22759,-0.35472 0.31077,-0.89819 0.0832,-0.54348 0.2051,-1.39748 0.28274,-2.32916 0.0776,-0.93167 0.11076,-1.94125 0.11076,-2.68991 1e-5,-0.74868 -0.0331,-1.23632 -0.0664,-1.75761 -0.0334,-0.521304 -0.0666,-1.076222 -0.0444,-1.447781 0.0222,-0.371559 0.0998,-0.560017 0.25516,-0.698652 0.15527,-0.138627 0.38816,-0.227084 0.70426,-0.265903 0.0791,-0.0097 0.16308,-0.01626 0.24955,-0.01919 0.25943,-0.0082 0.53944,0.01626 0.75988,0.09113 0.2939,0.09982 0.48234,0.288244 0.65425,0.487882 0.007,0.0082 0.0144,0.01682 0.0215,0.02525 -0.01,-0.01733 -0.0168,-0.03572 -0.0271,-0.05284 -0.0998,-0.16636 -0.22202,-0.316189 -0.39116,-0.424326 -0.16914,-0.108144 -0.38535,-0.174682 -0.4935,-0.20796 -0.10812,-0.0333 -0.108,-0.03316 0.014,-0.11076 0.12199,-0.07768 0.36609,-0.232945 0.54909,-0.335543 0.18301,-0.102624 0.30514,-0.15281 0.42714,-0.15281 0.12201,0 0.24402,0.0502 0.29115,0.233194 0.0472,0.18301 0.0193,0.498836 0.0248,0.850992 0.006,0.352157 0.0442,0.740495 0.0276,0.929045 0.006,-0.06617 0.005,-0.156983 7e-4,-0.26216 0.0233,0.02004 0.0468,0.03914 0.0709,0.05698 0.18857,0.138642 0.41048,0.205285 0.54912,0.465933 0.0787,0.147834 0.13083,0.357976 0.16403,0.590229 -0.014,-0.353133 -0.0289,-0.658484 -0.0196,-0.93979 0.0166,-0.504654 0.11088,-0.931561 0.19955,-1.280951 0.0887,-0.349376 0.17209,-0.62134 0.26636,-0.812671 0.0943,-0.191324 0.19967,-0.301885 0.29116,-0.346289 0.0229,-0.01152 0.0446,-0.01868 0.0654,-0.01961 0.062,-0.0036 0.11268,0.04243 0.13974,0.177591 0.0361,0.180235 0.0305,0.518508 0,0.998204 -0.0305,0.479697 -0.0862,1.100944 -0.1416,1.59451 -0.0554,0.493566 -0.11088,0.859346 -0.12198,1.269726 -0.0108,0.41039 0.0223,0.86505 0.0108,1.36692 -0.0108,0.50189 -0.0667,1.05119 -0.1,1.69172 -0.0332,0.64053 -0.0444,1.37237 -0.0748,1.9824 -0.0306,0.61002 -0.0803,1.09817 -0.11352,1.55292 -0.0334,0.45474 -0.0502,0.87591 -0.0696,1.18093 -0.0194,0.30501 -0.0414,0.49362 -0.23554,0.75427 -0.19408,0.26064 -0.56,0.59335 -0.82342,0.74585 -0.0475,0.0276 -0.0918,0.0491 -0.13272,0.066 0.013,0.0922 -0.0191,0.18343 -0.114,0.28086 -0.21628,0.22183 -0.75962,0.47697 -1.31973,0.75426 -0.31817,0.15751 -1.33262,0.66147 -1.80245,0.81507 -0.57676,0.18854 -1.52506,0.43253 -2.58152,0.57948 -1.05644,0.14692 -2.22116,0.19703 -3.51054,0.21918 -1.28937,0.0222 -2.70339,0.0166 -3.82084,-0.0444 -1.11746,-0.0611 -1.9384,-0.17755 -2.68152,-0.34115 -0.74312,-0.16361 -1.4082,-0.37405 -1.83798,-0.51546 -0.4298,-0.14142 -0.62388,-0.21356 -0.70708,-0.29955 -0.0776,-0.0803 -0.0584,-0.17225 -0.0444,-0.22479 -0.0476,-0.0196 -0.0961,-0.0397 -0.14441,-0.0607 -0.69875,-0.305 -1.44165,-0.76009 -1.81321,-0.98747 -0.0311,-0.0191 -0.0598,-0.0362 -0.086,-0.0523 -0.0664,0.0482 -0.19224,0.0728 -0.35236,0.0136 -0.16959,-0.0628 -0.37742,-0.21966 -0.56172,-0.41966 -0.1843,-0.19999 -0.34488,-0.44309 -0.42526,-0.64211 -0.0804,-0.199 -0.0804,-0.35392 -0.0804,-0.43133 0,-0.0774 -3.5e-4,-0.0776 -0.0828,-1.35992 -0.0823,-1.28228 -0.24706,-3.84663 -0.3608,-5.68968 -0.11376,-1.843044 -0.176,-2.96471 -0.19953,-3.666634 -0.0235,-0.701925 -0.008,-0.983886 0.0468,-1.140741 0.0445,-0.127438 0.11532,-0.172562 0.17385,-0.176178 v -4.7e-4 c 0.004,-2.28e-4 0.006,-5.56e-4 0.01,-4.7e-4 z m 22.01896,1.967437 c 0.0132,0.02788 0.0284,0.05533 0.0402,0.0832 -0.012,-0.02809 -0.0269,-0.05497 -0.0402,-0.0832 z m -1.04213,0.45938 c -0.0894,7.14e-4 -0.16957,0.03095 -0.22571,0.103752 -0.14973,0.194091 -0.12727,0.693033 -0.0996,1.10896 0.0277,0.41593 0.0607,0.74884 0.10512,1.1814 0.0281,0.2746 0.061,0.58916 0.10512,0.88605 -0.007,-0.003 -0.0143,-0.004 -0.0215,-0.006 0.0624,0.0151 0.12474,0.0563 0.1659,0.1346 0.0554,0.10536 0.0721,0.27718 0.0388,0.49068 -0.006,0.0399 -0.0143,0.0812 -0.0233,0.12291 0.0864,0.26573 0.19613,0.45275 0.32853,0.55098 0.1062,0.0788 0.2268,0.10062 0.36778,0.0939 -0.0208,0.22908 -0.0394,0.46927 -0.0547,0.72154 0.0361,-0.59339 0.0917,-1.12032 0.1444,-1.5917 0.0527,-0.47139 0.1026,-0.88713 0.17198,-1.15056 0.0694,-0.26342 0.15784,-0.37461 0.23272,-0.39676 0.007,-0.002 0.0142,-0.004 0.0205,-0.004 0.0649,-0.003 0.114,0.0885 0.1014,0.47807 -0.013,0.40252 -0.0917,1.12345 -0.1472,1.8693 0.23018,-0.0461 0.48486,-0.1004 0.71546,-0.13085 0.056,-0.007 0.11112,-0.0134 0.16264,-0.0149 0.0419,-0.82865 0.0886,-1.57368 0.10416,-2.20577 -0.0233,0.11216 -0.0589,0.19822 -0.11124,0.24627 -0.13865,0.12756 -0.39387,-0.0165 -0.59351,-0.19393 -0.19965,-0.17746 -0.34367,-0.38812 -0.4435,-0.65987 -0.0998,-0.27174 -0.15549,-0.60437 -0.22758,-0.865018 -0.0721,-0.260642 -0.16073,-0.449384 -0.36591,-0.599114 -0.12826,-0.09358 -0.30212,-0.171892 -0.45098,-0.170103 z m -19.76272,2.509542 c -0.0642,0.004 -0.13207,0.046 -0.20001,0.12851 -0.15527,0.18855 -0.31049,0.58792 -0.41032,0.6323 -0.0491,0.0218 -0.0388,1.62418 9.6e-4,2.4871 0.004,0.0808 0.01,0.13961 0.0127,0.21965 0.0816,0.0523 0.17223,0.18504 0.24161,0.36545 0.11088,0.28837 0.16634,0.69849 0.28834,0.97577 0.10356,0.23544 0.25542,0.37502 0.38367,0.33367 0.0138,-0.34442 0.0552,-0.61898 0.10512,-0.78885 0.0536,-0.1824 0.117,-0.24385 0.19908,-0.25189 -0.01,-0.26432 -0.0616,-0.51198 -0.0944,-0.93418 -0.0388,-0.49911 -0.05,-1.24247 -0.0888,-1.81369 -0.0388,-0.5712 -0.10548,-0.97019 -0.21636,-1.18092 -0.0624,-0.11854 -0.13892,-0.17764 -0.22152,-0.17292 z m 21.76989,3.94142 c -0.0611,0.13968 -0.12435,0.26753 -0.18647,0.37387 -0.28837,0.49356 -0.55468,0.527 -0.67668,0.76548 -0.0136,0.0267 -0.0252,0.056 -0.0355,0.0874 7.2e-4,-0.12859 0.002,-0.26139 0.002,-0.3977 -0.006,0.62972 -0.005,1.18379 -0.0421,1.60527 -0.0415,0.46861 -0.13015,0.77361 -0.23552,0.91501 -0.10536,0.14142 -0.22731,0.11919 -0.28554,0.0416 -0.0586,-0.0777 -0.0529,-0.21089 -0.0641,-0.34676 -0.004,-0.042 -0.0108,-0.0817 -0.0178,-0.12243 -0.1134,-0.1169 -0.24906,-0.25022 -0.322,-0.26591 -0.0166,0.0155 -0.0343,0.0341 -0.0547,0.0565 -0.007,0.10667 0.0757,0.34542 0.23927,0.58416 0.20519,0.29949 0.53803,0.59906 0.75986,0.84307 0.0168,0.0185 0.0328,0.0365 0.0481,0.0542 0.15519,-0.1986 0.43567,-0.5641 0.59211,-0.92204 0.16356,-0.37434 0.1915,-0.74066 0.22197,-1.56975 0.0169,-0.45944 0.0347,-1.06108 0.056,-1.702 z m -7.10428,2.67623 c 0.0122,0.0158 0.0236,0.0316 0.0328,0.0468 -0.01,-0.0153 -0.0203,-0.0309 -0.0328,-0.0468 z m -0.73278,0.1888 c -0.0832,-0.002 -0.15906,0.004 -0.21589,0.0215 -0.11352,0.0333 -0.15236,0.10519 -0.11076,0.23273 0.007,0.0213 0.0164,0.0444 0.028,0.0687 0.19424,0.21635 0.41939,0.41043 0.66781,0.55239 0.5823,0.33274 1.29196,0.37725 1.60806,0.30516 0.0438,-0.01 0.0805,-0.0223 0.1098,-0.0365 0.0198,-0.0122 0.0391,-0.025 0.058,-0.0379 0.1002,-0.0916 0.0138,-0.2297 -0.15655,-0.35844 -0.22738,-0.1719 -0.6044,-0.32712 -0.99259,-0.49349 -0.10008,-0.0429 -0.20107,-0.0863 -0.29583,-0.13039 h -4.6e-4 -4.7e-4 c -0.1026,0.0195 -0.2632,-0.0523 -0.43788,-0.0911 -0.0874,-0.0193 -0.178,-0.0306 -0.26124,-0.0327 z m -10.66809,0.8454 c 0.25489,-0.008 0.63553,0.0631 0.86688,0.18271 0.23134,0.11964 0.31346,0.28782 0.30985,0.4192 -0.004,0.13137 -0.0944,0.22588 -0.23554,0.27291 -0.14115,0.0472 -0.33315,0.047 -0.55471,-0.0178 -0.22157,-0.0648 -0.47273,-0.19425 -0.62761,-0.31778 -0.15493,-0.12353 -0.21381,-0.24107 -0.17854,-0.34302 0.0353,-0.102 0.16477,-0.18814 0.41967,-0.19627 z" /></g></svg>
